<svg width="200" height="90" fill="none" xmlns="http://www.w3.org/2000/svg"><g clip-path="url(#clip0)"><path d="M94.408 22.735c2.046-.092 4.052.547 5.601 1.783a6.391 6.391 0 011.653 2.298 5.96 5.96 0 01.453 2.726 6.134 6.134 0 01-.479 2.722 6.566 6.566 0 01-1.645 2.302c-1.531 1.259-3.535 1.914-5.583 1.826h-4.012v6.096h-5.193V22.735h9.205zm-.245 9.085c1.815 0 2.66-.754 2.66-2.253 0-1.498-.908-2.26-2.66-2.26h-3.767v4.513h3.767zm26.025-4.514h-9.54v2.94h8.678v4.563h-8.678v3.107h9.54v4.572h-14.742V22.734h14.742v4.572zm5.519-1.984c2.146-1.891 4.999-2.947 7.966-2.947 2.968 0 5.821 1.056 7.966 2.947a9.844 9.844 0 012.445 3.356 9.172 9.172 0 01.777 3.98 9.178 9.178 0 01-.787 3.952 9.851 9.851 0 01-2.435 3.333c-2.145 1.89-4.998 2.946-7.966 2.946-2.967 0-5.82-1.055-7.966-2.947a9.857 9.857 0 01-2.439-3.331 9.17 9.17 0 01-.792-3.954 9.179 9.179 0 01.781-3.98 9.849 9.849 0 012.45-3.355zm12.219 3.216c-1.137-1.026-2.663-1.6-4.253-1.6-1.59 0-3.116.574-4.253 1.6a5.584 5.584 0 00-1.295 1.901 5.22 5.22 0 00-.384 2.218 5.23 5.23 0 00.394 2.192 5.562 5.562 0 001.285 1.878c1.137 1.026 2.663 1.6 4.253 1.6 1.59 0 3.116-.575 4.253-1.6a5.56 5.56 0 001.285-1.878 5.198 5.198 0 00.394-2.192 5.22 5.22 0 00-.384-2.217 5.57 5.57 0 00-1.295-1.902zm19.482-5.803c2.043-.092 4.046.547 5.592 1.783a6.407 6.407 0 011.657 2.297c.365.868.521 1.798.458 2.727a6.126 6.126 0 01-.483 2.723 6.562 6.562 0 01-1.651 2.301c-1.526 1.26-3.527 1.919-5.573 1.834h-3.995v6.096h-5.201V22.734h9.196zm-.218 9.085c1.815 0 2.66-.754 2.66-2.253 0-1.498-.908-2.26-2.66-2.26h-3.777v4.513h3.777zm16.485 6.096h8.688v4.572h-13.889V22.734h5.201v15.182zM200 27.306h-9.541v2.94h8.687v4.563h-8.687v3.107H200v4.572h-14.733V22.734H200v4.572zM87.927 58.147a6.475 6.475 0 01-2.025-.327 3.828 3.828 0 01-1.634-.954.513.513 0 01-.13-.198.48.48 0 01-.024-.23.676.676 0 01.499-.529.707.707 0 01.263-.015.703.703 0 01.454.21c.299.307.677.54 1.099.678.484.17.998.252 1.516.243a3.23 3.23 0 001.815-.41c.174-.111.317-.257.42-.427.102-.17.16-.36.17-.553a1.049 1.049 0 00-.16-.545 1.163 1.163 0 00-.43-.402 5.309 5.309 0 00-1.942-.586 5.46 5.46 0 01-2.56-.896 1.97 1.97 0 01-.599-.67 1.805 1.805 0 01-.218-.845c-.017-.49.15-.968.472-1.357.32-.382.752-.672 1.243-.837a5.086 5.086 0 011.716-.276c.687-.016 1.37.11 1.997.368a3.599 3.599 0 011.362.988.505.505 0 01-.136.804.711.711 0 01-.481.067.803.803 0 01-.454-.226 2.624 2.624 0 00-1.008-.678 3.739 3.739 0 00-1.316-.218 2.816 2.816 0 00-1.525.36 1.14 1.14 0 00-.348.298 1.04 1.04 0 00-.19.402 1 1 0 00-.003.438c.032.144.095.282.187.403.196.219.453.384.744.477.476.172.973.29 1.48.352a6.816 6.816 0 012.051.569c.44.198.813.502 1.08.88.21.33.32.705.318 1.088.006.478-.163.945-.48 1.323-.352.381-.806.67-1.317.837a5.23 5.23 0 01-1.906.394zm10.113.016a4.91 4.91 0 01-2.198-.477 3.628 3.628 0 01-1.534-1.382 4.16 4.16 0 01-.563-2.219V49.9a.538.538 0 01.047-.232.577.577 0 01.144-.195.725.725 0 01.454-.158c.167 0 .328.056.454.158a.57.57 0 01.143.195.538.538 0 01.047.232v4.186a2.981 2.981 0 00.409 1.675c.257.413.643.746 1.107.955a4.054 4.054 0 003.114 0 2.678 2.678 0 001.089-.838c.262-.352.398-.77.391-1.197h.907a3.339 3.339 0 01-.581 1.779c-.362.534-.873.97-1.48 1.26a4.539 4.539 0 01-1.95.444zm3.812-.1a.722.722 0 01-.259-.04.683.683 0 01-.222-.128.62.62 0 01-.142-.208.565.565 0 01-.04-.244v-7.536a.586.586 0 01.182-.435.759.759 0 01.481-.168c.177 0 .348.06.481.168a.579.579 0 01.145.199.536.536 0 01.045.236v7.536a.544.544 0 01-.042.245.585.585 0 01-.148.207.702.702 0 01-.454.168h-.027zm7.125.084a6.47 6.47 0 01-2.024-.327 3.833 3.833 0 01-1.634-.954.514.514 0 01-.13-.198.473.473 0 01-.024-.23.671.671 0 01.499-.529.703.703 0 01.263-.015.7.7 0 01.436.21c.299.307.676.54 1.098.678.484.17.999.252 1.516.243.637.043 1.273-.1 1.816-.41.175-.11.319-.255.422-.425.102-.17.16-.36.168-.555a1.043 1.043 0 00-.161-.545 1.16 1.16 0 00-.429-.402 5.37 5.37 0 00-1.943-.586 5.46 5.46 0 01-2.56-.896 1.965 1.965 0 01-.598-.67 1.8 1.8 0 01-.219-.845 2.024 2.024 0 01.472-1.357 2.779 2.779 0 011.244-.837 5.084 5.084 0 011.716-.276 4.978 4.978 0 011.997.368 3.599 3.599 0 011.361.988.519.519 0 01.137.436.489.489 0 01-.09.213.53.53 0 01-.183.155.72.72 0 01-.481.067.801.801 0 01-.454-.226 2.624 2.624 0 00-1.007-.678 3.745 3.745 0 00-1.317-.218 2.817 2.817 0 00-1.525.36 1.119 1.119 0 00-.353.296.991.991 0 00-.001 1.245c.198.217.455.381.745.477.475.172.972.29 1.479.352a6.812 6.812 0 012.052.569 2.66 2.66 0 011.08.88c.209.33.319.705.318 1.088.006.478-.163.945-.481 1.323-.35.379-.8.668-1.307.837a5.323 5.323 0 01-1.898.394zm6.7-3.643a.688.688 0 01-.266-.039.643.643 0 01-.37-.345.572.572 0 01-.045-.244v-7.662a.557.557 0 01.188-.452.683.683 0 01.493-.167.667.667 0 01.256.037.622.622 0 01.216.13.568.568 0 01.182.452v7.662a.566.566 0 01-.182.452.67.67 0 01-.472.176zm0 3.559a.718.718 0 01-.264-.037.673.673 0 01-.226-.13.55.55 0 01-.191-.435v-7.537a.558.558 0 01.191-.452.67.67 0 01.226-.13.716.716 0 01.264-.038.7.7 0 01.472.168.567.567 0 01.182.452v7.536a.562.562 0 01-.182.435.7.7 0 01-.472.167zm7.444 0a.67.67 0 01-.474-.17.585.585 0 01-.198-.433v-4.187a2.985 2.985 0 00-.408-1.633 2.521 2.521 0 00-1.108-.954 3.735 3.735 0 00-1.589-.319 3.805 3.805 0 00-1.534.302 2.683 2.683 0 00-1.08.837c-.264.352-.404.77-.399 1.198h-.953a3.318 3.318 0 01.59-1.792 3.874 3.874 0 011.47-1.248 4.598 4.598 0 012.043-.46 4.955 4.955 0 012.206.477c.649.313 1.181.8 1.525 1.398.397.68.592 1.447.562 2.22v4.186c0 .16-.068.313-.191.426a.684.684 0 01-.462.177v-.025zm4.538-10.392a.951.951 0 01-.642-.245.806.806 0 01-.265-.592.78.78 0 01.066-.346.845.845 0 01.215-.29c.183-.146.416-.226.658-.226.242 0 .475.08.658.225a.796.796 0 01.282.636.807.807 0 01-.266.593.95.95 0 01-.642.245h-.064zm0 10.392a.733.733 0 01-.49-.168.602.602 0 01-.141-.209.564.564 0 01-.04-.243V49.95a.564.564 0 01.04-.244.601.601 0 01.141-.209.699.699 0 01.49-.167.7.7 0 01.481.167.58.58 0 01.182.452v7.495a.58.58 0 01-.399.58.705.705 0 01-.255.04h-.009zm12.011.109a4.603 4.603 0 01-1.943-.369 2.936 2.936 0 01-1.273-1.063 2.61 2.61 0 01-.434-1.533 2.956 2.956 0 01.69-1.892 10.402 10.402 0 012.097-1.876l1.453-1.055a4.336 4.336 0 001.116-1.114c.238-.352.367-.757.372-1.172a1.495 1.495 0 00-.134-.636 1.606 1.606 0 00-.395-.536 1.762 1.762 0 00-.593-.348 1.873 1.873 0 00-.693-.105 1.903 1.903 0 00-1.289.453 1.428 1.428 0 00-.383.48 1.334 1.334 0 00-.135.583 1.96 1.96 0 00.218.913c.17.313.397.596.672.837l7.734 7.202a.823.823 0 01.245.385.423.423 0 01-.038.207.468.468 0 01-.134.17.542.542 0 01-.198.16.592.592 0 01-.512 0 .542.542 0 01-.198-.16l-7.852-7.244a4.215 4.215 0 01-.908-1.13 2.8 2.8 0 01-.318-1.281 2.271 2.271 0 01.4-1.315 2.712 2.712 0 011.071-.904 3.634 3.634 0 011.557-.348c.541 0 1.075.12 1.557.348.449.224.828.553 1.098.954.265.413.4.886.39 1.365a2.73 2.73 0 01-.263 1.122c-.17.353-.397.68-.672.972-.35.34-.726.656-1.125.946l-1.444 1.021a8.54 8.54 0 00-1.207 1.047c-.283.29-.513.622-.681.98-.143.31-.217.643-.218.98-.009.257.041.514.147.752.106.238.267.453.471.63a2.755 2.755 0 001.815.518 3.224 3.224 0 001.616-.418c.56-.33 1.07-.727 1.516-1.18l2.632-2.572a.928.928 0 01.4-.234.526.526 0 01.228.029.487.487 0 01.189.122.56.56 0 01.218.385.482.482 0 01-.05.232.525.525 0 01-.158.187l-2.624 2.57a8.23 8.23 0 01-1.861 1.424 4.376 4.376 0 01-2.169.51zm15.341 3.626a.678.678 0 01-.268-.032.625.625 0 01-.228-.132.575.575 0 01-.147-.21.535.535 0 01-.038-.246v-7.536a4.226 4.226 0 01.654-2.244 4.373 4.373 0 011.715-1.575 5.056 5.056 0 012.433-.577 5.198 5.198 0 012.469.586 4.464 4.464 0 011.725 1.59 4.15 4.15 0 01.635 2.278c.013.794-.2 1.576-.617 2.27a4.367 4.367 0 01-1.7 1.61c-.715.383-1.53.58-2.358.567a4.854 4.854 0 01-2.106-.46 4.094 4.094 0 01-1.516-1.206v4.697a.525.525 0 01-.037.245.568.568 0 01-.144.207.663.663 0 01-.472.168zm4.121-4.773a3.77 3.77 0 001.816-.427 3.232 3.232 0 001.715-2.864 3.183 3.183 0 00-.463-1.675 3.286 3.286 0 00-1.28-1.203 3.638 3.638 0 00-1.77-.421 3.646 3.646 0 00-1.815.435 3.337 3.337 0 00-1.199 1.122 3.266 3.266 0 00-.453 1.675 3.31 3.31 0 00.453 1.675c.292.492.722.902 1.244 1.189a3.718 3.718 0 001.752.494zm8.379-9.353a.948.948 0 01-.642-.246.807.807 0 01-.266-.592.782.782 0 01.067-.346.821.821 0 01.215-.29c.186-.149.425-.23.671-.226.238 0 .467.08.645.226.093.081.166.18.215.29a.78.78 0 01.066.346.803.803 0 01-.266.592.948.948 0 01-.642.245h-.063zm0 10.391a.734.734 0 01-.499-.167.62.62 0 01-.142-.21.564.564 0 01-.04-.242v-7.495a.564.564 0 01.04-.243.62.62 0 01.142-.21.734.734 0 01.499-.167.702.702 0 01.472.168.6.6 0 01.141.209.56.56 0 01.04.243v7.495a.564.564 0 01-.04.243.602.602 0 01-.141.209.684.684 0 01-.454.167h-.018zm4.166-7.62a.656.656 0 01-.477-.137.566.566 0 01-.151-.19.517.517 0 010-.46.567.567 0 01.151-.19.633.633 0 01.477-.137h6.427a.627.627 0 01.382.185.538.538 0 01.152.372c0 .137-.054.27-.152.372a.627.627 0 01-.382.185h-6.427zm.073 7.62a.656.656 0 01-.477-.137.529.529 0 010-.84.656.656 0 01.477-.137h6.418a.656.656 0 01.477.137.53.53 0 010 .84.656.656 0 01-.477.137h-6.418zm.608-.41l-1.098-.545 6.445-7.536.908.703-6.255 7.378zm8.824-7.21a.625.625 0 01-.381-.185.534.534 0 01-.153-.372c0-.137.054-.27.153-.372a.625.625 0 01.381-.185h6.427a.66.66 0 01.255.021.62.62 0 01.222.116.53.53 0 010 .84.619.619 0 01-.222.116.66.66 0 01-.255.02h-6.427zm.073 7.62a.66.66 0 01-.478-.137.567.567 0 01-.151-.19.53.53 0 010-.46.566.566 0 01.151-.19.631.631 0 01.478-.137h6.418a.656.656 0 01.477.137.566.566 0 01.151.19.517.517 0 010 .46.567.567 0 01-.151.19.633.633 0 01-.477.137h-6.418zm.608-.41l-1.099-.545 6.446-7.536.907.703-6.254 7.378zm12.544.493a4.835 4.835 0 01-2.357-.567 4.36 4.36 0 01-1.7-1.61 4.273 4.273 0 01-.618-2.27 4.147 4.147 0 01.636-2.277 4.468 4.468 0 011.724-1.59 5.386 5.386 0 012.451-.587 5.38 5.38 0 012.451.586 4.435 4.435 0 011.716 1.591c.429.694.654 1.48.654 2.278l-.536.385a3.72 3.72 0 01-.317 1.569 3.97 3.97 0 01-.957 1.33 4.398 4.398 0 01-1.445.877c-.54.2-1.119.297-1.702.285zm.136-1.122a3.575 3.575 0 001.769-.411 3.218 3.218 0 001.272-1.205c.306-.513.466-1.09.463-1.675a3.183 3.183 0 00-.463-1.674 3.387 3.387 0 00-1.243-1.19 3.873 3.873 0 00-1.788-.434c-.627 0-1.243.15-1.789.435-.54.299-.985.724-1.289 1.233a3.094 3.094 0 00-.445 1.664 3.159 3.159 0 00.472 1.675c.301.49.736.9 1.262 1.189a3.704 3.704 0 001.779.393zm4.14 1.039a.723.723 0 01-.481-.168.582.582 0 01-.146-.199.536.536 0 01-.045-.236v-2.74l.327-1.255 1.026.234v3.76a.55.55 0 01-.191.435.733.733 0 01-.49.168z" fill="#3A3A3A"/><path d="M53.368 49.21c3.26-3.008 5.48-6.84 6.379-11.011.9-4.171.437-8.495-1.327-12.424-1.765-3.929-4.753-7.287-8.586-9.65-3.834-2.362-8.34-3.623-12.95-3.623-4.611 0-9.118 1.26-12.952 3.623-3.833 2.363-6.821 5.721-8.586 9.65-1.764 3.93-2.226 8.253-1.327 12.424.9 4.171 3.12 8.003 6.379 11.01l11.374 10.475.618.578 12.999 12.033c.354.323.684.667.99 1.03 1.751 2.01 2.785 4.473 2.957 7.048.172 2.575-.525 5.135-1.995 7.33a12.392 12.392 0 01-1.952 2.294l-8.533-7.88L10.803 58.06C3.887 51.68.002 43.028.002 34.007c0-9.022 3.885-17.674 10.8-24.054C17.72 3.574 27.099-.01 36.88-.01c9.78 0 19.16 3.584 26.075 9.963 3.427 3.158 6.146 6.907 8 11.035a31.724 31.724 0 012.81 13.019c0 4.468-.955 8.892-2.81 13.019-1.854 4.127-4.573 7.877-8 11.034l-14.26 13.163a9.506 9.506 0 00-.428-.41l-9.168-8.44 14.27-13.164z" fill="#438EAD"/><path d="M49.165 38.887c-.766 1.917-2.044 3.625-3.715 4.965a13.603 13.603 0 01-5.848 2.7 14.22 14.22 0 01-6.535-.23c-2.123-.583-4.051-1.651-5.607-3.105.957-1.499 2.396-2.685 4.117-3.395a9.78 9.78 0 015.487-.566c5.084.837 9.069 1.281 12.1-.369zm-1.489-11.078c-2.142 2.797-4.938 3.04-12.582 1.407a12.495 12.495 0 00-5.968.053c-1.95.5-3.723 1.463-5.143 2.794.552-2.31 1.824-4.422 3.66-6.075 1.836-1.652 4.155-2.773 6.673-3.226a14.185 14.185 0 017.498.682c2.374.897 4.411 2.414 5.862 4.365z" fill="#3A3A3A"/><path d="M49.982 34.684v.108c-1.998 3.006-4.748 3.35-12.464 2.11a12.466 12.466 0 00-6.608.547c-2.097.773-3.903 2.098-5.193 3.808a11.713 11.713 0 01-1.97-4.94c.826-1.416 4.03-6.172 10.748-4.765 6.409 1.348 11.102 2.001 14.524-1.474a11.26 11.26 0 01.963 4.606z" fill="#3A3A3A"/></g><defs><clipPath id="clip0"><path fill="#fff" d="M0 0h200v90H0z"/></clipPath></defs></svg>