<svg width="200" height="90" fill="none" xmlns="http://www.w3.org/2000/svg"><g clip-path="url(#clip0)"><path d="M94.408 22.735c2.046-.092 4.052.547 5.601 1.783a6.39 6.39 0 011.653 2.298 5.96 5.96 0 01.453 2.726 6.134 6.134 0 01-.479 2.722 6.567 6.567 0 01-1.645 2.303c-1.531 1.258-3.535 1.913-5.583 1.825h-4.012v6.096h-5.193V22.735h9.205zm-.245 9.085c1.815 0 2.66-.754 2.66-2.253 0-1.498-.908-2.26-2.66-2.26h-3.767v4.513h3.767zm26.026-4.514h-9.541v2.94h8.679v4.563h-8.679v3.107h9.541v4.572h-14.742V22.734h14.742v4.572zm5.519-1.984c2.145-1.891 4.998-2.947 7.966-2.947 2.967 0 5.82 1.056 7.965 2.947a9.849 9.849 0 012.446 3.356 9.186 9.186 0 01.777 3.98 9.165 9.165 0 01-.788 3.952 9.824 9.824 0 01-2.435 3.333c-2.145 1.89-4.998 2.946-7.965 2.946-2.968 0-5.821-1.055-7.966-2.947a9.843 9.843 0 01-2.439-3.331 9.185 9.185 0 01-.793-3.954 9.164 9.164 0 01.782-3.98 9.835 9.835 0 012.45-3.355zm12.218 3.216c-1.136-1.026-2.663-1.6-4.252-1.6-1.59 0-3.117.574-4.253 1.6a5.587 5.587 0 00-1.296 1.901 5.235 5.235 0 00-.384 2.218 5.215 5.215 0 00.395 2.192 5.562 5.562 0 001.285 1.878c1.136 1.026 2.663 1.6 4.253 1.6 1.589 0 3.116-.575 4.252-1.6a5.58 5.58 0 001.286-1.878 5.23 5.23 0 00.394-2.192 5.235 5.235 0 00-.384-2.217 5.572 5.572 0 00-1.296-1.902zm19.481-5.804c2.043-.09 4.046.548 5.592 1.784a6.396 6.396 0 011.657 2.297 5.95 5.95 0 01.458 2.727 6.112 6.112 0 01-.483 2.723 6.56 6.56 0 01-1.65 2.301c-1.527 1.26-3.527 1.919-5.574 1.834h-3.994v6.096h-5.202V22.734h9.196zm-.218 9.086c1.816 0 2.66-.754 2.66-2.253 0-1.498-.908-2.26-2.66-2.26h-3.776v4.513h3.776zm16.486 6.096h8.687v4.572h-13.889V22.734h5.202v15.182zM200 27.306h-9.541v2.94h8.687v4.563h-8.687v3.107H200v4.572h-14.733V22.734H200v4.572zM87.927 58.147a6.475 6.475 0 01-2.025-.327 3.83 3.83 0 01-1.634-.954.514.514 0 01-.13-.198.48.48 0 01-.024-.23.676.676 0 01.763-.544.703.703 0 01.453.21c.299.307.677.54 1.099.678.484.17.998.252 1.516.243a3.23 3.23 0 001.815-.41c.174-.111.317-.257.42-.427.102-.17.16-.36.17-.553a1.049 1.049 0 00-.16-.545 1.163 1.163 0 00-.43-.402 5.307 5.307 0 00-1.942-.586 5.459 5.459 0 01-2.56-.896 1.969 1.969 0 01-.599-.67 1.804 1.804 0 01-.218-.845c-.017-.49.15-.968.472-1.357.32-.382.752-.672 1.243-.837a5.086 5.086 0 011.716-.276c.687-.016 1.37.11 1.997.368a3.599 3.599 0 011.362.988.504.504 0 01-.136.804.711.711 0 01-.481.067.803.803 0 01-.454-.226 2.623 2.623 0 00-1.008-.678 3.736 3.736 0 00-1.316-.218 2.814 2.814 0 00-1.525.36 1.139 1.139 0 00-.348.298 1.04 1.04 0 00-.19.402 1 1 0 00-.003.438c.032.144.095.282.187.403.196.219.453.384.744.477.476.172.973.29 1.48.352a6.816 6.816 0 012.051.569c.44.198.813.502 1.08.88.21.33.32.705.318 1.088.006.478-.163.945-.48 1.323-.352.381-.806.67-1.317.837a5.23 5.23 0 01-1.906.394zm10.113.016a4.91 4.91 0 01-2.198-.477 3.628 3.628 0 01-1.534-1.382 4.16 4.16 0 01-.563-2.219V49.9a.538.538 0 01.047-.232.577.577 0 01.144-.195.725.725 0 01.454-.158c.167 0 .328.056.454.158a.57.57 0 01.143.195.538.538 0 01.047.232v4.186a2.981 2.981 0 00.409 1.675c.257.413.643.746 1.107.955a4.054 4.054 0 003.114 0 2.678 2.678 0 001.089-.838c.262-.352.398-.77.391-1.197h.907a3.339 3.339 0 01-.581 1.779c-.362.534-.873.97-1.48 1.26a4.539 4.539 0 01-1.95.444zm3.812-.1a.722.722 0 01-.259-.04.683.683 0 01-.222-.128.62.62 0 01-.142-.208.565.565 0 01-.04-.244v-7.536a.586.586 0 01.182-.435.759.759 0 01.481-.168c.177 0 .348.06.481.168a.579.579 0 01.145.199.536.536 0 01.045.236v7.536a.544.544 0 01-.042.245.585.585 0 01-.148.207.702.702 0 01-.454.168h-.027zm7.126.084a6.482 6.482 0 01-2.025-.327 3.834 3.834 0 01-1.634-.954.512.512 0 01-.129-.198.474.474 0 01-.025-.23.65.65 0 01.263-.418.68.68 0 01.5-.126.7.7 0 01.435.21c.299.307.677.54 1.099.678.484.17.998.252 1.516.243a3.23 3.23 0 001.815-.41c.175-.11.32-.255.422-.425.103-.17.16-.36.168-.555a1.05 1.05 0 00-.16-.545 1.17 1.17 0 00-.43-.402 5.358 5.358 0 00-1.942-.586 5.459 5.459 0 01-2.56-.896 1.966 1.966 0 01-.599-.67 1.811 1.811 0 01-.218-.845c-.017-.49.15-.968.472-1.357a2.78 2.78 0 011.243-.837 5.092 5.092 0 011.716-.276 4.976 4.976 0 011.997.368 3.602 3.602 0 011.362.988.504.504 0 01-.136.804.722.722 0 01-.481.067.801.801 0 01-.454-.226 2.626 2.626 0 00-1.008-.678 3.733 3.733 0 00-1.316-.218 2.815 2.815 0 00-1.525.36 1.135 1.135 0 00-.354.295.991.991 0 000 1.245c.198.218.455.383.744.478.476.172.973.29 1.48.352a6.814 6.814 0 012.051.569c.44.198.813.502 1.081.88.209.33.319.705.317 1.088.007.478-.163.945-.481 1.323-.349.379-.8.668-1.307.837a5.318 5.318 0 01-1.897.394zm6.699-3.643a.69.69 0 01-.266-.039.641.641 0 01-.37-.345.572.572 0 01-.045-.244v-7.662a.557.557 0 01.188-.452.65.65 0 01.227-.133.685.685 0 01.266-.034.669.669 0 01.256.037.622.622 0 01.216.13.567.567 0 01.182.452v7.662a.566.566 0 01-.182.452.67.67 0 01-.472.176zm0 3.559a.716.716 0 01-.264-.037.673.673 0 01-.226-.13.55.55 0 01-.191-.435v-7.537a.558.558 0 01.191-.452.673.673 0 01.226-.13.716.716 0 01.264-.038.702.702 0 01.472.168.567.567 0 01.182.452v7.536a.561.561 0 01-.182.435.7.7 0 01-.472.168zm7.444 0a.67.67 0 01-.474-.17.584.584 0 01-.198-.433v-4.187a2.984 2.984 0 00-.408-1.633 2.52 2.52 0 00-1.108-.954 3.733 3.733 0 00-1.589-.318 3.807 3.807 0 00-1.534.301 2.685 2.685 0 00-1.08.837c-.264.352-.404.77-.399 1.198h-.953a3.318 3.318 0 01.59-1.792 3.874 3.874 0 011.47-1.248 4.598 4.598 0 012.043-.46 4.957 4.957 0 012.206.477 3.512 3.512 0 011.525 1.398c.397.68.592 1.447.562 2.22v4.186c0 .16-.068.313-.191.426a.683.683 0 01-.462.177v-.025zm4.539-10.392a.947.947 0 01-.642-.245.807.807 0 01-.266-.592.768.768 0 01.067-.346.83.83 0 01.214-.29 1.06 1.06 0 01.659-.226c.241 0 .475.08.658.225a.83.83 0 01.214.29c.049.11.072.228.067.347a.807.807 0 01-.266.592.947.947 0 01-.642.245h-.063zm0 10.392a.73.73 0 01-.49-.168.62.62 0 01-.142-.209.564.564 0 01-.04-.243V49.95a.564.564 0 01.04-.244.618.618 0 01.142-.209.732.732 0 01.49-.167.705.705 0 01.259.038.663.663 0 01.222.13c.062.06.11.13.141.208.031.078.045.16.04.244v7.494a.564.564 0 01-.04.243.602.602 0 01-.141.21.7.7 0 01-.472.168h-.009zm12.009.109a4.606 4.606 0 01-1.943-.369 2.933 2.933 0 01-1.272-1.063 2.603 2.603 0 01-.434-1.533 2.95 2.95 0 01.69-1.892 10.375 10.375 0 012.097-1.876l1.452-1.055a4.34 4.34 0 001.117-1.114c.238-.352.367-.757.372-1.172a1.495 1.495 0 00-.134-.636 1.62 1.62 0 00-.395-.536 1.772 1.772 0 00-.593-.348 1.875 1.875 0 00-.694-.105 1.906 1.906 0 00-1.289.453 1.44 1.44 0 00-.383.48 1.32 1.32 0 00-.134.583c-.003.316.071.628.218.913.17.313.397.596.671.837l7.735 7.202a.83.83 0 01.245.385.457.457 0 01-.173.377.542.542 0 01-.198.16.589.589 0 01-.709-.16l-7.853-7.244a4.23 4.23 0 01-.907-1.13 2.788 2.788 0 01-.318-1.281 2.278 2.278 0 01.399-1.315 2.719 2.719 0 011.071-.904 3.641 3.641 0 011.557-.348c.542 0 1.075.12 1.557.348.45.224.829.553 1.098.954.266.413.401.886.391 1.365a2.745 2.745 0 01-.263 1.122c-.171.353-.397.68-.672.972-.35.34-.727.656-1.126.946l-1.443 1.021a8.492 8.492 0 00-1.208 1.047 3.61 3.61 0 00-.68.98c-.143.31-.217.643-.218.98-.01.257.04.514.147.752.106.238.266.453.47.63a2.757 2.757 0 001.816.518c.57.004 1.13-.141 1.615-.418a7.276 7.276 0 001.516-1.18l2.633-2.572a.918.918 0 01.399-.234.53.53 0 01.229.029.494.494 0 01.189.122.568.568 0 01.218.385.482.482 0 01-.05.232.528.528 0 01-.159.187l-2.623 2.57a8.253 8.253 0 01-1.861 1.424 4.377 4.377 0 01-2.17.51zm15.342 3.626a.678.678 0 01-.268-.032.625.625 0 01-.228-.132.575.575 0 01-.147-.21.535.535 0 01-.038-.246v-7.536a4.226 4.226 0 01.654-2.244 4.373 4.373 0 011.715-1.575 5.056 5.056 0 012.433-.577 5.198 5.198 0 012.469.586 4.464 4.464 0 011.725 1.59 4.15 4.15 0 01.635 2.278c.013.794-.2 1.576-.617 2.27a4.367 4.367 0 01-1.7 1.61c-.715.383-1.53.58-2.358.567a4.854 4.854 0 01-2.106-.46 4.094 4.094 0 01-1.516-1.206v4.697a.525.525 0 01-.037.245.568.568 0 01-.144.207.663.663 0 01-.472.168zm4.121-4.773a3.77 3.77 0 001.816-.427 3.232 3.232 0 001.715-2.864 3.183 3.183 0 00-.463-1.675 3.286 3.286 0 00-1.28-1.203 3.638 3.638 0 00-1.77-.421 3.646 3.646 0 00-1.815.435 3.337 3.337 0 00-1.199 1.122 3.266 3.266 0 00-.453 1.675 3.31 3.31 0 00.453 1.675c.292.492.722.902 1.244 1.189a3.718 3.718 0 001.752.494zm8.379-9.353a.947.947 0 01-.642-.246.807.807 0 01-.266-.592.781.781 0 01.067-.346.821.821 0 01.215-.29c.186-.149.425-.23.671-.226.238 0 .467.08.645.226.093.081.166.18.215.29a.78.78 0 01.066.346.803.803 0 01-.266.592.947.947 0 01-.642.245h-.063zm0 10.391a.734.734 0 01-.499-.167.618.618 0 01-.142-.21.564.564 0 01-.04-.242v-7.495a.565.565 0 01.04-.243.62.62 0 01.142-.21.734.734 0 01.499-.166.7.7 0 01.472.167.6.6 0 01.141.209c.031.078.045.16.04.243v7.495a.564.564 0 01-.04.243.601.601 0 01-.141.209.684.684 0 01-.454.167h-.018zm4.166-7.62a.656.656 0 01-.477-.137.566.566 0 01-.151-.19.517.517 0 010-.46.567.567 0 01.151-.19.633.633 0 01.477-.137h6.427a.627.627 0 01.382.185.538.538 0 01.152.372c0 .137-.054.27-.152.372a.627.627 0 01-.382.185h-6.427zm.073 7.62a.656.656 0 01-.477-.137.529.529 0 010-.84.656.656 0 01.477-.137h6.418a.656.656 0 01.477.137.53.53 0 010 .84.656.656 0 01-.477.137h-6.418zm.608-.41l-1.098-.545 6.445-7.536.908.703-6.255 7.378zm8.824-7.21a.627.627 0 01-.382-.185.539.539 0 01-.153-.372c0-.137.055-.27.153-.372a.627.627 0 01.382-.185h6.427a.656.656 0 01.477.137.567.567 0 01.151.19.517.517 0 010 .46.566.566 0 01-.151.19.631.631 0 01-.477.137h-6.427zm.072 7.62a.656.656 0 01-.477-.137.529.529 0 010-.84.656.656 0 01.477-.137h6.418a.66.66 0 01.255.021.619.619 0 01.222.116.53.53 0 010 .84.62.62 0 01-.222.116.66.66 0 01-.255.02h-6.418zm.608-.41l-1.098-.545 6.445-7.536.908.703-6.255 7.378zm12.546.493a4.84 4.84 0 01-2.358-.567 4.367 4.367 0 01-1.7-1.61 4.263 4.263 0 01-.617-2.269 4.146 4.146 0 01.635-2.278 4.47 4.47 0 011.725-1.59 5.383 5.383 0 012.451-.587c.858 0 1.701.202 2.451.586a4.442 4.442 0 011.716 1.591c.428.694.654 1.48.653 2.278l-.535.385a3.72 3.72 0 01-.317 1.569 4 4 0 01-.957 1.33 4.408 4.408 0 01-1.445.877 4.64 4.64 0 01-1.702.285zm.136-1.122a3.574 3.574 0 001.768-.411 3.22 3.22 0 001.273-1.205c.306-.513.465-1.09.463-1.675a3.193 3.193 0 00-.463-1.674 3.391 3.391 0 00-1.244-1.19 3.867 3.867 0 00-1.788-.434c-.627 0-1.243.15-1.788.435-.54.299-.985.724-1.29 1.233a3.103 3.103 0 00-.444 1.664 3.14 3.14 0 00.472 1.675c.301.49.736.9 1.262 1.189a3.702 3.702 0 001.779.393zm4.139 1.039a.725.725 0 01-.481-.168.58.58 0 01-.145-.199.536.536 0 01-.045-.236v-2.738l.326-1.257 1.026.235v3.76a.536.536 0 01-.045.236.58.58 0 01-.145.2.736.736 0 01-.491.167z" fill="#fff"/><path d="M53.368 49.21c3.26-3.008 5.48-6.84 6.379-11.011.9-4.171.437-8.495-1.327-12.424-1.765-3.929-4.753-7.287-8.586-9.65-3.834-2.362-8.34-3.623-12.95-3.623-4.611 0-9.118 1.26-12.952 3.623-3.833 2.363-6.821 5.721-8.586 9.65-1.764 3.93-2.226 8.253-1.327 12.424.9 4.171 3.12 8.003 6.379 11.01l11.374 10.475.618.578 12.999 12.033c.354.323.684.667.99 1.03 1.751 2.01 2.785 4.473 2.957 7.048.172 2.575-.525 5.135-1.995 7.33a12.392 12.392 0 01-1.952 2.294l-8.533-7.88L10.803 58.06C3.887 51.68.002 43.028.002 34.007c0-9.022 3.885-17.674 10.8-24.054C17.72 3.574 27.099-.01 36.88-.01c9.78 0 19.16 3.584 26.075 9.963 3.427 3.158 6.146 6.907 8 11.035a31.724 31.724 0 012.81 13.019c0 4.468-.955 8.892-2.81 13.019-1.854 4.127-4.573 7.877-8 11.034l-14.26 13.163a9.506 9.506 0 00-.428-.41l-9.168-8.44 14.27-13.164z" fill="#438EAD"/><path d="M49.165 38.887c-.766 1.917-2.044 3.625-3.715 4.965a13.604 13.604 0 01-5.848 2.7 14.221 14.221 0 01-6.535-.23 13.413 13.413 0 01-5.607-3.105c.957-1.499 2.396-2.685 4.117-3.395a9.78 9.78 0 015.487-.566c5.084.837 9.069 1.28 12.1-.369zm-1.489-11.078c-2.142 2.797-4.938 3.04-12.582 1.407a12.495 12.495 0 00-5.968.053c-1.95.5-3.723 1.463-5.143 2.794.552-2.31 1.824-4.422 3.66-6.075 1.836-1.652 4.155-2.774 6.673-3.226a14.184 14.184 0 017.498.682c2.374.896 4.411 2.414 5.862 4.365z" fill="#fff"/><path d="M49.982 34.684v.108c-1.997 3.006-4.748 3.35-12.464 2.11a12.466 12.466 0 00-6.607.547c-2.098.773-3.903 2.098-5.194 3.808a11.713 11.713 0 01-1.97-4.94c.827-1.416 4.031-6.172 10.749-4.765 6.408 1.348 11.102 2.001 14.524-1.474a11.26 11.26 0 01.962 4.606z" fill="#fff"/></g><defs><clipPath id="clip0"><path fill="#fff" d="M0 0h200v90H0z"/></clipPath></defs></svg>