<svg width="251" height="196" fill="none" xmlns="http://www.w3.org/2000/svg"><path d="M67.098 174.978c-8.79.365-14.447-4.106-19.527-10.158-6.326 1.46-11.223-1.399-15.633-5.658-1.034-1.003-2.311-1.885-3.589-2.554-2.829-1.521-5.84-2.738-8.607-4.319-1.795-1.004-3.437-2.342-4.928-3.772-3.406-3.254-5.261-7.695-8.09-11.405-2.25-2.92-2.737-7.026-1.308-10.889.456-1.247.73-2.524 1.156-3.984-.7-1.46-1.4-2.981-2.13-4.532-2.006-4.258-2.676-8.729-1.155-13.231.913-2.707.639-5.11-.395-7.664-1.004-2.464-1.46-5.05-.7-7.756.517-1.855 0-3.62-.76-5.475-2.19-5.383-2.008-10.736 1.52-15.603.943-1.277 1.4-2.372 1.339-4.075-.091-3.102 1.004-5.9 3.893-7.695.73-.456 1.247-1.308 2.16-2.312-1.095-.578-1.825-1.186-2.647-1.368-1.885-.456-3.68-.943-4.531-3.316 3.558-5.17 8.607-8.759 14.264-11.344 4.654-2.13 9.368-3.924 13.474-7.148 2.494-1.946 5.566-3.163 8.394-4.714 2.312-1.247 4.654-2.433 6.935-3.771 2.312-1.339 4.502-1.704 6.965-.274 1.095.638 2.433 1.003 3.68 1.277 6.844 1.369 13.748 2.525 20.56 3.985 2.617.547 5.171.517 7.757.76 2.28.213 4.319 2.22 6.63 2.859 3.254.882 6.66 1.217 10.189 1.794 2.464-2.767 5.11-5.687 7.634-8.698 3.194-3.802 7.056-6.783 11.284-9.368a164.944 164.944 0 009.915-6.6c2.951-2.13 6.114-3.59 9.52-4.927C148.001.093 155.94-.698 163.756.609c8.486 1.43 17.215 2.707 24.636 7.848 1.704 1.186 3.62 2.037 5.536 2.889 9.459 4.288 18.979 8.455 28.438 12.774 8.82 4.015 16.029 9.946 21.108 18.28 1.034 1.703 2.19 3.558 1.49 5.84-.213.668-.03 1.49.122 2.19 2.372 9.306 1.429 18.795 1.551 28.224 0 1.126-.243 2.25-.517 3.346-.365 1.52-.122 2.798.608 4.288 2.768 5.87 4.623 12.075 3.315 18.584-.79 3.923-2.95 7.604-1.459 11.801-1.521 4.075-2.738 8.303-6.296 11.192-.974.791-2.251 1.643-3.437 1.673-2.251.061-4.045.791-5.627 2.251-2.95 2.677-6.509 3.863-10.402 3.65-2.159-.091-3.619.73-4.897 2.251-.608.73-1.186 1.49-1.825 2.159-2.889 3.072-5.961 5.779-10.493 6.053-.912.06-1.885.364-2.707.76-3.832 1.855-7.877 2.342-12.105 2.372-3.345.031-6.691.943-9.976 1.43-2.099 2.22-1.673 4.745-1.034 7.056.791 2.859 1.125 5.536-.517 8.182-2.19 3.467-3.528 7.603-7.908 9.215-3.224 1.187-6.022 3.133-8.455 5.597-2.434 2.463-5.445 3.224-8.79 3.072-1.126-.061-2.281.121-3.376-.031-3.772-.547-7.026-.061-9.611 3.224-1.217 1.551-3.285 1.734-5.232 1.764-2.646.031-5.262.122-7.968.183-1.247 1.855-2.373 3.558-3.559 5.322-.882.092-1.977-.121-2.707.304-5.049 2.799-9.854 1.765-14.356-1.094-1.855-1.187-3.68-1.764-5.809-1.764-1.52 0-3.011-.213-4.532-.305-3.315-.243-6.296-1.277-8.638-3.741-2.007-2.129-4.227-3.376-7.36-3.589-5.962-.334-10.889-2.919-13.87-8.881zm37.593-126.89c-1.308.09-2.647.334-3.924.242-4.684-.425-6.935 2.525-9.216 6.175 3.133 1.308 5.87 2.524 8.669 3.558 1.703.608 3.406-.7 2.767-2.25-1.003-2.555 0-4.32 1.308-6.236.274-.395.183-1.064.274-1.611 2.129.09 3.771-1.065 5.779-1.947-.639-1.4-1.369-2.494-1.673-3.71-.304-1.278-.243-2.647-.365-4.685a307.31 307.31 0 01-3.893 3.65c.121 2.798.213 4.806.274 6.813zm104.384 51.248c-2.738-9.307 1.277-17.58 4.197-26.035-2.677 2.798-3.498 6.509-5.232 9.733-2.554 4.805-2.341 9.733-1.064 14.781.304 1.126 1.308 1.187 2.22 1.4 1.795 1.642 3.589 3.284 5.445 4.866 1.247 1.065 2.372 2.433 4.44 1.886.152-3.559-.03-7.178.578-10.645.608-3.468 2.007-6.783 3.224-10.646-4.228-1.247-7.391-3.376-6.935-8.273 4.563-3.041 5.08-2.92 10.615 1.917.456-.578.973-1.095 1.369-1.673 5.018-7.756 9.246-15.907 12.47-24.576 2.22-5.93 1.277-9.337-4.167-13.413-.274.457-.73.883-.791 1.37-.73 4.744-2.737 8.941-5.261 12.956-4.228 6.66-8.517 13.322-12.714 20.013-.669 1.064-.943 2.342-1.429 3.528-.852 1.4-1.886 2.677-2.464 4.167-1.764 4.532-2.859 9.216-2.281 14.113.243 1.976-.122 3.68-2.22 4.531zm-18.128-11.405c-.273-2.433-1.064-4.927-.699-7.27 1.034-6.478 2.22-12.865 6.326-18.461 5.018-6.813 9.52-14.022 12.075-22.203.213-.67.121-1.46.273-3.376-1.277 2.25-2.007 3.315-2.524 4.532-2.251 5.261-5.505 9.854-9.185 14.142-3.346 3.924-5.566 8.456-7.939 12.927-2.919 5.505-2.311 11.284-.942 17.002.243 1.004 1.794 1.703 2.737 2.555 1.794 1.642 3.406 3.589 5.414 4.866 2.068 1.308 3.65 3.772 6.691 3.68.213-3.133.122-5.992.669-8.729.548-2.707 1.734-5.262 2.646-7.938-7.695-1.43-8.303-2.22-7.33-9.368 1.004-.122 2.251-.639 3.133-.274 2.312.974 4.501 2.312 6.904 3.62.335-.639.639-1.247 1.126-2.22-1.065-.396-1.917-.609-2.707-1.004-2.373-1.156-3.833-3.042-4.106-5.688-.365-3.498 2.524-5.81 5.839-4.593 1.004.365 1.947 1.095 2.738 1.856.79.76 1.338 1.764 2.22 2.98 6.722-10.584 12.896-20.986 14.143-33.639-4.167-2.858-7.695-6.356-13.17-6.387-.456 1.765-1.003 3.164-1.216 4.623-1.673 11.893-6.783 22.264-13.748 31.875-5.11 7.057-8.394 14.721-6.661 23.785.304 1.733-.152 2.038-2.707 2.707zM129.57 39.115c.335-1.673.852-3.316.943-4.988.182-3.133 1.338-5.87 3.102-8.364 2.281-3.224 4.623-6.418 7.087-9.49 2.281-2.859 3.558-6.204 4.653-9.58.517-1.582-.943-1.673-2.25-1.278-2.16 5.201-4.806 10.128-8.243 14.63-3.589 4.714-5.718 10.128-6.874 15.937-.334 1.642.305 2.494 1.704 3.041-.335 1.247-.639 2.525-1.004 3.772-.365 1.308-2.525 1.49-2.433 3.71 2.342-.699 4.288-1.277 6.235-1.916.243-.09.395-.486.517-.669-.487-.76-.943-1.46-1.49-2.28.882-.396 1.429-.852 1.916-.822 1.885.091 3.741.426 5.626.547 4.198.244 6.783 3.833 10.676 5.414 1.338-3.285 3.924-5.687 4.471-9.215.152-.974 1.065-2.251 1.916-2.555 2.008-.76 2.738-2.403 3.802-3.954 2.007-2.92 3.619-6.205 6.813-7.969.943.426 1.703.79 2.494 1.156.152-4.867.091-4.927 3.406-9.246 2.069-2.677 2.738-5.597 2.707-8.912-8.303-2.281-16.241-4.745-25.092-2.433-2.737 7.421-7.026 14.265-12.105 20.621-3.285 4.106-5.444 8.608-5.292 13.991 0 .304-.396.608-.791 1.186-.7-.091-1.582-.213-2.494-.334zm-54.108 5.2c.334.153.7.305 1.034.457 1.125.547 1.794 1.399 1.642 2.676-.182 1.308-1.247 1.947-2.403 2.038-1.46.122-2.98.03-4.44-.213-1.977-.334-3.376.396-4.258 2.038-1.947 3.68-3.893 7.33-5.627 11.102-1.369 2.98-1.764 6.143-.639 9.58 4.046 1.521 7.24 4.958 11.953 6.205.73-3.102 1.339-5.81 2.008-8.76-1.582-.395-2.86-.638-4.045-1.064-.882-.304-1.764-.73-2.494-1.308-1.126-.943-1.217-2.281-.822-3.62.396-1.277 1.43-1.703 2.647-1.672 1.125.03 2.372-.061 3.345.365 1.095.517 1.947 1.551 3.011 2.464 3.224-2.707 4.563-6.084 5.323-9.855-1.308-.912-2.494-1.703-3.741-2.555 2.129-1.733 5.353.973 6.721-2.463-.547-.487-1.125-.974-1.672-1.46-.7-.64-1.43-1.247-2.038-1.947-1.126-1.277-.821-2.92.578-3.893 1.156-.79 2.403-1.125 3.74-.67 1.065.335 2.1.761 3.255 1.157 3.011-2.555 6.965-3.894 9.003-7.97-1.886-.425-3.498-.79-5.444-1.246-1.673 3.71-4.684 4.167-8.121 3.65-4.015-.609-4.258-4.258-5.444-7.178a6415.334 6415.334 0 01-18.31-3.68c-4.258 4.197-6.083 4.592-11.558 2.372-1.52-.608-2.95-1.52-4.288-2.22-5.9 2.342-5.9 2.341-8.638 5.2 3.254 3.072 8.881 5.719 14.052 6.51.395-1.187.608-2.525 1.277-3.59.821-1.277 2.038-2.342 3.741-2.16 2.737.305 5.718 2.373 5.748 5.293.03 1.673.183 3.346.335 5.353 2.099.76 4.167 1.52 6.235 2.281.943-2.007 1.703-3.68 2.494-5.414-.669-1.064-1.52-2.098-2.038-3.284-1.216-2.707-.243-4.41 2.586-4.928 3.102-.547 6.66 1.187 8.06 3.954 1.034 2.008.304 3.954-1.917 5.08-.638.304-1.399.425-2.19.669.578 1.064 1.004 1.886 1.43 2.707-1.308-.639-2.616-1.4-4.319-.092.304.913.456 2.008 1.034 2.799.67.973 1.856 1.155 2.95.577.943-.517.974-1.429.7-2.372-.122-.274-.304-.578-.456-.912zm104.171 8.365c-2.585.669-3.437 2.89-4.015 5.018-.669 2.525-1.156 5.201 0 7.726 2.038 4.44 4.137 8.85 6.296 13.23.304.639 1.156 1.004 1.795 1.551.304-.578.456-.73.456-.912-.213-9.003 3.862-16.607 9.185-23.116 4.958-6.052 9.003-12.5 12.136-19.526 2.129-4.745 3.163-9.976 2.585-15.238-2.433-2.311-5.11-3.558-8.151-4.075l.121.09c-2.798-2.25-5.87-3.74-9.763-4.318.152 2.737 1.886 5.08.091 7.39-2.919 1.978-5.931 1.826-8.942.031-.152.487-.334.821-.365 1.186-.638 3.954-1.277 4.684-4.775 4.867-1.49.091-3.011 0-4.592 0-2.403 1.308-3.437 3.832-4.897 5.991-1.156 1.704-.7 3.59-.578 5.475.152 2.19-.973 3.498-3.042 4.198-1.399.456-2.859.82-4.501 1.277-.578 2.25-1.125 4.41-1.642 6.387 5.778 4.714 8.546 6.053 12.47 6.053.243-.487.608-.943.73-1.49 1.368-6.084 4.44-11.102 8.668-15.634 1.764-1.886 2.889-4.38 4.319-6.57.821-1.247 1.399-2.828 2.555-3.619 1.095-.76 2.737-.7 4.501-1.065 1.278-3.65 2.616-7.482 3.924-11.192 1.855.213 2.098 1.43 1.855 2.524-.426 1.825-1.247 3.559-1.825 5.353-.943 2.95-2.737 5.657-.943 9.094.913 1.734-.578 4.106-2.463 4.289-2.92.273-4.228 2.038-5.445 4.258-1.977 3.62-4.836 6.752-5.87 10.858l.122-.091zM75.279 84.524l.122.152c-4.38-3.62-9.155-6.63-14.265-9.063-1.186-.578-2.463-1.065-3.771-1.247-6.904-.913-13.079-3.468-18.431-7.969-.578-.487-1.308-.76-1.947-1.186-5.9-3.802-12.531-6.083-18.918-8.912-1.369-.608-2.798-1.004-4.197-1.52a432.681 432.681 0 00-4.502 3.71c-1.886 1.582-3.163 3.62-2.129 5.961.852 1.947-.426 3.164-.73 4.623.852.76 1.612 1.43 2.433 2.19-2.19 1.703-3.558 3.802-6.083 4.258-.669 2.616-.456 5.08.822 7.24 1.216 2.098 1.612 4.075 1.034 6.478-.609 2.615-.365 5.352.851 7.786 1.369 2.737 1.4 5.201.183 8.09-1.582 3.802-1.643 8.06.669 11.467 2.585 3.862 2.98 7.451 1.216 11.588-1.216 2.889.092 5.535 1.278 8.12 3.224 1.521 3.741 5.019 5.505 7.604.852 1.217 1.916 2.342 3.011 3.346 3.376 3.102 7.482 5.14 11.558 7.087 2.25 1.094 4.258 2.22 5.93 4.197 2.556 2.98 5.932 4.623 10.007 4.44 1.49-.06 2.98 0 4.35 0 6.447 7.695 8.394 8.638 19.07 9.49.304.365.76.76 1.034 1.216 3.163 5.445 7.877 7.969 14.112 7.695 2.069-.091 3.65.852 4.867 2.403 1.581 1.977 3.528 3.346 5.93 4.167 3.529 1.217 6.996 1.43 10.494-.243.943.882 1.733 1.672 2.555 2.433 3.102 3.041 6.934 3.65 11.04 3.163 2.616-.304 4.562-1.642 5.536-4.197.608-1.551 1.277-3.072 1.946-4.745-.76-2.129-2.22-4.106-1.277-6.874.395-1.125-.669-2.859-1.278-4.227-.517-1.156-1.368-2.16-2.159-3.346h5.901a244.55 244.55 0 01-1.339 3.133 213.504 213.504 0 001.551 4.988c.548 1.612.943 3.284 1.764 4.744 1.339 2.373 3.559 3.316 6.236 2.981 2.646-.304 5.17-.882 6.052-3.954-5.87-2.828-7.695-4.714-7.056-7.695.821.7 1.612 1.186 2.19 1.855 1.733 1.886 3.802 3.042 6.387 3.346 1.125.122 2.251.396 3.285.821 3.102 1.308 6.356.882 9.55.822 2.555-.031 4.714-1.308 6.265-3.407.67-.912 1.247-1.886 1.917-2.859.76-.182 1.49-.426 2.22-.517 4.836-.608 7.482-3.863 9.946-7.634 2.25-3.437 2.068-6.722.577-10.22-.699-1.672-.547-3.315.244-4.927.426-.821.73-1.733 1.064-2.524-1.642-2.068-3.923-2.251-6.022-2.981-2.433 2.646-4.684 5.079-6.722 7.3.457 2.433 3.772.608 3.559 3.254-2.251 1.612-4.349-.122-6.509-.274-1.855 1.004-3.68 1.977-5.475 3.011-2.311 1.369-4.288.882-6.143-.882-.791-.76-1.612-1.733-2.586-2.068-4.136-1.429-6.235-4.775-8.029-8.364a33.684 33.684 0 01-2.312-5.779c-.669-2.25-1.794-4.167-3.467-5.779-3.467-3.315-6.053-7.238-7.999-11.588-.091-.213-.487-.273-.76-.425-.365.851-.7 1.642-1.217 2.859-1.977-2.282-1.642-4.684-2.129-6.813-.7-3.103-1.156-6.327-.213-9.429-1.186-1.612-2.281-3.163-3.437-4.654-2.19-2.859-4.836-5.231-7.847-7.3-4.167-2.888-8.942-3.983-13.656-5.291-4.38-1.217-8.669-2.616-12.683-4.806-2.798-1.52-5.931-2.859-8.973-4.319zm141.703 40.482c2.829 0 4.836-.091 6.813.031 1.278.091 2.768.213 3.772.882 2.768 1.886 5.718 1.49 8.759 1.369 3.255-.122 5.11-1.673 5.87-4.593-1.977-1.338-3.649-2.494-5.444-3.711-.639.244-1.369.457-2.038.73-3.802 1.612-7.056.609-9.793-2.19-1.43-1.459-2.586-3.224-3.893-4.836-.822-1.003-1.46-2.463-2.525-2.919-3.406-1.46-5.931-3.985-8.486-6.509-.517-.487-1.277-.73-2.129-1.186-2.342 2.889-4.988 4.531-9.246 1.916 1.612-.517 2.616-.882 3.62-1.186.851-.244 1.916-.183 1.916-1.886-5.292-2.768-9.703-7.39-15.725-8.76-1.399-3.467-1.399-3.467-4.471-5.17-.091.79-.273 1.49-.243 2.16.152 5.839.639 11.709.456 17.518-.243 7.391-1.247 14.691-5.475 21.108-.304.456-.456 1.034-.517 1.582-.03.274.305.578.487.851.791-.425 1.551-.882 2.433-1.368 1.217 1.46 3.315 1.855 4.137 4.197-1.612.365-2.89.639-4.654 1.034 3.437 4.197 1.46 8.577 1.338 13.231 3.681-.548 6.965-1.034 10.25-1.582.213-.03.304-.547.456-.852-.577-1.429-2.858-1.794-2.676-4.44 3.102 1.703 5.748 3.193 8.851 4.897.882-.305 2.25-1.065 3.71-1.278 5.779-.851 10.098-3.954 13.565-8.455 1.369-1.764 3.011-2.585 5.323-2.646 2.737-.061 5.566-.274 7.847-2.616-1.429-1.308-2.646-2.433-4.167-3.832-2.646 1.581-5.444 1.886-8.121-1.491zm6.996-13.048c1.399 1.612 2.251 2.92 3.376 3.833 3.498 2.768 8.547 1.49 10.432-2.616.456-1.004.7-2.129.913-3.254.638-3.133.912-6.387 1.885-9.398a32.256 32.256 0 001.521-8.273c.091-2.251.426-4.502.913-6.722 1.399-6.509 1.49-13.079 1.399-19.679 0-.82.243-1.946-1.399-2.19-4.623 8.03-10.95 15.178-13.17 24.637-.456 2.007-1.49 3.862-2.372 5.748-.974 2.099-1.369 4.289-1.278 6.6.152 3.832.061 7.573-2.22 11.314zm-45.349-29.715c.304-.304.578-.639.882-.943-1.034-2.798-2.25-5.535-3.102-8.364-1.186-4.015-4.197-5.93-7.878-6.387-3.528-.456-7.177-.274-10.736.06-5.627.518-11.254 1.34-16.85 2.13-3.163.456-6.326 1.064-9.459 1.764-.973.213-1.794 1.004-2.737 1.551 3.832 4.684 3.954 4.775 8.516 6.752 6.722-2.615 13.626-2.463 20.652-1.673 7.117.76 14.021 2.342 20.712 5.11zm-33.943 3.65c0 .426-.122.852.031 1.156 2.22 4.653 5.535 7.755 10.858 8.729 6.326 1.156 12.318 3.437 18.127 6.296 2.281 1.125 4.745 2.22 7.421 2.189 1.156-5.292 1.004-7.512-.851-13.625-9.581-5.384-20.074-6.783-30.993-6.266-1.703.122-3.498-.213-4.593 1.52zM108.127 64.45c-2.767 4.928-5.474 9.611-8.029 14.356-.79 1.49-1.4 3.133-1.673 4.775-.274 1.612-.213 3.346 0 5.019.213 1.855 1.52 2.95 3.254 3.528 3.529 1.156 7.057 2.372 11.102 3.71-.456-5.018 1.794-9.398 3.863-13.808 1.125-2.372 2.585-4.562 3.801-6.904.578-1.125.974-2.372 1.582-3.893-4.228-3.224-8.972-4.745-13.9-6.783zm-74.972-6.326c-.609-7.665 3.832-13.352 6.995-19.8-2.524-2.372-5.93-2.646-8.242-4.258-3.498 1.703-6.57 3.62-9.946 4.745-4.958 1.642-9.124 4.501-13.109 7.695-.669.547-1.186 1.338-2.129 2.402 8.881 3.285 16.972 7.178 26.43 9.216zm129.932-.335c-1.855-2.25-4.41-2.646-6.357-4.014-5.505-3.833-11.648-4.076-17.914-3.255-3.528.457-7.147.882-9.763 3.833-.578.669-1.612.942-2.372 1.46-1.917 1.277-3.924 1.307-5.931.364-1.004-.456-1.917-1.186-2.89-1.733-.213-.122-.608.06-.912.121.121.913.213 1.795.334 2.647-2.22 1.733-5.261 1.855-6.661 4.744 3.103 2.22 6.266 3.985 9.824 4.988 6.661-3.224 13.261-6.113 20.439-7.025 7.209-.913 14.478-1.4 22.203-2.13zm-26.856 75.125c.517-3.528 1.216-6.63 1.399-9.732.243-4.046 1.581-7.665 3.437-11.224 1.642-3.163 2.889-6.539 4.44-9.732 2.19-4.471 1.217-8.395-1.885-11.953-.609-.7-1.764-.943-2.464-1.308-2.251 4.167-4.258 7.968-6.387 11.71-1.582 2.767-3.346 5.444-5.11 8.09-2.828 4.288-3.072 8.79-1.034 13.413.913 2.068 1.977 4.076 3.102 5.992 1.065 1.764 2.221 3.467 4.502 4.744zM89.209 57.212c-1.308 2.402-2.19 4.47-3.467 6.295-1.4 1.977-2.95 3.955-4.775 5.536-2.95 2.585-3.68 6.022-4.289 9.55-.304 1.643.244 3.011 1.764 3.802 3.833 1.977 7.665 3.954 11.528 5.9.79.396 1.672.974 2.676-.182-1.216-5.748-.365-11.405 2.281-16.789 1.095-2.19 2.16-4.38 3.103-6.63.486-1.156.669-2.434 1.034-3.772-3.163-1.916-6.083-3.467-9.855-3.71zm-48.846 6.235c3.65 3.954 8.881 5.292 13.626 7.512.517.243 1.369-.152 1.855-.213.426-4.197.79-8.06 1.217-12.135-2.008-.396-4.32.274-5.718-1.734-1.43-2.068-1.612-4.106-.335-6.235 3.255-.76 5.596.639 7.817 3.011 1.156-2.342 3.376-3.954 2.646-6.782-2.19-1.308-4.38-2.403-6.357-3.833-1.46-1.064-2.737-1.764-4.653-1.155-.943.304-2.099-.153-3.011-.274-4.44 6.782-8.699 13.322-7.087 21.838zm77.497 37.532c1.582 2.555 3.893 4.258 6.844 5.17 5.109-7.756 10.341-15.42 8.972-25.61a714.284 714.284 0 01-6.053-4.926c-1.46 2.737-2.524 5.17-3.984 7.3-3.802 5.444-5.809 11.374-5.779 18.066zm24.91 45.896c1.065-2.281 1.673-3.224 1.977-4.289 1.064-3.649 2.616-7.056 4.745-10.219.821-1.247 1.46-2.677 1.885-4.106a279.586 279.586 0 003.346-11.984c.882-3.406-.487-7.39-3.68-10.493-.335.761-.578 1.399-.882 2.069-1.643 3.406-2.89 7.056-5.019 10.128-2.098 3.102-3.193 6.387-3.954 9.915-.638 2.92-1.125 5.87-1.642 8.851-.091.517-.091 1.155.091 1.642.852 2.403 1.795 4.836 3.133 8.486zm11.466-43.889c1.156 4.258 3.133 7.847 4.441 11.679.122.335.395.7.7.852 2.433 1.369 4.775 3.041 7.36 3.954 3.68 1.277 7.543 2.007 11.618 3.072 1.612-3.194 2.677-6.478 2.13-10.341-1.035-.517-1.947-1.186-2.981-1.551-7.087-2.494-14.174-4.928-21.26-7.361-.456-.152-1.004-.152-2.008-.304zM138.482 7.939c-.548-.304-.73-.517-.852-.486-4.623 1.764-8.334 4.957-12.136 7.968-.699.548-1.277 1.49-1.49 2.373-.852 3.224-3.011 5.627-5.018 8.09-2.616 3.224-3.65 6.904-3.924 11.284 1.034.122 2.251.67 2.677.274 2.068-1.886 4.775-2.008 7.299-2.768.335-.76.761-1.43.882-2.129 1.065-5.292 3.65-9.854 6.783-14.173 1.764-2.433 3.376-4.988 4.927-7.574.547-.82.608-1.946.852-2.859zM161.81 150.92c8.303-4.015 13.048-12.379 12.409-21.534-3.954-1.855-8.273-2.798-12.987-3.71.122 2.859.334 5.261.334 7.695 0 2.25.213 4.623-.425 6.721-1.156 3.65-.426 6.965.669 10.828zm-2.646 4.106c-.122-3.376.03-6.387-.396-9.337-.304-2.099-.365-3.985.304-6.053.913-2.829.335-6.296-1.034-9.733-2.524 4.167-5.049 8.121-7.36 12.227-1.004 1.795-1.582 3.832-2.251 5.809-.547 1.643-.73 3.316.365 5.11 2.342 1.217 4.806 2.525 7.482 3.924 1.065-.7 2.099-1.4 2.89-1.947zm11.314-91.975c-.76-.608-1.247-1.277-1.825-1.399-2.22-.426-4.471-1.004-6.691-.882-6.57.335-13.139.913-19.679 1.551-5.292.517-10.31 2.16-15.116 4.32-.943.425-1.764 1.125-2.616 1.703.913 1.916 2.069 1.155 3.042.82 3.923-1.398 7.847-2.706 12.044-2.797 6.053-.153 12.014-.852 17.884-2.282 2.555-.608 5.171-.882 7.847-.334 1.521.304 3.255.669 5.11-.7zm61.195-29.046c-.304.547-.7 1.125-.882 1.764-1.126 3.59-1.825 7.36-3.346 10.767-2.159 4.775-4.927 9.307-7.421 13.93-1.521 2.829-3.072 5.627-4.593 8.455-.121.244.061.67.122 1.034.152 0 .365.03.426-.06 3.954-5.931 7.725-12.014 11.892-17.793 3.346-4.654 4.045-10.067 5.414-15.299.213-1.064.121-2.28-1.612-2.798zm-92.097 47.538c1.734 1.521 1.734 1.521 2.799 1.339 10.006-1.703 19.921-1.551 29.685 1.49 1.277.396 2.646.608 3.954.882-7.3-4.897-15.603-5.9-23.876-6.144-4.106-.09-8.729-.425-12.562 2.433zM95.11 83.825c1.855-4.684 4.136-8.973 6.752-13.11 1.186-1.855 1.825-4.075 2.555-6.204.121-.334-.365-1.247-.73-1.338-.639-.152-1.734-.122-1.977.243-1.49 2.403-3.011 4.806-4.076 7.36-1.733 4.168-3.345 8.426-2.524 13.049zm128.26 21.959c.365-3.71.334-7.512 1.186-11.101.912-3.802 2.646-7.391 4.015-11.071.06-.183.152-.335.182-.517.183-.791.335-1.582.7-3.255-6.935 9.49-9.064 18.067-6.083 25.944zm-47.326.821c-6.418-4.44-19.496-8.911-24.423-8.577 7.451 5.08 15.998 6.722 24.423 8.577zm68.707 2.19c-1.794-1.277-2.798-.638-3.285.882-.851 2.646-1.581 5.323-2.342 7.969 2.13 1.764 2.13 1.764 6.54.7 1.277-3.468-1.399-6.448-.913-9.551zM43.039 39.662c-.79 1.004-1.672 1.886-2.311 2.98-2.89 4.898-5.688 9.886-5.14 15.877.091.913.06 1.917 1.612 2.16.456-2.372.79-4.775 1.43-7.087.668-2.342 1.642-4.623 2.554-6.873.913-2.19 2.738-4.015 1.855-7.057zm202.108 51.219c-.913 4.927-1.673 9.124-2.494 13.565 1.46.517 2.646 2.038 4.805 1.034 1.186-4.806.821-9.49-2.311-14.6zm-66.214 54.838c1.156-3.011 1.795-5.505.426-7.999-.426-.791-1.46-1.278-2.342-2.007a345.005 345.005 0 00-2.524 6.691c-.091.304.091.699.152 1.216.517.335 1.095.791 1.734 1.126.669.304 1.368.517 2.554.973zm-60.069-96.841c.456 3.254 1.521 4.775 3.984 5.2 1.886.335 3.224-.486 3.833-2.28-3.346-4.32-3.346-4.32-7.817-2.92zm42.277 71.779c3.558 4.623 8.911 4.714 14.203 5.019-4.197-2.981-9.337-3.498-14.203-5.019zm21.99-81.36c-6.388 5.353-8.517 8.912-8.486 13.626 3.467-3.802 6.022-7.908 8.486-13.626zM87.506 52.59c.67-.183 1.49-.152 1.977-.548 1.43-1.216 2.798-2.494 4.076-3.893 1.672-1.855 1.52-2.342-1.308-5.019-.67.883-1.947 1.765-1.886 2.555.183 2.86-1.794 4.35-2.859 6.905zm40.999-4.046c.974.882 1.126 1.126 1.217 1.126 4.167-.7 8.334-1.43 12.47-2.19.274-.061.456-.517.943-1.126-.852-.364-1.673-1.064-2.372-.973-2.403.335-4.776.882-7.117 1.46-1.521.395-3.042 1.004-5.141 1.703zm-14.051 2.403c-1.339-1.886-3.163-1.916-4.988-1.125-1.612.7-3.559 1.368-3.163 4.745 2.919-1.308 6.508.486 8.151-3.62zm-9.338-17.367c2.494 1.551 4.441 2.464 7.026 1.612.243-2.19 1.916-4.015 1.186-7.117-1.125 2.342-1.946 4.106-3.011 6.296-1.216-1.308-2.038-2.22-3.072-3.346-.608.73-1.155 1.4-2.129 2.555zm72.996-10.736c-.365-1.764-1.034-3.042-2.463-3.802-1.035-.578-2.525.06-2.525 1.247 0 1.034.122 2.372.76 3.041 1.187 1.217 2.677 1.065 4.228-.486zm10.341-5.019c-.243-1.733-1.368-2.676-2.95-2.98-.608-.122-1.582.213-1.916.7-.335.486-.365 1.52-.061 2.098 1.065 1.916 2.646 1.946 4.927.182zM56.361 26.188c-2.007-.912-3.193-1.46-4.38-1.977-1.034-.425-2.068-1.064-3.102 0-.73.76.152 1.795 2.13 2.525 1.52.578 3.04 1.308 5.352-.548zM79.933 65.09c2.859-.852 4.227-3.041 5.17-5.505.304-.79 0-1.795-.06-3.893-2.13 3.923-3.62 6.66-5.11 9.398zm37.806-23.085c-.791-.547-1.217-.912-1.704-1.156a5.814 5.814 0 00-1.551-.517c-.943-.121-2.007-.121-2.19 1.034-.091.578.304 1.46.791 1.886 1.582 1.49 2.129 1.338 4.654-1.247zm-28.834-8.668c-3.315-2.433-3.315-2.494-4.714-2.008-.456.153-1.004.64-1.126 1.095-.121.426 0 1.187.335 1.49 1.734 1.613 2.95 1.491 5.505-.577zm148.729 31.662c2.95-2.525 4.654-5.779 5.87-9.277.061-.182-.365-.547-.882-1.186-1.703 3.62-3.345 7.056-4.988 10.463zM97.087 41.608c.06 2.464.882 3.833 2.463 4.685.396.212 1.156.152 1.521-.092.335-.243.669-1.064.517-1.399-.821-1.703-1.916-3.072-4.501-3.193zm81.938-34.155c-1.247 3.102-2.586 5.444-2.707 8.455 1.034.304 1.825.517 2.707.79V7.454zm28.59 55.811c-.913 2.89-.578 4.258 1.277 4.745.395.091 1.156-.213 1.369-.578.882-1.46.243-2.677-2.129-4.197-.092-.092-.335 0-.517.03zM71.69 34.704c-.334.426-.882.791-.912 1.248-.152 1.43 1.064 2.767 2.768 2.889.608.03 1.46-.395 1.885-.882.67-.821-.212-2.038-1.977-2.798-.517-.244-1.094-.304-1.764-.456zm52.253 39.57c-2.068 3.407-3.558 5.688-4.897 8.06-.365.64-.243 1.49-.517 3.194 2.89-3.498 4.867-6.296 5.414-11.254zm21.929 34.004c-1.095 2.16-2.22 4.289-3.254 6.448-.213.426 0 1.065.061 2.403 2.403-3.072 3.315-5.779 3.193-8.851zm-89.207-68.25c.244-.305.913-.761 1.035-1.34.273-1.307-.791-2.524-2.22-2.554-.457 0-1.278.79-1.34 1.277-.242 1.612.67 2.555 2.525 2.616zm77.863 54.655c2.159-2.616 3.801-5.475 2.676-9.307-.943 3.315-1.825 6.326-2.676 9.307zm55.811-59.766c.274-1.764-1.034-3.467-2.372-3.436-.305 0-.7.304-.852.578-.7 1.368.061 3.163 1.551 3.406.578.122 1.247-.395 1.673-.548zm-64.297 6.266c-.274-1.673-1.825-2.98-3.224-2.737-.365.06-.943.79-.913 1.186.122 1.642 1.552 2.798 3.072 2.494.426-.091.761-.67 1.065-.943zm55.963-29.959c2.616.365 2.616.365 4.715-.334-3.012-2.16-3.012-2.16-4.715.334zm40.118 70.046c.76-2.403.638-2.95-.822-3.437-.79-.274-1.551-.03-1.733.821-.396 1.643.547 2.373 2.007 2.646.183.061.365 0 .548-.03zm-61.682-43.646c-.487.03-.912-.03-1.216.122-.457.243-1.095.608-1.126.943-.03.365.548 1.125.882 1.125 1.065.03 2.16-.152 3.224-.395.243-.06.517-.608.487-.882-.031-.243-.426-.548-.73-.639-.517-.182-1.095-.213-1.521-.274zM115.64 24.728c3.224-2.859 3.224-2.859 3.163-5.14-2.251 1.977-2.22 2.008-3.163 5.14zm37.106 22.842c.426.274.882.547 1.308.821 1.338-1.247 1.825-2.859 1.247-5.687-1.065 2.068-1.825 3.467-2.555 4.866zm-47.66 11.892c.243.365.517.73.76 1.095 1.339-.76 2.707-1.52 4.806-2.707-3.102-.79-4.471.122-5.566 1.612zm-5.231-20.895c2.22 1.034 3.345.274 4.44-1.216-2.038-1.551-3.285-1.095-4.44 1.216zm102.65 34.552c-.304.243-.943.517-1.004.882-.182 1.216.456 2.16 1.643 2.402.547.092 1.186-.425 1.794-.669-.426-.76-.791-1.52-1.277-2.22-.122-.243-.639-.243-1.156-.395zm-44.497 48.116c-1.673.669-2.19 1.764-1.186 4.228.578-2.099.882-3.163 1.186-4.228zM55.996 54.383c-1.156-.365-1.886-.639-2.615-.79-.061-.031-.457.73-.396.82.426.487.913.974 1.49 1.187.213.09.73-.548 1.521-1.217zm15.481 9.307c-.73.76-1.064 1.064-1.399 1.399.365.335.73.882 1.156.943.335.03 1.004-.517 1.034-.821.03-.426-.426-.882-.79-1.521z" fill="#fff" fill-opacity=".13"/><path d="M18.038 84.98c-3.498-1.642-5.992-3.862-6.934-7.42-.152-.579.182-1.309.456-2.92 1.825 2.646 3.133 4.562 4.288 6.204.821.152 1.247.365 1.551.244 3.498-1.4 6.235-.517 9.307 1.764 4.106 3.041 9.216 4.258 14.174 5.505 4.775 1.216 9.55 2.311 13.808 4.927 1.43.882 3.042 1.642 4.167 2.828 1.46 1.552 3.072 1.917 5.049 1.947 2.828.06 5.505.608 8.273 1.46 4.106 1.247 8.546 1.399 12.804 2.159 2.19.396 4.532.822 6.448 1.856 3.894 2.068 8 3.406 12.197 4.501 4.775 1.278 7.208 4.38 6.387 9.064-.821 4.714-.76 9.398-.821 14.112-.031 2.069-.274 4.167-.822 6.144-.882 3.133-1.459 6.205-1.368 9.49.121 4.562-1.156 5.991-5.232 7.634-4.592 1.855-8.76 1.703-12.804-1.399-3.954-3.042-8.364-5.141-13.504-5.262-.73-.031-1.46-.396-2.13-.73-9.459-4.745-19.617-7.786-29.259-12.044-3.254-1.43-6.356-3.376-9.215-5.475-3.346-2.433-6.296-5.353-9.794-7.665-4.623-3.072-5.718-8.273-6.54-13.352-.334-2.038-.09-4.167-.12-6.235 0-1.521.242-3.072-.062-4.532-.73-3.406-.547-6.752-.152-10.128.091-.73-.06-1.49-.152-2.676zm62.716 55.234c1.277 1.004 2.615 1.369 4.197.213.304-1.369.578-2.829.943-4.258 1.004-3.832.091-5.931-3.741-8.364-.061.578-.152 1.156-.122 1.703.183 2.251.243 4.501.67 6.722.395 2.068-.548 3.193-2.069 4.167.274-6.388-1.703-12.44-2.737-18.736-.578.578-.974 1.186-1.004 1.794-.091 3.741.182 7.513-.213 11.224-.334 3.345 1.095 4.866 4.076 5.535zm-48.755-18.249c-.882-2.129-2.312-3.771-4.32-4.927-1.855-1.065-3.102-2.616-3.77-4.684-.244-.821-.883-1.521-1.613-2.707.608 7.178 3.285 10.372 9.794 12.196-.091 1.947 1.186 3.194 2.555 4.137 2.89 2.068 5.778 4.319 9.002 5.779 5.11 2.372 10.524 4.106 15.755 6.204 3.833 1.521 7.695 3.011 11.406 4.806 2.555 1.277 5.08 2.403 7.969 2.737 3.041.335 5.779 1.491 8.303 3.315 1.977 1.4 4.228 2.464 6.448 3.498 2.311 1.065 8.364-.365 9.885-2.342.639-.821.973-2.007 1.095-3.102.182-1.673-.244-3.467.182-5.079 1.43-5.293 2.251-10.554 1.886-16.12-.213-3.437-.578-7.056.487-10.554.334-1.065-.031-2.646-2.129-2.768-.457 4.106-.882 8.182-1.399 12.257a8.92 8.92 0 01-1.095 3.163c-1.217 2.129-1.43 4.258-.578 6.509 1.247 3.315.73 6.722.456 10.098-.243 3.102-2.099 4.714-5.201 4.866-2.677.122-5.262-.121-7.543-1.825-2.25-1.703-4.836-2.706-7.573-3.558-3.772-1.186-7.695-1.977-11.284-3.437-7.33-3.011-14.356-6.691-21.503-10.098-2.403-1.156-4.684-2.433-6.296-4.684-.517-.73-1.339-1.46-2.19-1.703-2.89-.73-5.81-1.308-8.73-1.977zm24.544 8.547c.517-.639 1.247-1.126 1.43-1.734.7-2.737 1.247-5.383.608-8.334-1.216-5.931-1.916-11.953-.486-17.975.517-2.129-.213-3.771-1.947-4.866-1.734-1.095-3.559-2.13-5.444-3.011-6.691-3.194-13.991-4.532-20.986-6.752-1.339-.426-2.768-.64-4.654-1.095-.06 2.555-.122 4.592-.152 6.63-.03 2.829.365 5.688-.091 8.425-.852 5.171.942 9.185 4.562 12.653.669.638 1.642 1.064 2.16 1.794 2.098 3.102 5.11 4.41 8.668 4.532 1.642.061 3.01.487 3.984 1.764 3.133 4.076 7.847 5.657 12.348 7.969zm18.797-26.461c0 1.794-.243 2.95.03 3.984 1.126 4.228 2.707 8.212 5.627 11.588 1.612 1.825 3.133 3.772 4.44 5.809 3.924 6.053 6.297 12.805 8.273 19.679.092.304.518.487 1.217 1.125.487-.669 1.004-1.368 1.582-2.129.608.183 1.308.396 2.129.639 1.247-3.194 1.764-6.418.638-9.794-.912-2.737-1.216-5.383.457-8.12.821-1.369 1.064-3.255 1.034-4.897-.061-1.947.213-3.65 1.034-5.445.882-1.885.486-2.919-1.278-3.649-2.433-1.004-4.927-1.886-7.451-2.555-4.015-1.034-8.06-1.795-11.71-3.985-1.612-.942-3.528-1.338-6.022-2.25zm-12.105 28.742c1.55-1.764.456-3.924.638-5.87.183-2.068.122-4.137.396-6.205.304-2.251.852-4.44 1.247-6.661.365-2.038.76-4.075 1.034-6.113.243-1.886 1.156-3.802.243-5.901-2.068 1.004-2.494 2.677-2.768 4.319-.79 4.623-1.672 9.246-2.19 13.9-.395 3.558-.303 7.147-.334 10.736-.03.974.365 1.795 1.734 1.795zm4.684 3.041c.73-1.307 1.247-1.855 1.338-2.494.213-1.49.334-2.98.304-4.501-.03-4.897-.03-9.763.882-14.599.487-2.525.395-5.232-.274-9.155-2.463 10.736-4.775 20.135-2.25 30.749zm3.528 1.247c1.55.822 2.403.426 2.524-.669.243-2.25.274-4.501.335-6.752.121-4.866.213-9.763.243-14.629 0-.365-.547-.761-1.034-1.339-2.372 7.847-1.277 15.603-2.068 23.389zm-50.094-37.41c1.217-4.623.304-9.216.03-13.778-1.094 4.593-.668 9.216-.03 13.778zm66.791 38.019c-.608 5.292-.608 5.292 2.647 5.687-.73-1.612-1.43-3.041-2.647-5.687zm36.499-8.456c1.186 2.464.79 4.471.06 6.296-.638 1.703-.638 3.254-.121 4.927.882 2.981 1.642 5.992 2.555 9.398-.761 1.612-2.707 1.917-4.532 1.917-2.22.03-4.289-.73-7.026-3.285 3.041.486 4.775.79 6.661 1.095 1.308-2.19 1.46-4.593.639-6.54-2.099-4.866-.365-9.033 1.764-13.808zm-3.772 31.997c2.829-1.156 1.308-3.863 2.585-5.901 1.643 1.764 3.194 3.467 5.08 5.475-.852.851-1.886 1.581-2.555 2.555-.669 1.003-.943 2.22-1.673 4.045-.76-1.521-1.156-2.494-1.673-3.407-.517-.912-1.125-1.794-1.764-2.767zm-31.236 12.683c.791-.852 1.4-1.551 2.038-2.19.548-.578 1.338-1.004 1.855-.213.274.426.122 1.46-.213 1.946-1.976 2.829-3.74 3.407-6.69 2.16-2.19-.943-4.35-2.038-6.54-4.349 1.247-.122 1.916-.365 2.433-.183 2.19.852 4.045 2.677 7.117 2.829zm76.25-6.296c1.916-1.034 3.346-1.764 4.958-2.646-.274 3.649-3.133 5.931-5.779 4.927-.882-.335-1.703-.791-2.494-1.308-1.065-.7-2.038-1.521-2.981-2.22.457-1.643 1.46-1.369 2.251-1.004 1.308.608 2.585 1.43 4.045 2.251zm-75.246 10.614c.639 0 1.308-.152 1.855.031 2.13.73 4.197 1.673 6.326 2.342 2.008.639 4.076 1.003 5.414-2.22.639 1.338 1.278 2.037 1.126 2.524-.244.791-.852 1.855-1.521 2.068-1.186.365-2.585.274-3.863.152-.912-.091-1.794-.517-2.646-.882-2.311-1.034-4.684-1.916-6.691-4.015zm54.199-10.584c.821.578 1.856 1.034 2.464 1.795 2.159 2.707 4.501 4.44 8.121 2.524.243-.122.851.396 1.581.791-1.308 1.886-2.98 2.372-4.866 2.524-1.582.122-2.92-.517-4.045-1.551-1.643-1.49-2.981-3.224-4.076-5.11.243-.334.517-.669.821-.973zM34.523 72.845c-1.308-.213-1.825-.274-2.372-.365-.548-.091-1.095-.152-1.703-.243-.244.547-.73 1.155-.609 1.55.426 1.339 1.065 2.616 1.612 3.924-1.216 1.369-2.555.974-3.163-.334-.608-1.278-.76-2.89-.76-4.35 0-2.007.943-3.163 2.372-3.376 1.856-.304 2.92.335 4.623 3.194zm-18.036 31.996c-1.49 1.278-2.19 1.856-2.859 2.434-1.277 1.094-1.642 2.372-.882 3.953.395.822.608 1.704.79 2.586.062.243-.273.73-.547.851-.273.152-.79.122-1.003-.061-1.856-1.612-2.829-4.714-2.069-6.447.943-2.221 2.707-3.285 6.57-3.316zM9.096 85.376c2.008 5.626 2.008 5.626 5.566 8.212-.851 1.338-2.16 1.46-3.254.851-2.616-1.43-3.924-3.862-3.924-6.813 0-.547.791-1.125 1.612-2.25zm36.985 55.75c1.004.67 2.069 1.339 3.042 2.069 1.825 1.308 3.62 2.676 6.144 1.764.243-.091 1.186.699 1.125.882-.183.608-.578 1.277-1.065 1.673-.364.273-1.094.273-1.611.182-3.65-.639-6.479-2.494-8.425-5.566.243-.334.517-.669.79-1.004zM88.57 95.413c1.43 1.399 2.738 3.01 4.38 4.106 1.673 1.125 3.68 1.703 5.597 2.524.182 1.308-.822 1.643-1.704 1.46-1.612-.365-3.406-.699-4.684-1.642-1.916-1.399-3.619-3.255-3.589-6.448zm22.691 74.851c-.122 2.433-1.704 2.737-3.194 2.676-3.011-.121-6.539 1.095-8.699-3.132 2.403.334 4.411.76 6.448.851 1.764.061 3.559-.243 5.445-.395zm.304-12.166c2.859 2.159 4.471 6.083 8.577 6.174-.244 1.886-1.46 2.099-2.464 1.734-3.254-1.186-5.687-3.376-6.874-6.722-.06-.213.365-.578.761-1.186zm-32.211 5.322c.213 1.673-.73 2.312-1.916 2.19-3.771-.365-6.66-1.946-7.695-6.417 2.464.061 2.829 2.615 4.44 3.102 1.704.517 3.468.76 5.171 1.125zM18.556 73.97c-1.977-.578-2.403-2.038-2.403-3.528 0-1.034.243-2.342.882-3.102.79-.913 2.068-1.46 3.254-1.886.456-.182 1.217.426 2.13.79-1.521 1.339-3.073 2.16-3.742 3.468-.547 1.095-.121 2.737-.121 4.258zm114.512 80.569c1.52 1.217 2.767 2.19 3.984 3.163 1.156-.517 2.159-.942 3.65-1.581 0 .912.213 1.612-.031 2.129-.608 1.247-1.764 2.068-3.132 1.855-1.035-.152-2.038-.76-2.951-1.368-.973-.67-1.125-1.278-1.52-4.198zM20.593 124.307c1.825 2.768 3.407 5.17 5.17 7.817-.09.06-.486.699-.82.669-2.13-.152-3.225-1.795-4.167-3.407-.791-1.429-1.734-2.98-.183-5.079zm16.881 15.116c-1.612 1.521-2.038 2.251-2.586 2.403-1.642.456-2.859-.547-3.953-1.582-1.46-1.338-1.643-1.977-1.673-5.231 2.342 1.977 3.62 5.049 8.212 4.41zm-8.791 7.421c-2.767 1.43-4.166-.152-5.596-1.095-1.642-1.064-3.254-2.311-3.315-5.109 3.041 2.129 5.688 3.984 8.912 6.204zm72.267 13.809c-1.673 2.342-3.863 2.433-5.9 2.494-1.674.061-3.316-.517-4.867-2.494 2.342.121 4.136.121 5.9.334 1.582.183 2.768-2.372 4.867-.334zM69.623 90.881c3.801 2.099 6.508 3.62 9.154 5.08-.06 1.216-.73 1.58-1.52 1.277-2.86-1.004-5.78-1.947-7.635-6.357zm48.055 88.386c-.487 1.551-1.46 1.49-2.373 1.247-2.828-.791-4.805-2.586-6.295-5.566.973-.061 1.642-.304 1.916-.091 1.216.882 2.25 2.037 3.467 2.859 1.004.669 2.19 1.064 3.285 1.551zm15.967-9.611c2.92-1.612 5.049.669 7.421.547.517 1.308 0 1.734-.851 1.795-2.494.182-4.441-1.248-6.57-2.342zM82.7 154.357c-3.649 2.098-5.93.03-8.485-2.099 1.916-1.338 3.102.061 4.38.487 1.43.456 2.767 1.064 4.106 1.612zm-28.894-71.84c-.243-3.467 1.764-4.288 3.498-5.231.943-.517 2.129-1.035 2.98.851-1.855 1.247-3.77 2.555-6.478 4.38zm90.272 78.41c3.498 1.368 6.357.304 9.216 1.49-3.194 2.524-5.231 2.281-9.216-1.49zM18.434 118.194c-2.282 1.733-4.106 3.163-6.296 4.836-.396-2.738.82-4.167 2.555-5.323 1.003-.669 1.581-.608 3.74.487zm35.586 39.417c3.071.943 5.109 1.582 7.147 2.221-.335 1.855-1.521 1.52-2.555 1.368-1.795-.243-3.62-.486-4.593-3.589zm-8.487-4.653c-1.034 2.038-2.342 1.642-3.558 1.308-2.312-.639-4.41-1.612-5.505-5.201 1.977 1.247 3.041 2.129 4.319 2.676 1.338.517 2.828.73 4.744 1.217zm-33.821-22.842c2.525 1.764 4.35 3.011 6.114 4.228.152 1.49-.76 1.673-1.704 1.369-2.341-.761-4.41-1.856-4.41-5.597zm104.78 56.329c-1.612 1.733-2.342 4.805-6.783 4.258 2.768-2.008 3.68-4.623 6.783-4.258zM75.28 84.524c-.822.67-1.552 1.582-2.495 1.977-1.399.639-2.95.943-4.714 1.49-.243-1.733.274-3.132 1.886-3.406 1.764-.304 3.62.03 5.444.06l-.121-.12z" fill="#fff" fill-opacity=".13"/><path d="M58.703 87.687c1.916 1.734 3.467 3.133 5.475 4.958-1.125.426-1.855 1.004-2.281.821-2.403-1.034-2.707-1.642-3.194-5.779zm-16.15-5.505c.578-4.38 1.43-4.897 5.11-3.589-1.582 1.095-3.042 2.13-5.11 3.59zm77.527 46.657c-2.19-1.247-3.771-1.886-4.623-3.833 4.106.396 4.106.396 4.623 3.833zm-8.12 6.509c2.798.608 4.532 1.003 5.687 2.798-2.98.821-2.98.821-5.687-2.798zm-36.65 35.555c1.825 3.041 1.216 3.771-3.042 4.166.274-1.855 2.068-2.402 3.042-4.166zm30.384-63.172c.852-3.984 2.981-4.289 4.897-4.836-.396 2.403-2.281 3.102-4.897 4.836zm-47.842 59.643c2.402-.912 3.893-1.52 5.778-.273-1.672 1.794-3.193 1.703-5.779.273zm51.279-20.925c1.429.943 2.342 1.49 3.163 2.099.152.121.122.73-.03.942-.183.244-.639.426-.913.366-1.338-.213-2.342-.822-2.22-3.407zm23.572-5.87c2.829-.182 3.194.243 2.403 3.559-1.278-1.004-2.221-1.977-2.403-3.559zM62.93 151.771c0-1.885-.12-2.737.062-3.497.06-.335.76-.517 1.186-.761.243.457.76 1.004.639 1.308-.274.761-.852 1.399-1.886 2.95zm142.039-29.38c-.305 1.946-1.278 2.463-2.464 2.19-2.403-.548-4.41-1.764-5.627-3.985-.121-.213.122-.669.274-1.277 1.642-.152 2.311 1.521 3.528 2.007 1.308.457 2.737.669 4.289 1.065zm-6.114-13.17c1.308.608 2.555 1.399 3.924 1.795 1.156.334 2.403.213 3.832.334-.638 1.947-1.885 2.251-3.224 2.129-2.372-.213-3.437-1.003-4.532-4.258zm19.618 3.833c-1.794 1.368-3.65 2.737-5.596 4.197-.091-2.798.517-4.045 2.859-5.14.943-.457 2.19-.852 2.737.943zm-13.352 23.571c-3.407 2.312-3.711 2.251-7.269-1.004 2.463-.517 4.349.396 7.269 1.004zm-11.741-32.392a890.016 890.016 0 00-5.505-2.768c.669-.426 1.217-1.095 1.734-1.064 1.247.06 2.646.182 3.711.73 1.247.669.821 1.855.06 3.102zm.213 28.104c-2.068.79-3.558 1.338-4.957 1.855-1.126-.943-.791-1.764 0-2.373 1.368-1.095 2.828-1.52 4.957.518zm-3.011-14.904c-1.916.609-2.676.974-3.498 1.065-.608.061-1.247-.183-2.25-.365 1.521-1.825 2.859-2.16 5.748-.7zm13.535 15.542c1.125-1.521 1.49-2.342 2.099-2.798.851-.639 2.007-.426 2.433.487.547 1.155-.456 1.642-1.43 1.855-.547.152-1.094.182-3.102.456zm-16.089-9.246c.273-.243.486-.608.76-.639 1.034-.091 2.251-.547 2.889.761.092.182-.213.76-.456.882-1.156.608-1.186.578-3.193-1.004zM199.98 17.368c1.491 2.403-.425 4.775.153 7.726.851.82 2.159 1.885 3.284 3.132 1.825 2.008 2.099 4.197.882 5.657-1.338 1.643-5.018 2.312-6.782.974-2.798-2.069-5.262-4.593-2.068-8.425 1.672-2.008 2.189-4.32 2.524-6.783.183-1.247.76-2.129 2.129-2.19l-.122-.09zm.517 14.903c.274-.243.974-.547 1.278-1.095.182-.304-.122-1.094-.456-1.429-.639-.608-1.43-1.125-2.251-1.52-.76-.366-1.855.79-1.642 1.672.334 1.369 1.095 2.281 3.071 2.372zm-20.986 20.561c.791-.457 1.582-1.034 2.433-1.369 2.677-1.034 5.232.06 6.357 2.677.7 1.581.183 3.345-1.308 4.41-1.247.912-2.798.851-4.136-.183-1.855-1.46-2.525-3.589-3.224-5.718l-.122.183zm-34.399-19.04c-1.065-.213-2.221-.243-3.224-.669-2.312-.973-3.68-4.045-2.859-5.992 1.277-3.041 4.592-4.47 7.33-3.072 3.619 1.856 3.862 3.954 3.437 7.422-.061.578-.791 1.338-1.369 1.581-1.034.396-2.159.487-3.315.73zm-.517-7.147c-1.339 0-2.525 1.216-2.403 2.494.152 1.216 1.338 2.038 2.889 1.946 1.278-.06 2.16-.943 2.099-2.098-.03-1.247-1.247-2.312-2.585-2.342zm14.721-9.095c-.852-1.246-1.734-2.433-2.494-3.74-1.369-2.312 1.155-5.232 3.193-5.475 4.41-.517 8.091 3.498 7.087 7.847-.274 1.217-1.49 2.25-2.95 2.129-1.673-.152-3.316-.608-4.988-.913l.152.153zm1.946-6.204c-.243.365-.791.912-.821 1.46-.061 1.46.791 2.464 2.16 2.798.395.091 1.186-.243 1.338-.578.699-1.642-.456-3.406-2.677-3.68z" fill="#fff" fill-opacity=".13"/><path d="M159.194 17.398c-.213 1.49 1.551 3.346-.973 4.563-.974-.974-1.917-2.069-3.042-2.95-.882-.7-2.737-.153-2.798.851-.031.79.365 1.825.943 2.342.638.547 1.672.7 2.585.852.517.09 1.125-.183 1.673-.152.517.03 1.064.212 2.098.425-.517.76-.73 1.552-1.216 1.734-2.89 1.095-5.566.517-7.938-1.4-1.765-1.429-2.221-3.558-1.278-5.596.73-1.581 2.798-2.737 4.745-2.311 1.825.395 3.558 1.186 5.353 1.794l-.152-.152zm65.453 21.656c.092 3.133-1.095 4.501-3.315 5.018-2.464.578-4.684-.365-5.627-2.463-.943-2.038-.486-4.684 1.126-5.536 1.733-.912 3.619-.973 5.353.061 1.49.882 2.433 2.25 2.463 2.92zm-3.285 1.825c.061-1.46-.973-2.646-1.946-2.312-.395.152-.821.76-.852 1.186-.091 1.065.609 1.734 1.643 1.795.426.03.851-.456 1.155-.67zm-3.771 13.504c-.061 2.099-2.221 3.954-4.623 3.984-2.525 0-4.502-2.19-4.319-4.775.152-2.16 2.646-4.075 5.261-4.075 1.886 0 3.742 2.463 3.681 4.866zm-3.011-.182c-.669-.548-1.034-.882-1.43-1.217-.395.456-.912.882-1.095 1.43-.061.243.73 1.064.913 1.003.547-.213 1.003-.73 1.612-1.216zm17.215 37.653c-.031-2.038.608-3.133 2.007-3.558 1.673-.517 3.407.152 4.319 1.703.091.152.152.335.243.517 1.004 2.038.943 4.045-.213 5.2-1.034 1.035-2.281 1.035-3.589.457-2.098-.973-2.737-1.855-2.767-4.319z" fill="#fff" fill-opacity=".13"/></svg>