<svg width="37" height="38" fill="none" xmlns="http://www.w3.org/2000/svg"><path d="M13.464.475C11.151.53 8.962 2.066 7.85 4.94c-2.92 1.073-5.004 3.025-6.046 5.425-1.002 2.304-1.05 4.99-.066 7.665H.566a.431.431 0 00-.378.416c0 4.997 1.584 9.649 4.091 13.065 2.5 3.408 5.941 5.598 9.641 5.608 3.162.08 6.697.034 9.199 0 3.71 0 7.16-2.204 9.667-5.621 2.507-3.418 4.091-8.061 4.091-13.052a.433.433 0 00-.417-.416h-2.123c.827-1.176 1.444-2.195 1.641-3.266.22-1.187-.15-2.407-1.107-3.8 1.386-3.318.535-6.156-1.342-7.677-1.846-1.496-4.609-1.69-6.984-.156a4.485 4.485 0 00-3.83-1.002c-1.243.244-2.408.97-3.283 2.03C17.904 1.73 15.674.424 13.465.476h0zm.013.833c1.93-.045 3.982 1.079 5.381 3.423-.344.794-.429 1.54-.326 2.264.033.228.09.453.157.677L11.276 4.64c-.3-.088-.408.098-.56.274a15.08 15.08 0 00-.443 2.29C9.795 6.302 9.06 5.679 8.54 5.395c.847-2.388 2.844-3.987 4.938-4.086h0zm12.73 2.603a.431.431 0 00.534.039c2.154-1.541 4.642-1.33 6.267-.013 1.626 1.317 2.431 3.745 1.03 6.897a.424.424 0 00.039.403c1.004 1.384 1.267 2.377 1.08 3.383-.18.98-.845 2.038-1.836 3.41H21.15l2.242-2.356c1.133.008 2.128.083 2.762.716.153.157.436.16.593.006a.435.435 0 00.006-.592c-.719-.718-1.661-.871-2.606-.91l2.632-2.76c1.307-.01 2.448.077 3.127.716.154.157.436.16.593.007a.435.435 0 00.007-.592c-.809-.808-1.9-.908-2.958-.924l2.54-2.668c.172-.175.092-.478-.09-.624-.226-.143-.32-.034-.509.052l-2.332 2.433c-.155-1.055-.527-2.14-1.238-2.85a.425.425 0 00-.39-.13c-.304.055-.435.507-.21.716.609.607 1.02 1.932 1.108 3.032l-2.983 3.11c-.122-1.156-.49-2.402-1.277-3.188a.425.425 0 00-.39-.13c-.304.055-.435.507-.21.716.675.673 1.119 2.231 1.134 3.383l-2.71 2.837H17.74c.24-.526.377-1.103.377-1.718.006-2.824.828-5.275 2.007-6.844a.425.425 0 00.039-.43c-.41-.82-.702-1.508-.795-2.16-.21-1.986 1.77-3.556 3.518-3.93 1.209-.23 2.583.255 3.322.963h0zM11.823 5.759l2.88 1.184a.616.616 0 00-.548.612.625.625 0 001.25 0 .619.619 0 00-.13-.378l1.681.677a.625.625 0 00.326 1.158c.472-.075.617-.357.612-.767l1.212.494c.131.17.138.387.17.52a.833.833 0 10-.743 1.21l.038.001a11.759 11.759 0 00-.82 2.186 15.1 15.1 0 01-1.2-.95.827.827 0 00.73-.82.833.833 0 00-1.667-.026 22.58 22.58 0 01-1.212-1.262c-.96-1.24-2-2.523-2.58-3.839h.001zm-4.26.17c1.274.727 2.098 1.663 2.619 2.667-.011 1.73.34 3.268.833 4.775a4.147 4.147 0 00-1.224 2.733 2.926 2.926 0 00-2.515-1.431 2.923 2.923 0 00-2.918 2.915c0 .15.017.298.039.442H2.625c-1.028-2.589-.997-5.165-.052-7.34.937-2.306 3.13-3.94 4.99-4.762h0zm3.674.598c.591 1.21 1.522 2.465 2.54 3.617 1.275 1.443 2.676 2.684 3.779 3.384-.035.178-.076.363-.104.546a4.16 4.16 0 00-3.505-1.926c-.83 0-1.605.245-2.254.664-.6-1.94-.881-3.886-.456-6.285h0zm4.586 1.86a.625.625 0 100 1.25.625.625 0 000-1.25zm-1.876 4.594a3.327 3.327 0 013.336 3.331c0 .82-.21 1.256-.483 1.718h-5.706a3.308 3.308 0 01-.482-1.718c.057-2.06 1.785-3.284 3.335-3.331h0zm-6.67 2.524c1.155 0 2.084.927 2.084 2.082 0 .155-.02.298-.052.443H5.244a2.05 2.05 0 01-.052-.443c0-1.155.928-2.082 2.084-2.082h0zm-6.229 3.357h34.97a22.845 22.845 0 01-.469 4.152H1.517a22.865 22.865 0 01-.469-4.151h0zm.652 4.984h33.667c-.663 2.706-1.795 5.163-3.258 7.157-2.389 3.258-5.604 5.278-8.976 5.283-2.932.032-6.267.032-9.186 0-3.378 0-6.597-2.01-8.99-5.27-1.465-1.996-2.595-4.455-3.257-7.17v0z" fill="url(#paint0_linear_99_276)" stroke="url(#paint1_linear_99_276)" stroke-width=".1"/><circle cx="25.257" cy="26.768" r="1.534" fill="url(#paint2_linear_99_276)" stroke="url(#paint3_linear_99_276)" stroke-width=".6"/><circle cx="28.925" cy="30.438" r="1.534" fill="url(#paint4_linear_99_276)" stroke="url(#paint5_linear_99_276)" stroke-width=".6"/><circle cx="24.033" cy="31.66" r="1.534" fill="url(#paint6_linear_99_276)" stroke="url(#paint7_linear_99_276)" stroke-width=".6"/><defs><linearGradient id="paint0_linear_99_276" x1="-51.986" y1="20.303" x2="47.153" y2="73.4" gradientUnits="userSpaceOnUse"><stop stop-color="#AF7912"/><stop offset=".019" stop-color="#AD7712"/><stop offset=".183" stop-color="#A26914"/><stop offset=".324" stop-color="#9E6414"/><stop offset=".389" stop-color="#A36C19"/><stop offset=".489" stop-color="#B28126"/><stop offset=".609" stop-color="#C9A33B"/><stop offset=".707" stop-color="#E0C44F"/><stop offset=".8" stop-color="#DEC14D"/><stop offset=".866" stop-color="#D8B847"/><stop offset=".924" stop-color="#CEA83C"/><stop offset=".977" stop-color="#BF922D"/><stop offset="1" stop-color="#B78624"/></linearGradient><linearGradient id="paint1_linear_99_276" x1="-51.986" y1="20.303" x2="47.153" y2="73.4" gradientUnits="userSpaceOnUse"><stop stop-color="#AF7912"/><stop offset=".019" stop-color="#AD7712"/><stop offset=".183" stop-color="#A26914"/><stop offset=".324" stop-color="#9E6414"/><stop offset=".389" stop-color="#A36C19"/><stop offset=".489" stop-color="#B28126"/><stop offset=".609" stop-color="#C9A33B"/><stop offset=".707" stop-color="#E0C44F"/><stop offset=".8" stop-color="#DEC14D"/><stop offset=".866" stop-color="#D8B847"/><stop offset=".924" stop-color="#CEA83C"/><stop offset=".977" stop-color="#BF922D"/><stop offset="1" stop-color="#B78624"/></linearGradient><linearGradient id="paint2_linear_99_276" x1="18.205" y1="26.917" x2="28.119" y2="32.227" gradientUnits="userSpaceOnUse"><stop stop-color="#AF7912"/><stop offset=".019" stop-color="#AD7712"/><stop offset=".183" stop-color="#A26914"/><stop offset=".324" stop-color="#9E6414"/><stop offset=".389" stop-color="#A36C19"/><stop offset=".489" stop-color="#B28126"/><stop offset=".609" stop-color="#C9A33B"/><stop offset=".707" stop-color="#E0C44F"/><stop offset=".8" stop-color="#DEC14D"/><stop offset=".866" stop-color="#D8B847"/><stop offset=".924" stop-color="#CEA83C"/><stop offset=".977" stop-color="#BF922D"/><stop offset="1" stop-color="#B78624"/></linearGradient><linearGradient id="paint3_linear_99_276" x1="18.205" y1="26.917" x2="28.119" y2="32.227" gradientUnits="userSpaceOnUse"><stop stop-color="#AF7912"/><stop offset=".019" stop-color="#AD7712"/><stop offset=".183" stop-color="#A26914"/><stop offset=".324" stop-color="#9E6414"/><stop offset=".389" stop-color="#A36C19"/><stop offset=".489" stop-color="#B28126"/><stop offset=".609" stop-color="#C9A33B"/><stop offset=".707" stop-color="#E0C44F"/><stop offset=".8" stop-color="#DEC14D"/><stop offset=".866" stop-color="#D8B847"/><stop offset=".924" stop-color="#CEA83C"/><stop offset=".977" stop-color="#BF922D"/><stop offset="1" stop-color="#B78624"/></linearGradient><linearGradient id="paint4_linear_99_276" x1="21.874" y1="30.586" x2="31.788" y2="35.896" gradientUnits="userSpaceOnUse"><stop stop-color="#AF7912"/><stop offset=".019" stop-color="#AD7712"/><stop offset=".183" stop-color="#A26914"/><stop offset=".324" stop-color="#9E6414"/><stop offset=".389" stop-color="#A36C19"/><stop offset=".489" stop-color="#B28126"/><stop offset=".609" stop-color="#C9A33B"/><stop offset=".707" stop-color="#E0C44F"/><stop offset=".8" stop-color="#DEC14D"/><stop offset=".866" stop-color="#D8B847"/><stop offset=".924" stop-color="#CEA83C"/><stop offset=".977" stop-color="#BF922D"/><stop offset="1" stop-color="#B78624"/></linearGradient><linearGradient id="paint5_linear_99_276" x1="21.874" y1="30.586" x2="31.788" y2="35.896" gradientUnits="userSpaceOnUse"><stop stop-color="#AF7912"/><stop offset=".019" stop-color="#AD7712"/><stop offset=".183" stop-color="#A26914"/><stop offset=".324" stop-color="#9E6414"/><stop offset=".389" stop-color="#A36C19"/><stop offset=".489" stop-color="#B28126"/><stop offset=".609" stop-color="#C9A33B"/><stop offset=".707" stop-color="#E0C44F"/><stop offset=".8" stop-color="#DEC14D"/><stop offset=".866" stop-color="#D8B847"/><stop offset=".924" stop-color="#CEA83C"/><stop offset=".977" stop-color="#BF922D"/><stop offset="1" stop-color="#B78624"/></linearGradient><linearGradient id="paint6_linear_99_276" x1="16.981" y1="31.809" x2="26.895" y2="37.118" gradientUnits="userSpaceOnUse"><stop stop-color="#AF7912"/><stop offset=".019" stop-color="#AD7712"/><stop offset=".183" stop-color="#A26914"/><stop offset=".324" stop-color="#9E6414"/><stop offset=".389" stop-color="#A36C19"/><stop offset=".489" stop-color="#B28126"/><stop offset=".609" stop-color="#C9A33B"/><stop offset=".707" stop-color="#E0C44F"/><stop offset=".8" stop-color="#DEC14D"/><stop offset=".866" stop-color="#D8B847"/><stop offset=".924" stop-color="#CEA83C"/><stop offset=".977" stop-color="#BF922D"/><stop offset="1" stop-color="#B78624"/></linearGradient><linearGradient id="paint7_linear_99_276" x1="16.981" y1="31.809" x2="26.895" y2="37.118" gradientUnits="userSpaceOnUse"><stop stop-color="#AF7912"/><stop offset=".019" stop-color="#AD7712"/><stop offset=".183" stop-color="#A26914"/><stop offset=".324" stop-color="#9E6414"/><stop offset=".389" stop-color="#A36C19"/><stop offset=".489" stop-color="#B28126"/><stop offset=".609" stop-color="#C9A33B"/><stop offset=".707" stop-color="#E0C44F"/><stop offset=".8" stop-color="#DEC14D"/><stop offset=".866" stop-color="#D8B847"/><stop offset=".924" stop-color="#CEA83C"/><stop offset=".977" stop-color="#BF922D"/><stop offset="1" stop-color="#B78624"/></linearGradient></defs></svg>