<svg width="38" height="38" fill="none" xmlns="http://www.w3.org/2000/svg"><path d="M6.839.577c-.153.155-.186.448-.021.603.98 1 1.386 1.628 1.408 2.216-.282 2.017-2.575 3.406-2.368 5.64.111.998.665 1.89 1.446 2.738a.41.41 0 00.567.02.433.433 0 00.018-.58c-.719-.782-1.163-1.525-1.246-2.267-.098-1.951 2.412-3.44 2.38-5.577-.034-.933-.626-1.725-1.645-2.763-.25-.186-.42-.135-.54-.03h.001zm3.98.009c-.146.157-.175.441-.013.594.98 1 1.386 1.628 1.408 2.216-.282 2.017-2.575 3.406-2.368 5.64.111.998.665 1.89 1.445 2.738a.41.41 0 00.568.02.433.433 0 00.018-.58c-.719-.782-1.163-1.525-1.246-2.267-.028-2.06 2.412-3.44 2.38-5.577-.034-.933-.626-1.725-1.645-2.763-.249-.194-.416-.148-.548-.021h0zM14.8.593c-.14.158-.165.437-.006.586.98 1 1.386 1.629 1.408 2.216-.282 2.018-2.575 3.407-2.368 5.641.111.998.666 1.89 1.446 2.738a.41.41 0 00.567.019.433.433 0 00.019-.58c-.72-.782-1.164-1.524-1.247-2.266-.01-2.042 2.412-3.44 2.38-5.577-.034-.933-.626-1.726-1.644-2.764C15.094.398 14.91.47 14.8.593h0zm13.653 1.745a.403.403 0 00-.088.077l-9.172 11.523H.574a.419.419 0 00-.324.408c0 8.02 4.629 14.573 11.416 17.151-.724 1-1.467 1.99-2.181 2.993-.237.362-.348.733-.312 1.095.036.36.23.686.486.916.512.462 1.277.663 2.131.663h13.66c.828 0 1.588-.213 2.093-.675a1.42 1.42 0 00.473-.904c.035-.36-.075-.733-.311-1.095l-2.132-3.273c6.619-2.752 11.366-9.122 11.366-16.871a.42.42 0 00-.399-.408H25.486l7.701-6.94a.4.4 0 00.075-.076c.895-1.397.477-3.176-.436-4.125-1.21-1.221-2.943-1.429-4.374-.459h0zm3.8 1.032c.627.651.97 2.055.35 3.068l-8.325 7.5h-4.05l8.71-10.95c1.119-.732 2.47-.644 3.315.382h0zM1.086 14.754h35.02a17.613 17.613 0 01-.474 3.667H1.509a19.236 19.236 0 01-.424-3.667h0zm.623 4.481H35.42c-2.16 7.441-9.134 12.632-17.223 12.632-8.09 0-14.516-5.183-16.487-12.632h-.001zM25.822 33.09l1.21 1.847c.162.249.2.436.186.573-.013.136-.075.256-.212.382-.273.25-.869.458-1.558.458H11.79c-.72 0-1.328-.207-1.608-.458a.57.57 0 01-.212-.382c-.013-.13.03-.316.175-.548.436-.613.897-1.234 1.345-1.846 4.406 1.115 10.1 1.007 14.332-.025h0z" fill="url(#paint0_linear_99_272)" stroke="url(#paint1_linear_99_272)" stroke-width=".2"/><path d="M6.704 21.98s.884 2.343 3.941 4.788c3.058 2.446 7.066 2.55 7.066 2.55" stroke="url(#paint2_linear_99_272)" stroke-width=".8" stroke-linecap="round"/><defs><linearGradient id="paint0_linear_99_272" x1="-51.925" y1="20.303" x2="47.215" y2="73.4" gradientUnits="userSpaceOnUse"><stop stop-color="#AF7912"/><stop offset=".019" stop-color="#AD7712"/><stop offset=".183" stop-color="#A26914"/><stop offset=".324" stop-color="#9E6414"/><stop offset=".389" stop-color="#A36C19"/><stop offset=".489" stop-color="#B28126"/><stop offset=".609" stop-color="#C9A33B"/><stop offset=".707" stop-color="#E0C44F"/><stop offset=".8" stop-color="#DEC14D"/><stop offset=".866" stop-color="#D8B847"/><stop offset=".924" stop-color="#CEA83C"/><stop offset=".977" stop-color="#BF922D"/><stop offset="1" stop-color="#B78624"/></linearGradient><linearGradient id="paint1_linear_99_272" x1="-51.925" y1="20.303" x2="47.215" y2="73.4" gradientUnits="userSpaceOnUse"><stop stop-color="#AF7912"/><stop offset=".019" stop-color="#AD7712"/><stop offset=".183" stop-color="#A26914"/><stop offset=".324" stop-color="#9E6414"/><stop offset=".389" stop-color="#A36C19"/><stop offset=".489" stop-color="#B28126"/><stop offset=".609" stop-color="#C9A33B"/><stop offset=".707" stop-color="#E0C44F"/><stop offset=".8" stop-color="#DEC14D"/><stop offset=".866" stop-color="#D8B847"/><stop offset=".924" stop-color="#CEA83C"/><stop offset=".977" stop-color="#BF922D"/><stop offset="1" stop-color="#B78624"/></linearGradient><linearGradient id="paint2_linear_99_272" x1="-9.499" y1="12.37" x2="-13.286" y2="23.264" gradientUnits="userSpaceOnUse"><stop stop-color="#AF7912"/><stop offset=".019" stop-color="#AD7712"/><stop offset=".183" stop-color="#A26914"/><stop offset=".324" stop-color="#9E6414"/><stop offset=".389" stop-color="#A36C19"/><stop offset=".489" stop-color="#B28126"/><stop offset=".609" stop-color="#C9A33B"/><stop offset=".707" stop-color="#E0C44F"/><stop offset=".8" stop-color="#DEC14D"/><stop offset=".866" stop-color="#D8B847"/><stop offset=".924" stop-color="#CEA83C"/><stop offset=".977" stop-color="#BF922D"/><stop offset="1" stop-color="#B78624"/></linearGradient></defs></svg>