<svg width="38" height="44" fill="none" xmlns="http://www.w3.org/2000/svg"><path d="M29.13 34.194l.027.001c.172 0 .32-.133.332-.309l.188-2.439a.334.334 0 00-.308-.358c-.164-.028-.345.123-.358.308l-.188 2.439a.333.333 0 00.307.358v0z" fill="url(#paint0_linear_99_230)" stroke="url(#paint1_linear_99_230)" stroke-width=".2"/><path d="M27.002 41.82c0 .185.15.335.334.335h1.206c.175 0 .32-.135.334-.31l.386-5.019a.333.333 0 00-.307-.359c-.165-.028-.345.123-.36.308l-.362 4.71h-.897a.335.335 0 00-.334.335h0z" fill="url(#paint2_linear_99_230)" stroke="url(#paint3_linear_99_230)" stroke-width=".2"/><path d="M.475 26.501a.334.334 0 00.458-.117l4.099-6.911 1.856 24.045c.013.175.159.31.333.31H30.09c.175 0 .32-.135.334-.31l1.856-24.045 4.099 6.911a.334.334 0 10.575-.34l-4.635-7.816v0h0c-.061-.069-.134-.17-.29-.17H5.283c-.162 0-.223.105-.29.17h0c-.034.067-4.576 7.748-4.636 7.815a.334.334 0 00.117.458h0zm12.657 16.655l-.656-16.608h2.876l.303 16.608h-2.523zm7.855.002h-4.663l-.302-16.61h5.267l-.302 16.61zm3.192-.002h-2.523l.302-16.608h2.877l-.656 16.608zm5.601.002h-4.93l.656-16.61h1.883a.333.333 0 00.288-.164l3.908-6.587-1.804 23.361zm1.66-24.43l-4.242 7.151H10.114l-4.242-7.151H31.44zM9.635 26.384c.06.102.17.165.288.165h1.883l.656 16.61h-4.93L5.728 19.797l3.907 6.587z" fill="url(#paint4_linear_99_230)" stroke="url(#paint5_linear_99_230)" stroke-width=".2"/><path d="M15.208 16.296a.334.334 0 10.67 0c0-2.224-1.815-4.12-4.115-4.12a4.125 4.125 0 00-4.12 4.12.334.334 0 10.67 0 3.455 3.455 0 013.45-3.451c1.884 0 3.445 1.553 3.445 3.451h0z" fill="url(#paint6_linear_99_230)" stroke="url(#paint7_linear_99_230)" stroke-width=".2"/><path d="M11.763 14.368a1.93 1.93 0 00-1.927 1.928.334.334 0 10.669 0 1.26 1.26 0 011.258-1.259c.674 0 1.252.54 1.252 1.259a.334.334 0 10.669 0 1.918 1.918 0 00-1.92-1.928h0z" fill="url(#paint8_linear_99_230)" stroke="url(#paint9_linear_99_230)" stroke-width=".2"/><path d="M31.535 16.63a.335.335 0 00.326-.342c-.085-3.396-2.913-6.159-6.306-6.159-.513 0-1.015.068-1.505.189l4.166-7.775a.334.334 0 10-.59-.317l-4.298 8.023a6.37 6.37 0 00-1.161-1.19l2.484-7.62a.335.335 0 00-.637-.208l-2.422 7.43a6.252 6.252 0 00-3.295-.944 6.304 6.304 0 00-4.99 2.471 6.303 6.303 0 00-1.544-.205 6.32 6.32 0 00-6.314 6.313.334.334 0 10.67 0 5.651 5.651 0 015.644-5.644c3.077 0 5.637 2.513 5.637 5.644a.334.334 0 10.669 0c0-.117-.005-.24-.013-.369.08.01.16.024.24.024.365 0 .702-.107.992-.284a6.473 6.473 0 00-.046.62.335.335 0 00.326.344h.008c.181 0 .33-.145.335-.326.08-3.108 2.633-5.507 5.643-5.507 3.033 0 5.563 2.47 5.637 5.507.006.184.146.341.344.326h0zm-13.238-1.348c-.107 0-.212-.014-.314-.04a6.418 6.418 0 00-.69-1.971c.233-.316.598-.5 1.004-.5 1.652 0 1.658 2.51 0 2.51h0zm1.778-1.976a1.921 1.921 0 00-3.154-.625 6.764 6.764 0 00-1.014-1.138 3.448 3.448 0 012.39-.964c1.115 0 2.134.527 2.776 1.422a7.078 7.078 0 00-.998 1.306h0zm1.495-1.747a4.052 4.052 0 00-3.273-1.65c-1.103 0-2.15.446-2.923 1.226a6.594 6.594 0 00-1.385-.745 5.642 5.642 0 014.308-2.004c1.823 0 3.504.87 4.57 2.345-.443.209-.91.511-1.297.828v0z" fill="url(#paint10_linear_99_230)" stroke="url(#paint11_linear_99_230)" stroke-width=".2"/><path d="M28.992 16.308a.335.335 0 00.335.323h.012a.336.336 0 00.323-.347 4.096 4.096 0 00-4.107-3.962c-2.186 0-4.039 1.744-4.113 3.963a.335.335 0 00.323.346c.217-.006.34-.14.346-.323.062-1.857 1.616-3.317 3.444-3.317a3.43 3.43 0 013.438 3.317h0z" fill="url(#paint12_linear_99_230)" stroke="url(#paint13_linear_99_230)" stroke-width=".2"/><path d="M23.636 16.266a.335.335 0 00.303.363c.18.01.346-.119.363-.303a1.25 1.25 0 011.253-1.142c.641 0 1.188.502 1.246 1.142a.334.334 0 00.332.305l.031-.002a.335.335 0 00.303-.363 1.935 1.935 0 00-1.912-1.752c-1.004 0-1.83.753-1.92 1.752h0z" fill="url(#paint14_linear_99_230)" stroke="url(#paint15_linear_99_230)" stroke-width=".2"/><defs><linearGradient id="paint0_linear_99_230" x1="27.603" y1="32.766" x2="30.519" y2="33.196" gradientUnits="userSpaceOnUse"><stop stop-color="#AF7912"/><stop offset=".019" stop-color="#AD7712"/><stop offset=".183" stop-color="#A26914"/><stop offset=".324" stop-color="#9E6414"/><stop offset=".389" stop-color="#A36C19"/><stop offset=".489" stop-color="#B28126"/><stop offset=".609" stop-color="#C9A33B"/><stop offset=".707" stop-color="#E0C44F"/><stop offset=".8" stop-color="#DEC14D"/><stop offset=".866" stop-color="#D8B847"/><stop offset=".924" stop-color="#CEA83C"/><stop offset=".977" stop-color="#BF922D"/><stop offset="1" stop-color="#B78624"/></linearGradient><linearGradient id="paint1_linear_99_230" x1="27.603" y1="32.766" x2="30.519" y2="33.196" gradientUnits="userSpaceOnUse"><stop stop-color="#AF7912"/><stop offset=".019" stop-color="#AD7712"/><stop offset=".183" stop-color="#A26914"/><stop offset=".324" stop-color="#9E6414"/><stop offset=".389" stop-color="#A36C19"/><stop offset=".489" stop-color="#B28126"/><stop offset=".609" stop-color="#C9A33B"/><stop offset=".707" stop-color="#E0C44F"/><stop offset=".8" stop-color="#DEC14D"/><stop offset=".866" stop-color="#D8B847"/><stop offset=".924" stop-color="#CEA83C"/><stop offset=".977" stop-color="#BF922D"/><stop offset="1" stop-color="#B78624"/></linearGradient><linearGradient id="paint2_linear_99_230" x1="23.786" y1="39.539" x2="31.309" y2="41.141" gradientUnits="userSpaceOnUse"><stop stop-color="#AF7912"/><stop offset=".019" stop-color="#AD7712"/><stop offset=".183" stop-color="#A26914"/><stop offset=".324" stop-color="#9E6414"/><stop offset=".389" stop-color="#A36C19"/><stop offset=".489" stop-color="#B28126"/><stop offset=".609" stop-color="#C9A33B"/><stop offset=".707" stop-color="#E0C44F"/><stop offset=".8" stop-color="#DEC14D"/><stop offset=".866" stop-color="#D8B847"/><stop offset=".924" stop-color="#CEA83C"/><stop offset=".977" stop-color="#BF922D"/><stop offset="1" stop-color="#B78624"/></linearGradient><linearGradient id="paint3_linear_99_230" x1="23.786" y1="39.539" x2="31.309" y2="41.141" gradientUnits="userSpaceOnUse"><stop stop-color="#AF7912"/><stop offset=".019" stop-color="#AD7712"/><stop offset=".183" stop-color="#A26914"/><stop offset=".324" stop-color="#9E6414"/><stop offset=".389" stop-color="#A36C19"/><stop offset=".489" stop-color="#B28126"/><stop offset=".609" stop-color="#C9A33B"/><stop offset=".707" stop-color="#E0C44F"/><stop offset=".8" stop-color="#DEC14D"/><stop offset=".866" stop-color="#D8B847"/><stop offset=".924" stop-color="#CEA83C"/><stop offset=".977" stop-color="#BF922D"/><stop offset="1" stop-color="#B78624"/></linearGradient><linearGradient id="paint4_linear_99_230" x1="-51.864" y1="31.985" x2="28.806" y2="93.499" gradientUnits="userSpaceOnUse"><stop stop-color="#AF7912"/><stop offset=".019" stop-color="#AD7712"/><stop offset=".183" stop-color="#A26914"/><stop offset=".324" stop-color="#9E6414"/><stop offset=".389" stop-color="#A36C19"/><stop offset=".489" stop-color="#B28126"/><stop offset=".609" stop-color="#C9A33B"/><stop offset=".707" stop-color="#E0C44F"/><stop offset=".8" stop-color="#DEC14D"/><stop offset=".866" stop-color="#D8B847"/><stop offset=".924" stop-color="#CEA83C"/><stop offset=".977" stop-color="#BF922D"/><stop offset="1" stop-color="#B78624"/></linearGradient><linearGradient id="paint5_linear_99_230" x1="-51.864" y1="31.985" x2="28.806" y2="93.499" gradientUnits="userSpaceOnUse"><stop stop-color="#AF7912"/><stop offset=".019" stop-color="#AD7712"/><stop offset=".183" stop-color="#A26914"/><stop offset=".324" stop-color="#9E6414"/><stop offset=".389" stop-color="#A36C19"/><stop offset=".489" stop-color="#B28126"/><stop offset=".609" stop-color="#C9A33B"/><stop offset=".707" stop-color="#E0C44F"/><stop offset=".8" stop-color="#DEC14D"/><stop offset=".866" stop-color="#D8B847"/><stop offset=".924" stop-color="#CEA83C"/><stop offset=".977" stop-color="#BF922D"/><stop offset="1" stop-color="#B78624"/></linearGradient><linearGradient id="paint6_linear_99_230" x1="-4.067" y1="14.583" x2="10.395" y2="28.898" gradientUnits="userSpaceOnUse"><stop stop-color="#AF7912"/><stop offset=".019" stop-color="#AD7712"/><stop offset=".183" stop-color="#A26914"/><stop offset=".324" stop-color="#9E6414"/><stop offset=".389" stop-color="#A36C19"/><stop offset=".489" stop-color="#B28126"/><stop offset=".609" stop-color="#C9A33B"/><stop offset=".707" stop-color="#E0C44F"/><stop offset=".8" stop-color="#DEC14D"/><stop offset=".866" stop-color="#D8B847"/><stop offset=".924" stop-color="#CEA83C"/><stop offset=".977" stop-color="#BF922D"/><stop offset="1" stop-color="#B78624"/></linearGradient><linearGradient id="paint7_linear_99_230" x1="-4.067" y1="14.583" x2="10.395" y2="28.898" gradientUnits="userSpaceOnUse"><stop stop-color="#AF7912"/><stop offset=".019" stop-color="#AD7712"/><stop offset=".183" stop-color="#A26914"/><stop offset=".324" stop-color="#9E6414"/><stop offset=".389" stop-color="#A36C19"/><stop offset=".489" stop-color="#B28126"/><stop offset=".609" stop-color="#C9A33B"/><stop offset=".707" stop-color="#E0C44F"/><stop offset=".8" stop-color="#DEC14D"/><stop offset=".866" stop-color="#D8B847"/><stop offset=".924" stop-color="#CEA83C"/><stop offset=".977" stop-color="#BF922D"/><stop offset="1" stop-color="#B78624"/></linearGradient><linearGradient id="paint8_linear_99_230" x1="4.363" y1="15.59" x2="11.676" y2="22.252" gradientUnits="userSpaceOnUse"><stop stop-color="#AF7912"/><stop offset=".019" stop-color="#AD7712"/><stop offset=".183" stop-color="#A26914"/><stop offset=".324" stop-color="#9E6414"/><stop offset=".389" stop-color="#A36C19"/><stop offset=".489" stop-color="#B28126"/><stop offset=".609" stop-color="#C9A33B"/><stop offset=".707" stop-color="#E0C44F"/><stop offset=".8" stop-color="#DEC14D"/><stop offset=".866" stop-color="#D8B847"/><stop offset=".924" stop-color="#CEA83C"/><stop offset=".977" stop-color="#BF922D"/><stop offset="1" stop-color="#B78624"/></linearGradient><linearGradient id="paint9_linear_99_230" x1="4.363" y1="15.59" x2="11.676" y2="22.252" gradientUnits="userSpaceOnUse"><stop stop-color="#AF7912"/><stop offset=".019" stop-color="#AD7712"/><stop offset=".183" stop-color="#A26914"/><stop offset=".324" stop-color="#9E6414"/><stop offset=".389" stop-color="#A36C19"/><stop offset=".489" stop-color="#B28126"/><stop offset=".609" stop-color="#C9A33B"/><stop offset=".707" stop-color="#E0C44F"/><stop offset=".8" stop-color="#DEC14D"/><stop offset=".866" stop-color="#D8B847"/><stop offset=".924" stop-color="#CEA83C"/><stop offset=".977" stop-color="#BF922D"/><stop offset="1" stop-color="#B78624"/></linearGradient><linearGradient id="paint10_linear_99_230" x1="-32.11" y1="9.448" x2="18.382" y2="55.14" gradientUnits="userSpaceOnUse"><stop stop-color="#AF7912"/><stop offset=".019" stop-color="#AD7712"/><stop offset=".183" stop-color="#A26914"/><stop offset=".324" stop-color="#9E6414"/><stop offset=".389" stop-color="#A36C19"/><stop offset=".489" stop-color="#B28126"/><stop offset=".609" stop-color="#C9A33B"/><stop offset=".707" stop-color="#E0C44F"/><stop offset=".8" stop-color="#DEC14D"/><stop offset=".866" stop-color="#D8B847"/><stop offset=".924" stop-color="#CEA83C"/><stop offset=".977" stop-color="#BF922D"/><stop offset="1" stop-color="#B78624"/></linearGradient><linearGradient id="paint11_linear_99_230" x1="-32.11" y1="9.448" x2="18.382" y2="55.14" gradientUnits="userSpaceOnUse"><stop stop-color="#AF7912"/><stop offset=".019" stop-color="#AD7712"/><stop offset=".183" stop-color="#A26914"/><stop offset=".324" stop-color="#9E6414"/><stop offset=".389" stop-color="#A36C19"/><stop offset=".489" stop-color="#B28126"/><stop offset=".609" stop-color="#C9A33B"/><stop offset=".707" stop-color="#E0C44F"/><stop offset=".8" stop-color="#DEC14D"/><stop offset=".866" stop-color="#D8B847"/><stop offset=".924" stop-color="#CEA83C"/><stop offset=".977" stop-color="#BF922D"/><stop offset="1" stop-color="#B78624"/></linearGradient><linearGradient id="paint12_linear_99_230" x1="9.752" y1="14.651" x2="23.738" y2="28.939" gradientUnits="userSpaceOnUse"><stop stop-color="#AF7912"/><stop offset=".019" stop-color="#AD7712"/><stop offset=".183" stop-color="#A26914"/><stop offset=".324" stop-color="#9E6414"/><stop offset=".389" stop-color="#A36C19"/><stop offset=".489" stop-color="#B28126"/><stop offset=".609" stop-color="#C9A33B"/><stop offset=".707" stop-color="#E0C44F"/><stop offset=".8" stop-color="#DEC14D"/><stop offset=".866" stop-color="#D8B847"/><stop offset=".924" stop-color="#CEA83C"/><stop offset=".977" stop-color="#BF922D"/><stop offset="1" stop-color="#B78624"/></linearGradient><linearGradient id="paint13_linear_99_230" x1="9.752" y1="14.651" x2="23.738" y2="28.939" gradientUnits="userSpaceOnUse"><stop stop-color="#AF7912"/><stop offset=".019" stop-color="#AD7712"/><stop offset=".183" stop-color="#A26914"/><stop offset=".324" stop-color="#9E6414"/><stop offset=".389" stop-color="#A36C19"/><stop offset=".489" stop-color="#B28126"/><stop offset=".609" stop-color="#C9A33B"/><stop offset=".707" stop-color="#E0C44F"/><stop offset=".8" stop-color="#DEC14D"/><stop offset=".866" stop-color="#D8B847"/><stop offset=".924" stop-color="#CEA83C"/><stop offset=".977" stop-color="#BF922D"/><stop offset="1" stop-color="#B78624"/></linearGradient><linearGradient id="paint14_linear_99_230" x1="18.182" y1="15.658" x2="25.049" y2="22.321" gradientUnits="userSpaceOnUse"><stop stop-color="#AF7912"/><stop offset=".019" stop-color="#AD7712"/><stop offset=".183" stop-color="#A26914"/><stop offset=".324" stop-color="#9E6414"/><stop offset=".389" stop-color="#A36C19"/><stop offset=".489" stop-color="#B28126"/><stop offset=".609" stop-color="#C9A33B"/><stop offset=".707" stop-color="#E0C44F"/><stop offset=".8" stop-color="#DEC14D"/><stop offset=".866" stop-color="#D8B847"/><stop offset=".924" stop-color="#CEA83C"/><stop offset=".977" stop-color="#BF922D"/><stop offset="1" stop-color="#B78624"/></linearGradient><linearGradient id="paint15_linear_99_230" x1="18.182" y1="15.658" x2="25.049" y2="22.321" gradientUnits="userSpaceOnUse"><stop stop-color="#AF7912"/><stop offset=".019" stop-color="#AD7712"/><stop offset=".183" stop-color="#A26914"/><stop offset=".324" stop-color="#9E6414"/><stop offset=".389" stop-color="#A36C19"/><stop offset=".489" stop-color="#B28126"/><stop offset=".609" stop-color="#C9A33B"/><stop offset=".707" stop-color="#E0C44F"/><stop offset=".8" stop-color="#DEC14D"/><stop offset=".866" stop-color="#D8B847"/><stop offset=".924" stop-color="#CEA83C"/><stop offset=".977" stop-color="#BF922D"/><stop offset="1" stop-color="#B78624"/></linearGradient></defs></svg>