<svg width="37" height="38" fill="none" xmlns="http://www.w3.org/2000/svg"><path d="M.803 9.107h0l2.822 6.656.384-.162M.803 9.107l7.817 8.677a3.779 3.779 0 01-2.913.021h0a3.776 3.776 0 01-2.081-2.041h0v-.001l.383-.162M.803 9.107h0s0 0 0 0m0 0h0m3.206 6.494L1.186 8.944M4.01 15.6L.803 9.107m2.016-5.002A3.773 3.773 0 00.901 5.922l.918-.613c.321-.35.715-.63 1.164-.82l6.646-2.827a3.358 3.358 0 012.595-.02L2.82 4.106zm0 0l.164.384-.164-.384h0zM.703 6.158a3.87 3.87 0 012.084-2.13L.703 6.159zm0 0s0 0 0 0zm.483 2.786A3.362 3.362 0 01.96 7.085l-.452.302a3.781 3.781 0 00.295 1.72l.383-.163zm0 0l-.383.163m0 0H.802h.001zm.09-3.17l.274.409-.22-.09h0L.78 6.19s0 0 0 0 0 0 0 0c.035-.087.072-.171.113-.253z" fill="url(#paint0_linear_99_265)" stroke="url(#paint1_linear_99_265)"/><path d="M11.893 7.647a1.808 1.808 0 00-.006.008c-.08.118-.18.264-.319.399a1.838 1.838 0 01-.577.368s0 0 0 0l.163.385-.164-.384a1.83 1.83 0 01-.664.158c-.191.007-.364-.022-.503-.045l-.02-.004h0H9.8c-.319-.054-.637-.108-1.139.105l3.23-.99zm0 0l.346.232-.344-.235-.002.003zm-7.047 3.67a4.59 4.59 0 00.318.616l.42.04.649.063c.096.009.19.023.283.04 0 0 0 0 0 0s0 0 0 0h.004c.318.054.636.107 1.135-.105l-2.809-.654zm0 0l.383-.163m-.383.163l3.335-.33H8.18c-.173.253-.297.435-.686.601-.389.165-.606.128-.906.078h-.002c-.282-.049-.624-.103-1.079.02a4.135 4.135 0 01-.278-.532m1.272 1.004a3.649 3.649 0 00-.277-.04 1.589 1.589 0 00-.586.05l-.266.073 1.13-.083zm0 0l-.008.051-.309.324-.048.498c.062.006.13.016.212.03h.001c.173.03.381.065.63.063a4.19 4.19 0 001.103.437c.002 0 .004-.002.005-.004l.006-.004c.406-.173.582-.392.805-.67l.002-.001-2.399-.724zM5.23 11.154l-.002-.005.408-.461.07-.413s0 0 0 0h-.001c-.23-.04-.44-.07-.709-.025l-.007.002-.436.075a4.544 4.544 0 00.294.988h0s0 0 0 0l.383-.161zm1.879 1.465a2.29 2.29 0 00.743-.188c.635-.27.885-.635 1.084-.927L7.108 12.62zm0 0a3.607 3.607 0 01-.579-.448l-.035.037.009-.05h0l.018.004c.139.023.312.052.503.045.211-.007.423-.056.664-.158h0l-.58.57zm1.542 1.203l-.202.235a4.409 4.409 0 01-.188-.029h.002a.516.516 0 00.065-.031c.122-.054.229-.113.323-.175zm4.082-1.61a5.836 5.836 0 01-.042.057l-.333-.022c.079-.018.16-.042.247-.073l.128.038zm-.241-5.671c.1.115.194.237.283.363l-.262.058h0l-.103.023-.085.063-.003.002-.198-.269.368-.24zM10.96 8.346s0 0 0 0h0z" fill="url(#paint2_linear_99_265)" stroke="url(#paint3_linear_99_265)"/><mask id="a" fill="#fff"><path d="M19.3 21.37l-7.177-.786a4.274 4.274 0 00-3.163.927 4.284 4.284 0 00-1.59 2.892l-.785 7.188a4.319 4.319 0 003.814 4.76l7.177.787a4.275 4.275 0 003.163-.927 4.287 4.287 0 001.59-2.892l.785-7.189a4.32 4.32 0 00-3.813-4.76zm2.905 4.66l-.786 7.188a3.4 3.4 0 01-3.742 3.008l-7.179-.787a3.368 3.368 0 01-2.273-1.254 3.375 3.375 0 01-.73-2.493l.786-7.189a3.376 3.376 0 011.251-2.276 3.37 3.37 0 012.49-.731l7.178.787a3.402 3.402 0 013.005 3.747z"/></mask><path d="M19.3 21.37l-7.177-.786a4.274 4.274 0 00-3.163.927 4.284 4.284 0 00-1.59 2.892l-.785 7.188a4.319 4.319 0 003.814 4.76l7.177.787a4.275 4.275 0 003.163-.927 4.287 4.287 0 001.59-2.892l.785-7.189a4.32 4.32 0 00-3.813-4.76zm2.905 4.66l-.786 7.188a3.4 3.4 0 01-3.742 3.008l-7.179-.787a3.368 3.368 0 01-2.273-1.254 3.375 3.375 0 01-.73-2.493l.786-7.189a3.376 3.376 0 011.251-2.276 3.37 3.37 0 012.49-.731l7.178.787a3.402 3.402 0 013.005 3.747z" fill="url(#paint4_linear_99_265)"/><path d="M19.3 21.37l.979-.209-.152-.706-.717-.078-.11.994zm-7.177-.786l.109-.994-.109.994zm-3.163.927l.626.78-.626-.78zm-1.59 2.892l.995.109-.994-.109zm-.785 7.188l.994.109-.994-.109zm3.814 4.76l-.11.994.11-.994zm7.177.787l-.109.994h.001l.108-.994zm3.163-.928l-.626-.78.626.78zm1.59-2.892l.994.11-.995-.11zm.785-7.188l.994.11.006-.055v-.055h-1zm0 0l-.994-.109-.006.055v.054h1zm-3.813-4.76l-.978.21.15.706.718.079.11-.994zm2.904 4.66l-.91-.413-.067.146-.017.159.994.109zm-.786 7.188l.994.109-.994-.109zm-3.742 3.008l-.11.994.11-.994zm-7.179-.787l-.109.994.11-.994zm-2.273-1.254l-.78.625.78-.625zm-.73-2.493l.994.109-.994-.11zm.786-7.189l.994.11v-.001l-.994-.108zm1.251-2.276l-.626-.78.626.78zm2.49-.731l-.11.994h.001l.11-.994zm7.178.787l.109-.994-.109.994zm3.005 3.747l.91.414.067-.146.017-.159-.994-.108zm-2.795-5.653l-7.178-.787-.218 1.988 7.178.787.218-1.988zm-7.178-.787a5.274 5.274 0 00-3.899 1.142l1.253 1.559a3.274 3.274 0 012.428-.713l.218-1.988zm-3.899 1.142a5.284 5.284 0 00-1.957 3.563l1.989.216a3.284 3.284 0 011.221-2.22l-1.253-1.56zm-1.957 3.562l-.785 7.188 1.988.218.786-7.188-1.989-.218zm-.785 7.188a5.319 5.319 0 004.699 5.863l.218-1.988a3.319 3.319 0 01-2.93-3.657l-1.987-.218zm4.699 5.863l7.177.787.218-1.988-7.177-.787-.218 1.988zm7.178.787c.193.02.387.032.582.032v-2a3.38 3.38 0 01-.365-.02l-.217 1.988zm.582.032c1.204 0 2.366-.41 3.316-1.174l-1.253-1.56a3.275 3.275 0 01-2.063.734v2zm3.316-1.174a5.287 5.287 0 001.957-3.563l-1.989-.217a3.286 3.286 0 01-1.221 2.22l1.253 1.56zm1.957-3.563l.785-7.188-1.988-.217-.786 7.188 1.989.217zm.791-7.297h-2 2zm-.006.109a5.319 5.319 0 00-4.698-5.862l-.219 1.988a3.32 3.32 0 012.93 3.656l1.988.218zm-3.83-5.077l-1.955.418 1.956-.418zm.933 4.76l-.786 7.187 1.988.218.786-7.188-1.988-.217zm-.786 7.187a2.4 2.4 0 01-2.64 2.123l-.217 1.988a4.4 4.4 0 004.845-3.893l-1.988-.218zm-2.64 2.123l-7.178-.787-.218 1.988 7.179.787.218-1.988zm-7.177-.787a2.368 2.368 0 01-1.602-.885l-1.561 1.25a4.368 4.368 0 002.944 1.623l.219-1.988zm-1.602-.885a2.376 2.376 0 01-.517-1.76L6.5 31.584a4.376 4.376 0 00.944 3.227l1.56-1.25zm-.517-1.76l.786-7.188-1.988-.217-.786 7.188 1.988.218zm.786-7.188c.069-.632.38-1.2.884-1.606l-1.253-1.558a4.376 4.376 0 00-1.62 2.947l1.989.217zm.884-1.605a2.37 2.37 0 011.492-.532v-2a4.37 4.37 0 00-2.745.972l1.253 1.56zm1.492-.532c.085 0 .173.005.261.015l.22-1.988a4.373 4.373 0 00-.481-.027v2zm.262.015l7.178.787.218-1.988-7.178-.787-.218 1.988zm7.178.787a2.402 2.402 0 012.12 2.645l1.988.217a4.402 4.402 0 00-3.89-4.85l-.218 1.988zm2.203 2.34l1.822.827-1.822-.827z" fill="url(#paint5_linear_99_265)" mask="url(#a)"/><path d="M13.62 33.028s0 0 0 0l-.096-.235a4.16 4.16 0 01-.34-.132l.436.367zm0 0c.125-.05.225-.09.32-.118m-1.826-.393a4.458 4.458 0 01-.146-.115l.021.002a.52.52 0 00.058.003c.127.012.243.014.351.007l-.284.103z" fill="url(#paint6_linear_99_265)" stroke="url(#paint7_linear_99_265)"/><path d="M33.302 5.165h0zm0 0h0z" fill="url(#paint8_linear_99_265)" stroke="url(#paint9_linear_99_265)"/><path d="M23.778 13.132s0 0 0 0l.196-.164c.002-.121.01-.242.021-.362m-.217.526l-.202-.526.004-.042.415.042h0m-.217.526c.087.104.157.189.213.271m-.213-.271l.213.271m.005-.797v0m0 0h0m0 0h0m0 0s0 0 0 0 0 0 0 0c.055.072.112.14.166.206l.002.002c.121.146.229.275.316.43a3.676 3.676 0 01.013-.588l.003-.025v-.025 0h-.086 0-.415zm0 0h0m-.005.797a4.178 4.178 0 00.181.894c-.02.089-.049.184-.086.302 0 0 0 0 0 0l.226.072-.321-1.268zm-.187-1.859c.02-.059.042-.117.065-.175l.007.032a.522.522 0 00.013.045c.028.126.063.239.103.34l-.188-.242zm.121-.014v-.001h0zm.789 4.537l.088-.323c.003.106.014.22.037.344a.6.6 0 000 .045l.006.074a4.455 4.455 0 01-.131-.14zm7.21-.52a4.64 4.64 0 01-.282.383l-.263-.278a2.915 2.915 0 01-.094-.104l.287-.248.377.206a4.512 4.512 0 01-.026.04h0z" fill="url(#paint10_linear_99_265)" stroke="url(#paint11_linear_99_265)"/><defs><linearGradient id="paint0_linear_99_265" x1="-25.72" y1="10.263" x2="23.183" y2="36.417" gradientUnits="userSpaceOnUse"><stop stop-color="#AF7912"/><stop offset=".019" stop-color="#AD7712"/><stop offset=".183" stop-color="#A26914"/><stop offset=".324" stop-color="#9E6414"/><stop offset=".389" stop-color="#A36C19"/><stop offset=".489" stop-color="#B28126"/><stop offset=".609" stop-color="#C9A33B"/><stop offset=".707" stop-color="#E0C44F"/><stop offset=".8" stop-color="#DEC14D"/><stop offset=".866" stop-color="#D8B847"/><stop offset=".924" stop-color="#CEA83C"/><stop offset=".977" stop-color="#BF922D"/><stop offset="1" stop-color="#B78624"/></linearGradient><linearGradient id="paint1_linear_99_265" x1="-25.72" y1="10.263" x2="23.183" y2="36.417" gradientUnits="userSpaceOnUse"><stop stop-color="#AF7912"/><stop offset=".019" stop-color="#AD7712"/><stop offset=".183" stop-color="#A26914"/><stop offset=".324" stop-color="#9E6414"/><stop offset=".389" stop-color="#A36C19"/><stop offset=".489" stop-color="#B28126"/><stop offset=".609" stop-color="#C9A33B"/><stop offset=".707" stop-color="#E0C44F"/><stop offset=".8" stop-color="#DEC14D"/><stop offset=".866" stop-color="#D8B847"/><stop offset=".924" stop-color="#CEA83C"/><stop offset=".977" stop-color="#BF922D"/><stop offset="1" stop-color="#B78624"/></linearGradient><linearGradient id="paint2_linear_99_265" x1="-10.407" y1="9.94" x2="16.954" y2="24.573" gradientUnits="userSpaceOnUse"><stop stop-color="#AF7912"/><stop offset=".019" stop-color="#AD7712"/><stop offset=".183" stop-color="#A26914"/><stop offset=".324" stop-color="#9E6414"/><stop offset=".389" stop-color="#A36C19"/><stop offset=".489" stop-color="#B28126"/><stop offset=".609" stop-color="#C9A33B"/><stop offset=".707" stop-color="#E0C44F"/><stop offset=".8" stop-color="#DEC14D"/><stop offset=".866" stop-color="#D8B847"/><stop offset=".924" stop-color="#CEA83C"/><stop offset=".977" stop-color="#BF922D"/><stop offset="1" stop-color="#B78624"/></linearGradient><linearGradient id="paint3_linear_99_265" x1="-10.407" y1="9.94" x2="16.954" y2="24.573" gradientUnits="userSpaceOnUse"><stop stop-color="#AF7912"/><stop offset=".019" stop-color="#AD7712"/><stop offset=".183" stop-color="#A26914"/><stop offset=".324" stop-color="#9E6414"/><stop offset=".389" stop-color="#A36C19"/><stop offset=".489" stop-color="#B28126"/><stop offset=".609" stop-color="#C9A33B"/><stop offset=".707" stop-color="#E0C44F"/><stop offset=".8" stop-color="#DEC14D"/><stop offset=".866" stop-color="#D8B847"/><stop offset=".924" stop-color="#CEA83C"/><stop offset=".977" stop-color="#BF922D"/><stop offset="1" stop-color="#B78624"/></linearGradient><linearGradient id="paint4_linear_99_265" x1="-17.021" y1="29.532" x2="27.814" y2="53.51" gradientUnits="userSpaceOnUse"><stop stop-color="#AF7912"/><stop offset=".019" stop-color="#AD7712"/><stop offset=".183" stop-color="#A26914"/><stop offset=".324" stop-color="#9E6414"/><stop offset=".389" stop-color="#A36C19"/><stop offset=".489" stop-color="#B28126"/><stop offset=".609" stop-color="#C9A33B"/><stop offset=".707" stop-color="#E0C44F"/><stop offset=".8" stop-color="#DEC14D"/><stop offset=".866" stop-color="#D8B847"/><stop offset=".924" stop-color="#CEA83C"/><stop offset=".977" stop-color="#BF922D"/><stop offset="1" stop-color="#B78624"/></linearGradient><linearGradient id="paint5_linear_99_265" x1="-17.021" y1="29.532" x2="27.814" y2="53.51" gradientUnits="userSpaceOnUse"><stop stop-color="#AF7912"/><stop offset=".019" stop-color="#AD7712"/><stop offset=".183" stop-color="#A26914"/><stop offset=".324" stop-color="#9E6414"/><stop offset=".389" stop-color="#A36C19"/><stop offset=".489" stop-color="#B28126"/><stop offset=".609" stop-color="#C9A33B"/><stop offset=".707" stop-color="#E0C44F"/><stop offset=".8" stop-color="#DEC14D"/><stop offset=".866" stop-color="#D8B847"/><stop offset=".924" stop-color="#CEA83C"/><stop offset=".977" stop-color="#BF922D"/><stop offset="1" stop-color="#B78624"/></linearGradient><linearGradient id="paint6_linear_99_265" x1="-4.602" y1="29.27" x2="22.761" y2="43.905" gradientUnits="userSpaceOnUse"><stop stop-color="#AF7912"/><stop offset=".019" stop-color="#AD7712"/><stop offset=".183" stop-color="#A26914"/><stop offset=".324" stop-color="#9E6414"/><stop offset=".389" stop-color="#A36C19"/><stop offset=".489" stop-color="#B28126"/><stop offset=".609" stop-color="#C9A33B"/><stop offset=".707" stop-color="#E0C44F"/><stop offset=".8" stop-color="#DEC14D"/><stop offset=".866" stop-color="#D8B847"/><stop offset=".924" stop-color="#CEA83C"/><stop offset=".977" stop-color="#BF922D"/><stop offset="1" stop-color="#B78624"/></linearGradient><linearGradient id="paint7_linear_99_265" x1="-4.602" y1="29.27" x2="22.761" y2="43.905" gradientUnits="userSpaceOnUse"><stop stop-color="#AF7912"/><stop offset=".019" stop-color="#AD7712"/><stop offset=".183" stop-color="#A26914"/><stop offset=".324" stop-color="#9E6414"/><stop offset=".389" stop-color="#A36C19"/><stop offset=".489" stop-color="#B28126"/><stop offset=".609" stop-color="#C9A33B"/><stop offset=".707" stop-color="#E0C44F"/><stop offset=".8" stop-color="#DEC14D"/><stop offset=".866" stop-color="#D8B847"/><stop offset=".924" stop-color="#CEA83C"/><stop offset=".977" stop-color="#BF922D"/><stop offset="1" stop-color="#B78624"/></linearGradient><linearGradient id="paint8_linear_99_265" x1="-4.827" y1="13.724" x2="41.52" y2="38.511" gradientUnits="userSpaceOnUse"><stop stop-color="#AF7912"/><stop offset=".019" stop-color="#AD7712"/><stop offset=".183" stop-color="#A26914"/><stop offset=".324" stop-color="#9E6414"/><stop offset=".389" stop-color="#A36C19"/><stop offset=".489" stop-color="#B28126"/><stop offset=".609" stop-color="#C9A33B"/><stop offset=".707" stop-color="#E0C44F"/><stop offset=".8" stop-color="#DEC14D"/><stop offset=".866" stop-color="#D8B847"/><stop offset=".924" stop-color="#CEA83C"/><stop offset=".977" stop-color="#BF922D"/><stop offset="1" stop-color="#B78624"/></linearGradient><linearGradient id="paint9_linear_99_265" x1="-4.827" y1="13.724" x2="41.52" y2="38.511" gradientUnits="userSpaceOnUse"><stop stop-color="#AF7912"/><stop offset=".019" stop-color="#AD7712"/><stop offset=".183" stop-color="#A26914"/><stop offset=".324" stop-color="#9E6414"/><stop offset=".389" stop-color="#A36C19"/><stop offset=".489" stop-color="#B28126"/><stop offset=".609" stop-color="#C9A33B"/><stop offset=".707" stop-color="#E0C44F"/><stop offset=".8" stop-color="#DEC14D"/><stop offset=".866" stop-color="#D8B847"/><stop offset=".924" stop-color="#CEA83C"/><stop offset=".977" stop-color="#BF922D"/><stop offset="1" stop-color="#B78624"/></linearGradient><linearGradient id="paint10_linear_99_265" x1="8.662" y1="13.44" x2="36.029" y2="28.079" gradientUnits="userSpaceOnUse"><stop stop-color="#AF7912"/><stop offset=".019" stop-color="#AD7712"/><stop offset=".183" stop-color="#A26914"/><stop offset=".324" stop-color="#9E6414"/><stop offset=".389" stop-color="#A36C19"/><stop offset=".489" stop-color="#B28126"/><stop offset=".609" stop-color="#C9A33B"/><stop offset=".707" stop-color="#E0C44F"/><stop offset=".8" stop-color="#DEC14D"/><stop offset=".866" stop-color="#D8B847"/><stop offset=".924" stop-color="#CEA83C"/><stop offset=".977" stop-color="#BF922D"/><stop offset="1" stop-color="#B78624"/></linearGradient><linearGradient id="paint11_linear_99_265" x1="8.662" y1="13.44" x2="36.029" y2="28.079" gradientUnits="userSpaceOnUse"><stop stop-color="#AF7912"/><stop offset=".019" stop-color="#AD7712"/><stop offset=".183" stop-color="#A26914"/><stop offset=".324" stop-color="#9E6414"/><stop offset=".389" stop-color="#A36C19"/><stop offset=".489" stop-color="#B28126"/><stop offset=".609" stop-color="#C9A33B"/><stop offset=".707" stop-color="#E0C44F"/><stop offset=".8" stop-color="#DEC14D"/><stop offset=".866" stop-color="#D8B847"/><stop offset=".924" stop-color="#CEA83C"/><stop offset=".977" stop-color="#BF922D"/><stop offset="1" stop-color="#B78624"/></linearGradient></defs></svg>