<svg width="199" height="203" fill="none" xmlns="http://www.w3.org/2000/svg"><path d="M183.413 159.254c-10.26.917-20.108 1.76-29.947 2.636-1.962.166-3.346.286-5.788.868-1.816.415-5.653 1.371-4.846 3.059.827 1.323 1.601 2.158 5.029 2.173 8.853-.001 17.695-1.22 26.472-2.386 7.75-1.035 13.648-1.933 20.465-3.22 3.183-.602 4.054-2.344 2.986-4.861-.959-2.258-1.899-4.592-3.309-6.622-5.037-7.345-10.267-14.53-15.443-21.802-.636-.907-1.072-1.652-2.002-2.625-1.139-1.168-1.895-2.079-3.365-1.254-1.407.772-.795 2.764-.268 3.701 4.209 7.926 13.194 24.129 13.454 25.101-5.564-1.527-10.753-2.831-15.858-4.409-35.49-11.149-69.703-24.58-99.668-45.509C47.605 87.538 26.546 68.57 8.823 46.481c-1.056-1.297-2.25-2.523-3.426-3.68-1.568-1.592-2.701-2.15-3.686-1.42-1.658 1.594-.905 2.937-.407 4.061.959 2.258 2.46 4.335 3.906 6.355 19.66 26.815 45.187 48.07 74.003 66.181 29.575 18.59 62.726 30.114 97.183 39.025 1.84.405 6.268 1.805 7.017 2.251z" fill="#B1E1F4"/></svg>