<svg width="24" height="24" fill="none" xmlns="http://www.w3.org/2000/svg"><path fill-rule="evenodd" clip-rule="evenodd" d="M5.624 3.896C4.707 2.477 5.588.122 7.708.001c1.001-.034 5.603.891 9.132 3.588a16.837 16.837 0 012.881 2.816C22.406 9.737 24 14.666 24 16.082c0 1.669-2.009 2.887-3.653 2.185L0 24 5.624 3.896zM2.887 21.108l16.145-4.547c-1.975-6.675-4.971-9.905-11.62-11.627L2.887 21.108zm3.616-5.11A1.501 1.501 0 116.505 19a1.501 1.501 0 01-.002-3.002zm4.194-.972a1.53 1.53 0 01-1 2.89s-.47-.166-.32-.599c.149-.432.62-.268.62-.268a.612.612 0 00.4-1.157s-.481-.127-.319-.594c.147-.424.619-.272.619-.272zM7.657 2.932C14.814 4.705 18.768 8.417 20.972 16c.211.726 1.276.356 1.111-.25-2.22-8.142-6.831-12.522-14.128-13.938-.641-.125-.941.961-.298 1.12zm6.352 9.067a2.002 2.002 0 11-.003 4.003A2.002 2.002 0 0114.009 12zm-5.837 2.99a1.516 1.516 0 01-1.128-1.822 1.517 1.517 0 011.823-1.127s.48.116.377.558c-.105.442-.584.327-.584.327a.605.605 0 00-.729.451.605.605 0 00.449.729s.487.078.375.554c-.103.433-.583.33-.583.33zm1.834-7.581c1.104 0 2.001.897 2.001 2a2.002 2.002 0 01-4.002 0c0-1.103.896-2 2.001-2z" fill="#fff"/></svg>