<svg width="34" height="34" fill="none" xmlns="http://www.w3.org/2000/svg"><path d="M22.313 17h1.062v2.125h-1.063V17z" fill="#DEE051"/><path d="M22.496 22.825a6.776 6.776 0 000 4.287 6.78 6.78 0 01.348 2.145v1.271a1.88 1.88 0 01-3.206 1.328l-.513-.512-.311.311a2.565 2.565 0 01-3.628 0l-.311-.311-.513.512a1.878 1.878 0 01-3.206-1.328v-1.271c0-.73.118-1.453.348-2.145a6.776 6.776 0 000-4.287 6.761 6.761 0 01-.347-2.106V13.28a5.131 5.131 0 011.502-3.628l.713-.713a5.138 5.138 0 001.503-3.627V4.25h4.25v1.063a5.138 5.138 0 001.503 3.628l.713.712a5.131 5.131 0 011.503 3.628v7.439a6.673 6.673 0 01-.348 2.106z" fill="#EBEBE9"/><path d="M22.496 22.825a6.776 6.776 0 000 4.287 6.78 6.78 0 01.348 2.145v1.271a1.88 1.88 0 01-3.206 1.328l-.513-.512-.311.311a2.565 2.565 0 01-3.628 0l-.311-.311-.513.512a1.878 1.878 0 01-3.206-1.328v-1.271c0-.73.118-1.453.348-2.145a6.785 6.785 0 000-4.287 6.761 6.761 0 01-.347-2.106V13.28a5.133 5.133 0 011.502-3.628l.713-.713a5.112 5.112 0 001.042-1.502h5.173a5.099 5.099 0 001.04 1.502l.714.713a5.126 5.126 0 011.503 3.628v7.438a6.673 6.673 0 01-.348 2.106z" fill="#693924"/><path d="M22.496 22.825a6.776 6.776 0 000 4.288 6.78 6.78 0 01.348 2.144v1.271a1.88 1.88 0 01-3.206 1.329l-.513-.513-.311.311a2.565 2.565 0 01-3.628 0l-.311-.311-.513.513a1.878 1.878 0 01-3.206-1.329v-1.271c0-.73.118-1.453.348-2.145a6.762 6.762 0 00.286-3.053c4.2-2.456 8.022-6.123 11.019-11.373.023.197.035.396.035.595v7.438a6.673 6.673 0 01-.348 2.106z" fill="#5C2E1A"/><path d="M11.156 13.281h11.688v7.438H11.156V13.28z" fill="#F35244"/><path d="M22.844 13.281v7.438h-6.46c2.241-1.996 4.296-4.45 6.078-7.438h.382z" fill="#E64C3F"/><path d="M12.75 14.875h1.063v1.063H12.75v-1.063zm0 2.125h1.063v2.125H12.75V17z" fill="#FC685B"/><path d="M19.152 5.844h-4.305c.018-.177.028-.354.028-.532V4.25h4.25v1.063c0 .177.009.354.027.53z" fill="#E0E0DE"/><path d="M15.406 1.594h3.188a.531.531 0 01.531.531V4.25h-4.25V2.125a.531.531 0 01.531-.531z" fill="#F35244"/><path d="M14.344 3.719h5.312V4.78h-5.312V3.72zm13.812 12.75v3.896c0 1.28-.298 2.544-.871 3.69a8.278 8.278 0 00-.847 3.057l-.407 5.294h-6.375l-.407-5.294a8.27 8.27 0 00-.846-3.058 8.233 8.233 0 01-.872-3.69V16.47h10.625z" fill="#EBEBE9"/><path d="M28.156 19.125v1.24a8.248 8.248 0 01-.871 3.69 8.278 8.278 0 00-.847 3.057l-.407 5.294h-6.375l-.209-2.72-.198-2.574a8.27 8.27 0 00-.846-3.058 8.233 8.233 0 01-.872-3.69v-1.239h10.625z" fill="#F98500"/><path d="M28.126 21.077a8.248 8.248 0 01-.84 2.977 8.278 8.278 0 00-.848 3.058l-.407 5.294h-6.375l-.209-2.72c3.141-2.03 6.094-4.84 8.679-8.609z" fill="#F77C00"/><path d="M21.25 28.156h1.063v1.063H21.25v-1.063zm1.594-2.125h1.062v1.063h-1.062V26.03zm-1.063-3.718h1.063v1.062H21.78v-1.063z" fill="#FF9419"/></svg>