<svg width="15" height="18" fill="none" xmlns="http://www.w3.org/2000/svg"><mask id="a" style="mask-type:alpha" maskUnits="userSpaceOnUse" x="0" y="11" width="15" height="7"><path fill-rule="evenodd" clip-rule="evenodd" d="M.907 11.213h14.045v6.539H.907v-6.539z" fill="#fff"/></mask><g mask="url(#a)"><path fill-rule="evenodd" clip-rule="evenodd" d="M7.93 12.543c-3.778 0-5.693.65-5.693 1.93 0 1.293 1.915 1.949 5.694 1.949 3.777 0 5.691-.65 5.691-1.93 0-1.294-1.914-1.949-5.691-1.949zm0 5.209c-1.736 0-7.023 0-7.023-3.278 0-2.923 4.009-3.26 7.024-3.26 1.736 0 7.021 0 7.021 3.277 0 2.923-4.008 3.26-7.021 3.26z" fill="#fff"/></g><mask id="b" style="mask-type:alpha" maskUnits="userSpaceOnUse" x="3" y="0" width="10" height="10"><path fill-rule="evenodd" clip-rule="evenodd" d="M3.222.133h9.416V9.55H3.222V.133z" fill="#fff"/></mask><g mask="url(#b)"><path fill-rule="evenodd" clip-rule="evenodd" d="M7.93 1.4a3.446 3.446 0 00-3.441 3.44 3.434 3.434 0 003.417 3.442l.026.633v-.633a3.446 3.446 0 003.441-3.442A3.445 3.445 0 007.931 1.4zm0 8.149h-.028a4.699 4.699 0 01-4.68-4.71A4.713 4.713 0 017.93.133a4.713 4.713 0 014.707 4.708A4.712 4.712 0 017.931 9.55z" fill="#fff"/></g></svg>