<svg width="25" height="25" fill="none" xmlns="http://www.w3.org/2000/svg"><path d="M21.5 9.122a1.307 1.307 0 00-.06-.27v-.09a1.07 1.07 0 00-.19-.28l-6-6a1.071 1.071 0 00-.28-.19.32.32 0 00-.09 0 .88.88 0 00-.33-.11H10.5a3 3 0 00-3 3v1h-1a3 3 0 00-3 3v10a3 3 0 003 3h8a3 3 0 003-3v-1h1a3 3 0 003-3v-6.06zm-6-3.53l2.59 2.59H16.5a1 1 0 01-1-1v-1.59zm0 13.59a1 1 0 01-1 1h-8a1 1 0 01-1-1v-10a1 1 0 011-1h1v7a3 3 0 003 3h5v1zm4-4a1 1 0 01-1 1h-8a1 1 0 01-1-1v-10a1 1 0 011-1h3v3a3 3 0 003 3h3v5z" fill="#fff"/></svg>