<svg width="166" height="166" fill="none" xmlns="http://www.w3.org/2000/svg"><g clip-path="url(#clip0)"><path d="M160.818 111.744a82.94 82.94 0 01-23.542 33.951 83.509 83.509 0 01-37.064 18.47 83.756 83.756 0 01-41.421-1.58 83.435 83.435 0 01-35.535-21.239c8.708-13.409 27.581-32.955 60.895-27.073 32.211 5.685 57.438 8.714 76.667-2.529zm-9.445-75.761c-13.564 19.133-31.314 20.77-79.71 9.645-31.728-7.273-55.31 4.666-70.43 19.467a82.856 82.856 0 0123.192-41.518 83.51 83.51 0 0142.28-22.052 83.756 83.756 0 0147.507 4.642 83.294 83.294 0 0137.161 29.816z" fill="#E9E9E9"/><path d="M166 83.003v.735c-12.658 20.526-30.064 23.104-78.971 14.39C50.7 91.59 26.133 109.577 12.49 127.897A82.633 82.633 0 010 94.099c5.014-9.645 25.306-42.355 67.968-32.543C108.562 70.8 138.31 75.21 159.765 51.5A82.109 82.109 0 01166 83.003z" fill="#E9E9E9"/><g opacity=".45" fill="#fff"><path opacity=".45" d="M160.818 111.744a82.94 82.94 0 01-23.542 33.951 83.509 83.509 0 01-37.064 18.47 83.756 83.756 0 01-41.421-1.58 83.435 83.435 0 01-35.535-21.239c8.708-13.409 27.581-32.955 60.895-27.073 32.211 5.685 57.438 8.714 76.667-2.529zm-9.445-75.761c-13.564 19.133-31.314 20.77-79.71 9.645-31.728-7.273-55.31 4.666-70.43 19.467a82.856 82.856 0 0123.192-41.518 83.51 83.51 0 0142.28-22.052 83.756 83.756 0 0147.507 4.642 83.294 83.294 0 0137.161 29.816z"/><path opacity=".45" d="M166 83.003v.735c-12.658 20.526-30.064 23.104-78.971 14.39C50.7 91.59 26.133 109.577 12.49 127.897A82.633 82.633 0 010 94.099c5.014-9.645 25.306-42.355 67.968-32.543C108.562 70.8 138.31 75.21 159.765 51.5A82.109 82.109 0 01166 83.003z"/></g></g><defs><clipPath id="clip0"><path fill="#fff" d="M0 0h166v166H0z"/></clipPath></defs></svg>