<svg width="189" height="173" fill="none" xmlns="http://www.w3.org/2000/svg"><g clip-path="url(#clip0_87_667)"><path d="M-.751 121.046c1.671-.852 3.431-1.477 5.249-1.952.225-.058.365-.148.454-.377.143-.371.343-.723.508-1.085.066-.143.158-.201.32-.199a51.96 51.96 0 001.675 0c.197-.002.243.056.185.238-.054.17-.068.349-.12.522-.057.201-.014.256.209.217a55.297 55.297 0 013.083-.469 72.605 72.605 0 016.128-.483 93.206 93.206 0 018.309.07c.58.028 1.157.087 1.734.109.2.008.277.078.329.26a6.48 6.48 0 01.211 2.119c-.068 1.228-.308 2.412-1.011 3.467-.532.801-.529.795-1.429.497-3.254-1.078-6.583-1.804-10.005-2.122a42.762 42.762 0 00-8.04 0c-.215.02-.26.109-.286.282a43.32 43.32 0 00-.552 6.044c-.002.187.018.257.246.204 4.226-1.014 8.514-1.15 12.832-.868.428.027.857.067 1.285.094.166.012.283.051.312.238.323 1.999.24 3.953-.706 5.801-.294.575-.314.564-.923.293-3.414-1.53-6.986-2.353-10.754-2.289-.632.011-1.266.078-1.897.103-.235.008-.28.109-.263.316.137 1.747.386 3.481.743 5.198a44.097 44.097 0 001.688 5.993c.075.204.04.316-.125.452-1.003.818-2.183 1.184-3.455 1.321-.888.095-1.777.092-2.657-.106-.314-.073-.437-.182-.463-.531-.211-3.082-.291-6.164-.171-9.248.031-.776.074-1.552.126-2.326.014-.223-.04-.268-.258-.192-.414.142-.842.248-1.257.39-.205.07-.285.059-.28-.184a34.7 34.7 0 000-1.636c-.003-.156.057-.248.189-.329.506-.318 1.011-.639 1.56-.879.274-.121.337-.305.363-.559a45.61 45.61 0 01.911-5.555c.103-.45.212-.899.34-1.343.063-.218.074-.296-.214-.246a90.074 90.074 0 00-4.126.832c.003-.698.003-1.39.003-2.082zm167.56 14.608c-.7 0-1.355-.005-2.009.003-.143.003-.211-.075-.289-.162a9.62 9.62 0 01-1.14-1.56c-.097-.168-.2-.21-.385-.171-.617.132-1.24.243-1.857.377-.229.05-.298-.003-.289-.237.017-.536.011-1.069.003-1.605-.003-.157.043-.251.194-.316.326-.136.64-.298.963-.435.143-.062.189-.117.131-.279-1.18-3.381-1.408-6.871-1.217-10.405.035-.639.123-1.273.175-1.912.014-.176.088-.226.254-.249 1.977-.279 3.917-.159 5.811.481.2.067.377.092.589.044 5.266-1.234 10.62-1.588 16.017-1.482 1.611.031 3.22.106 4.829.215.154.011.297.005.337.201.471 2.225.291 4.335-1.137 6.234-.209.276-.398.307-.723.192-2.86-.985-5.786-1.719-8.792-2.135a38.405 38.405 0 00-8.225-.232c-1.092.084-2.18.209-3.266.34-.217.026-.332.112-.409.319-.88 2.283-1.243 4.637-1.014 7.071.037.385.037.388.411.285 3.146-.855 6.355-1.329 9.603-1.58 3.789-.293 7.575-.266 11.363-.042.452.025.9.081 1.349.097.208.009.288.087.348.277.355 1.139.292 2.281.035 3.422a.65.65 0 00.011.397c1.06 2.8 1.354 5.706 1.26 8.665-.029.891-.1 1.781-.211 2.666-.023.184-.092.251-.269.277-1.986.27-3.94.15-5.851-.461a1.076 1.076 0 00-.592-.031c-2.968.704-5.986 1.103-9.031 1.321-3.457.245-6.912.212-10.369.039-.494-.025-.986-.078-1.477-.098-.206-.008-.294-.073-.349-.274-.254-.907-.254-1.828-.16-2.749.132-1.265.515-2.437 1.346-3.448.192-.235.354-.274.643-.173 2.837.983 5.743 1.714 8.723 2.135 2.914.414 5.84.467 8.771.224a77.269 77.269 0 003.106-.327c.186-.022.28-.086.343-.259.623-1.65.948-3.35.926-5.112-.003-.237-.078-.343-.315-.416-3.071-.935-6.2-1.608-9.408-1.884-2.2-.19-4.397-.162-6.597.022-.889.075-1.772.182-2.658.274-.262.028-.305.111-.231.351.211.693.454 1.374.729 2.105zm-79.998-12.339a36.867 36.867 0 00-1.66 2.708c-2.174 3.872-3.66 7.984-4.554 12.309-.083.407.034.793.086 1.183.205 1.502.28 3.007.225 4.523-.008.226-.097.34-.3.416-.21.078-.41.178-.617.268-.04.017-.103.028-.111.053-.143.399-.503.276-.791.321-.05.008-.118.067-.143.011-.203-.419-.657-.329-.995-.466-.208-.084-.294-.179-.331-.394-.294-1.736-.357-3.484-.291-5.24.005-.148.002-.29-.046-.435-1.652-5.101-4.146-9.768-7.56-13.959-.034-.041-.066-.083-.103-.122-.014-.014-.037-.02-.092-.048-.11.349-.225.69-.33 1.036-1.25 4.143-1.887 8.369-1.815 12.694.031 1.92.191 3.832.491 5.734.075.48.08.483-.363.686-1.182.542-2.437.626-3.717.542a6.896 6.896 0 01-2.3-.55c-.294-.128-.428-.262-.38-.628.766-5.932 1.915-11.778 4.075-17.398a40.51 40.51 0 011.974-4.369.726.726 0 00.074-.432c-.017-.213.174-.422.323-.601.726-.873 1.311-1.842 1.997-2.741.126-.165.234-.234.451-.167.595.187 1.163.164 1.775-.051 1.023-.36 1.037-.318 1.531.626 1.972 3.754 3.68 7.615 5.072 11.61.025.078.06.154.111.288.214-.863.406-1.673.612-2.477.922-3.581 2.094-7.085 3.462-10.524.078-.198.172-.271.392-.265 1.1.039 2.108.365 3.051.896.223.125.42.181.657.086.1-.039.203-.075.292.031.554.681 1.203 1.309 1.637 2.055.503.871 1.023 1.736 1.486 2.632 1.851 3.582 3.168 7.351 4.234 11.214.874 3.172 1.534 6.385 2.046 9.632.028.178-.009.281-.18.376-.86.475-1.792.693-2.766.757-1.234.084-2.446-.006-3.594-.514-.217-.097-.297-.206-.263-.452.34-2.546.417-5.1.263-7.663-.272-4.464-1.286-8.766-2.912-12.939l-.103-.252zM30.25 133.2v-1.993c0-.159.134-.19.234-.215.586-.15.749-.53.797-1.097.172-1.954.503-3.889.935-5.804.011-.047.014-.097.028-.192-.343.12-.657.212-.957.343-.211.092-.326.022-.457-.134-.709-.843-1.103-1.82-1.277-2.881-.169-1.03-.206-2.063.04-3.096.071-.296.18-.416.523-.438a93.54 93.54 0 019.531-.17c3.449.12 6.877.429 10.26 1.108.183.036.326 0 .486-.087 1.668-.887 3.44-1.108 5.3-.779.371.067.511.232.52.595.017.628.088 1.256.123 1.884.008.179.06.282.237.355.351.148.828.218 1 .519.16.285.051.715.054 1.081 0 .312.111.751-.051.907-.175.167-.586-.078-.892-.151-.203-.047-.26-.005-.26.201 0 1.416-.008 2.834-.023 4.249-.003.204.08.243.263.248.429.014.857.051 1.286.067.16.006.26.051.297.218.477 2.175.291 4.23-1.126 6.069-.18.235-.354.299-.648.187-.612-.226-.603-.209-.697.475-.395 2.873-.992 5.7-2.069 8.417a25.401 25.401 0 01-.834 1.837c-.094.189-.209.251-.42.243a32.003 32.003 0 00-1.58-.003c-.183.003-.263-.003-.209-.235a50.05 50.05 0 001.08-5.876c.237-1.963.349-3.928.332-5.905-.003-.181-.066-.248-.249-.287-2.177-.5-4.38-.824-6.611-.991a45.307 45.307 0 00-7.432.075c-.748.067-1.491.173-2.24.246-.231.022-.214.153-.2.304.106 1.223.263 2.44.477 3.649a43.63 43.63 0 001.918 7.2c.077.212.014.321-.14.449-.966.784-2.103 1.159-3.329 1.298-.966.112-1.929.117-2.877-.131-.174-.045-.292-.101-.306-.324-.183-2.596-.288-5.198-.237-7.8.023-1.144.083-2.286.126-3.428.014-.385.017-.385-.377-.287-.109.027-.215.05-.349.08zm4.974-3.969l.389-.092c2.286-.589 4.614-.966 6.96-1.22 2.883-.313 5.78-.427 8.68-.425.326 0 .363-.103.317-.377a45.03 45.03 0 00-.943-4.332c-.231-.843-.226-.846-1.108-.913-4.56-.349-9.069-.05-13.526.98-.272.064-.357.179-.389.43-.123 1.052-.243 2.105-.303 3.163-.054.921-.117 1.842-.077 2.786zm89.87 8.718c.069-.008.109-.011.149-.022.523-.143.523-.143.848.282.703.918 1.032 1.971 1.16 3.093.103.901.103 1.8-.123 2.688-.062.243-.157.357-.448.366-1.18.042-2.36.123-3.54.173-.203.008-.294.095-.34.26-.086.315-.289.404-.617.385-.472-.031-.946-.02-1.417-.003-.24.008-.352-.036-.246-.288.094-.226.031-.298-.232-.298a81.59 81.59 0 01-7.562-.307 51.124 51.124 0 01-3.898-.478.832.832 0 00-.68.154c-1.134.823-2.448 1.13-3.834 1.203a7.222 7.222 0 01-2.108-.179c-.238-.058-.355-.145-.36-.413-.018-.745-.083-1.488-.109-2.23-.006-.179-.069-.254-.234-.31a19.59 19.59 0 01-2.22-.919c-.195-.092-.26-.203-.255-.41.015-.502.026-1.008-.002-1.51-.018-.31.1-.305.342-.249.646.151 1.3.271 1.946.422.277.064.349-.011.343-.285-.04-2.445.014-4.891.211-7.331.243-3.046.669-6.066 1.469-9.025.109-.405.109-.402-.34-.324a75.19 75.19 0 00-3.717.748c-.22.05-.254-.005-.249-.201a24.21 24.21 0 00-.003-1.51c-.008-.232.066-.352.28-.455 1.552-.762 3.178-1.321 4.852-1.745.308-.078.5-.201.608-.505.126-.355.32-.687.478-1.03.06-.132.14-.19.294-.187.568.008 1.137.005 1.708 0 .166-.003.238.025.178.209-.06.19-.086.388-.135.583-.04.165-.014.221.186.185 1.234-.218 2.477-.4 3.723-.545 3.514-.402 7.043-.527 10.58-.455 1.631.034 3.263.078 4.888.207.278.022.395.109.452.363.406 1.8.168 3.523-.66 5.167a1.358 1.358 0 00-.16.659 72.692 72.692 0 01-.343 8.425c-.183 1.784-.434 3.559-.809 5.318-.022.098-.034.201-.054.324zm-3.154-4.268a41.368 41.368 0 00-1.386-10.614c-.046-.173-.123-.26-.306-.299a44.261 44.261 0 00-7.068-.971 43.996 43.996 0 00-6.277.117c-.257.022-.346.103-.38.338-.306 2.004-.5 4.02-.535 6.046a40.878 40.878 0 00.26 5.374 43.009 43.009 0 001.235 6.326c.043.156.123.221.288.226.375.009.752.034 1.126.05 4.211.193 8.36-.24 12.451-1.233.195-.048.278-.132.3-.333a47.74 47.74 0 00.292-5.027zm34.057 4.226c.051.003.074.009.094.003.592-.167.592-.167.969.329.814 1.081 1.108 2.323 1.185 3.632.043.726.006 1.447-.182 2.156-.06.226-.16.315-.415.326-1.211.048-2.423.126-3.634.176-.203.008-.263.12-.306.257-.091.31-.283.405-.614.385-.566-.031-1.137-.008-1.7-.008-.043-.207.177-.427.037-.539-.12-.095-.368-.036-.563-.036-3.763-.023-7.511-.215-11.231-.799-.18-.028-.34-.039-.512.09-1.517 1.113-3.257 1.376-5.094 1.253a5.56 5.56 0 01-1.074-.193c-.16-.044-.223-.117-.229-.281-.034-.765-.088-1.53-.117-2.295-.006-.201-.071-.288-.266-.352a18.187 18.187 0 01-2.217-.924c-.148-.073-.231-.151-.225-.332a42.26 42.26 0 000-1.67c-.003-.201.06-.212.242-.173.689.157 1.383.291 2.075.444.237.053.317-.003.311-.257a79.31 79.31 0 01.137-6.543c.275-4.146.823-8.241 2.252-12.183.328-.91.72-1.795 1.163-2.658.091-.181.191-.265.411-.257.537.02 1.074.017 1.611 0 .24-.008.263.081.215.277a49.462 49.462 0 00-.975 5.002 43.867 43.867 0 00-.38 8.758 42.676 42.676 0 001.355 8.375c.068.262.174.352.443.366 2.491.131 4.98.108 7.462-.154a46.672 46.672 0 005.955-1.027c.234-.056.348-.134.38-.4.257-2.278.354-4.561.251-6.85-.194-4.294-1.057-8.462-2.531-12.507-.066-.179-.029-.282.114-.399.943-.779 2.054-1.164 3.257-1.312 1.017-.126 2.034-.151 3.037.12.163.045.275.086.292.301.188 2.683.28 5.366.231 8.054-.071 3.749-.354 7.479-1.074 11.17a14.71 14.71 0 00-.14.675z" fill="#fff"/><path d="M-.751 121.046c1.671-.852 3.431-1.477 5.249-1.952.225-.058.365-.148.454-.377.143-.371.343-.723.508-1.085.066-.143.158-.201.32-.199a51.96 51.96 0 001.675 0c.197-.002.243.056.185.238-.054.17-.068.349-.12.522-.057.201-.014.256.209.217a55.297 55.297 0 013.083-.469 72.605 72.605 0 016.128-.483 93.206 93.206 0 018.309.07c.58.028 1.157.087 1.734.109.2.008.277.078.329.26a6.48 6.48 0 01.211 2.119c-.068 1.228-.308 2.412-1.011 3.467-.532.801-.529.795-1.429.497-3.254-1.078-6.583-1.804-10.005-2.122a42.762 42.762 0 00-8.04 0c-.215.02-.26.109-.286.282a43.32 43.32 0 00-.552 6.044c-.002.187.018.257.246.204 4.226-1.014 8.514-1.15 12.832-.868.428.027.857.067 1.285.094.166.012.283.051.312.238.323 1.999.24 3.953-.706 5.801-.294.575-.314.564-.923.293-3.414-1.53-6.986-2.353-10.754-2.289-.632.011-1.266.078-1.897.103-.235.008-.28.109-.263.316.137 1.747.386 3.481.743 5.198a44.097 44.097 0 001.688 5.993c.075.204.04.316-.125.452-1.003.818-2.183 1.184-3.455 1.321-.888.095-1.777.092-2.657-.106-.314-.073-.437-.182-.463-.531-.211-3.082-.291-6.164-.171-9.248.031-.776.074-1.552.126-2.326.014-.223-.04-.268-.258-.192-.414.142-.842.248-1.257.39-.205.07-.285.059-.28-.184a34.7 34.7 0 000-1.636c-.003-.156.057-.248.189-.329.506-.318 1.011-.639 1.56-.879.274-.121.337-.305.363-.559a45.61 45.61 0 01.911-5.555c.103-.45.212-.899.34-1.343.063-.218.074-.296-.214-.246a90.074 90.074 0 00-4.126.832c.003-.698.003-1.39.003-2.082z" fill="url(#paint0_linear_87_667)"/><path d="M166.809 135.654c-.7 0-1.355-.005-2.009.003-.143.003-.211-.075-.289-.162a9.62 9.62 0 01-1.14-1.56c-.097-.168-.2-.21-.385-.171-.617.132-1.24.243-1.857.377-.229.05-.298-.003-.289-.237.017-.536.011-1.069.003-1.605-.003-.157.043-.251.194-.316.326-.136.64-.298.963-.435.143-.062.189-.117.131-.279-1.18-3.381-1.408-6.871-1.217-10.405.035-.639.123-1.273.175-1.912.014-.176.088-.226.254-.249 1.977-.279 3.917-.159 5.811.481.2.067.377.092.589.044 5.266-1.234 10.62-1.588 16.017-1.482 1.611.031 3.22.106 4.829.215.154.011.297.005.337.201.471 2.225.291 4.335-1.137 6.234-.209.276-.398.307-.723.192-2.86-.985-5.786-1.719-8.792-2.135a38.405 38.405 0 00-8.225-.232c-1.092.084-2.18.209-3.266.34-.217.026-.332.112-.409.319-.88 2.283-1.243 4.637-1.014 7.071.037.385.037.388.411.285 3.146-.855 6.355-1.329 9.603-1.58 3.789-.293 7.575-.266 11.363-.042.452.025.9.081 1.349.097.208.009.288.087.348.277.355 1.139.292 2.281.035 3.422a.65.65 0 00.011.397c1.06 2.8 1.354 5.706 1.26 8.665-.029.891-.1 1.781-.211 2.666-.023.184-.092.251-.269.277-1.986.27-3.94.15-5.851-.461a1.076 1.076 0 00-.592-.031c-2.968.704-5.986 1.103-9.031 1.321-3.457.245-6.912.212-10.369.039-.494-.025-.986-.078-1.477-.098-.206-.008-.294-.073-.349-.274-.254-.907-.254-1.828-.16-2.749.132-1.265.515-2.437 1.346-3.448.192-.235.354-.274.643-.173 2.837.983 5.743 1.714 8.723 2.135 2.914.414 5.84.467 8.771.224a77.269 77.269 0 003.106-.327c.186-.022.28-.086.343-.259.623-1.65.948-3.35.926-5.112-.003-.237-.078-.343-.315-.416-3.071-.935-6.2-1.608-9.408-1.884-2.2-.19-4.397-.162-6.597.022-.889.075-1.772.182-2.658.274-.262.028-.305.111-.231.351.211.693.454 1.374.729 2.105z" fill="url(#paint1_linear_87_667)"/><path d="M86.811 123.315a36.867 36.867 0 00-1.66 2.708c-2.174 3.872-3.66 7.984-4.554 12.309-.083.407.034.793.086 1.183.205 1.502.28 3.007.225 4.523-.008.226-.097.34-.3.416-.21.078-.41.178-.617.268-.04.017-.103.028-.111.053-.143.399-.503.276-.791.321-.05.008-.118.067-.143.011-.203-.419-.657-.329-.995-.466-.208-.084-.294-.179-.331-.394-.294-1.736-.357-3.484-.291-5.24.005-.148.002-.29-.046-.435-1.652-5.101-4.146-9.768-7.56-13.959-.034-.041-.066-.083-.103-.122-.014-.014-.037-.02-.092-.048-.11.349-.225.69-.33 1.036-1.25 4.143-1.887 8.369-1.815 12.694.031 1.92.191 3.832.491 5.734.075.48.08.483-.363.686-1.182.542-2.437.626-3.717.542a6.896 6.896 0 01-2.3-.55c-.294-.128-.428-.262-.38-.628.766-5.932 1.915-11.778 4.075-17.398a40.51 40.51 0 011.974-4.369.726.726 0 00.074-.432c-.017-.213.174-.422.323-.601.726-.873 1.311-1.842 1.997-2.741.126-.165.234-.234.451-.167.595.187 1.163.164 1.775-.051 1.023-.36 1.037-.318 1.531.626 1.972 3.754 3.68 7.615 5.072 11.61.025.078.06.154.111.288.214-.863.406-1.673.612-2.477.922-3.581 2.094-7.085 3.462-10.524.078-.198.172-.271.392-.265 1.1.039 2.108.365 3.051.896.223.125.42.181.657.086.1-.039.203-.075.292.031.554.681 1.203 1.309 1.637 2.055.503.871 1.023 1.736 1.486 2.632 1.851 3.582 3.168 7.351 4.234 11.214.874 3.172 1.534 6.385 2.046 9.632.028.178-.009.281-.18.376-.86.475-1.792.693-2.766.757-1.234.084-2.446-.006-3.594-.514-.217-.097-.297-.206-.263-.452.34-2.546.417-5.1.263-7.663-.272-4.464-1.286-8.766-2.912-12.939l-.103-.252z" fill="url(#paint2_linear_87_667)"/><path d="M30.25 133.2v-1.993c0-.159.134-.19.234-.215.586-.15.749-.53.797-1.097.172-1.954.503-3.889.935-5.804.011-.047.014-.097.028-.192-.343.12-.657.212-.957.343-.211.092-.326.022-.457-.134-.709-.843-1.103-1.82-1.277-2.881-.169-1.03-.206-2.063.04-3.096.071-.296.18-.416.523-.438a93.54 93.54 0 019.531-.17c3.449.12 6.877.429 10.26 1.108.183.036.326 0 .486-.087 1.668-.887 3.44-1.108 5.3-.779.371.067.511.232.52.595.017.628.088 1.256.123 1.884.008.179.06.282.237.355.351.148.828.218 1 .519.16.285.051.715.054 1.081 0 .312.111.751-.051.907-.175.167-.586-.078-.892-.151-.203-.047-.26-.005-.26.201 0 1.416-.008 2.834-.023 4.249-.003.204.08.243.263.248.429.014.857.051 1.286.067.16.006.26.051.297.218.477 2.175.291 4.23-1.126 6.069-.18.235-.354.299-.648.187-.612-.226-.603-.209-.697.475-.395 2.873-.992 5.7-2.069 8.417a25.445 25.445 0 01-.834 1.837c-.094.189-.209.251-.42.243a32.003 32.003 0 00-1.58-.003c-.183.003-.263-.003-.209-.235a50.05 50.05 0 001.08-5.876c.237-1.963.349-3.928.332-5.905-.003-.181-.066-.248-.249-.287-2.177-.5-4.38-.824-6.611-.991a45.307 45.307 0 00-7.432.075c-.748.067-1.491.173-2.24.246-.231.022-.214.153-.2.304.106 1.223.263 2.44.477 3.649a43.63 43.63 0 001.918 7.2c.077.212.014.321-.14.449-.966.784-2.103 1.159-3.329 1.298-.966.112-1.929.117-2.877-.131-.174-.045-.292-.101-.306-.324-.183-2.596-.288-5.198-.237-7.8.023-1.144.083-2.286.126-3.428.014-.385.017-.385-.377-.287-.109.027-.215.05-.349.08zm4.974-3.969l.389-.092c2.286-.589 4.614-.966 6.96-1.22 2.883-.313 5.78-.427 8.68-.425.326 0 .363-.103.317-.377a45.03 45.03 0 00-.943-4.332c-.231-.843-.226-.846-1.108-.913-4.56-.349-9.069-.05-13.526.98-.272.064-.357.179-.389.43-.123 1.052-.243 2.105-.303 3.163-.054.921-.117 1.842-.077 2.786z" fill="url(#paint3_linear_87_667)"/><path d="M125.094 137.949c.069-.008.109-.011.149-.022.523-.143.523-.143.848.282.703.918 1.032 1.971 1.16 3.093.103.901.103 1.8-.123 2.688-.062.243-.157.357-.448.366-1.18.042-2.36.123-3.54.173-.203.008-.294.095-.34.26-.086.315-.289.404-.617.385-.472-.031-.946-.02-1.417-.003-.24.008-.352-.036-.246-.288.094-.226.031-.298-.232-.298a81.59 81.59 0 01-7.562-.307 51.124 51.124 0 01-3.898-.478.832.832 0 00-.68.154c-1.134.823-2.448 1.13-3.834 1.203a7.222 7.222 0 01-2.108-.179c-.238-.058-.355-.145-.36-.413-.018-.745-.083-1.488-.109-2.23-.006-.179-.069-.254-.234-.31a19.59 19.59 0 01-2.22-.919c-.195-.092-.26-.203-.255-.41.015-.502.026-1.008-.002-1.51-.018-.31.1-.305.342-.249.646.151 1.3.271 1.946.422.277.064.349-.011.343-.285-.04-2.445.014-4.891.211-7.331.243-3.046.669-6.066 1.469-9.025.109-.405.109-.402-.34-.324a75.19 75.19 0 00-3.717.748c-.22.05-.254-.005-.249-.201a24.21 24.21 0 00-.003-1.51c-.008-.232.066-.352.28-.455 1.552-.762 3.178-1.321 4.852-1.745.308-.078.5-.201.608-.505.126-.355.32-.687.478-1.03.06-.132.14-.19.294-.187.568.008 1.137.005 1.708 0 .166-.003.238.025.178.209-.06.19-.086.388-.135.583-.04.165-.014.221.186.185 1.234-.218 2.477-.4 3.723-.545 3.514-.402 7.043-.527 10.58-.455 1.631.034 3.263.078 4.888.207.278.022.395.109.452.363.406 1.8.168 3.523-.66 5.167a1.358 1.358 0 00-.16.659 72.692 72.692 0 01-.343 8.425c-.183 1.784-.434 3.559-.809 5.318-.022.098-.034.201-.054.324zm-3.154-4.268a41.368 41.368 0 00-1.386-10.614c-.046-.173-.123-.26-.306-.299a44.261 44.261 0 00-7.068-.971 43.996 43.996 0 00-6.277.117c-.257.022-.346.103-.38.338-.306 2.004-.5 4.02-.535 6.046a40.878 40.878 0 00.26 5.374 43.009 43.009 0 001.235 6.326c.043.156.123.221.288.226.375.009.752.034 1.126.05 4.211.193 8.36-.24 12.451-1.233.195-.048.278-.132.3-.333a47.74 47.74 0 00.292-5.027z" fill="url(#paint4_linear_87_667)"/><path d="M155.997 137.907c.051.003.074.009.094.003.592-.167.592-.167.969.329.814 1.081 1.108 2.323 1.185 3.632.043.726.006 1.446-.182 2.156-.06.226-.16.315-.415.326-1.211.048-2.423.126-3.634.176-.203.008-.263.12-.306.257-.091.31-.283.405-.614.385-.566-.031-1.137-.008-1.7-.008-.043-.207.177-.427.037-.539-.12-.095-.368-.036-.563-.036-3.763-.023-7.511-.215-11.231-.799-.18-.028-.34-.039-.512.09-1.517 1.113-3.257 1.376-5.094 1.253a5.56 5.56 0 01-1.074-.193c-.16-.044-.223-.117-.229-.282-.034-.764-.088-1.529-.117-2.294-.006-.201-.071-.288-.266-.352-.76-.257-1.497-.57-2.217-.924-.148-.073-.231-.151-.225-.332a42.26 42.26 0 000-1.67c-.003-.201.06-.212.242-.173.689.157 1.383.291 2.075.444.237.053.317-.003.311-.257a79.31 79.31 0 01.137-6.543c.275-4.146.823-8.241 2.252-12.183.328-.91.72-1.795 1.163-2.658.091-.181.191-.265.411-.257.537.02 1.074.017 1.611 0 .24-.008.263.081.215.277a49.462 49.462 0 00-.975 5.002 43.867 43.867 0 00-.38 8.758 42.676 42.676 0 001.355 8.375c.068.262.174.352.443.365 2.491.132 4.98.109 7.462-.153a46.672 46.672 0 005.955-1.027c.234-.056.348-.134.38-.4.257-2.278.354-4.561.251-6.85-.194-4.294-1.057-8.462-2.531-12.507-.066-.179-.029-.282.114-.399.943-.779 2.054-1.164 3.257-1.312 1.017-.126 2.034-.151 3.037.12.163.045.275.086.292.301.188 2.683.28 5.366.231 8.054-.071 3.749-.354 7.479-1.074 11.17a14.71 14.71 0 00-.14.675z" fill="url(#paint5_linear_87_667)"/><path d="M42.098 158.045c0 .423.19.76.572 1.008.382.251.848.441 1.395.581.546.136 1.097.29 1.644.459a3.248 3.248 0 011.394.839c.382.391.573.907.573 1.542 0 .796-.323 1.445-.965 1.943-.643.499-1.476.746-2.496.746-.917 0-1.7-.201-2.341-.599-.643-.398-1.094-.914-1.347-1.552l1.072-.617a2.2 2.2 0 00.965 1.147c.466.28 1.016.42 1.655.42.624 0 1.148-.122 1.567-.366.422-.244.631-.62.631-1.13 0-.423-.19-.76-.573-1.007-.381-.248-.847-.441-1.394-.581a30.589 30.589 0 01-1.644-.459 3.226 3.226 0 01-1.395-.843c-.381-.39-.572-.907-.572-1.542 0-.76.308-1.394.928-1.907.617-.509 1.398-.767 2.342-.767.778 0 1.46.172 2.047.512.588.345 1.02.807 1.3 1.392l-1.054.598c-.37-.871-1.134-1.308-2.293-1.308-.547 0-1.02.129-1.417.383-.4.273-.594.635-.594 1.108z" fill="url(#paint6_linear_87_667)"/><path d="M56.419 155.6h1.262v9.341H56.42v-1.456c-.716 1.122-1.784 1.681-3.211 1.681-1.16 0-2.074-.344-2.745-1.036-.668-.692-1.006-1.621-1.006-2.793V155.6h1.262v5.737c0 .835.228 1.481.68 1.943.45.463 1.093.692 1.922.692.918 0 1.663-.283 2.239-.849.572-.567.862-1.442.862-2.625V155.6h-.003z" fill="url(#paint7_linear_87_667)"/><path d="M61.352 158.045c0 .423.19.761.573 1.008.381.251.847.441 1.394.581.547.136 1.097.29 1.644.459a3.248 3.248 0 011.395.839c.381.391.572.907.572 1.542 0 .796-.323 1.445-.965 1.943-.642.499-1.475.746-2.496.746-.917 0-1.699-.201-2.34-.599-.643-.398-1.094-.914-1.348-1.552l1.072-.617a2.2 2.2 0 00.965 1.147c.466.28 1.017.42 1.655.42.624 0 1.149-.122 1.567-.366.422-.244.631-.62.631-1.129 0-.424-.19-.761-.572-1.008-.382-.247-.848-.441-1.395-.581a30.563 30.563 0 01-1.644-.459 3.216 3.216 0 01-1.394-.843c-.382-.39-.573-.907-.573-1.541 0-.761.308-1.395.929-1.908.616-.509 1.398-.767 2.341-.767.778 0 1.46.172 2.048.512a3.18 3.18 0 011.299 1.392l-1.053.599c-.371-.872-1.134-1.309-2.294-1.309-.547 0-1.02.129-1.416.383-.397.273-.595.635-.595 1.108z" fill="url(#paint8_linear_87_667)"/><path d="M73.42 155.374c1.16 0 2.074.344 2.745 1.036.668.692 1.006 1.624 1.006 2.793v5.738h-1.263v-5.738c0-.835-.227-1.481-.679-1.943-.451-.463-1.093-.692-1.923-.692-.917 0-1.662.283-2.238.85-.573.566-.863 1.441-.863 2.624v4.895h-1.262v-13.081h1.262v5.196c.716-1.115 1.788-1.678 3.215-1.678z" fill="url(#paint9_linear_87_667)"/><path d="M80.901 153.358a.893.893 0 01-.65.262.882.882 0 01-.65-.262.852.852 0 01-.267-.634c0-.248.088-.459.268-.635a.893.893 0 01.65-.262c.253 0 .47.086.649.262.18.176.268.387.268.635a.865.865 0 01-.268.634zm-1.284 11.582v-9.341h1.262v9.341h-1.262z" fill="url(#paint10_linear_87_667)"/><path d="M99.086 164.51l-1.186.653-1.416-1.477c-1.006.982-2.32 1.477-3.938 1.477-1.314 0-2.374-.334-3.185-1.001-.811-.667-1.215-1.567-1.215-2.7 0-.821.216-1.563.65-2.223.433-.66 1.078-1.183 1.93-1.57-.664-.735-.995-1.557-.995-2.467 0-1.083.382-1.951 1.15-2.596.762-.649 1.658-.972 2.678-.972.855 0 1.637.233 2.341.699a3.874 3.874 0 011.52 1.897l-1.127.635c-.19-.61-.532-1.09-1.024-1.438a2.852 2.852 0 00-1.692-.524c-.69 0-1.277.205-1.769.617-.491.412-.737.947-.737 1.606 0 .438.106.829.316 1.176.209.348.52.736.928 1.159l4.037 4.202c.37-.71.613-1.538.727-2.485l1.185.674c-.165 1.083-.492 2.012-.976 2.783l1.798 1.875zm-6.576-.613c1.273 0 2.293-.387 3.06-1.158l-3.938-4.091c-.752.272-1.295.663-1.633 1.169a2.856 2.856 0 00-.506 1.617c0 .76.271 1.362.81 1.803.537.438 1.274.66 2.207.66z" fill="url(#paint11_linear_87_667)"/><path d="M110.803 155.374c1.365 0 2.529.473 3.49 1.42.962.946 1.442 2.105 1.442 3.474 0 1.37-.48 2.528-1.442 3.475-.961.947-2.125 1.42-3.49 1.42-1.695 0-2.984-.685-3.864-2.055v5.569h-1.263v-13.081h1.263v1.832c.88-1.369 2.169-2.054 3.864-2.054zm-2.771 7.523c.727.717 1.619 1.075 2.679 1.075 1.057 0 1.953-.358 2.679-1.075.727-.717 1.09-1.592 1.09-2.625s-.363-1.908-1.09-2.625c-.726-.717-1.618-1.076-2.679-1.076-1.057 0-1.948.359-2.679 1.076-.726.717-1.09 1.592-1.09 2.625s.364 1.908 1.09 2.625z" fill="url(#paint12_linear_87_667)"/><path d="M119.123 153.358a.895.895 0 01-.65.262.88.88 0 01-.649-.262.851.851 0 01-.268-.634c0-.248.088-.459.268-.635a.891.891 0 01.649-.262c.253 0 .47.086.65.262.18.176.268.387.268.635a.851.851 0 01-.268.634zm-1.281 11.582v-9.341h1.262v9.341h-1.262z" fill="url(#paint13_linear_87_667)"/><path d="M123.162 163.747h5.508v1.197h-7.266v-.821l5.317-7.326h-5.126V155.6h6.884v.821l-5.317 7.326z" fill="url(#paint14_linear_87_667)"/><path d="M131.955 163.747h5.508v1.197h-7.266v-.821l5.317-7.326h-5.126V155.6h6.884v.821l-5.317 7.326z" fill="url(#paint15_linear_87_667)"/><path d="M147.213 155.6h1.262v9.341h-1.262v-1.833c-.881 1.37-2.169 2.055-3.865 2.055-1.365 0-2.528-.473-3.49-1.42-.961-.947-1.442-2.105-1.442-3.475 0-1.369.481-2.528 1.442-3.474.962-.947 2.125-1.42 3.49-1.42 1.696 0 2.984.685 3.865 2.054V155.6zm-6.445 7.297c.727.717 1.619 1.075 2.676 1.075 1.057 0 1.952-.358 2.679-1.075.726-.717 1.09-1.592 1.09-2.625s-.364-1.908-1.09-2.625c-.727-.717-1.619-1.076-2.679-1.076-1.057 0-1.949.359-2.676 1.076-.726.717-1.09 1.592-1.09 2.625s.364 1.908 1.09 2.625z" fill="url(#paint16_linear_87_667)"/></g><g clip-path="url(#clip1_87_667)"><path d="M44.383 52.469c0 16.522 8.15 31.147 20.659 40.101 4.709-6.785 6.808-14.68 8.874-22.603.965-3.698 1.463-7.456 1.714-11.252.05-.772.315-1.558-1.18-1.347-1.169.166-1.392-1.131-1.25-2.081.283-1.858-2.365-6.974-4.369-6.82-1.32.102 10.382-23.409 10.935-23.872.99-.832 2.7-1.153 3.854-1.409a.54.54 0 00.363-.778l-.97-1.866c-1.31-.074-2.573.191-3.82.534-5.192 1.424-10.415 2.72-15.737 3.572-.75.119-1.52.1-2.706.17 5.968-6.744 14.113-14.383 20.875-20.163-21.41 5.438-37.242 24.782-37.242 47.814zM70.756 96.1c.957.504 1.93.98 2.921 1.422 3.447-6.957 5.928-14.197 6.097-22.209-1.901 7.494-4.209 14.768-9.018 20.787zm48.855-39.87l-.024.011-.007.007.031-.017z" fill="#fff"/><path opacity=".14" d="M119.611 56.23l-.024.011-.007.007.031-.017z" fill="#fff"/><path d="M102.498 30.423c-.002-.008-.004-.017-.008-.025-.013-.004-.026-.006-.039-.013 0 .002.047.038.047.038z" fill="#fff"/><path opacity=".14" d="M102.498 30.423c-.002-.008-.004-.017-.008-.025-.013-.004-.026-.006-.039-.013 0 .002.047.038.047.038z" fill="#fff"/><path d="M128.338 4.664a214.157 214.157 0 01-9.696 3.465c-.615.205-1.229.405-1.844.604-11.337 3.666-22.872 6.515-34.423 9.304-.243-.567-.007-.928.128-1.3.796-2.163 3.736-8.993 5.59-13.268.05-.11.097-.221.144-.329.839-1.932 1.423-3.27 1.423-3.27 13.056 1.617 25.867 3.206 38.678 4.794zM92.699 84.619c.241.023.7-.38.762-.653.412-1.772 1.602-3.328.516-5.436-1.517-2.945-2.537-6.144-3.805-9.22-.227-.551-.159-1.66-1.255-1.19-.9.385-.758 1.26-.447 1.99 1 2.32 1.555 4.758 1.972 7.234.048.279.006.572.006.86-1.21-4.026-1.99-8.187-5.82-11.49l4.387 14.032c-2.44-2.68-3.746-5.957-5.07-9.236.248 3.197 1.444 6.09 2.698 8.95-.649.315-.621-.514-1.203-.5.478 2.392 1.605 4.44 2.932 6.408.375.557.661.195 1.008.004 1.09-.598 1.798-1.896 3.319-1.753zM89.975 45.78c2.839 3.515 3.238 7.469 1.625 11.563-1.67 4.24-.249 7.963 1.545 12.13 1.468-3.948 2.39-7.577 2.646-11.386.712-10.609-5.038-16.485-13.856-19.33-2.391-.772-4.846-1.204-7.34-1.534 2.579 1.043 5.237 1.85 7.736 3.05 2.876 1.382 5.607 2.986 7.644 5.507z" fill="#fff"/><path d="M99.765 50.798c1.504 3.514 1.749 7.178.835 10.83-.713 2.851-.413 5.679-.241 8.548 3.76-8.413 3.568-16.716-1.364-24.607-5.074-8.118-12.676-11.98-22.254-12.083 1.954.618 3.915 1.212 5.86 1.857 6.625 2.198 14.545 9.333 17.164 15.455zm10.441 32.447c.443 1.868.849 3.744 1.341 5.6.625 2.36 1.356 4.71-2.184 6.19 1.652.254 2.186-1.034 3.248-.811l.647 3.658c.424-.18.845-.368 1.263-.56-.659-3.253-1.437-6.41-2.367-9.39-.498-1.605-1.048-3.192-1.948-4.687zm-1.863-24.597c.151-2.93-.427-5.74-1.096-8.53-.519-2.169-2.854-8.55-3.501-9.59-1.412-2.273-2.902-4.472-4.774-6.393A48.76 48.76 0 0097 32.33c-2.386-2.002-4.989-3.645-7.88-4.831-.679-.278-1.304-.606-2.073.342 14.099 5.458 19.116 17.155 21.296 30.807zM94.695 87.025c.32 1.272 1.245 2.036 1.849 2.987-1.004.422-.97.393-1.914-.676-.608-.69-1.186-1.456-2.213-1.844.12 1.895 1.421 3.24 1.927 4.885.224.004.527.074.618-.033 1.391-1.671 2.797-.915 4.275.092.183-3.305-2.327-4.15-4.542-5.412zm-.391 5.355c.019.02.039.036.057.056l-.02-.06h-.04l.003.004z" fill="#fff"/><path opacity=".14" d="M94.304 92.38c.019.02.039.036.057.056l-.02-.06h-.04l.003.004z" fill="#fff"/><path d="M94.3 92.377c0 .002.003.002.003.003l.058.058-.057-.056c0-.003-.001-.003-.003-.005z" fill="#fff"/><path opacity=".14" d="M94.3 92.377c0 .002.003.002.003.003l.058.058-.057-.056c0-.003-.001-.003-.003-.005z" fill="#fff"/><path d="M84.003 48.361c2.585.518 5.065 1.337 7.563 2.449-2.821-3.31-11.022-4.678-15.658-2.882 2.731-.075 5.423-.1 8.095.433zm38.874 44.09c.272-.197.543-.395.811-.598-4.05-4.883-8.586-11.951-10.27-16.352.892 5.239 5.003 12.606 9.459 16.95zM76.04 51.326c4.915.479 9.722 1.428 14.329 3.261-4.35-2.97-9.132-4.03-14.329-3.261zm11.993-6.281c-2.243-2.395-9.083-3.527-12.637-1.567 4.52-.25 8.51.125 12.637 1.567zm25.191 22.835c-.406-.305-.625.158-.815.396-1.927 2.421-12.49 16.169-14.403 18.6.098.1.196.197.296.297 2.06-2.357 12.774-16.028 14.834-18.385.253-.287.441-.645.088-.909zM98.61 31.192c.539-.735.403-1.544 1.054-2.005-2.14.823-3.309-1.583-5.463-1.325 1.229 1.486 2.99 2.043 4.409 3.33zm-4.308 61.185c-.974-1.012-2.332-1.237-3.873-1.907.905 1.62 1.676 2.843 3.372 2.99 1.044.09 1.072-.38.503-1.08l-.002-.003zm.06.059c-.018-.02-.038-.037-.056-.055l.056.055z" fill="#fff"/><path opacity=".14" d="M94.362 92.436c-.018-.02-.038-.037-.056-.055l.056.055z" fill="#fff"/><path d="M94.3 92.377l.003.005c0-.003 0-.005-.002-.005z" fill="#fff"/><path opacity=".14" d="M94.3 92.377l.003.005c0-.003 0-.005-.002-.005z" fill="#fff"/><path d="M94.306 92.382l-.005-.005c.002.002.005.002.005.005z" fill="#fff"/><path opacity=".14" d="M94.306 92.382l-.005-.005c.002.002.005.002.005.005z" fill="#fff"/><path d="M90.93 95.236c-.76.951-2.802 3.328-5.044 5.929l.596.095c2.17-2.505 4.083-4.795 4.797-5.739a15.802 15.802 0 00-.35-.285zm18.842-53.562c.32-.164.328-.652.077-.92-.335-.356-.616.014-.869.217-1.129.907-1.87 1.594-2.999 2.503-.004-.006 2.411-1.09 3.791-1.8zm-1.71-5.084c-2.072-.295-3.063 1.442-4.641 2.075l.281.35c1.454-.811 2.907-1.618 4.36-2.425zm-7.203-2.345s2.874-1.122 3.644-2.765c0 .002-2.597 1.49-3.644 2.765zM118.79 58.23c-.298.057-.745-.066-.602.532.176.738.486 1.266 1.386 1.186.443-.04.666-.188.505-.626-.219-.59-.407-1.252-1.289-1.092zm.576-3.28c-.164-.941-.425-1.74-1.605-1.574-.359.05-.437.297-.355.627.276 1.098.998 1.243 1.96.948zm.386-1.938c.482.178.568.022 1.088.104.019-.063.133-.672-.018-1.112-.211-.61-.745-.45-1.192-.457-.217-.004-.513-.008-.513.316 0 .489.168.975.635 1.15zm-2.148 4.01c-.188-.848-.347-1.665-1.464-1.596-.437.027-.627.222-.496.668.278.94.853 1.325 1.96.928zm5.953-.953c.382-.02.386-.262.313-.604-.243-1.13-.911-1.335-1.919-.96.061 1.02.524 1.62 1.606 1.563zm-2.144 1.803c.333-.027.563-.136.478-.518-.131-.603-.443-1.084-1.101-1.164-.39-.047-.712.533-.653.862.137.744.637.871 1.276.82zm3.517-3.728c.421.04.641-.084.586-.569-.076-.68-.37-1.069-1.035-.994-.392 0-.833-.165-.798.406.047.756.535 1.087 1.247 1.157zm-3.013-2.879c.475.012.769.006.725-.596-.054-.738-.45-1-1.031-.94-.482-.095-.847-.09-.756.434.1.58.298 1.085 1.062 1.102z" fill="#fff"/><path d="M145.265 52.829c.022-4.45-.58-8.693-1.764-12.687a47.515 47.515 0 00-13.142-21.687c2.821 2.998 5.359 6.189 7.406 9.751a39.944 39.944 0 011.886 3.717c3.095 7.012 4.456 14.383 4.352 22.039-.737-7.115-2.306-14.021-5.215-20.597 1.447 4.606 2.551 9.261 2.784 14.111.235 4.9-.206 9.7-1.476 14.434.035-1.63.337-3.235.478-4.854.659-7.569-.615-14.82-3.603-21.762-4.448-10.33-10.178-18.187-20.17-23.37-.322-.166-.781-.293-1.322-.312-.035-.002-.072-.002-.109-.002h-.099l-.078.002a4.594 4.594 0 00-1.95.531c-1.628.569-3.306 1.016-4.988 1.536.122.635 1.151 2.064 1.077 2.292l-.977.471c-.339.39.851 1.745.881 2.33.003.076-.41.197-.393.275.071.319.338.52.122.801-1.159 1.519-.706 3.123-.151 4.726.52 1.5.514 3.075.057 5.092-.957-2.234-2.837-3.033-4.121-4.463-1.256-1.4-4.34-.837-4.875.694-.118.34-.343.846.05.895 2.23.275 2.071 2.153 2.563 3.601.757.309 1.235-1.036 1.825-.49 1.027.95 1.849 2.12 2.766 3.189 1.178 1.375 1.953 2.906 2.376 4.703.412 1.745 1.261 3.383 1.811 5.103.839 2.618 1.096 5.372 1.943 8.017.578 1.81.81 3.876.502 6.309 1.345-1.704 2.396-3.12 3.535-4.456 1.025-1.204 2.181-2.296 3.22-3.49 1.002-1.15 1.663-.21 2.331.35.673.563 1.1 1.268.187 2.01-.63.513-3.078 3.315-3.719 4.196-.294.403-.204.635.323.403 1.224-1.259 2.523-2.455 3.65-3.795 1.051-1.251 1.859-.938 2.874.008 1.143 1.064.569 1.717-.315 2.53-3.46 3.185-6.689 6.592-9.796 10.125-1.065 1.21-1.51 2.233-.165 3.927-1.496-.619-1.819-.252-1.719.933.494 5.796 2.58 10.984 5.84 15.752a48.245 48.245 0 004.467 5.57 51.566 51.566 0 001.869-1.538c6.51-4.792 11.476-10.545 14.693-17.336l.066.147a47.233 47.233 0 004.217-19.577 3.526 3.526 0 01-.004-.154z" fill="#fff"/><path d="M44.383 52.469c0 16.522 8.15 31.147 20.659 40.101 4.709-6.785 6.808-14.68 8.874-22.603.965-3.698 1.463-7.456 1.714-11.252.05-.772.315-1.558-1.18-1.347-1.169.166-1.392-1.131-1.25-2.081.283-1.858-2.365-6.974-4.369-6.82-1.32.102 10.382-23.409 10.935-23.872.99-.832 2.7-1.153 3.854-1.409a.54.54 0 00.363-.778l-.97-1.866c-1.31-.074-2.573.191-3.82.534-5.192 1.424-10.415 2.72-15.737 3.572-.75.119-1.52.1-2.706.17 5.968-6.744 14.113-14.383 20.875-20.163-21.41 5.438-37.242 24.782-37.242 47.814z" fill="url(#paint17_linear_87_667)"/><path d="M70.756 96.1c.957.504 1.93.98 2.921 1.422 3.447-6.957 5.928-14.197 6.097-22.209-1.901 7.494-4.209 14.768-9.018 20.787z" fill="url(#paint18_linear_87_667)"/><path d="M119.611 56.23l-.024.011-.007.007.031-.017z" fill="url(#paint19_linear_87_667)"/><path d="M119.611 56.23l-.024.011-.007.007.031-.017z" fill="url(#paint20_linear_87_667)"/><path d="M102.498 30.423c-.002-.008-.004-.017-.008-.025-.013-.004-.026-.006-.039-.013 0 .002.047.038.047.038z" fill="url(#paint21_linear_87_667)"/><path d="M102.498 30.423c-.002-.008-.004-.017-.008-.025-.013-.004-.026-.006-.039-.013 0 .002.047.038.047.038z" fill="url(#paint22_linear_87_667)"/><path d="M128.338 4.664a214.157 214.157 0 01-9.696 3.465c-.615.205-1.229.405-1.844.604-11.337 3.666-22.872 6.515-34.423 9.304-.243-.567-.007-.928.128-1.3.796-2.163 3.736-8.993 5.59-13.268.05-.11.097-.221.144-.329.839-1.932 1.423-3.27 1.423-3.27 13.056 1.617 25.867 3.206 38.678 4.794z" fill="url(#paint23_linear_87_667)"/><path d="M92.699 84.619c.241.023.7-.38.762-.653.412-1.772 1.602-3.328.516-5.436-1.517-2.945-2.537-6.144-3.805-9.22-.227-.551-.159-1.66-1.255-1.19-.9.385-.758 1.26-.447 1.99 1 2.32 1.555 4.758 1.972 7.234.048.279.006.572.006.86-1.21-4.026-1.99-8.187-5.82-11.49l4.387 14.032c-2.44-2.68-3.746-5.957-5.07-9.236.248 3.197 1.444 6.09 2.698 8.95-.649.315-.621-.514-1.203-.5.478 2.392 1.605 4.44 2.932 6.408.375.557.661.195 1.008.004 1.09-.598 1.798-1.896 3.319-1.753z" fill="url(#paint24_linear_87_667)"/><path d="M89.975 45.78c2.839 3.515 3.238 7.469 1.625 11.563-1.67 4.24-.249 7.963 1.545 12.13 1.468-3.948 2.39-7.577 2.646-11.386.712-10.609-5.038-16.485-13.856-19.33-2.391-.772-4.846-1.204-7.34-1.534 2.579 1.043 5.237 1.85 7.736 3.05 2.876 1.382 5.607 2.986 7.644 5.507z" fill="url(#paint25_linear_87_667)"/><path d="M99.765 50.798c1.504 3.514 1.749 7.178.835 10.83-.713 2.851-.413 5.679-.241 8.548 3.76-8.413 3.568-16.716-1.364-24.607-5.074-8.118-12.676-11.98-22.254-12.083 1.954.618 3.915 1.212 5.86 1.857 6.625 2.198 14.545 9.333 17.164 15.455z" fill="url(#paint26_linear_87_667)"/><path d="M110.206 83.245c.443 1.868.849 3.744 1.341 5.6.625 2.36 1.356 4.71-2.184 6.19 1.652.254 2.186-1.034 3.248-.811l.647 3.658c.424-.18.845-.368 1.263-.56-.659-3.253-1.437-6.41-2.367-9.39-.498-1.605-1.048-3.192-1.948-4.687z" fill="url(#paint27_linear_87_667)"/><path d="M108.343 58.648c.151-2.93-.427-5.74-1.096-8.53-.519-2.169-2.854-8.55-3.501-9.59-1.412-2.273-2.902-4.472-4.774-6.393A48.76 48.76 0 0097 32.33c-2.386-2.002-4.989-3.645-7.88-4.831-.679-.278-1.304-.606-2.073.342 14.099 5.458 19.116 17.155 21.296 30.807z" fill="url(#paint28_linear_87_667)"/><path d="M94.695 87.025c.32 1.272 1.245 2.036 1.849 2.987-1.004.422-.97.393-1.914-.676-.608-.69-1.186-1.456-2.213-1.844.12 1.895 1.421 3.24 1.927 4.885.224.004.527.074.618-.033 1.391-1.671 2.797-.915 4.275.092.183-3.305-2.327-4.15-4.542-5.412z" fill="url(#paint29_linear_87_667)"/><path d="M94.304 92.38c.019.02.039.036.057.056l-.02-.06h-.04l.003.004z" fill="url(#paint30_linear_87_667)"/><path d="M94.304 92.38c.019.02.039.036.057.056l-.02-.06h-.04l.003.004z" fill="url(#paint31_linear_87_667)"/><path d="M94.3 92.377c0 .002.003.002.003.003l.058.058-.057-.056c0-.003-.001-.003-.003-.005z" fill="url(#paint32_linear_87_667)"/><path d="M94.3 92.377c0 .002.003.002.003.003l.058.058-.057-.056c0-.003-.001-.003-.003-.005z" fill="url(#paint33_linear_87_667)"/><path d="M84.003 48.361c2.585.518 5.065 1.337 7.563 2.449-2.821-3.31-11.022-4.678-15.658-2.882 2.731-.075 5.423-.1 8.095.433z" fill="url(#paint34_linear_87_667)"/><path d="M122.877 92.451c.272-.197.543-.395.811-.598-4.05-4.883-8.586-11.951-10.27-16.352.892 5.239 5.003 12.606 9.459 16.95z" fill="url(#paint35_linear_87_667)"/><path d="M76.04 51.326c4.915.479 9.722 1.428 14.329 3.261-4.35-2.97-9.132-4.03-14.329-3.261z" fill="url(#paint36_linear_87_667)"/><path d="M88.033 45.045c-2.243-2.395-9.083-3.527-12.637-1.567 4.52-.25 8.51.125 12.637 1.567z" fill="url(#paint37_linear_87_667)"/><path d="M113.224 67.88c-.406-.305-.625.158-.815.396-1.927 2.421-12.49 16.169-14.403 18.6.098.1.196.197.296.297 2.06-2.357 12.774-16.028 14.834-18.385.253-.287.441-.645.088-.909z" fill="url(#paint38_linear_87_667)"/><path d="M98.61 31.192c.539-.735.403-1.544 1.054-2.005-2.14.823-3.309-1.583-5.463-1.325 1.229 1.486 2.99 2.043 4.409 3.33z" fill="url(#paint39_linear_87_667)"/><path d="M94.302 92.377c-.974-1.012-2.332-1.237-3.873-1.907.905 1.62 1.676 2.843 3.372 2.99 1.044.09 1.072-.38.503-1.08l-.002-.003z" fill="url(#paint40_linear_87_667)"/><path d="M94.362 92.436c-.018-.02-.038-.037-.056-.055l.056.055z" fill="url(#paint41_linear_87_667)"/><path d="M94.362 92.436c-.018-.02-.038-.037-.056-.055l.056.055z" fill="url(#paint42_linear_87_667)"/><path d="M94.3 92.377l.003.005c0-.003 0-.005-.002-.005z" fill="url(#paint43_linear_87_667)"/><path d="M94.3 92.377l.003.005c0-.003 0-.005-.002-.005z" fill="url(#paint44_linear_87_667)"/><path d="M94.306 92.382l-.005-.005c.002.002.005.002.005.005z" fill="url(#paint45_linear_87_667)"/><path d="M94.306 92.382l-.005-.005c.002.002.005.002.005.005z" fill="url(#paint46_linear_87_667)"/><path d="M90.93 95.236c-.76.951-2.802 3.328-5.044 5.929l.596.095c2.17-2.505 4.083-4.795 4.797-5.739a15.802 15.802 0 00-.35-.285z" fill="url(#paint47_linear_87_667)"/><path d="M109.772 41.674c.32-.164.328-.652.077-.92-.335-.356-.616.014-.869.217-1.129.907-1.87 1.594-2.999 2.503-.004-.006 2.411-1.09 3.791-1.8z" fill="url(#paint48_linear_87_667)"/><path d="M108.062 36.59c-2.072-.295-3.063 1.442-4.641 2.075l.281.35c1.454-.811 2.907-1.618 4.36-2.425z" fill="url(#paint49_linear_87_667)"/><path d="M100.859 34.245s2.874-1.122 3.644-2.765c0 .002-2.597 1.49-3.644 2.765z" fill="url(#paint50_linear_87_667)"/><path d="M118.79 58.23c-.298.057-.745-.066-.602.532.176.738.486 1.266 1.386 1.186.443-.04.666-.188.505-.626-.219-.59-.407-1.252-1.289-1.092z" fill="url(#paint51_linear_87_667)"/><path d="M119.366 54.95c-.164-.941-.425-1.74-1.605-1.574-.359.05-.437.297-.355.627.276 1.098.998 1.243 1.96.948z" fill="url(#paint52_linear_87_667)"/><path d="M119.752 53.012c.482.178.568.022 1.088.104.019-.063.133-.672-.018-1.112-.211-.61-.745-.45-1.192-.457-.217-.004-.513-.008-.513.316 0 .489.168.975.635 1.15z" fill="url(#paint53_linear_87_667)"/><path d="M117.604 57.022c-.188-.848-.347-1.665-1.464-1.596-.437.027-.627.222-.496.668.278.94.853 1.325 1.96.928z" fill="url(#paint54_linear_87_667)"/><path d="M123.557 56.069c.382-.02.386-.262.313-.604-.243-1.13-.911-1.335-1.919-.96.061 1.02.524 1.62 1.606 1.563z" fill="url(#paint55_linear_87_667)"/><path d="M121.413 57.872c.333-.027.563-.136.478-.518-.131-.603-.443-1.084-1.101-1.164-.39-.047-.712.533-.653.862.137.744.637.871 1.276.82z" fill="url(#paint56_linear_87_667)"/><path d="M124.93 54.144c.421.04.641-.084.586-.569-.076-.68-.37-1.069-1.035-.994-.392 0-.833-.165-.798.406.047.756.535 1.087 1.247 1.157z" fill="url(#paint57_linear_87_667)"/><path d="M121.917 51.265c.475.012.769.006.725-.596-.054-.738-.45-1-1.031-.94-.482-.095-.847-.09-.756.434.1.58.298 1.085 1.062 1.102z" fill="url(#paint58_linear_87_667)"/><path d="M145.265 52.829c.022-4.45-.58-8.693-1.764-12.687a47.515 47.515 0 00-13.142-21.687c2.821 2.998 5.359 6.189 7.406 9.751a39.944 39.944 0 011.886 3.717c3.095 7.012 4.456 14.383 4.352 22.039-.737-7.115-2.306-14.021-5.215-20.597 1.447 4.606 2.551 9.261 2.784 14.111.235 4.9-.206 9.7-1.476 14.434.035-1.63.337-3.235.478-4.854.659-7.569-.615-14.82-3.603-21.762-4.448-10.33-10.178-18.187-20.17-23.37-.322-.166-.781-.293-1.322-.312-.035-.002-.072-.002-.109-.002h-.099l-.078.002a4.594 4.594 0 00-1.95.531c-1.628.569-3.306 1.016-4.988 1.536.122.635 1.151 2.064 1.077 2.292l-.977.471c-.339.39.851 1.745.881 2.33.003.076-.41.197-.393.275.071.319.338.52.122.801-1.159 1.519-.706 3.123-.151 4.726.52 1.5.514 3.075.057 5.092-.957-2.234-2.837-3.033-4.121-4.463-1.256-1.4-4.34-.837-4.875.694-.118.34-.343.846.05.895 2.23.275 2.071 2.153 2.563 3.601.757.309 1.235-1.036 1.825-.49 1.027.95 1.849 2.12 2.766 3.189 1.178 1.375 1.953 2.906 2.376 4.703.412 1.745 1.261 3.383 1.811 5.103.839 2.618 1.096 5.372 1.943 8.017.578 1.81.81 3.876.502 6.309 1.345-1.704 2.396-3.12 3.535-4.456 1.025-1.204 2.181-2.296 3.22-3.49 1.002-1.15 1.663-.21 2.331.35.673.563 1.1 1.268.187 2.01-.63.513-3.078 3.315-3.719 4.196-.294.403-.204.635.323.403 1.224-1.259 2.523-2.455 3.65-3.795 1.051-1.251 1.859-.938 2.874.008 1.143 1.064.569 1.717-.315 2.53-3.46 3.185-6.689 6.592-9.796 10.125-1.065 1.21-1.51 2.233-.165 3.927-1.496-.619-1.819-.252-1.719.933.494 5.796 2.58 10.984 5.84 15.752a48.245 48.245 0 004.467 5.57 51.566 51.566 0 001.869-1.538c6.51-4.792 11.476-10.545 14.693-17.336l.066.147a47.233 47.233 0 004.217-19.577 3.526 3.526 0 01-.004-.154z" fill="url(#paint59_linear_87_667)"/></g><defs><linearGradient id="paint0_linear_87_667" x1="7.171" y1="35.918" x2="217.552" y2="101.658" gradientUnits="userSpaceOnUse"><stop stop-color="#AF7912"/><stop offset=".019" stop-color="#AD7712"/><stop offset=".183" stop-color="#A26914"/><stop offset=".324" stop-color="#9E6414"/><stop offset=".389" stop-color="#A36C19"/><stop offset=".489" stop-color="#B28126"/><stop offset=".609" stop-color="#C9A33B"/><stop offset=".707" stop-color="#E0C44F"/><stop offset=".8" stop-color="#DEC14D"/><stop offset=".866" stop-color="#D8B847"/><stop offset=".924" stop-color="#CEA83C"/><stop offset=".977" stop-color="#BF922D"/><stop offset="1" stop-color="#B78624"/></linearGradient><linearGradient id="paint1_linear_87_667" x1="7.171" y1="35.918" x2="217.552" y2="101.658" gradientUnits="userSpaceOnUse"><stop stop-color="#AF7912"/><stop offset=".019" stop-color="#AD7712"/><stop offset=".183" stop-color="#A26914"/><stop offset=".324" stop-color="#9E6414"/><stop offset=".389" stop-color="#A36C19"/><stop offset=".489" stop-color="#B28126"/><stop offset=".609" stop-color="#C9A33B"/><stop offset=".707" stop-color="#E0C44F"/><stop offset=".8" stop-color="#DEC14D"/><stop offset=".866" stop-color="#D8B847"/><stop offset=".924" stop-color="#CEA83C"/><stop offset=".977" stop-color="#BF922D"/><stop offset="1" stop-color="#B78624"/></linearGradient><linearGradient id="paint2_linear_87_667" x1="7.173" y1="35.918" x2="217.555" y2="101.658" gradientUnits="userSpaceOnUse"><stop stop-color="#AF7912"/><stop offset=".019" stop-color="#AD7712"/><stop offset=".183" stop-color="#A26914"/><stop offset=".324" stop-color="#9E6414"/><stop offset=".389" stop-color="#A36C19"/><stop offset=".489" stop-color="#B28126"/><stop offset=".609" stop-color="#C9A33B"/><stop offset=".707" stop-color="#E0C44F"/><stop offset=".8" stop-color="#DEC14D"/><stop offset=".866" stop-color="#D8B847"/><stop offset=".924" stop-color="#CEA83C"/><stop offset=".977" stop-color="#BF922D"/><stop offset="1" stop-color="#B78624"/></linearGradient><linearGradient id="paint3_linear_87_667" x1="7.169" y1="35.918" x2="217.55" y2="101.658" gradientUnits="userSpaceOnUse"><stop stop-color="#AF7912"/><stop offset=".019" stop-color="#AD7712"/><stop offset=".183" stop-color="#A26914"/><stop offset=".324" stop-color="#9E6414"/><stop offset=".389" stop-color="#A36C19"/><stop offset=".489" stop-color="#B28126"/><stop offset=".609" stop-color="#C9A33B"/><stop offset=".707" stop-color="#E0C44F"/><stop offset=".8" stop-color="#DEC14D"/><stop offset=".866" stop-color="#D8B847"/><stop offset=".924" stop-color="#CEA83C"/><stop offset=".977" stop-color="#BF922D"/><stop offset="1" stop-color="#B78624"/></linearGradient><linearGradient id="paint4_linear_87_667" x1="7.173" y1="35.918" x2="217.554" y2="101.658" gradientUnits="userSpaceOnUse"><stop stop-color="#AF7912"/><stop offset=".019" stop-color="#AD7712"/><stop offset=".183" stop-color="#A26914"/><stop offset=".324" stop-color="#9E6414"/><stop offset=".389" stop-color="#A36C19"/><stop offset=".489" stop-color="#B28126"/><stop offset=".609" stop-color="#C9A33B"/><stop offset=".707" stop-color="#E0C44F"/><stop offset=".8" stop-color="#DEC14D"/><stop offset=".866" stop-color="#D8B847"/><stop offset=".924" stop-color="#CEA83C"/><stop offset=".977" stop-color="#BF922D"/><stop offset="1" stop-color="#B78624"/></linearGradient><linearGradient id="paint5_linear_87_667" x1="7.17" y1="35.918" x2="217.552" y2="101.658" gradientUnits="userSpaceOnUse"><stop stop-color="#AF7912"/><stop offset=".019" stop-color="#AD7712"/><stop offset=".183" stop-color="#A26914"/><stop offset=".324" stop-color="#9E6414"/><stop offset=".389" stop-color="#A36C19"/><stop offset=".489" stop-color="#B28126"/><stop offset=".609" stop-color="#C9A33B"/><stop offset=".707" stop-color="#E0C44F"/><stop offset=".8" stop-color="#DEC14D"/><stop offset=".866" stop-color="#D8B847"/><stop offset=".924" stop-color="#CEA83C"/><stop offset=".977" stop-color="#BF922D"/><stop offset="1" stop-color="#B78624"/></linearGradient><linearGradient id="paint6_linear_87_667" x1="-17.667" y1="3.002" x2="252.558" y2="87.442" gradientUnits="userSpaceOnUse"><stop stop-color="#AF7912"/><stop offset=".019" stop-color="#AD7712"/><stop offset=".183" stop-color="#A26914"/><stop offset=".324" stop-color="#9E6414"/><stop offset=".389" stop-color="#A36C19"/><stop offset=".489" stop-color="#B28126"/><stop offset=".609" stop-color="#C9A33B"/><stop offset=".707" stop-color="#E0C44F"/><stop offset=".8" stop-color="#DEC14D"/><stop offset=".866" stop-color="#D8B847"/><stop offset=".924" stop-color="#CEA83C"/><stop offset=".977" stop-color="#BF922D"/><stop offset="1" stop-color="#B78624"/></linearGradient><linearGradient id="paint7_linear_87_667" x1="-17.669" y1="3.003" x2="252.555" y2="87.444" gradientUnits="userSpaceOnUse"><stop stop-color="#AF7912"/><stop offset=".019" stop-color="#AD7712"/><stop offset=".183" stop-color="#A26914"/><stop offset=".324" stop-color="#9E6414"/><stop offset=".389" stop-color="#A36C19"/><stop offset=".489" stop-color="#B28126"/><stop offset=".609" stop-color="#C9A33B"/><stop offset=".707" stop-color="#E0C44F"/><stop offset=".8" stop-color="#DEC14D"/><stop offset=".866" stop-color="#D8B847"/><stop offset=".924" stop-color="#CEA83C"/><stop offset=".977" stop-color="#BF922D"/><stop offset="1" stop-color="#B78624"/></linearGradient><linearGradient id="paint8_linear_87_667" x1="-17.669" y1="3.002" x2="252.556" y2="87.442" gradientUnits="userSpaceOnUse"><stop stop-color="#AF7912"/><stop offset=".019" stop-color="#AD7712"/><stop offset=".183" stop-color="#A26914"/><stop offset=".324" stop-color="#9E6414"/><stop offset=".389" stop-color="#A36C19"/><stop offset=".489" stop-color="#B28126"/><stop offset=".609" stop-color="#C9A33B"/><stop offset=".707" stop-color="#E0C44F"/><stop offset=".8" stop-color="#DEC14D"/><stop offset=".866" stop-color="#D8B847"/><stop offset=".924" stop-color="#CEA83C"/><stop offset=".977" stop-color="#BF922D"/><stop offset="1" stop-color="#B78624"/></linearGradient><linearGradient id="paint9_linear_87_667" x1="-17.667" y1="3.002" x2="252.558" y2="87.442" gradientUnits="userSpaceOnUse"><stop stop-color="#AF7912"/><stop offset=".019" stop-color="#AD7712"/><stop offset=".183" stop-color="#A26914"/><stop offset=".324" stop-color="#9E6414"/><stop offset=".389" stop-color="#A36C19"/><stop offset=".489" stop-color="#B28126"/><stop offset=".609" stop-color="#C9A33B"/><stop offset=".707" stop-color="#E0C44F"/><stop offset=".8" stop-color="#DEC14D"/><stop offset=".866" stop-color="#D8B847"/><stop offset=".924" stop-color="#CEA83C"/><stop offset=".977" stop-color="#BF922D"/><stop offset="1" stop-color="#B78624"/></linearGradient><linearGradient id="paint10_linear_87_667" x1="-17.665" y1="3.002" x2="252.559" y2="87.442" gradientUnits="userSpaceOnUse"><stop stop-color="#AF7912"/><stop offset=".019" stop-color="#AD7712"/><stop offset=".183" stop-color="#A26914"/><stop offset=".324" stop-color="#9E6414"/><stop offset=".389" stop-color="#A36C19"/><stop offset=".489" stop-color="#B28126"/><stop offset=".609" stop-color="#C9A33B"/><stop offset=".707" stop-color="#E0C44F"/><stop offset=".8" stop-color="#DEC14D"/><stop offset=".866" stop-color="#D8B847"/><stop offset=".924" stop-color="#CEA83C"/><stop offset=".977" stop-color="#BF922D"/><stop offset="1" stop-color="#B78624"/></linearGradient><linearGradient id="paint11_linear_87_667" x1="-17.665" y1="3.002" x2="252.561" y2="87.443" gradientUnits="userSpaceOnUse"><stop stop-color="#AF7912"/><stop offset=".019" stop-color="#AD7712"/><stop offset=".183" stop-color="#A26914"/><stop offset=".324" stop-color="#9E6414"/><stop offset=".389" stop-color="#A36C19"/><stop offset=".489" stop-color="#B28126"/><stop offset=".609" stop-color="#C9A33B"/><stop offset=".707" stop-color="#E0C44F"/><stop offset=".8" stop-color="#DEC14D"/><stop offset=".866" stop-color="#D8B847"/><stop offset=".924" stop-color="#CEA83C"/><stop offset=".977" stop-color="#BF922D"/><stop offset="1" stop-color="#B78624"/></linearGradient><linearGradient id="paint12_linear_87_667" x1="-17.669" y1="3.003" x2="252.555" y2="87.443" gradientUnits="userSpaceOnUse"><stop stop-color="#AF7912"/><stop offset=".019" stop-color="#AD7712"/><stop offset=".183" stop-color="#A26914"/><stop offset=".324" stop-color="#9E6414"/><stop offset=".389" stop-color="#A36C19"/><stop offset=".489" stop-color="#B28126"/><stop offset=".609" stop-color="#C9A33B"/><stop offset=".707" stop-color="#E0C44F"/><stop offset=".8" stop-color="#DEC14D"/><stop offset=".866" stop-color="#D8B847"/><stop offset=".924" stop-color="#CEA83C"/><stop offset=".977" stop-color="#BF922D"/><stop offset="1" stop-color="#B78624"/></linearGradient><linearGradient id="paint13_linear_87_667" x1="-17.669" y1="3.002" x2="252.556" y2="87.442" gradientUnits="userSpaceOnUse"><stop stop-color="#AF7912"/><stop offset=".019" stop-color="#AD7712"/><stop offset=".183" stop-color="#A26914"/><stop offset=".324" stop-color="#9E6414"/><stop offset=".389" stop-color="#A36C19"/><stop offset=".489" stop-color="#B28126"/><stop offset=".609" stop-color="#C9A33B"/><stop offset=".707" stop-color="#E0C44F"/><stop offset=".8" stop-color="#DEC14D"/><stop offset=".866" stop-color="#D8B847"/><stop offset=".924" stop-color="#CEA83C"/><stop offset=".977" stop-color="#BF922D"/><stop offset="1" stop-color="#B78624"/></linearGradient><linearGradient id="paint14_linear_87_667" x1="-17.667" y1="3.003" x2="252.558" y2="87.443" gradientUnits="userSpaceOnUse"><stop stop-color="#AF7912"/><stop offset=".019" stop-color="#AD7712"/><stop offset=".183" stop-color="#A26914"/><stop offset=".324" stop-color="#9E6414"/><stop offset=".389" stop-color="#A36C19"/><stop offset=".489" stop-color="#B28126"/><stop offset=".609" stop-color="#C9A33B"/><stop offset=".707" stop-color="#E0C44F"/><stop offset=".8" stop-color="#DEC14D"/><stop offset=".866" stop-color="#D8B847"/><stop offset=".924" stop-color="#CEA83C"/><stop offset=".977" stop-color="#BF922D"/><stop offset="1" stop-color="#B78624"/></linearGradient><linearGradient id="paint15_linear_87_667" x1="-17.671" y1="3.003" x2="252.554" y2="87.443" gradientUnits="userSpaceOnUse"><stop stop-color="#AF7912"/><stop offset=".019" stop-color="#AD7712"/><stop offset=".183" stop-color="#A26914"/><stop offset=".324" stop-color="#9E6414"/><stop offset=".389" stop-color="#A36C19"/><stop offset=".489" stop-color="#B28126"/><stop offset=".609" stop-color="#C9A33B"/><stop offset=".707" stop-color="#E0C44F"/><stop offset=".8" stop-color="#DEC14D"/><stop offset=".866" stop-color="#D8B847"/><stop offset=".924" stop-color="#CEA83C"/><stop offset=".977" stop-color="#BF922D"/><stop offset="1" stop-color="#B78624"/></linearGradient><linearGradient id="paint16_linear_87_667" x1="-17.671" y1="3.002" x2="252.553" y2="87.442" gradientUnits="userSpaceOnUse"><stop stop-color="#AF7912"/><stop offset=".019" stop-color="#AD7712"/><stop offset=".183" stop-color="#A26914"/><stop offset=".324" stop-color="#9E6414"/><stop offset=".389" stop-color="#A36C19"/><stop offset=".489" stop-color="#B28126"/><stop offset=".609" stop-color="#C9A33B"/><stop offset=".707" stop-color="#E0C44F"/><stop offset=".8" stop-color="#DEC14D"/><stop offset=".866" stop-color="#D8B847"/><stop offset=".924" stop-color="#CEA83C"/><stop offset=".977" stop-color="#BF922D"/><stop offset="1" stop-color="#B78624"/></linearGradient><linearGradient id="paint17_linear_87_667" x1="34.906" y1="54.67" x2="179.761" y2="99.038" gradientUnits="userSpaceOnUse"><stop stop-color="#AF7912"/><stop offset=".019" stop-color="#AD7712"/><stop offset=".183" stop-color="#A26914"/><stop offset=".324" stop-color="#9E6414"/><stop offset=".389" stop-color="#A36C19"/><stop offset=".489" stop-color="#B28126"/><stop offset=".609" stop-color="#C9A33B"/><stop offset=".707" stop-color="#E0C44F"/><stop offset=".8" stop-color="#DEC14D"/><stop offset=".866" stop-color="#D8B847"/><stop offset=".924" stop-color="#CEA83C"/><stop offset=".977" stop-color="#BF922D"/><stop offset="1" stop-color="#B78624"/></linearGradient><linearGradient id="paint18_linear_87_667" x1="34.904" y1="54.67" x2="179.759" y2="99.038" gradientUnits="userSpaceOnUse"><stop stop-color="#AF7912"/><stop offset=".019" stop-color="#AD7712"/><stop offset=".183" stop-color="#A26914"/><stop offset=".324" stop-color="#9E6414"/><stop offset=".389" stop-color="#A36C19"/><stop offset=".489" stop-color="#B28126"/><stop offset=".609" stop-color="#C9A33B"/><stop offset=".707" stop-color="#E0C44F"/><stop offset=".8" stop-color="#DEC14D"/><stop offset=".866" stop-color="#D8B847"/><stop offset=".924" stop-color="#CEA83C"/><stop offset=".977" stop-color="#BF922D"/><stop offset="1" stop-color="#B78624"/></linearGradient><linearGradient id="paint19_linear_87_667" x1="44.189" y1="54.844" x2="173.113" y2="94.42" gradientUnits="userSpaceOnUse"><stop stop-color="#AF7912"/><stop offset=".019" stop-color="#AD7712"/><stop offset=".183" stop-color="#A26914"/><stop offset=".324" stop-color="#9E6414"/><stop offset=".389" stop-color="#A36C19"/><stop offset=".489" stop-color="#B28126"/><stop offset=".609" stop-color="#C9A33B"/><stop offset=".707" stop-color="#E0C44F"/><stop offset=".8" stop-color="#DEC14D"/><stop offset=".866" stop-color="#D8B847"/><stop offset=".924" stop-color="#CEA83C"/><stop offset=".977" stop-color="#BF922D"/><stop offset="1" stop-color="#B78624"/></linearGradient><linearGradient id="paint20_linear_87_667" x1="44.189" y1="54.844" x2="173.113" y2="94.42" gradientUnits="userSpaceOnUse"><stop stop-color="#AF7912"/><stop offset=".019" stop-color="#AD7712"/><stop offset=".183" stop-color="#A26914"/><stop offset=".324" stop-color="#9E6414"/><stop offset=".389" stop-color="#A36C19"/><stop offset=".489" stop-color="#B28126"/><stop offset=".609" stop-color="#C9A33B"/><stop offset=".707" stop-color="#E0C44F"/><stop offset=".8" stop-color="#DEC14D"/><stop offset=".866" stop-color="#D8B847"/><stop offset=".924" stop-color="#CEA83C"/><stop offset=".977" stop-color="#BF922D"/><stop offset="1" stop-color="#B78624"/></linearGradient><linearGradient id="paint21_linear_87_667" x1="28.797" y1="56.356" x2="186.213" y2="105.518" gradientUnits="userSpaceOnUse"><stop stop-color="#AF7912"/><stop offset=".019" stop-color="#AD7712"/><stop offset=".183" stop-color="#A26914"/><stop offset=".324" stop-color="#9E6414"/><stop offset=".389" stop-color="#A36C19"/><stop offset=".489" stop-color="#B28126"/><stop offset=".609" stop-color="#C9A33B"/><stop offset=".707" stop-color="#E0C44F"/><stop offset=".8" stop-color="#DEC14D"/><stop offset=".866" stop-color="#D8B847"/><stop offset=".924" stop-color="#CEA83C"/><stop offset=".977" stop-color="#BF922D"/><stop offset="1" stop-color="#B78624"/></linearGradient><linearGradient id="paint22_linear_87_667" x1="28.797" y1="56.356" x2="186.213" y2="105.518" gradientUnits="userSpaceOnUse"><stop stop-color="#AF7912"/><stop offset=".019" stop-color="#AD7712"/><stop offset=".183" stop-color="#A26914"/><stop offset=".324" stop-color="#9E6414"/><stop offset=".389" stop-color="#A36C19"/><stop offset=".489" stop-color="#B28126"/><stop offset=".609" stop-color="#C9A33B"/><stop offset=".707" stop-color="#E0C44F"/><stop offset=".8" stop-color="#DEC14D"/><stop offset=".866" stop-color="#D8B847"/><stop offset=".924" stop-color="#CEA83C"/><stop offset=".977" stop-color="#BF922D"/><stop offset="1" stop-color="#B78624"/></linearGradient><linearGradient id="paint23_linear_87_667" x1="34.902" y1="54.67" x2="179.757" y2="99.038" gradientUnits="userSpaceOnUse"><stop stop-color="#AF7912"/><stop offset=".019" stop-color="#AD7712"/><stop offset=".183" stop-color="#A26914"/><stop offset=".324" stop-color="#9E6414"/><stop offset=".389" stop-color="#A36C19"/><stop offset=".489" stop-color="#B28126"/><stop offset=".609" stop-color="#C9A33B"/><stop offset=".707" stop-color="#E0C44F"/><stop offset=".8" stop-color="#DEC14D"/><stop offset=".866" stop-color="#D8B847"/><stop offset=".924" stop-color="#CEA83C"/><stop offset=".977" stop-color="#BF922D"/><stop offset="1" stop-color="#B78624"/></linearGradient><linearGradient id="paint24_linear_87_667" x1="34.905" y1="54.67" x2="179.759" y2="99.038" gradientUnits="userSpaceOnUse"><stop stop-color="#AF7912"/><stop offset=".019" stop-color="#AD7712"/><stop offset=".183" stop-color="#A26914"/><stop offset=".324" stop-color="#9E6414"/><stop offset=".389" stop-color="#A36C19"/><stop offset=".489" stop-color="#B28126"/><stop offset=".609" stop-color="#C9A33B"/><stop offset=".707" stop-color="#E0C44F"/><stop offset=".8" stop-color="#DEC14D"/><stop offset=".866" stop-color="#D8B847"/><stop offset=".924" stop-color="#CEA83C"/><stop offset=".977" stop-color="#BF922D"/><stop offset="1" stop-color="#B78624"/></linearGradient><linearGradient id="paint25_linear_87_667" x1="34.905" y1="54.67" x2="179.76" y2="99.038" gradientUnits="userSpaceOnUse"><stop stop-color="#AF7912"/><stop offset=".019" stop-color="#AD7712"/><stop offset=".183" stop-color="#A26914"/><stop offset=".324" stop-color="#9E6414"/><stop offset=".389" stop-color="#A36C19"/><stop offset=".489" stop-color="#B28126"/><stop offset=".609" stop-color="#C9A33B"/><stop offset=".707" stop-color="#E0C44F"/><stop offset=".8" stop-color="#DEC14D"/><stop offset=".866" stop-color="#D8B847"/><stop offset=".924" stop-color="#CEA83C"/><stop offset=".977" stop-color="#BF922D"/><stop offset="1" stop-color="#B78624"/></linearGradient><linearGradient id="paint26_linear_87_667" x1="34.904" y1="54.67" x2="179.758" y2="99.038" gradientUnits="userSpaceOnUse"><stop stop-color="#AF7912"/><stop offset=".019" stop-color="#AD7712"/><stop offset=".183" stop-color="#A26914"/><stop offset=".324" stop-color="#9E6414"/><stop offset=".389" stop-color="#A36C19"/><stop offset=".489" stop-color="#B28126"/><stop offset=".609" stop-color="#C9A33B"/><stop offset=".707" stop-color="#E0C44F"/><stop offset=".8" stop-color="#DEC14D"/><stop offset=".866" stop-color="#D8B847"/><stop offset=".924" stop-color="#CEA83C"/><stop offset=".977" stop-color="#BF922D"/><stop offset="1" stop-color="#B78624"/></linearGradient><linearGradient id="paint27_linear_87_667" x1="34.905" y1="54.67" x2="179.76" y2="99.038" gradientUnits="userSpaceOnUse"><stop stop-color="#AF7912"/><stop offset=".019" stop-color="#AD7712"/><stop offset=".183" stop-color="#A26914"/><stop offset=".324" stop-color="#9E6414"/><stop offset=".389" stop-color="#A36C19"/><stop offset=".489" stop-color="#B28126"/><stop offset=".609" stop-color="#C9A33B"/><stop offset=".707" stop-color="#E0C44F"/><stop offset=".8" stop-color="#DEC14D"/><stop offset=".866" stop-color="#D8B847"/><stop offset=".924" stop-color="#CEA83C"/><stop offset=".977" stop-color="#BF922D"/><stop offset="1" stop-color="#B78624"/></linearGradient><linearGradient id="paint28_linear_87_667" x1="34.905" y1="54.67" x2="179.759" y2="99.038" gradientUnits="userSpaceOnUse"><stop stop-color="#AF7912"/><stop offset=".019" stop-color="#AD7712"/><stop offset=".183" stop-color="#A26914"/><stop offset=".324" stop-color="#9E6414"/><stop offset=".389" stop-color="#A36C19"/><stop offset=".489" stop-color="#B28126"/><stop offset=".609" stop-color="#C9A33B"/><stop offset=".707" stop-color="#E0C44F"/><stop offset=".8" stop-color="#DEC14D"/><stop offset=".866" stop-color="#D8B847"/><stop offset=".924" stop-color="#CEA83C"/><stop offset=".977" stop-color="#BF922D"/><stop offset="1" stop-color="#B78624"/></linearGradient><linearGradient id="paint29_linear_87_667" x1="34.903" y1="54.67" x2="179.758" y2="99.038" gradientUnits="userSpaceOnUse"><stop stop-color="#AF7912"/><stop offset=".019" stop-color="#AD7712"/><stop offset=".183" stop-color="#A26914"/><stop offset=".324" stop-color="#9E6414"/><stop offset=".389" stop-color="#A36C19"/><stop offset=".489" stop-color="#B28126"/><stop offset=".609" stop-color="#C9A33B"/><stop offset=".707" stop-color="#E0C44F"/><stop offset=".8" stop-color="#DEC14D"/><stop offset=".866" stop-color="#D8B847"/><stop offset=".924" stop-color="#CEA83C"/><stop offset=".977" stop-color="#BF922D"/><stop offset="1" stop-color="#B78624"/></linearGradient><linearGradient id="paint30_linear_87_667" x1="39.266" y1="57.731" x2="173.286" y2="99.124" gradientUnits="userSpaceOnUse"><stop stop-color="#AF7912"/><stop offset=".019" stop-color="#AD7712"/><stop offset=".183" stop-color="#A26914"/><stop offset=".324" stop-color="#9E6414"/><stop offset=".389" stop-color="#A36C19"/><stop offset=".489" stop-color="#B28126"/><stop offset=".609" stop-color="#C9A33B"/><stop offset=".707" stop-color="#E0C44F"/><stop offset=".8" stop-color="#DEC14D"/><stop offset=".866" stop-color="#D8B847"/><stop offset=".924" stop-color="#CEA83C"/><stop offset=".977" stop-color="#BF922D"/><stop offset="1" stop-color="#B78624"/></linearGradient><linearGradient id="paint31_linear_87_667" x1="39.266" y1="57.731" x2="173.286" y2="99.124" gradientUnits="userSpaceOnUse"><stop stop-color="#AF7912"/><stop offset=".019" stop-color="#AD7712"/><stop offset=".183" stop-color="#A26914"/><stop offset=".324" stop-color="#9E6414"/><stop offset=".389" stop-color="#A36C19"/><stop offset=".489" stop-color="#B28126"/><stop offset=".609" stop-color="#C9A33B"/><stop offset=".707" stop-color="#E0C44F"/><stop offset=".8" stop-color="#DEC14D"/><stop offset=".866" stop-color="#D8B847"/><stop offset=".924" stop-color="#CEA83C"/><stop offset=".977" stop-color="#BF922D"/><stop offset="1" stop-color="#B78624"/></linearGradient><linearGradient id="paint32_linear_87_667" x1="39.266" y1="57.738" x2="173.281" y2="99.139" gradientUnits="userSpaceOnUse"><stop stop-color="#AF7912"/><stop offset=".019" stop-color="#AD7712"/><stop offset=".183" stop-color="#A26914"/><stop offset=".324" stop-color="#9E6414"/><stop offset=".389" stop-color="#A36C19"/><stop offset=".489" stop-color="#B28126"/><stop offset=".609" stop-color="#C9A33B"/><stop offset=".707" stop-color="#E0C44F"/><stop offset=".8" stop-color="#DEC14D"/><stop offset=".866" stop-color="#D8B847"/><stop offset=".924" stop-color="#CEA83C"/><stop offset=".977" stop-color="#BF922D"/><stop offset="1" stop-color="#B78624"/></linearGradient><linearGradient id="paint33_linear_87_667" x1="39.266" y1="57.738" x2="173.281" y2="99.139" gradientUnits="userSpaceOnUse"><stop stop-color="#AF7912"/><stop offset=".019" stop-color="#AD7712"/><stop offset=".183" stop-color="#A26914"/><stop offset=".324" stop-color="#9E6414"/><stop offset=".389" stop-color="#A36C19"/><stop offset=".489" stop-color="#B28126"/><stop offset=".609" stop-color="#C9A33B"/><stop offset=".707" stop-color="#E0C44F"/><stop offset=".8" stop-color="#DEC14D"/><stop offset=".866" stop-color="#D8B847"/><stop offset=".924" stop-color="#CEA83C"/><stop offset=".977" stop-color="#BF922D"/><stop offset="1" stop-color="#B78624"/></linearGradient><linearGradient id="paint34_linear_87_667" x1="34.904" y1="54.67" x2="179.759" y2="99.038" gradientUnits="userSpaceOnUse"><stop stop-color="#AF7912"/><stop offset=".019" stop-color="#AD7712"/><stop offset=".183" stop-color="#A26914"/><stop offset=".324" stop-color="#9E6414"/><stop offset=".389" stop-color="#A36C19"/><stop offset=".489" stop-color="#B28126"/><stop offset=".609" stop-color="#C9A33B"/><stop offset=".707" stop-color="#E0C44F"/><stop offset=".8" stop-color="#DEC14D"/><stop offset=".866" stop-color="#D8B847"/><stop offset=".924" stop-color="#CEA83C"/><stop offset=".977" stop-color="#BF922D"/><stop offset="1" stop-color="#B78624"/></linearGradient><linearGradient id="paint35_linear_87_667" x1="34.904" y1="54.67" x2="179.759" y2="99.038" gradientUnits="userSpaceOnUse"><stop stop-color="#AF7912"/><stop offset=".019" stop-color="#AD7712"/><stop offset=".183" stop-color="#A26914"/><stop offset=".324" stop-color="#9E6414"/><stop offset=".389" stop-color="#A36C19"/><stop offset=".489" stop-color="#B28126"/><stop offset=".609" stop-color="#C9A33B"/><stop offset=".707" stop-color="#E0C44F"/><stop offset=".8" stop-color="#DEC14D"/><stop offset=".866" stop-color="#D8B847"/><stop offset=".924" stop-color="#CEA83C"/><stop offset=".977" stop-color="#BF922D"/><stop offset="1" stop-color="#B78624"/></linearGradient><linearGradient id="paint36_linear_87_667" x1="34.905" y1="54.67" x2="179.76" y2="99.038" gradientUnits="userSpaceOnUse"><stop stop-color="#AF7912"/><stop offset=".019" stop-color="#AD7712"/><stop offset=".183" stop-color="#A26914"/><stop offset=".324" stop-color="#9E6414"/><stop offset=".389" stop-color="#A36C19"/><stop offset=".489" stop-color="#B28126"/><stop offset=".609" stop-color="#C9A33B"/><stop offset=".707" stop-color="#E0C44F"/><stop offset=".8" stop-color="#DEC14D"/><stop offset=".866" stop-color="#D8B847"/><stop offset=".924" stop-color="#CEA83C"/><stop offset=".977" stop-color="#BF922D"/><stop offset="1" stop-color="#B78624"/></linearGradient><linearGradient id="paint37_linear_87_667" x1="34.904" y1="54.67" x2="179.759" y2="99.038" gradientUnits="userSpaceOnUse"><stop stop-color="#AF7912"/><stop offset=".019" stop-color="#AD7712"/><stop offset=".183" stop-color="#A26914"/><stop offset=".324" stop-color="#9E6414"/><stop offset=".389" stop-color="#A36C19"/><stop offset=".489" stop-color="#B28126"/><stop offset=".609" stop-color="#C9A33B"/><stop offset=".707" stop-color="#E0C44F"/><stop offset=".8" stop-color="#DEC14D"/><stop offset=".866" stop-color="#D8B847"/><stop offset=".924" stop-color="#CEA83C"/><stop offset=".977" stop-color="#BF922D"/><stop offset="1" stop-color="#B78624"/></linearGradient><linearGradient id="paint38_linear_87_667" x1="34.905" y1="54.67" x2="179.759" y2="99.038" gradientUnits="userSpaceOnUse"><stop stop-color="#AF7912"/><stop offset=".019" stop-color="#AD7712"/><stop offset=".183" stop-color="#A26914"/><stop offset=".324" stop-color="#9E6414"/><stop offset=".389" stop-color="#A36C19"/><stop offset=".489" stop-color="#B28126"/><stop offset=".609" stop-color="#C9A33B"/><stop offset=".707" stop-color="#E0C44F"/><stop offset=".8" stop-color="#DEC14D"/><stop offset=".866" stop-color="#D8B847"/><stop offset=".924" stop-color="#CEA83C"/><stop offset=".977" stop-color="#BF922D"/><stop offset="1" stop-color="#B78624"/></linearGradient><linearGradient id="paint39_linear_87_667" x1="34.905" y1="54.67" x2="179.759" y2="99.038" gradientUnits="userSpaceOnUse"><stop stop-color="#AF7912"/><stop offset=".019" stop-color="#AD7712"/><stop offset=".183" stop-color="#A26914"/><stop offset=".324" stop-color="#9E6414"/><stop offset=".389" stop-color="#A36C19"/><stop offset=".489" stop-color="#B28126"/><stop offset=".609" stop-color="#C9A33B"/><stop offset=".707" stop-color="#E0C44F"/><stop offset=".8" stop-color="#DEC14D"/><stop offset=".866" stop-color="#D8B847"/><stop offset=".924" stop-color="#CEA83C"/><stop offset=".977" stop-color="#BF922D"/><stop offset="1" stop-color="#B78624"/></linearGradient><linearGradient id="paint40_linear_87_667" x1="34.904" y1="54.67" x2="179.759" y2="99.038" gradientUnits="userSpaceOnUse"><stop stop-color="#AF7912"/><stop offset=".019" stop-color="#AD7712"/><stop offset=".183" stop-color="#A26914"/><stop offset=".324" stop-color="#9E6414"/><stop offset=".389" stop-color="#A36C19"/><stop offset=".489" stop-color="#B28126"/><stop offset=".609" stop-color="#C9A33B"/><stop offset=".707" stop-color="#E0C44F"/><stop offset=".8" stop-color="#DEC14D"/><stop offset=".866" stop-color="#D8B847"/><stop offset=".924" stop-color="#CEA83C"/><stop offset=".977" stop-color="#BF922D"/><stop offset="1" stop-color="#B78624"/></linearGradient><linearGradient id="paint41_linear_87_667" x1="39.311" y1="57.725" x2="173.248" y2="99.053" gradientUnits="userSpaceOnUse"><stop stop-color="#AF7912"/><stop offset=".019" stop-color="#AD7712"/><stop offset=".183" stop-color="#A26914"/><stop offset=".324" stop-color="#9E6414"/><stop offset=".389" stop-color="#A36C19"/><stop offset=".489" stop-color="#B28126"/><stop offset=".609" stop-color="#C9A33B"/><stop offset=".707" stop-color="#E0C44F"/><stop offset=".8" stop-color="#DEC14D"/><stop offset=".866" stop-color="#D8B847"/><stop offset=".924" stop-color="#CEA83C"/><stop offset=".977" stop-color="#BF922D"/><stop offset="1" stop-color="#B78624"/></linearGradient><linearGradient id="paint42_linear_87_667" x1="39.311" y1="57.725" x2="173.248" y2="99.053" gradientUnits="userSpaceOnUse"><stop stop-color="#AF7912"/><stop offset=".019" stop-color="#AD7712"/><stop offset=".183" stop-color="#A26914"/><stop offset=".324" stop-color="#9E6414"/><stop offset=".389" stop-color="#A36C19"/><stop offset=".489" stop-color="#B28126"/><stop offset=".609" stop-color="#C9A33B"/><stop offset=".707" stop-color="#E0C44F"/><stop offset=".8" stop-color="#DEC14D"/><stop offset=".866" stop-color="#D8B847"/><stop offset=".924" stop-color="#CEA83C"/><stop offset=".977" stop-color="#BF922D"/><stop offset="1" stop-color="#B78624"/></linearGradient><linearGradient id="paint43_linear_87_667" x1="17.669" y1="43.87" x2="204.459" y2="101.246" gradientUnits="userSpaceOnUse"><stop stop-color="#AF7912"/><stop offset=".019" stop-color="#AD7712"/><stop offset=".183" stop-color="#A26914"/><stop offset=".324" stop-color="#9E6414"/><stop offset=".389" stop-color="#A36C19"/><stop offset=".489" stop-color="#B28126"/><stop offset=".609" stop-color="#C9A33B"/><stop offset=".707" stop-color="#E0C44F"/><stop offset=".8" stop-color="#DEC14D"/><stop offset=".866" stop-color="#D8B847"/><stop offset=".924" stop-color="#CEA83C"/><stop offset=".977" stop-color="#BF922D"/><stop offset="1" stop-color="#B78624"/></linearGradient><linearGradient id="paint44_linear_87_667" x1="17.669" y1="43.87" x2="204.459" y2="101.246" gradientUnits="userSpaceOnUse"><stop stop-color="#AF7912"/><stop offset=".019" stop-color="#AD7712"/><stop offset=".183" stop-color="#A26914"/><stop offset=".324" stop-color="#9E6414"/><stop offset=".389" stop-color="#A36C19"/><stop offset=".489" stop-color="#B28126"/><stop offset=".609" stop-color="#C9A33B"/><stop offset=".707" stop-color="#E0C44F"/><stop offset=".8" stop-color="#DEC14D"/><stop offset=".866" stop-color="#D8B847"/><stop offset=".924" stop-color="#CEA83C"/><stop offset=".977" stop-color="#BF922D"/><stop offset="1" stop-color="#B78624"/></linearGradient><linearGradient id="paint45_linear_87_667" x1="17.207" y1="43.428" x2="205.222" y2="101.005" gradientUnits="userSpaceOnUse"><stop stop-color="#AF7912"/><stop offset=".019" stop-color="#AD7712"/><stop offset=".183" stop-color="#A26914"/><stop offset=".324" stop-color="#9E6414"/><stop offset=".389" stop-color="#A36C19"/><stop offset=".489" stop-color="#B28126"/><stop offset=".609" stop-color="#C9A33B"/><stop offset=".707" stop-color="#E0C44F"/><stop offset=".8" stop-color="#DEC14D"/><stop offset=".866" stop-color="#D8B847"/><stop offset=".924" stop-color="#CEA83C"/><stop offset=".977" stop-color="#BF922D"/><stop offset="1" stop-color="#B78624"/></linearGradient><linearGradient id="paint46_linear_87_667" x1="17.207" y1="43.428" x2="205.222" y2="101.005" gradientUnits="userSpaceOnUse"><stop stop-color="#AF7912"/><stop offset=".019" stop-color="#AD7712"/><stop offset=".183" stop-color="#A26914"/><stop offset=".324" stop-color="#9E6414"/><stop offset=".389" stop-color="#A36C19"/><stop offset=".489" stop-color="#B28126"/><stop offset=".609" stop-color="#C9A33B"/><stop offset=".707" stop-color="#E0C44F"/><stop offset=".8" stop-color="#DEC14D"/><stop offset=".866" stop-color="#D8B847"/><stop offset=".924" stop-color="#CEA83C"/><stop offset=".977" stop-color="#BF922D"/><stop offset="1" stop-color="#B78624"/></linearGradient><linearGradient id="paint47_linear_87_667" x1="34.904" y1="54.67" x2="179.758" y2="99.038" gradientUnits="userSpaceOnUse"><stop stop-color="#AF7912"/><stop offset=".019" stop-color="#AD7712"/><stop offset=".183" stop-color="#A26914"/><stop offset=".324" stop-color="#9E6414"/><stop offset=".389" stop-color="#A36C19"/><stop offset=".489" stop-color="#B28126"/><stop offset=".609" stop-color="#C9A33B"/><stop offset=".707" stop-color="#E0C44F"/><stop offset=".8" stop-color="#DEC14D"/><stop offset=".866" stop-color="#D8B847"/><stop offset=".924" stop-color="#CEA83C"/><stop offset=".977" stop-color="#BF922D"/><stop offset="1" stop-color="#B78624"/></linearGradient><linearGradient id="paint48_linear_87_667" x1="34.905" y1="54.67" x2="179.76" y2="99.038" gradientUnits="userSpaceOnUse"><stop stop-color="#AF7912"/><stop offset=".019" stop-color="#AD7712"/><stop offset=".183" stop-color="#A26914"/><stop offset=".324" stop-color="#9E6414"/><stop offset=".389" stop-color="#A36C19"/><stop offset=".489" stop-color="#B28126"/><stop offset=".609" stop-color="#C9A33B"/><stop offset=".707" stop-color="#E0C44F"/><stop offset=".8" stop-color="#DEC14D"/><stop offset=".866" stop-color="#D8B847"/><stop offset=".924" stop-color="#CEA83C"/><stop offset=".977" stop-color="#BF922D"/><stop offset="1" stop-color="#B78624"/></linearGradient><linearGradient id="paint49_linear_87_667" x1="34.903" y1="54.67" x2="179.759" y2="99.038" gradientUnits="userSpaceOnUse"><stop stop-color="#AF7912"/><stop offset=".019" stop-color="#AD7712"/><stop offset=".183" stop-color="#A26914"/><stop offset=".324" stop-color="#9E6414"/><stop offset=".389" stop-color="#A36C19"/><stop offset=".489" stop-color="#B28126"/><stop offset=".609" stop-color="#C9A33B"/><stop offset=".707" stop-color="#E0C44F"/><stop offset=".8" stop-color="#DEC14D"/><stop offset=".866" stop-color="#D8B847"/><stop offset=".924" stop-color="#CEA83C"/><stop offset=".977" stop-color="#BF922D"/><stop offset="1" stop-color="#B78624"/></linearGradient><linearGradient id="paint50_linear_87_667" x1="34.903" y1="54.67" x2="179.758" y2="99.038" gradientUnits="userSpaceOnUse"><stop stop-color="#AF7912"/><stop offset=".019" stop-color="#AD7712"/><stop offset=".183" stop-color="#A26914"/><stop offset=".324" stop-color="#9E6414"/><stop offset=".389" stop-color="#A36C19"/><stop offset=".489" stop-color="#B28126"/><stop offset=".609" stop-color="#C9A33B"/><stop offset=".707" stop-color="#E0C44F"/><stop offset=".8" stop-color="#DEC14D"/><stop offset=".866" stop-color="#D8B847"/><stop offset=".924" stop-color="#CEA83C"/><stop offset=".977" stop-color="#BF922D"/><stop offset="1" stop-color="#B78624"/></linearGradient><linearGradient id="paint51_linear_87_667" x1="34.904" y1="54.67" x2="179.759" y2="99.039" gradientUnits="userSpaceOnUse"><stop stop-color="#AF7912"/><stop offset=".019" stop-color="#AD7712"/><stop offset=".183" stop-color="#A26914"/><stop offset=".324" stop-color="#9E6414"/><stop offset=".389" stop-color="#A36C19"/><stop offset=".489" stop-color="#B28126"/><stop offset=".609" stop-color="#C9A33B"/><stop offset=".707" stop-color="#E0C44F"/><stop offset=".8" stop-color="#DEC14D"/><stop offset=".866" stop-color="#D8B847"/><stop offset=".924" stop-color="#CEA83C"/><stop offset=".977" stop-color="#BF922D"/><stop offset="1" stop-color="#B78624"/></linearGradient><linearGradient id="paint52_linear_87_667" x1="34.904" y1="54.67" x2="179.76" y2="99.038" gradientUnits="userSpaceOnUse"><stop stop-color="#AF7912"/><stop offset=".019" stop-color="#AD7712"/><stop offset=".183" stop-color="#A26914"/><stop offset=".324" stop-color="#9E6414"/><stop offset=".389" stop-color="#A36C19"/><stop offset=".489" stop-color="#B28126"/><stop offset=".609" stop-color="#C9A33B"/><stop offset=".707" stop-color="#E0C44F"/><stop offset=".8" stop-color="#DEC14D"/><stop offset=".866" stop-color="#D8B847"/><stop offset=".924" stop-color="#CEA83C"/><stop offset=".977" stop-color="#BF922D"/><stop offset="1" stop-color="#B78624"/></linearGradient><linearGradient id="paint53_linear_87_667" x1="34.902" y1="54.67" x2="179.757" y2="99.038" gradientUnits="userSpaceOnUse"><stop stop-color="#AF7912"/><stop offset=".019" stop-color="#AD7712"/><stop offset=".183" stop-color="#A26914"/><stop offset=".324" stop-color="#9E6414"/><stop offset=".389" stop-color="#A36C19"/><stop offset=".489" stop-color="#B28126"/><stop offset=".609" stop-color="#C9A33B"/><stop offset=".707" stop-color="#E0C44F"/><stop offset=".8" stop-color="#DEC14D"/><stop offset=".866" stop-color="#D8B847"/><stop offset=".924" stop-color="#CEA83C"/><stop offset=".977" stop-color="#BF922D"/><stop offset="1" stop-color="#B78624"/></linearGradient><linearGradient id="paint54_linear_87_667" x1="34.906" y1="54.67" x2="179.76" y2="99.037" gradientUnits="userSpaceOnUse"><stop stop-color="#AF7912"/><stop offset=".019" stop-color="#AD7712"/><stop offset=".183" stop-color="#A26914"/><stop offset=".324" stop-color="#9E6414"/><stop offset=".389" stop-color="#A36C19"/><stop offset=".489" stop-color="#B28126"/><stop offset=".609" stop-color="#C9A33B"/><stop offset=".707" stop-color="#E0C44F"/><stop offset=".8" stop-color="#DEC14D"/><stop offset=".866" stop-color="#D8B847"/><stop offset=".924" stop-color="#CEA83C"/><stop offset=".977" stop-color="#BF922D"/><stop offset="1" stop-color="#B78624"/></linearGradient><linearGradient id="paint55_linear_87_667" x1="34.908" y1="54.67" x2="179.76" y2="99.036" gradientUnits="userSpaceOnUse"><stop stop-color="#AF7912"/><stop offset=".019" stop-color="#AD7712"/><stop offset=".183" stop-color="#A26914"/><stop offset=".324" stop-color="#9E6414"/><stop offset=".389" stop-color="#A36C19"/><stop offset=".489" stop-color="#B28126"/><stop offset=".609" stop-color="#C9A33B"/><stop offset=".707" stop-color="#E0C44F"/><stop offset=".8" stop-color="#DEC14D"/><stop offset=".866" stop-color="#D8B847"/><stop offset=".924" stop-color="#CEA83C"/><stop offset=".977" stop-color="#BF922D"/><stop offset="1" stop-color="#B78624"/></linearGradient><linearGradient id="paint56_linear_87_667" x1="34.908" y1="54.67" x2="179.761" y2="99.037" gradientUnits="userSpaceOnUse"><stop stop-color="#AF7912"/><stop offset=".019" stop-color="#AD7712"/><stop offset=".183" stop-color="#A26914"/><stop offset=".324" stop-color="#9E6414"/><stop offset=".389" stop-color="#A36C19"/><stop offset=".489" stop-color="#B28126"/><stop offset=".609" stop-color="#C9A33B"/><stop offset=".707" stop-color="#E0C44F"/><stop offset=".8" stop-color="#DEC14D"/><stop offset=".866" stop-color="#D8B847"/><stop offset=".924" stop-color="#CEA83C"/><stop offset=".977" stop-color="#BF922D"/><stop offset="1" stop-color="#B78624"/></linearGradient><linearGradient id="paint57_linear_87_667" x1="34.903" y1="54.67" x2="179.758" y2="99.038" gradientUnits="userSpaceOnUse"><stop stop-color="#AF7912"/><stop offset=".019" stop-color="#AD7712"/><stop offset=".183" stop-color="#A26914"/><stop offset=".324" stop-color="#9E6414"/><stop offset=".389" stop-color="#A36C19"/><stop offset=".489" stop-color="#B28126"/><stop offset=".609" stop-color="#C9A33B"/><stop offset=".707" stop-color="#E0C44F"/><stop offset=".8" stop-color="#DEC14D"/><stop offset=".866" stop-color="#D8B847"/><stop offset=".924" stop-color="#CEA83C"/><stop offset=".977" stop-color="#BF922D"/><stop offset="1" stop-color="#B78624"/></linearGradient><linearGradient id="paint58_linear_87_667" x1="34.904" y1="54.67" x2="179.758" y2="99.038" gradientUnits="userSpaceOnUse"><stop stop-color="#AF7912"/><stop offset=".019" stop-color="#AD7712"/><stop offset=".183" stop-color="#A26914"/><stop offset=".324" stop-color="#9E6414"/><stop offset=".389" stop-color="#A36C19"/><stop offset=".489" stop-color="#B28126"/><stop offset=".609" stop-color="#C9A33B"/><stop offset=".707" stop-color="#E0C44F"/><stop offset=".8" stop-color="#DEC14D"/><stop offset=".866" stop-color="#D8B847"/><stop offset=".924" stop-color="#CEA83C"/><stop offset=".977" stop-color="#BF922D"/><stop offset="1" stop-color="#B78624"/></linearGradient><linearGradient id="paint59_linear_87_667" x1="34.905" y1="54.67" x2="179.76" y2="99.038" gradientUnits="userSpaceOnUse"><stop stop-color="#AF7912"/><stop offset=".019" stop-color="#AD7712"/><stop offset=".183" stop-color="#A26914"/><stop offset=".324" stop-color="#9E6414"/><stop offset=".389" stop-color="#A36C19"/><stop offset=".489" stop-color="#B28126"/><stop offset=".609" stop-color="#C9A33B"/><stop offset=".707" stop-color="#E0C44F"/><stop offset=".8" stop-color="#DEC14D"/><stop offset=".866" stop-color="#D8B847"/><stop offset=".924" stop-color="#CEA83C"/><stop offset=".977" stop-color="#BF922D"/><stop offset="1" stop-color="#B78624"/></linearGradient><clipPath id="clip0_87_667"><path fill="#fff" transform="translate(0 117.263)" d="M0 0h189v55.182H0z"/></clipPath><clipPath id="clip1_87_667"><path fill="#fff" transform="translate(44.146)" d="M0 0h100.708v100.708H0z"/></clipPath></defs></svg>