<svg width="34" height="34" fill="none" xmlns="http://www.w3.org/2000/svg"><path d="M7.969 4.781H4.78s0 8.435-2.435 11.913a4.207 4.207 0 00-.752 2.414V30.28a2.125 2.125 0 002.125 2.125H9.03a2.125 2.125 0 002.125-2.125V19.108a4.207 4.207 0 00-.752-2.415C7.969 13.216 7.969 4.781 7.969 4.781z" fill="#EB423F"/><path d="M8.5 4.781H4.25c-.587 0-1.063.476-1.063 1.063v1.062c0 .587.476 1.063 1.063 1.063H8.5c.587 0 1.063-.476 1.063-1.063V5.844c0-.587-.476-1.063-1.063-1.063z" fill="#C7312E"/><path d="M1.594 18.594h9.562v10.625H1.594V18.594z" fill="#ED6F6D"/><path d="M22.844 19.656v10.625a2.125 2.125 0 002.125 2.125h5.312a2.125 2.125 0 002.125-2.125V19.656" fill="#FF8E26"/><path d="M24.438 6.906h6.375v3.188h-6.375V6.906zm4.781-1.062H26.03l.532-4.25h2.125l.53 4.25z" fill="#D46109"/><path d="M32.406 19.656l-2.656-9.573-4.25.01-2.656 9.563h9.562zM25.5 4.781h4.25v2.125H25.5V4.781z" fill="#FF8E26"/><path d="M22.844 19.656h9.562v8.5h-9.562v-8.5z" fill="#D46109"/><path d="M20.188 7.969h-6.375c-.587 0-1.063.475-1.063 1.062v1.063c0 .587.476 1.062 1.063 1.062h6.374c.587 0 1.063-.475 1.063-1.062V9.03c0-.587-.476-1.062-1.063-1.062z" fill="#FFD33A"/><path d="M22.046 14.768l-1.858-1.487v-2.125h-6.375v2.125l-1.86 1.487a2.124 2.124 0 00-.797 1.66V30.28a2.125 2.125 0 002.125 2.125h7.438a2.125 2.125 0 002.125-2.125V16.428a2.125 2.125 0 00-.798-1.66z" fill="#EA9F26"/><path d="M13.281 16.469h7.438v12.75H13.28v-12.75z" fill="#FFD33A"/><path d="M6.375 26.563a2.125 2.125 0 100-4.25 2.125 2.125 0 000 4.25z" fill="#C7312E"/><path d="M6.375 22.844a1.596 1.596 0 01-1.594-1.594.531.531 0 011.063 0 .531.531 0 001.062 0 .531.531 0 011.063 0 1.596 1.596 0 01-1.594 1.594z" fill="#248256"/><path d="M18.063 20.188h-2.125a.532.532 0 010-1.063h2.124a.532.532 0 010 1.063zm0 5.312h-2.125a.532.532 0 010-1.063h2.124a.532.532 0 010 1.063zm0-2.656h-2.125a.532.532 0 010-1.063h2.124a.532.532 0 010 1.063z" fill="#EA9F26"/><path d="M27.625 25.5c1.174 0 2.125-.713 2.125-1.594 0-.88-.951-1.593-2.125-1.593s-2.125.713-2.125 1.593.951 1.594 2.125 1.594z" fill="#FF8E26"/></svg>