<svg width="24" height="24" fill="none" xmlns="http://www.w3.org/2000/svg"><path fill-rule="evenodd" clip-rule="evenodd" d="M16.819 8.25c-1.35 0-2.448-.9-2.448-2.005s1.098-2.005 2.448-2.005c1.35 0 2.448.9 2.448 2.005 0 1.106-1.098 2.005-2.448 2.005zm0-5.332c2.004 0 3.635 1.492 3.635 3.327s-1.63 3.328-3.635 3.328c-2.004 0-3.635-1.493-3.635-3.328 0-1.835 1.63-3.327 3.635-3.327zm-5.702 9.102a.737.737 0 01.291.6.74.74 0 01-.291.6L7.45 15.877a.594.594 0 01-.35.115.594.594 0 01-.35-.115L3.086 13.22a.737.737 0 01-.292-.6c0-.243.109-.468.292-.6L6.75 9.363a.588.588 0 01.7 0l3.666 2.657zm-1.528.6l-2.488-1.804-2.488 1.804 2.488 1.803L9.59 12.62zm13.127-1.22c0 1.385-.669 2.728-1.835 3.682a5.043 5.043 0 01-.328.246c.497-1.354.465-2.578.394-3.328.325-.206.633-.61.92-.867.315-.281.599-.586.85-.911V11.4zm-4.146 4.845l-.046.013a6.608 6.608 0 01-1.625.201l-.078-.001c.609-1.296.734-2.684.747-3.505a7.607 7.607 0 002.227-.531c.034 1.017-.106 2.7-1.225 3.823zm-3.053.068a6.359 6.359 0 01-1.298-.426v-3.224c0-.053 0-.106-.002-.16a7.597 7.597 0 002.162.461c-.016.789-.155 2.202-.862 3.349zm-14.25.007l.017.022v-.002c.082.107.168.212.257.314 1.338 1.522 3.38 2.437 5.543 2.437 2.317 0 4.495-1.049 5.817-2.77v.04l.017-.021v1.189c0 1.385-.669 2.728-1.835 3.682-.36.295-.777.55-1.238.756l-.268.12c-.289.128-.575.23-.85.3a6.605 6.605 0 01-1.626.201c-2.136 0-4.007-1.007-5.018-2.504a4.746 4.746 0 01-.093-.14l-.007-.012a4.549 4.549 0 01-.716-2.423V16.32zm1.655-7.242c1.109-.991 2.587-1.537 4.162-1.537 1.575 0 3.053.546 4.162 1.537.167.15.322.307.465.47.783.882 1.207 1.953 1.207 3.072 0 1.317-.588 2.568-1.655 3.522-1.109.991-2.587 1.537-4.162 1.537-1.575 0-3.053-.546-4.162-1.537a5.483 5.483 0 01-.465-.47C1.69 14.79 1.267 13.72 1.267 12.6c0-1.316.588-2.567 1.655-3.522zm7.818-2.04a7.371 7.371 0 00-.94-.437l-.002-.11c0-1.764.757-3.413 2.132-4.642C13.264.657 15.028 0 16.899 0c1.87 0 3.635.657 4.969 1.849C23.243 3.079 24 4.727 24 6.49v4.91c0 1.764-.757 3.412-2.132 4.641-1.334 1.193-3.098 1.85-4.97 1.85a7.774 7.774 0 01-2.679-.479l-.034-.012v.11c0 1.763-.757 3.412-2.132 4.641C10.719 23.343 8.955 24 7.083 24c-1.87 0-3.635-.657-4.968-1.849a6.878 6.878 0 01-.486-.48C.574 20.511 0 19.064 0 17.53v-4.91c0-3.578 3.186-6.49 7.101-6.49.93 0 1.83.162 2.682.48v-.012c.333.126.652.274.957.442zm.415.248a7.2 7.2 0 01.288.194l.052.038c1.151.836 2.013 1.992 2.424 3.32a6.73 6.73 0 002.98.712c3.208 0 5.817-2.27 5.817-5.06 0-2.789-2.61-5.059-5.817-5.059-3.208 0-5.817 2.27-5.817 5.06 0 .266.025.533.072.795z" fill="#fff"/></svg>