<svg width="34" height="34" fill="none" xmlns="http://www.w3.org/2000/svg"><path d="M17 34c9.389 0 17-7.611 17-17S26.389 0 17 0 0 7.611 0 17s7.611 17 17 17z" fill="#FFD15C"/><path d="M17 30.883c7.667 0 13.883-6.215 13.883-13.883 0-7.668-6.216-13.883-13.883-13.883C9.332 3.117 3.116 9.332 3.116 17c0 7.668 6.216 13.883 13.884 13.883z" fill="#FFD15C"/><path d="M25.642 24.508c1.252 0 2.266-.92 2.266-2.054S26.893 20.4 25.642 20.4c-1.252 0-2.267.92-2.267 2.054 0 1.135 1.015 2.054 2.267 2.054z" fill="#FF7058"/><path d="M25.925 20.967a.431.431 0 01-.567 0c-.142-.142-.283-.142-.425-.071-.637.283-1.133.85-1.133 1.558 0 .709.425 1.275 1.133 1.558.142.071.354 0 .425-.07a.431.431 0 01.567 0c.141.141.283.141.425.07.637-.283 1.133-.85 1.133-1.558 0-.708-.425-1.275-1.133-1.558-.142-.071-.284 0-.425.07z" fill="#F1543F"/><path d="M25.004 22.454c0 .213.07.354.212.496.071.07.071.142.071.212 0 .496-.637.638-.92.284-.213-.284-.426-.638-.426-.992 0-.425.142-.779.425-.992.284-.354.921-.141.921.284 0 .07-.07.142-.07.212a.643.643 0 00-.213.496z" fill="#FF7058"/><path d="M24.72 22.525v-.142c-.07-.07-.282-.07-.353 0l-.071.071.07.071c.072.07.284.07.355 0zm.213-.567h.071v-.07c-.07-.142-.212-.213-.354-.142h-.07v.07c.07.142.212.213.353.142zm-.283 1.275h-.07v-.07c.07-.142.212-.213.353-.142h.071v.07c0 .142-.212.213-.354.142z" fill="#FFD15C"/><path d="M26.421 22.454c0-.142-.07-.354-.212-.425-.071-.07-.071-.142-.071-.212 0-.425.566-.567.85-.284.212.284.354.567.354.921 0 .354-.142.637-.354.92-.284.355-.85.143-.85-.282 0-.071 0-.142.07-.213.142-.07.213-.213.213-.425z" fill="#FF7058"/><path d="M26.774 22.383v.142c.071.07.284.07.355 0l.07-.07-.07-.072c-.071-.07-.284-.07-.355 0zm-.212.567h-.07v.07c.07.142.212.213.353.142h.071v-.07c-.07-.142-.212-.213-.354-.142zm.284-1.275h.071v.07c-.07.142-.212.213-.354.142h-.07v-.07c.07-.142.212-.213.353-.142z" fill="#FFD15C"/><path d="M21.635 28.74c.593-.967.208-2.281-.859-2.935-1.067-.655-2.413-.401-3.006.566s-.209 2.282.859 2.936c1.067.654 2.413.4 3.006-.566z" fill="#FF7058"/><path d="M20.684 26.42c-.213.072-.425-.07-.496-.283-.071-.141-.142-.283-.354-.283-.709-.142-1.417.142-1.771.78-.354.566-.284 1.345.141 1.912.071.142.284.212.425.142.213-.071.425.07.496.283.071.142.142.283.354.283.709.142 1.417-.142 1.771-.779.354-.567.284-1.346-.141-1.913-.071-.07-.213-.141-.425-.141z" fill="#F1543F"/><path d="M19.125 27.27c-.07.143-.141.355-.07.497v.212c-.213.425-.85.213-.992-.212-.071-.354 0-.78.212-1.063.213-.354.496-.567.85-.637.425-.142.85.354.638.779-.071.07-.142.142-.213.142-.141 0-.283.07-.425.283z" fill="#FF7058"/><path d="M18.842 27.13h.071v-.072a.39.39 0 00-.354-.212h-.07v.07c.07.142.212.284.353.213zm.495-.355h.071v-.07c0-.142-.07-.284-.212-.284h-.071v.07c0 .142.07.284.212.284zm-.92.992v-.142c.142-.07.283-.07.354.07l.071.072-.07.07c-.072 0-.213 0-.355-.07z" fill="#FFD15C"/><path d="M20.329 27.98c.07-.142.07-.284.07-.497v-.212c.213-.354.78-.213.85.212.072.354 0 .638-.212.992-.212.283-.496.496-.779.567-.425.141-.779-.355-.566-.709.07-.07.07-.141.212-.141.212 0 .354-.071.425-.213z" fill="#FF7058"/><path d="M20.683 28.12h-.07v.072a.39.39 0 00.353.212h.071v-.07c-.07-.142-.212-.284-.354-.213zm-.496.355h-.07v.07c0 .142.07.284.212.284h.07v-.07c0-.142-.07-.284-.212-.284zm.921-.992v.142c-.142.07-.284.07-.355-.07l-.07-.072.07-.07c.071 0 .284 0 .355.07z" fill="#FFD15C"/><path d="M19.408 24.225c1.252 0 2.267-.92 2.267-2.054 0-1.135-1.015-2.054-2.267-2.054s-2.266.92-2.266 2.054 1.014 2.054 2.266 2.054z" fill="#FF7058"/><path d="M19.691 20.613a.43.43 0 01-.566 0c-.142-.142-.284-.142-.425-.071-.638.283-1.134.85-1.134 1.558 0 .708.425 1.275 1.134 1.558.141.071.354 0 .425-.07a.431.431 0 01.566 0c.142.141.284.141.425.07.638-.283 1.134-.85 1.134-1.558 0-.708-.425-1.275-1.134-1.558-.141-.071-.283 0-.425.07z" fill="#F1543F"/><path d="M18.77 22.17c0 .213.071.355.213.497.07.07.07.141.07.212 0 .496-.637.638-.92.284-.212-.284-.425-.638-.425-.992s.142-.78.425-.992c.283-.354.92-.141.92.284 0 .07-.07.141-.07.212-.142.07-.213.283-.213.496z" fill="#FF7058"/><path d="M18.488 22.17v-.14c-.071-.072-.284-.072-.355 0l-.07.07.07.07c.071.142.284.142.355 0zm.212-.495h.07v-.07c-.07-.143-.212-.213-.353-.143h-.071v.071c.07.071.212.142.354.142zm-.283 1.275h-.071v-.07c.07-.142.212-.213.354-.142h.07v.07a.54.54 0 01-.353.142z" fill="#FFD15C"/><path d="M20.188 22.17c0-.14-.071-.353-.213-.424-.07-.071-.07-.142-.07-.213 0-.425.566-.566.85-.283.212.283.353.567.353.92 0 .355-.141.638-.354.922-.283.354-.85.141-.85-.284 0-.07 0-.141.071-.212.142-.142.213-.284.213-.425z" fill="#FF7058"/><path d="M20.542 22.1v.142c.07.07.283.07.354 0l.071-.071-.07-.071c-.072-.142-.284-.142-.355 0zm-.212.496h-.071v.07c.07.142.212.213.354.142h.07v-.07a.54.54 0 00-.353-.142zm.284-1.276h.07v.072c-.07.141-.212.212-.353.141h-.071v-.07c0-.071.212-.142.354-.142z" fill="#FFD15C"/><path d="M8.507 18.418c-.906-.683-2.251-.425-3.004.575-.753 1-.63 2.363.277 3.046.906.682 2.251.425 3.005-.575.753-1 .628-2.364-.278-3.046z" fill="#FF7058"/><path d="M6.162 19.125c0 .212-.141.425-.354.425-.142 0-.283.142-.354.283-.213.709 0 1.417.567 1.842a1.714 1.714 0 001.912.07c.142-.07.213-.212.213-.424 0-.213.141-.425.354-.425.141 0 .283-.142.354-.284.212-.708 0-1.416-.567-1.841a1.714 1.714 0 00-1.912-.071c-.142.07-.213.213-.213.425z" fill="#F1543F"/><path d="M6.8 20.754c.141.142.354.142.496.142.07 0 .141 0 .212.07.354.284.142.921-.283.921-.354 0-.78-.07-1.063-.283-.283-.212-.496-.637-.566-.991-.071-.496.425-.85.85-.567.07.07.141.142.141.212 0 .213.071.355.213.496z" fill="#FF7058"/><path d="M6.658 20.966v-.07h-.07a.39.39 0 00-.213.354v.07h.07a.39.39 0 00.213-.354zm-.283-.496v-.07h-.07c-.142-.07-.284.07-.355.213v.07h.071c.142 0 .354-.07.354-.212zm.85.992l-.07.071-.071-.07c-.071-.142-.071-.284.07-.355l.071-.07.071.07c.071.142.071.284-.07.354z" fill="#FFD15C"/><path d="M7.65 19.62c-.142-.07-.284-.14-.496-.07-.07 0-.142 0-.213-.07-.354-.284-.141-.78.284-.85.354 0 .637.07.92.283.284.212.426.495.497.85.07.425-.425.779-.709.495-.07-.07-.07-.141-.141-.212a.34.34 0 00-.142-.425z" fill="#FF7058"/><path d="M7.791 19.267v.07h.07c.143 0 .213-.141.213-.283v-.07h-.07c-.071 0-.213.141-.213.283zm.283.496v.07h.071c.142.071.283-.07.354-.212v-.071h-.07c-.142 0-.284.142-.355.213zm-.778-.921l.07-.071.071.07c.071.142.071.284-.07.355l-.071.07-.071-.07c-.142-.142-.071-.284.07-.354z" fill="#FFD15C"/><path d="M13.957 21.958c.7-.892.47-2.242-.516-3.015-.985-.772-2.351-.675-3.051.218-.7.892-.47 2.242.516 3.015.985.773 2.351.675 3.051-.218z" fill="#FF7058"/><path d="M13.317 19.55c-.213 0-.425-.142-.425-.354 0-.142-.142-.284-.284-.354-.708-.213-1.416 0-1.841.566a1.715 1.715 0 00-.071 1.913c.07.141.212.212.425.212.212 0 .425.142.425.355 0 .141.142.283.283.354.708.212 1.417 0 1.842-.567a1.714 1.714 0 00.07-1.913c-.141-.141-.283-.212-.424-.212z" fill="#F1543F"/><path d="M11.617 20.117c-.142.141-.142.354-.142.495 0 .071 0 .142-.07.213-.284.354-.922.142-.922-.354 0-.354.071-.78.354-1.063.284-.283.567-.495.921-.566.496-.071.85.496.567.85-.07.07-.142.141-.212.141-.142.071-.354.142-.496.284z" fill="#FF7058"/><path d="M11.404 19.975h.071v-.07c0-.143-.141-.213-.283-.213h-.07v.07c0 .142.14.284.282.213zm.496-.213h.07v-.07c.072-.142 0-.284-.14-.355h-.072v.071c-.07.142 0 .284.142.354zm-.991.78l-.071-.071.07-.071c.142-.07.284 0 .355.07l.07.072-.07.07c-.142.071-.284.071-.354-.07z" fill="#FFD15C"/><path d="M12.75 20.967c.071-.142.142-.284.142-.496 0-.071 0-.142.07-.213.284-.354.78-.141.85.284 0 .354-.07.637-.283.92-.212.284-.495.425-.85.496-.425.071-.708-.425-.495-.708.07-.07.141-.07.212-.07.07 0 .213-.072.354-.213z" fill="#FF7058"/><path d="M13.104 21.18h-.07v.07c0 .142.14.212.283.212h.07v-.07c-.07-.142-.141-.213-.283-.213zm-.567.282h-.07v.071c-.072.142 0 .284.14.354h.072v-.07c.07-.142 0-.284-.142-.355zm.991-.849l.071.07-.07.071c-.142.071-.284 0-.355-.07l-.07-.072.07-.07c.142-.071.284 0 .354.07z" fill="#FFD15C"/><path d="M22.241 17.354c1.252 0 2.267-.92 2.267-2.054 0-1.135-1.015-2.054-2.267-2.054s-2.266.92-2.266 2.054 1.014 2.054 2.266 2.054z" fill="#FF7058"/><path d="M22.525 13.813a.431.431 0 01-.566 0c-.142-.142-.284-.142-.425-.071-.638.283-1.134.85-1.134 1.558 0 .708.425 1.275 1.134 1.558.141.071.354 0 .425-.07a.43.43 0 01.566 0c.142.141.284.141.425.07.638-.283 1.134-.85 1.134-1.558 0-.708-.425-1.275-1.134-1.558-.141-.071-.354 0-.425.07z" fill="#F1543F"/><path d="M21.605 15.3c0 .212.07.354.212.496.07.07.07.142.07.212 0 .496-.637.638-.92.284-.212-.284-.425-.638-.425-.992s.142-.78.425-.992c.283-.354.92-.141.92.284 0 .07-.07.141-.07.212a.765.765 0 00-.212.496z" fill="#FF7058"/><path d="M21.32 15.37v-.14c-.07-.072-.283-.072-.354 0l-.07.07.07.07c.071.072.213.072.354 0zm.213-.495h.07v-.07c-.07-.143-.212-.213-.353-.143h-.071v.071c.07.071.212.142.354.142zm-.283 1.205h-.071v-.072c.07-.141.212-.212.354-.141h.07v.07c-.07.142-.212.213-.353.142z" fill="#FFD15C"/><path d="M22.95 15.3c0-.142-.07-.354-.212-.425-.071-.07-.071-.142-.071-.213 0-.425.567-.566.85-.283.213.284.354.567.354.921 0 .354-.141.637-.354.92-.283.355-.85.143-.85-.282 0-.071 0-.142.07-.213.143-.07.213-.213.213-.425z" fill="#FF7058"/><path d="M23.375 15.23v.14c.07.072.283.072.354 0l.071-.07-.07-.07c-.143-.072-.284-.072-.355 0zm-.284.566h-.07v.07c.07.142.212.213.354.142h.07v-.07c-.07-.142-.212-.213-.354-.142zm.285-1.276h.07v.072c-.07.141-.212.212-.354.141h-.07v-.07c.07-.142.212-.213.354-.142z" fill="#FFD15C"/><path d="M15.154 13.706c-.304-1.093-1.528-1.707-2.734-1.372-1.206.335-1.938 1.493-1.634 2.586.304 1.093 1.528 1.707 2.734 1.372 1.206-.335 1.938-1.493 1.634-2.586z" fill="#FF7058"/><path d="M12.892 12.75c-.142.213-.354.283-.567.142-.141-.071-.283-.071-.425.07-.566.425-.85 1.134-.637 1.842.212.708.78 1.133 1.487 1.204.142 0 .355-.07.425-.212.142-.213.355-.284.567-.142.142.071.283.071.425-.07.567-.426.85-1.134.638-1.842-.213-.709-.78-1.134-1.488-1.204-.212 0-.354.07-.425.212z" fill="#F1543F"/><path d="M12.395 14.45a.728.728 0 00.355.425c.07.07.141.142.141.212.142.425-.425.78-.85.567-.283-.212-.566-.496-.637-.85-.071-.354-.071-.78.141-1.062.213-.425.85-.425.992.07 0 .071 0 .142-.07.213-.142.07-.142.212-.072.425z" fill="#FF7058"/><path d="M12.112 14.592l.07-.071-.14-.071c-.142-.07-.284 0-.355.07l-.07.072.07.07c.213.071.354.071.425-.07zm.071-.567l.07-.07-.07-.072c-.071-.141-.213-.141-.354-.07l-.071.07.07.071c.072.142.213.142.355.071zm.071 1.275h-.071v-.07c0-.143.141-.213.283-.213h.07v.07c0 .142-.14.213-.282.213z" fill="#FFD15C"/><path d="M13.67 14.096c-.07-.142-.141-.284-.283-.354a.152.152 0 01-.142-.142c-.141-.425.355-.708.709-.496.283.213.496.425.566.78.071.354.071.708-.07.991-.213.354-.78.354-.85-.07v-.213a.436.436 0 00.07-.496z" fill="#FF7058"/><path d="M14.025 13.954l-.07.07.07.072c.142.07.283 0 .354-.071l.071-.07-.07-.072c-.072-.141-.284-.07-.355.071zm-.071.566l-.071.072.07.07c.072.142.213.142.355.071l.07-.07-.07-.071c-.071-.142-.213-.142-.354-.071zm-.071-1.345h.07v.07c0 .142-.14.213-.282.213H13.6v-.07c0-.071.141-.213.283-.213z" fill="#FFD15C"/><path d="M18.275 8.57c1.252 0 2.267-.919 2.267-2.053 0-1.135-1.015-2.055-2.267-2.055-1.251 0-2.266.92-2.266 2.055 0 1.134 1.015 2.054 2.266 2.054z" fill="#FF7058"/><path d="M18.559 5.03a.43.43 0 01-.567 0c-.07-.143-.283-.143-.425-.072-.637.284-1.133.85-1.133 1.559 0 .708.425 1.275 1.133 1.558.142.07.354 0 .425-.07a.43.43 0 01.567 0c.141.14.283.14.425.07.637-.283 1.133-.85 1.133-1.558 0-.709-.425-1.346-1.063-1.559-.212-.07-.354-.07-.495.071z" fill="#F1543F"/><path d="M17.638 6.517c0 .212.07.354.212.495.071.071.071.142.071.213 0 .496-.637.637-.92.283-.213-.283-.426-.637-.426-.991 0-.425.142-.78.425-.992.284-.354.921-.142.921.283 0 .071-.07.142-.07.213a.643.643 0 00-.213.496z" fill="#FF7058"/><path d="M17.354 6.587v-.141c-.071-.071-.284-.071-.354 0l-.071.07.07.071c.071.071.284.071.355 0zm.212-.567h.07v-.07c-.07-.142-.212-.213-.353-.142h-.071v.071c.07.142.283.213.354.142zm-.283 1.276h-.071v-.071c.07-.142.212-.213.354-.142h.07v.071c0 .142-.212.213-.353.142z" fill="#FFD15C"/><path d="M19.054 6.517c0-.142-.071-.355-.213-.425-.07-.071-.07-.142-.07-.213 0-.425.566-.567.85-.283.212.283.354.566.354.92 0 .355-.142.638-.355.921-.283.355-.85.142-.85-.283 0-.07 0-.142.071-.212.142-.142.213-.284.213-.425z" fill="#FF7058"/><path d="M19.408 6.446v.141c.071.071.284.071.354 0l.071-.07-.07-.071c-.072-.071-.213-.071-.355 0zm-.212.566h-.071v.071c.07.142.212.213.354.142h.071v-.07c-.07-.143-.213-.213-.354-.143zm.284-1.275h.07v.071c-.07.142-.213.213-.354.142h-.071v-.07c.07-.143.212-.213.354-.143z" fill="#FFD15C"/><path d="M26.42 13.53c1.253 0 2.268-.92 2.268-2.055 0-1.134-1.015-2.054-2.267-2.054s-2.267.92-2.267 2.054c0 1.135 1.015 2.054 2.267 2.054z" fill="#FF7058"/><path d="M26.704 9.988a.43.43 0 01-.567 0c-.141-.142-.283-.142-.425-.071-.637.283-1.133.85-1.133 1.558 0 .708.425 1.275 1.133 1.558.142.071.355 0 .425-.07a.431.431 0 01.567 0c.142.141.284.141.425.07.638-.283 1.133-.85 1.133-1.558 0-.708-.425-1.275-1.133-1.558-.142-.071-.283 0-.425.07z" fill="#F1543F"/><path d="M25.783 11.475c0 .213.071.354.213.496.07.07.07.142.07.212 0 .496-.637.638-.92.284-.213-.284-.425-.638-.425-.992s.141-.779.425-.992c.283-.354.92-.141.92.284 0 .07-.07.142-.07.212a.643.643 0 00-.213.496z" fill="#FF7058"/><path d="M25.5 11.546v-.142c-.07-.07-.283-.07-.354 0l-.07.071.07.07c.07.072.283.072.354 0zm.212-.566h.071v-.072c-.07-.141-.212-.212-.354-.141h-.07v.07c.07.142.212.213.353.142zm-.282 1.274h-.072v-.07c.071-.142.213-.213.354-.142h.071v.07c-.07.142-.212.213-.354.142z" fill="#FFD15C"/><path d="M27.2 11.475c0-.142-.07-.354-.212-.425-.071-.07-.071-.142-.071-.213 0-.425.567-.566.85-.283.213.284.354.567.354.921 0 .354-.141.638-.354.92-.283.355-.85.143-.85-.282 0-.071 0-.142.07-.213.143-.07.213-.213.213-.425z" fill="#FF7058"/><path d="M27.554 11.404v.142c.07.07.283.07.354 0l.07-.071-.07-.07c-.07-.072-.283-.072-.354 0zm-.213.566h-.07v.072c.07.141.212.212.354.141h.07v-.07c-.07-.142-.212-.213-.354-.142zm.285-1.274h.07v.07c-.07.142-.212.213-.354.142h-.07v-.07c.07-.142.212-.213.354-.142z" fill="#FFD15C"/><path d="M9.563 12.963c1.251 0 2.266-.92 2.266-2.055 0-1.134-1.015-2.054-2.266-2.054-1.252 0-2.267.92-2.267 2.054 0 1.135 1.015 2.055 2.267 2.055z" fill="#FF7058"/><path d="M9.846 9.42a.43.43 0 01-.567 0c-.142-.14-.283-.14-.425-.07-.637.283-1.133.85-1.133 1.558 0 .709.425 1.275 1.133 1.559.142.07.354 0 .425-.071a.431.431 0 01.567 0c.141.142.283.142.425.07.637-.283 1.133-.85 1.133-1.558 0-.708-.425-1.275-1.133-1.558-.142-.07-.284-.07-.425.07z" fill="#F1543F"/><path d="M8.925 10.908c0 .213.07.354.212.496.071.071.071.142.071.213 0 .496-.637.637-.92.283-.213-.283-.426-.637-.426-.992 0-.425.142-.779.425-.991.284-.354.921-.142.921.283 0 .071-.07.142-.07.213-.142.07-.213.283-.213.495z" fill="#FF7058"/><path d="M8.642 10.908v-.141c-.071-.071-.284-.071-.354 0l-.071.07.07.072c.072.141.213.141.355 0zm.212-.496h.071v-.07c-.07-.142-.213-.213-.354-.142H8.5v.07c.07.143.213.213.354.143zm-.284 1.276H8.5v-.071c.07-.142.213-.213.354-.142h.071v.07a.542.542 0 01-.354.143z" fill="#FFD15C"/><path d="M10.342 10.908c0-.141-.07-.354-.213-.425-.07-.07-.07-.141-.07-.212 0-.425.566-.567.85-.283.212.283.354.566.354.92 0 .354-.142.638-.354.921-.284.354-.85.142-.85-.283 0-.071 0-.142.07-.213.071-.141.213-.283.213-.425z" fill="#FF7058"/><path d="M10.695 10.837v.142c.071.07.284.07.354 0l.071-.07-.07-.072c-.071-.141-.284-.141-.355 0zm-.212.496h-.07v.071c.07.142.212.213.353.142h.071v-.071a.753.753 0 00-.354-.142zm.283-1.275h.071v.071c-.07.142-.212.213-.354.142h-.07V10.2c0-.07.212-.142.353-.142z" fill="#FFD15C"/><path d="M22.667 26.704c-.07-.496.425-.992.992-1.062.566-.071 1.275.212 1.275.708.07.496-.638.992-1.205 1.062-.495 0-.991-.212-1.062-.708z" fill="#40596B"/><path d="M24.367 26.563a.213.213 0 100-.425.213.213 0 000 .425z" fill="#334A5E"/><path d="M21.959 18.417c.495-.142 1.062.212 1.204.779.141.566 0 1.275-.496 1.416-.496.142-1.063-.495-1.204-.991-.071-.567.07-1.133.496-1.204z" fill="#40596B"/><path d="M22.596 20.188a.213.213 0 100-.425.213.213 0 000 .425z" fill="#334A5E"/><path d="M15.583 27.13c.496-.143 1.063.212 1.204.778.142.567 0 1.275-.496 1.417-.495.142-1.062-.496-1.204-.992-.141-.496 0-1.062.496-1.204z" fill="#40596B"/><path d="M16.15 28.97a.212.212 0 100-.424.212.212 0 000 .425z" fill="#334A5E"/><path d="M15.654 23.658c-.354.355-1.063.355-1.417 0-.354-.354-.637-1.133-.354-1.416.284-.284 1.134-.142 1.559.212.425.354.566.921.212 1.204z" fill="#40596B"/><path d="M14.308 22.88a.213.213 0 100-.426.213.213 0 000 .425z" fill="#334A5E"/><path d="M16.93 10.625c-.284-.425-.142-1.062.283-1.417.425-.354 1.204-.425 1.488-.07.283.425 0 1.204-.496 1.487-.496.283-.992.354-1.275 0z" fill="#40596B"/><path d="M18.133 9.633a.212.212 0 100-.425.212.212 0 000 .425z" fill="#334A5E"/><path d="M19.834 14.45c-.354.354-1.063.354-1.417 0-.354-.354-.637-1.133-.354-1.417.283-.283 1.133-.141 1.558.213.354.354.496.85.213 1.204z" fill="#40596B"/><path d="M18.488 13.6a.213.213 0 100-.425.213.213 0 000 .425z" fill="#334A5E"/><path d="M29.325 14.308c.071.496-.425.992-.92 1.063-.567.07-1.276-.213-1.346-.708-.071-.496.637-.992 1.204-1.063.566-.07 1.062.213 1.062.708z" fill="#40596B"/><path d="M27.696 14.875a.213.213 0 100-.425.213.213 0 000 .425z" fill="#334A5E"/><path d="M15.513 6.162c-.496-1.204-1.842-1.7-3.046-1.204-1.133.496-1.7 1.913-1.133 3.117.141.283.141.142.354.354a.68.68 0 00.637.142c.354-.142.78.07.85.496l.142.637c.07.425.496.638.85.496l.85-.354c.354-.142.496-.638.283-.921l-.354-.496c-.212-.354-.07-.779.284-.92.212-.072.354-.284.354-.567 0-.496.07-.496-.071-.78z" fill="#fff"/><path opacity=".1" d="M14.875 9.42l-.85.355c-.283.142-.566 0-.779-.212.07.425.496.637.85.495l.85-.354c.354-.141.496-.637.284-.92.07.283-.071.566-.355.637zm-1.771-.707a.629.629 0 00-.85-.496c-.213.07-.496.07-.638-.142-.141-.142-.212-.142-.283-.283 0 .07 0 .141.07.141.143.284.143.142.355.354a.68.68 0 00.638.142c.212-.07.566.071.708.284zm2.337-2.196c0 .212-.141.425-.354.566-.354.142-.496.638-.283.921-.07-.283.07-.567.354-.708.213-.071.354-.284.354-.567s.071-.283-.07-.567c0 0 0-.07-.072-.07.142.141.071.212.071.425z" fill="#231F20"/><path d="M24.084 10.625c.85-.992.708-2.408-.284-3.258-.992-.78-2.479-.638-3.258.354-.142.212-.071.212-.142.496-.07.212 0 .496.213.637a.685.685 0 010 .992l-.496.354a.633.633 0 000 .992l.708.566c.284.284.78.142.921-.212l.283-.567c.213-.354.638-.425.921-.212.213.141.425.212.638.07.283-.07.283 0 .495-.212z" fill="#fff"/><path opacity=".1" d="M20.896 11.546l-.708-.567c-.212-.212-.283-.496-.142-.78a.633.633 0 000 .992l.709.567c.283.284.779.142.92-.212-.212.212-.495.212-.779 0zm-.212-1.913c.354-.212.354-.708 0-.991a.68.68 0 01-.142-.638c.071-.212 0-.283.142-.425l-.142.142c-.141.212-.07.212-.141.496a.571.571 0 00.212.637c.213.213.213.496.07.78zm3.116 1.063c-.212.141-.495.07-.637-.071-.283-.284-.78-.142-.92.212.212-.141.566-.212.778 0 .213.142.425.213.638.071.283-.141.283-.07.496-.283l.07-.071-.425.142z" fill="#231F20"/><path d="M25.217 19.125c.637 1.063 2.125 1.417 3.187.708 1.063-.708 1.417-2.195.638-3.258-.142-.212-.213-.142-.425-.283a.531.531 0 00-.638 0c-.354.212-.779.07-.92-.355l-.142-.495c-.142-.354-.567-.567-.921-.354l-.78.495c-.353.213-.424.709-.14.992L25.5 17c.284.283.213.78-.141.992-.213.141-.355.354-.284.566.071.284 0 .284.142.567z" fill="#fff"/><path opacity=".1" d="M25.358 15.796l.78-.496c.283-.142.566-.07.779.142-.142-.354-.567-.567-.921-.354l-.78.495c-.353.213-.424.709-.14.992-.072-.283 0-.637.282-.78zm1.913.424c.142.355.567.568.921.355.213-.142.496-.142.638 0 .212.142.212.07.354.213 0-.071-.07-.142-.07-.142-.143-.213-.213-.142-.426-.284a.531.531 0 00-.637 0c-.284.142-.638.071-.78-.141zm-2.054 2.55c0-.212.07-.495.283-.566.354-.212.425-.708.142-.991.07.283 0 .566-.284.708-.212.142-.354.354-.283.567.07.283 0 .283.142.566l.07.071c-.07-.07 0-.142-.07-.354z" fill="#231F20"/><path d="M11.758 28.12c1.275.072 2.409-.85 2.48-2.124.07-1.275-.992-2.409-2.197-2.409-.283 0-.212.071-.495.142-.213.071-.355.284-.425.567 0 .425-.425.637-.78.566l-.566-.212c-.354-.142-.78.142-.78.567l-.07.92c0 .425.354.709.708.638l.638-.07c.425-.072.708.283.708.637 0 .212.07.495.283.566.213.142.142.213.496.213z" fill="#fff"/><path opacity=".1" d="M9.137 26.067l.071-.921c0-.284.284-.567.567-.567-.354-.142-.78.142-.78.567l-.07.92c0 .425.354.709.708.638-.354-.07-.567-.283-.496-.637zm1.417-1.276c.425.142.779-.141.779-.566 0-.213.142-.425.425-.567.212-.07.212-.141.354-.141h-.213c-.283 0-.212.07-.495.141-.213.071-.354.284-.425.567.07.283-.142.496-.425.566zm.921 3.117c-.212-.141-.354-.354-.283-.566 0-.425-.354-.709-.709-.638.284.07.496.354.425.638 0 .212.071.495.284.566.283.142.212.213.566.213h.142c-.212-.071-.212-.142-.425-.213z" fill="#231F20"/><path d="M18.558 18.913c.92-.85.992-2.338.07-3.259-.85-.92-2.407-.92-3.328 0-.213.213-.071.213-.213.425-.07.213-.07.496.142.638.283.283.212.779-.142.991l-.566.284c-.355.212-.425.637-.142.991l.637.709c.284.283.78.283.992-.071l.354-.496c.213-.354.709-.354.992-.07.142.14.425.282.637.14.355-.14.355-.07.567-.282z" fill="#fff"/><path opacity=".1" d="M15.3 19.48l-.637-.71c-.213-.212-.213-.566-.071-.778-.354.212-.425.637-.142.991l.638.709c.283.283.779.283.991-.071-.212.07-.566.07-.779-.142zm.071-1.984c.354-.213.425-.709.142-.992-.142-.142-.213-.425-.142-.637.07-.213.07-.284.142-.355l-.142.142c-.212.213-.142.213-.212.425-.071.213-.071.496.141.638.213.212.213.566.071.779zm2.904 1.487a.68.68 0 01-.638-.141c-.283-.284-.779-.284-.992.07.213-.141.567-.141.78.071.141.142.425.284.637.142.284-.07.284 0 .567-.283l.07-.071c-.141.142-.212.142-.424.212z" fill="#231F20"/><path d="M8.642 13.387c-1.134-.566-2.55-.07-3.046 1.134-.567 1.133 0 2.55 1.204 3.046.283.141.213 0 .496.07.212 0 .425-.141.567-.354.141-.354.637-.495.92-.212l.496.354c.284.283.78.142.921-.212l.425-.85c.142-.355 0-.78-.425-.85l-.637-.142c-.354-.07-.567-.496-.425-.85.07-.213.07-.496-.071-.638-.213-.283-.142-.354-.425-.495z" fill="#fff"/><path opacity=".1" d="M10.342 16.22l-.425.85c-.141.284-.425.426-.708.355.283.283.78.142.92-.212l.426-.85c.142-.355 0-.78-.425-.85.212.141.354.425.212.708zm-1.842.71c-.354-.284-.779-.142-.92.212-.071.212-.355.354-.567.354-.213 0-.283.07-.425 0 .07 0 .07.07.142.07.283.142.212 0 .495.072.213 0 .425-.142.567-.355.142-.354.425-.425.708-.354zm.283-3.26c.142.213.213.426.071.638-.141.354 0 .78.425.85-.212-.141-.354-.495-.212-.779.07-.212.07-.496-.071-.637-.213-.213-.142-.284-.425-.425 0 0-.071 0-.071-.071.142.212.142.283.283.425zm8.571-10.34c-4.037 0-7.65 1.84-10.058 4.674 2.337-1.983 5.383-3.258 8.642-3.258 7.366 0 13.316 5.95 13.316 13.316 0 3.33-1.204 6.305-3.258 8.642 2.833-2.408 4.675-6.02 4.675-10.058A13.3 13.3 0 0017.354 3.329z" fill="#231F20"/><path d="M17 31.733C8.854 31.733 2.267 25.146 2.267 17S8.854 2.267 17 2.267 31.733 8.854 31.733 17 25.146 31.733 17 31.733zm0-28.05A13.301 13.301 0 003.683 17c0 7.367 5.95 13.317 13.317 13.317S30.317 24.367 30.317 17 24.367 3.683 17 3.683z" fill="#FF7058"/></svg>