<svg width="37" height="38" fill="none" xmlns="http://www.w3.org/2000/svg"><path d="M.343 9.302l2.822 6.657a4.277 4.277 0 002.355 2.31 4.277 4.277 0 003.296-.025l6.645-2.827a4.279 4.279 0 002.307-2.358 4.288 4.288 0 00-.025-3.3l-2.822-6.656A4.312 4.312 0 009.27.818L2.625 3.644A4.282 4.282 0 00.318 6.002a4.29 4.29 0 00.025 3.3zm.824-2.956a3.37 3.37 0 011.816-1.857l6.646-2.827a3.358 3.358 0 012.595-.02 3.372 3.372 0 011.855 1.82l2.822 6.655c.353.832.36 1.755.019 2.6a3.37 3.37 0 01-1.816 1.856L8.458 17.4c-.83.353-1.752.36-2.595.019A3.37 3.37 0 014.009 15.6L1.186 8.944a3.375 3.375 0 01-.02-2.598z" fill="url(#paint0_linear_2_910)"/><path d="M9.05 14.597c.658 0 1.327-.13 1.97-.403A5.076 5.076 0 0013.7 7.55a5.063 5.063 0 00-6.635-2.684 5.076 5.076 0 00-2.68 6.645 5.066 5.066 0 004.664 3.086zm3.57-7.147c.086.148.169.297.237.458.08.188.14.379.19.57-.407.244-.604.527-.766.765-.173.253-.298.436-.688.601-.388.167-.607.129-.909.078-.348-.059-.783-.133-1.42.138-.635.27-.884.635-1.084.927-.173.253-.297.435-.686.601-.39.165-.607.128-.908.077-.282-.048-.624-.102-1.079.021a4.128 4.128 0 01-.278-.532 4.187 4.187 0 01-.168-.488c.203-.036.371-.013.574.022.35.06.783.134 1.419-.138.636-.27.884-.634 1.084-.927.173-.253.298-.435.687-.6.39-.167.607-.129.91-.079.349.06.783.133 1.419-.137.636-.271.885-.635 1.085-.928.114-.17.215-.306.381-.429zm-.022 4.2c-.019.005-.039.003-.058.011-.402.173-.67.144-1.01.106-.396-.042-.845-.09-1.468.173-.618.264-.907.623-1.162.942-.224.278-.4.498-.807.671l-.011.008a4.157 4.157 0 01-1.898-1.028c.08.008.16.02.248.035.349.059.784.133 1.42-.137.635-.27.884-.635 1.083-.927.173-.253.298-.436.687-.602.39-.165.607-.128.91-.077.348.059.783.133 1.42-.138.635-.27.884-.635 1.084-.927a3.2 3.2 0 01.149-.205 4.175 4.175 0 01-.587 2.095zm-1.936 1.7c-.397.17-.807.27-1.217.31.06-.068.115-.137.169-.204.224-.278.4-.498.806-.67.403-.173.672-.144 1.011-.106.09.01.183.019.28.025a4.13 4.13 0 01-1.049.645zm1.411-6.637c-.29.214-.453.447-.59.647-.173.253-.298.436-.687.602-.39.166-.608.128-.91.077-.349-.059-.783-.132-1.42.138-.635.27-.884.635-1.084.927-.172.253-.297.436-.686.601-.39.166-.607.128-.908.077-.24-.041-.52-.086-.878-.024a4.1 4.1 0 01.054-.934c.124.019.256.037.406.037.247 0 .536-.045.886-.193.635-.27.885-.635 1.084-.928.173-.253.297-.435.687-.6.389-.166.607-.13.91-.078.348.06.783.132 1.42-.138.561-.24.821-.551 1.011-.822.256.174.49.38.705.611zm-4.65-1.002a4.115 4.115 0 011.613-.331c.52 0 1.029.108 1.506.295a1.244 1.244 0 01-.545.405c-.39.166-.607.129-.91.077-.349-.059-.784-.132-1.42.139-.635.27-.884.634-1.084.927-.173.253-.298.435-.687.6a1.243 1.243 0 01-.675.112A4.136 4.136 0 017.423 5.71z" fill="url(#paint1_linear_2_910)"/><path d="M19.3 21.37l-7.177-.786a4.274 4.274 0 00-3.163.927 4.284 4.284 0 00-1.59 2.892l-.785 7.188a4.319 4.319 0 003.814 4.76l7.177.787a4.275 4.275 0 003.163-.928 4.286 4.286 0 001.59-2.892l.785-7.188a4.32 4.32 0 00-3.813-4.76zm2.905 4.66l-.786 7.188a3.4 3.4 0 01-3.742 3.008l-7.179-.787a3.368 3.368 0 01-2.273-1.254 3.376 3.376 0 01-.73-2.493l.786-7.189a3.376 3.376 0 011.251-2.276 3.37 3.37 0 012.49-.731l7.178.787a3.402 3.402 0 013.005 3.747z" fill="url(#paint2_linear_2_910)"/><path d="M15.4 23.824a5.029 5.029 0 00-3.717 1.085 5.035 5.035 0 00-1.863 3.4 5.04 5.04 0 001.084 3.723 5.023 5.023 0 003.949 1.896 5.07 5.07 0 003.942-8.24 5.026 5.026 0 00-3.395-1.864zm-4.67 4.585a4.44 4.44 0 01.091-.507c.196.068.331.17.491.3.276.222.619.5 1.304.575.688.074 1.082-.12 1.4-.279.274-.136.47-.235.892-.188.42.047.593.185.83.378.277.222.62.499 1.307.575.104.01.201.016.293.016.511 0 .837-.161 1.106-.294.184-.093.339-.164.546-.188a4.25 4.25 0 01-.021.516 4.064 4.064 0 01-.114.591c-.472.014-.783.163-1.04.291-.274.136-.473.236-.893.188-.42-.046-.593-.185-.832-.377-.276-.222-.62-.5-1.306-.575-.687-.075-1.08.12-1.398.279-.275.136-.472.236-.893.188-.42-.047-.591-.185-.83-.377-.222-.18-.493-.395-.951-.51-.006-.2-.003-.4.018-.602zm7.308-.247c-.275.137-.473.235-.893.189-.42-.047-.593-.185-.831-.378-.276-.222-.62-.5-1.306-.575-.69-.073-1.082.121-1.4.278-.273.137-.471.237-.892.189-.42-.047-.591-.185-.83-.377-.189-.153-.413-.33-.755-.452.136-.28.303-.545.5-.789.262.206.6.43 1.208.497.688.073 1.081-.121 1.399-.278.274-.137.472-.236.892-.189.42.047.593.185.831.378.276.222.62.5 1.306.575.105.01.202.017.294.017.445 0 .745-.122.994-.242.142.28.247.576.32.88a2.448 2.448 0 00-.837.277zM15.3 24.735a4.11 4.11 0 012.75 1.493c-.188.08-.376.125-.684.09-.42-.046-.593-.185-.831-.377-.276-.222-.62-.5-1.306-.575-.689-.074-1.082.12-1.4.278-.273.136-.471.236-.891.188a1.237 1.237 0 01-.646-.235 4.109 4.109 0 013.008-.862zm-.903 8.25a4.144 4.144 0 01-1.214-.324c.085-.031.169-.064.248-.096.33-.134.592-.24 1.03-.191.436.047.656.204.934.403.073.051.15.105.23.157a4.127 4.127 0 01-1.228.052zm2.516-.535c-.018-.005-.034-.015-.053-.017-.435-.048-.655-.205-.933-.403-.325-.232-.693-.494-1.365-.567-.668-.075-1.096.1-1.474.252-.33.134-.59.24-1.03.19-.006 0-.011.003-.017.002a4.247 4.247 0 01-.424-.449 4.143 4.143 0 01-.728-1.376c.066.046.13.096.2.152.276.222.62.5 1.305.575.687.072 1.081-.12 1.399-.278.273-.136.472-.235.892-.188.42.046.593.184.83.376.277.223.62.5 1.307.575.104.012.203.017.294.017.511 0 .836-.162 1.105-.295.08-.04.154-.075.229-.105a4.172 4.172 0 01-1.537 1.539z" fill="url(#paint3_linear_2_910)"/><path d="M36.601 14.981l-1.449-7.084a4.282 4.282 0 00-1.85-2.732 4.274 4.274 0 00-3.235-.63l-7.074 1.451a4.278 4.278 0 00-2.727 1.853 4.291 4.291 0 00-.63 3.24l1.45 7.083a4.286 4.286 0 001.85 2.733 4.286 4.286 0 003.235.629l7.074-1.45A4.32 4.32 0 0036.6 14.98zm-3.54 4.195l-7.075 1.45a3.365 3.365 0 01-2.547-.497 3.378 3.378 0 01-1.458-2.15l-1.449-7.084a3.38 3.38 0 01.497-2.551 3.37 3.37 0 012.147-1.46l7.074-1.45a3.37 3.37 0 012.547.496 3.375 3.375 0 011.458 2.15l1.45 7.085a3.402 3.402 0 01-2.644 4.01z" fill="url(#paint4_linear_2_910)"/><path d="M27.103 8.066a5.025 5.025 0 00-3.208 2.172 5.07 5.07 0 004.221 7.859 5.05 5.05 0 001.017-.103 5.025 5.025 0 003.208-2.173 5.04 5.04 0 00.734-3.807 5.065 5.065 0 00-5.972-3.948zm2.412 2.399c.138.677.446.994.692 1.248.214.22.368.379.453.793.084.415.005.622-.105.908-.127.331-.286.743-.146 1.421.123.602.378.919.607 1.16-.224.22-.472.411-.739.574-.152-.332-.35-.54-.519-.714-.213-.22-.367-.379-.452-.793-.085-.415-.006-.622.104-.908.128-.331.286-.743.147-1.421-.138-.678-.446-.995-.692-1.25-.213-.219-.368-.378-.452-.792-.085-.414-.006-.62.104-.906.088-.228.188-.495.198-.858a4.1 4.1 0 01.903.238 2.173 2.173 0 00-.103 1.3zm-4.856.279c.293-.445.662-.82 1.086-1.116a4.033 4.033 0 01-.083.238c-.127.33-.286.742-.147 1.42.138.677.445.993.692 1.248.214.22.368.378.453.793.084.415.005.621-.105.908-.127.33-.286.743-.146 1.42.138.679.445.995.692 1.25.063.065.119.125.171.187a4.163 4.163 0 01-1.933-.991c-.002-.02.004-.04 0-.06-.088-.43-.006-.687.097-1.013.12-.38.257-.811.121-1.474-.134-.66-.43-1.015-.69-1.328-.229-.274-.409-.49-.498-.924 0-.005-.005-.01-.006-.015a4.08 4.08 0 01.296-.543zm-.663 1.862c.055.072.112.14.166.206.229.274.409.49.498.925.087.43.006.687-.098 1.013a6.749 6.749 0 00-.08.27 4.16 4.16 0 01-.486-2.414zm4.953 4.49c-.2.04-.398.061-.596.073-.157-.447-.395-.698-.595-.904-.213-.22-.368-.378-.452-.793-.085-.416-.006-.622.104-.908.128-.331.286-.744.147-1.421-.139-.678-.446-.995-.693-1.25-.213-.219-.367-.377-.452-.792-.084-.414-.005-.62.105-.906.103-.269.224-.592.193-1.064.187-.067.378-.126.577-.167.17-.035.34-.055.51-.069-.005.208-.061.368-.135.56-.127.332-.286.743-.147 1.42.139.678.446.994.693 1.249.213.22.367.378.452.792.085.415.006.622-.105.908-.126.331-.285.743-.146 1.421.138.678.446.995.693 1.25.143.148.257.274.344.463a4.423 4.423 0 01-.497.138zm2.651-1.82a1.254 1.254 0 01-.295-.625c-.084-.415-.005-.622.105-.908.127-.33.285-.743.146-1.42-.138-.679-.446-.995-.693-1.25-.213-.22-.367-.378-.451-.793a1.245 1.245 0 01.026-.686 4.138 4.138 0 011.74 2.603 4.128 4.128 0 01-.577 3.078z" fill="url(#paint5_linear_2_910)"/><defs><linearGradient id="paint0_linear_2_910" x1="-25.72" y1="10.263" x2="23.183" y2="36.417" gradientUnits="userSpaceOnUse"><stop stop-color="#AF7912"/><stop offset=".019" stop-color="#AD7712"/><stop offset=".183" stop-color="#A26914"/><stop offset=".324" stop-color="#9E6414"/><stop offset=".389" stop-color="#A36C19"/><stop offset=".489" stop-color="#B28126"/><stop offset=".609" stop-color="#C9A33B"/><stop offset=".707" stop-color="#E0C44F"/><stop offset=".8" stop-color="#DEC14D"/><stop offset=".866" stop-color="#D8B847"/><stop offset=".924" stop-color="#CEA83C"/><stop offset=".977" stop-color="#BF922D"/><stop offset="1" stop-color="#B78624"/></linearGradient><linearGradient id="paint1_linear_2_910" x1="-10.407" y1="9.94" x2="16.954" y2="24.573" gradientUnits="userSpaceOnUse"><stop stop-color="#AF7912"/><stop offset=".019" stop-color="#AD7712"/><stop offset=".183" stop-color="#A26914"/><stop offset=".324" stop-color="#9E6414"/><stop offset=".389" stop-color="#A36C19"/><stop offset=".489" stop-color="#B28126"/><stop offset=".609" stop-color="#C9A33B"/><stop offset=".707" stop-color="#E0C44F"/><stop offset=".8" stop-color="#DEC14D"/><stop offset=".866" stop-color="#D8B847"/><stop offset=".924" stop-color="#CEA83C"/><stop offset=".977" stop-color="#BF922D"/><stop offset="1" stop-color="#B78624"/></linearGradient><linearGradient id="paint2_linear_2_910" x1="-17.021" y1="29.532" x2="27.814" y2="53.51" gradientUnits="userSpaceOnUse"><stop stop-color="#AF7912"/><stop offset=".019" stop-color="#AD7712"/><stop offset=".183" stop-color="#A26914"/><stop offset=".324" stop-color="#9E6414"/><stop offset=".389" stop-color="#A36C19"/><stop offset=".489" stop-color="#B28126"/><stop offset=".609" stop-color="#C9A33B"/><stop offset=".707" stop-color="#E0C44F"/><stop offset=".8" stop-color="#DEC14D"/><stop offset=".866" stop-color="#D8B847"/><stop offset=".924" stop-color="#CEA83C"/><stop offset=".977" stop-color="#BF922D"/><stop offset="1" stop-color="#B78624"/></linearGradient><linearGradient id="paint3_linear_2_910" x1="-4.602" y1="29.27" x2="22.761" y2="43.905" gradientUnits="userSpaceOnUse"><stop stop-color="#AF7912"/><stop offset=".019" stop-color="#AD7712"/><stop offset=".183" stop-color="#A26914"/><stop offset=".324" stop-color="#9E6414"/><stop offset=".389" stop-color="#A36C19"/><stop offset=".489" stop-color="#B28126"/><stop offset=".609" stop-color="#C9A33B"/><stop offset=".707" stop-color="#E0C44F"/><stop offset=".8" stop-color="#DEC14D"/><stop offset=".866" stop-color="#D8B847"/><stop offset=".924" stop-color="#CEA83C"/><stop offset=".977" stop-color="#BF922D"/><stop offset="1" stop-color="#B78624"/></linearGradient><linearGradient id="paint4_linear_2_910" x1="-4.827" y1="13.724" x2="41.52" y2="38.511" gradientUnits="userSpaceOnUse"><stop stop-color="#AF7912"/><stop offset=".019" stop-color="#AD7712"/><stop offset=".183" stop-color="#A26914"/><stop offset=".324" stop-color="#9E6414"/><stop offset=".389" stop-color="#A36C19"/><stop offset=".489" stop-color="#B28126"/><stop offset=".609" stop-color="#C9A33B"/><stop offset=".707" stop-color="#E0C44F"/><stop offset=".8" stop-color="#DEC14D"/><stop offset=".866" stop-color="#D8B847"/><stop offset=".924" stop-color="#CEA83C"/><stop offset=".977" stop-color="#BF922D"/><stop offset="1" stop-color="#B78624"/></linearGradient><linearGradient id="paint5_linear_2_910" x1="8.662" y1="13.44" x2="36.029" y2="28.079" gradientUnits="userSpaceOnUse"><stop stop-color="#AF7912"/><stop offset=".019" stop-color="#AD7712"/><stop offset=".183" stop-color="#A26914"/><stop offset=".324" stop-color="#9E6414"/><stop offset=".389" stop-color="#A36C19"/><stop offset=".489" stop-color="#B28126"/><stop offset=".609" stop-color="#C9A33B"/><stop offset=".707" stop-color="#E0C44F"/><stop offset=".8" stop-color="#DEC14D"/><stop offset=".866" stop-color="#D8B847"/><stop offset=".924" stop-color="#CEA83C"/><stop offset=".977" stop-color="#BF922D"/><stop offset="1" stop-color="#B78624"/></linearGradient></defs></svg>