<svg width="37" height="38" fill="none" xmlns="http://www.w3.org/2000/svg"><path d="M6.422 32.827l-.26-.16a5.34 5.34 0 01-.068-.043l.046-.004a.455.455 0 00.023-.002c.275-.005.498-.05.693-.116l-.4.34-.034-.015zm-1.298 1.666h0zm6.099-1.876h.001-.001zm-.088.117l-.307-.148.308.148z" fill="url(#paint0_linear_99_239)" stroke="url(#paint1_linear_99_239)"/><mask id="a" fill="#fff"><path d="M4.744 17.573h7.913c2.582 0 4.682-2.079 4.682-4.634V5.11c0-2.556-2.1-4.635-4.682-4.635H4.744C2.163.475.062 2.555.062 5.11v7.831c0 2.555 2.1 4.633 4.682 4.633zM.986 8.817h.88a.46.46 0 00.463-.457.46.46 0 00-.462-.458h-.88V5.108c0-2.05 1.685-3.72 3.758-3.72H7.11c0 .006-.004.01-.004.016v1.328a.46.46 0 00.462.458.46.46 0 00.462-.458V1.404c0-.005-.003-.01-.003-.016h4.63c2.072 0 3.758 1.669 3.758 3.72v.274a.464.464 0 00-.154-.03h-1.344a.46.46 0 00-.461.457.46.46 0 00.461.457h1.343a.459.459 0 00.154-.03v6.704c0 2.05-1.686 3.72-3.758 3.72l-7.913-.001c-.92 0-1.762-.33-2.417-.875l.876-.867a.453.453 0 000-.646.464.464 0 00-.653 0l-.85.841a3.67 3.67 0 01-.714-2.172V8.817z"/></mask><path d="M4.744 17.573h7.913c2.582 0 4.682-2.079 4.682-4.634V5.11c0-2.556-2.1-4.635-4.682-4.635H4.744C2.163.475.062 2.555.062 5.11v7.831c0 2.555 2.1 4.633 4.682 4.633zM.986 8.817h.88a.46.46 0 00.463-.457.46.46 0 00-.462-.458h-.88V5.108c0-2.05 1.685-3.72 3.758-3.72H7.11c0 .006-.004.01-.004.016v1.328a.46.46 0 00.462.458.46.46 0 00.462-.458V1.404c0-.005-.003-.01-.003-.016h4.63c2.072 0 3.758 1.669 3.758 3.72v.274a.464.464 0 00-.154-.03h-1.344a.46.46 0 00-.461.457.46.46 0 00.461.457h1.343a.459.459 0 00.154-.03v6.704c0 2.05-1.686 3.72-3.758 3.72l-7.913-.001c-.92 0-1.762-.33-2.417-.875l.876-.867a.453.453 0 000-.646.464.464 0 00-.653 0l-.85.841a3.67 3.67 0 01-.714-2.172V8.817z" fill="url(#paint2_linear_99_239)"/><path d="M4.744 17.573v-1h-1v1h1zM12.657.474v-1 1zm-7.913 0v1-1zm0 17.1v1h1v-1h-1zM.986 8.816v-1h-1v1h1zm0-.915h-1v1h1v-1zm6.125-6.514h1v-1h-1v1zm.917 0v-1h-1v1h1zm8.388 3.994l-.332.944 1.332.468V5.382h-1zm-.154-.03v-1 1zm-1.344 0v1-1zm1.497.883h1V4.817l-1.335.476.335.942zM12.657 16.66v1-1zm-7.913-.001v-1 1zm-2.417-.875l-.703-.71-.782.773.845.705.64-.768zm.876-.867l-.704-.71.704.71zm0-.646l-.704.71.001.001.703-.711zm-.653 0l.703.71-.703-.71zm-.85.841l-.808.59.686.938.825-.817-.703-.711zM.986 12.94h-1 1zm3.758 5.633h7.913v-2H4.744v2zm7.913 0c3.124 0 5.682-2.517 5.682-5.634h-2c0 1.993-1.643 3.634-3.682 3.634v2zm5.682-5.634V5.11h-2v7.83h2zm0-7.83c0-3.118-2.558-5.635-5.682-5.635v2c2.04 0 3.682 1.641 3.682 3.634h2zM12.657-.527H4.744v2h7.913v-2zm-7.913 0C1.62-.525-.938 1.993-.938 5.11h2c0-1.993 1.643-3.634 3.682-3.634v-2zM-.938 5.11v7.831h2V5.109h-2zm0 7.831c0 3.117 2.558 5.633 5.682 5.633v-2c-2.039 0-3.682-1.64-3.682-3.633h-2zm6.682 4.633h-2 2zM.986 9.817h.88v-2h-.88v2zm.88 0A1.46 1.46 0 003.33 8.36h-2a.54.54 0 01.538-.543v2zM3.33 8.36a1.46 1.46 0 00-1.462-1.458v2a.54.54 0 01-.538-.542h2zM1.867 6.902h-.88v2h.88v-2zm.12 1V5.108h-2v2.794h2zm0-2.794c0-1.489 1.227-2.72 2.758-2.72v-2c-2.616 0-4.759 2.107-4.759 4.72h2zm2.758-2.72H7.11v-2H4.745v2zm1.366-1a.983.983 0 01.04-.281l.002-.003v.001a.638.638 0 00-.02.073 1.026 1.026 0 00-.026.226h2a.986.986 0 01-.04.282l-.002.003v-.002l.002-.003a1.12 1.12 0 00.035-.163c.005-.038.009-.082.009-.133h-2zm-.004.016v1.328h2V1.404h-2zm0 1.328A1.46 1.46 0 007.57 4.19v-2a.54.54 0 01.538.542h-2zM7.57 4.19a1.46 1.46 0 001.462-1.458h-2a.54.54 0 01.538-.542v2zm1.462-1.458V1.404h-2v1.328h2zm0-1.328a1.016 1.016 0 00-.045-.299v-.001.003a.958.958 0 01.042.281h-2a1.016 1.016 0 00.044.296l.001.003v-.001a1.028 1.028 0 01-.042-.282h2zm-1.003.984h4.63v-2h-4.63v2zm4.63 0c1.53 0 2.758 1.23 2.758 2.72h2c0-2.613-2.144-4.72-4.758-4.72v2zm2.758 2.72v.274h2v-.274h-2zm1.332-.669a1.457 1.457 0 00-.486-.088v2c-.111 0-.185-.028-.178-.025l.664-1.887zm-.487-.088h-1.343v2h1.344v-2zm-1.342 0a1.46 1.46 0 00-1.463 1.458h2a.54.54 0 01-.537.543v-2zM13.456 5.81a1.46 1.46 0 001.463 1.457v-2a.54.54 0 01.537.543h-2zm1.463 1.457h1.341v-2h-1.342v2zm1.341 0c.22 0 .395-.055.49-.089l-.67-1.884s.019-.007.049-.013a.625.625 0 01.131-.014v2zm-.845-1.03v6.704h2V6.235h-2zm0 6.704c0 1.489-1.228 2.72-2.758 2.72v2c2.615 0 4.758-2.107 4.758-4.72h-2zm-2.758 2.72l-7.913-.001v2h7.912v-2zm-7.913-.001a2.763 2.763 0 01-1.776-.643l-1.28 1.536a4.763 4.763 0 003.056 1.107v-2zm-1.713.835l.875-.866L2.5 14.207l-.875.866 1.407 1.421zm.875-.866a1.453 1.453 0 000-2.069L2.5 14.982a.547.547 0 010-.776l1.406 1.422zm0-2.068a1.464 1.464 0 00-2.06 0l1.408 1.421a.535.535 0 01-.755 0l1.407-1.42zm-2.06 0l-.85.841 1.407 1.422.85-.841-1.407-1.422zm.661.962a2.67 2.67 0 01-.521-1.582h-2a4.67 4.67 0 00.906 2.762l1.615-1.18zm-.521-1.582V8.817h-2v4.122h2z" fill="url(#paint3_linear_99_239)" mask="url(#a)"/><mask id="b" fill="#fff"><path d="M2.861 6.278V4.949a.46.46 0 00-.462-.457.46.46 0 00-.462.457v1.329a.46.46 0 00.462.457.46.46 0 00.462-.457z"/></mask><path d="M2.861 6.278V4.949a.46.46 0 00-.462-.457.46.46 0 00-.462.457v1.329a.46.46 0 00.462.457.46.46 0 00.462-.457z" fill="url(#paint4_linear_99_239)"/><path d="M3.861 6.278V4.949h-2v1.329h2zm0-1.329A1.46 1.46 0 002.4 3.492v2a.54.54 0 01-.538-.543h2zM2.4 3.492A1.46 1.46 0 00.937 4.95h2a.54.54 0 01-.538.543v-2zM.937 4.95v1.329h2v-1.33h-2zm0 1.329A1.46 1.46 0 002.4 7.735v-2a.54.54 0 01.538.543h-2zM2.4 7.735a1.46 1.46 0 001.462-1.457h-2a.54.54 0 01.538-.543v2z" fill="url(#paint5_linear_99_239)" mask="url(#b)"/><path d="M15.292 9.688v0z" fill="url(#paint6_linear_99_239)" stroke="url(#paint7_linear_99_239)"/><mask id="c" fill="#fff"><path d="M9.85 2.995h1.341a.46.46 0 00.462-.457.46.46 0 00-.462-.457H9.85a.46.46 0 00-.462.457.46.46 0 00.462.457z"/></mask><path d="M9.85 2.995h1.341a.46.46 0 00.462-.457.46.46 0 00-.462-.457H9.85a.46.46 0 00-.462.457.46.46 0 00.462.457z" fill="url(#paint8_linear_99_239)"/><path d="M9.85 3.995h1.341v-2H9.85v2zm1.341 0a1.46 1.46 0 001.462-1.457h-2a.54.54 0 01.538-.543v2zm1.462-1.457a1.46 1.46 0 00-1.462-1.457v2a.54.54 0 01-.538-.543h2zm-1.462-1.457H9.85v2h1.342v-2zm-1.342 0a1.46 1.46 0 00-1.462 1.457h2a.54.54 0 01-.538.543v-2zM8.387 2.538A1.46 1.46 0 009.85 3.995v-2a.54.54 0 01.538.543h-2z" fill="url(#paint9_linear_99_239)" mask="url(#c)"/><path d="M4.58 15.505s0 0 0 0h0z" fill="url(#paint10_linear_99_239)" stroke="url(#paint11_linear_99_239)"/><path d="M14.582 12.62v-.001h0z" fill="url(#paint12_linear_99_239)" stroke="url(#paint13_linear_99_239)"/><mask id="d" fill="#fff"><path d="M4.13 4.148a.463.463 0 00.327-.134l.95-.94a.454.454 0 000-.646.464.464 0 00-.654 0l-.949.94a.454.454 0 000 .646.46.46 0 00.326.134z"/></mask><path d="M4.13 4.148a.463.463 0 00.327-.134l.95-.94a.454.454 0 000-.646.464.464 0 00-.654 0l-.949.94a.454.454 0 000 .646.46.46 0 00.326.134z" fill="url(#paint14_linear_99_239)"/><path d="M4.457 4.014l.703.71-.703-.71zm.95-.94l.703.71-.704-.71zm0-.646l-.706.71h.001l.704-.71zm-.654 0l.704.71-.704-.71zm-.949.94L3.1 2.657v.001l.704.71zm0 .646l.706-.708-.002-.002-.704.71zm.326 1.134c.37 0 .744-.14 1.03-.423L3.754 3.303a.537.537 0 01.376-.155v2zm1.03-.423l.95-.94-1.407-1.421-.95.94 1.408 1.42zm.95-.941a1.454 1.454 0 000-2.066l-1.408 1.42a.546.546 0 010-.773L6.11 3.784zm0-2.066a1.464 1.464 0 00-2.062 0l1.41 1.42a.536.536 0 01-.757 0l1.41-1.42zm-2.06 0l-.95.939 1.408 1.421.949-.94-1.407-1.42zm-.95.94a1.454 1.454 0 000 2.066l1.408-1.42a.546.546 0 010 .773L3.1 2.658zm-.002 2.064a1.46 1.46 0 001.032.426v-2a.54.54 0 01.38.158L3.098 4.722zm1.032.426v-2 2z" fill="url(#paint15_linear_99_239)" mask="url(#d)"/><path d="M12.683 14.626h0s0 0 0 0zm.95.875h0z" fill="url(#paint16_linear_99_239)" stroke="url(#paint17_linear_99_239)"/><path d="M13.158 4.128s0 0 0 0h0z" fill="url(#paint18_linear_99_239)" stroke="url(#paint19_linear_99_239)"/><mask id="e" fill="#fff"><path d="M4.744 37.163h7.913c2.582 0 4.682-2.078 4.682-4.634V24.7c0-2.556-2.1-4.635-4.682-4.635H4.744c-2.581 0-4.682 2.08-4.682 4.634v7.831c0 2.556 2.1 4.634 4.682 4.634zM.986 24.698c0-.91.334-1.745.884-2.392l.876.866a.463.463 0 00.653 0 .453.453 0 000-.646l-.85-.84a3.76 3.76 0 012.195-.707H8.91v.87a.46.46 0 00.462.458.46.46 0 00.462-.457v-.871h2.824c2.072 0 3.758 1.668 3.758 3.72v2.34l-.016-.002-1.343-.001a.46.46 0 00-.462.457.46.46 0 00.462.458h1.342c.006 0 .01-.004.016-.004v4.583c0 2.05-1.685 3.72-3.758 3.72h-.277a.453.453 0 00.031-.154v-1.328a.46.46 0 00-.462-.458.46.46 0 00-.462.457v1.329a.47.47 0 00.031.154H4.744c-2.072 0-3.758-1.67-3.758-3.72v-7.832z"/></mask><path d="M4.744 37.163h7.913c2.582 0 4.682-2.078 4.682-4.634V24.7c0-2.556-2.1-4.635-4.682-4.635H4.744c-2.581 0-4.682 2.08-4.682 4.634v7.831c0 2.556 2.1 4.634 4.682 4.634zM.986 24.698c0-.91.334-1.745.884-2.392l.876.866a.463.463 0 00.653 0 .453.453 0 000-.646l-.85-.84a3.76 3.76 0 012.195-.707H8.91v.87a.46.46 0 00.462.458.46.46 0 00.462-.457v-.871h2.824c2.072 0 3.758 1.668 3.758 3.72v2.34l-.016-.002-1.343-.001a.46.46 0 00-.462.457.46.46 0 00.462.458h1.342c.006 0 .01-.004.016-.004v4.583c0 2.05-1.685 3.72-3.758 3.72h-.277a.453.453 0 00.031-.154v-1.328a.46.46 0 00-.462-.458.46.46 0 00-.462.457v1.329a.47.47 0 00.031.154H4.744c-2.072 0-3.758-1.67-3.758-3.72v-7.832z" fill="url(#paint20_linear_99_239)"/><path d="M.986 24.698h1-1zm.884-2.392l.704-.711-.766-.758-.7.82.762.649zm.876.866l-.704.71.704-.71zm.653 0l-.703-.71.703.71zm0-.646l-.703.71v.001l.703-.711zm-.85-.84l-.582-.814-.964.69.843.834.703-.71zm6.361-.707h1v-1h-1v1zm.924 0v-1h-1v1h1zm6.582 6.06v1h1v-1h-1zm-.016-.002v1-1zm-1.343-.001v-1 1zm1.358.911h1v-1h-1v1zM12.38 36.25l-.941-.337-.48 1.337h1.42v-1zm-.862 0v1h1.422l-.48-1.337-.942.337zm-6.774 0v-1 1zM.986 32.53h-1 1zm3.758 5.634h7.913v-2H4.744v2zm7.913 0c3.124 0 5.682-2.516 5.682-5.634h-2c0 1.993-1.643 3.634-3.682 3.634v2zm5.682-5.634V24.7h-2v7.83h2zm0-7.83c0-3.118-2.558-5.635-5.682-5.635v2c2.04 0 3.682 1.641 3.682 3.634h2zm-5.682-5.635H4.744v2h7.913v-2zm-7.913 0c-3.124 0-5.682 2.517-5.682 5.634h2c0-1.993 1.643-3.634 3.682-3.634v-2zm-5.682 5.634v7.831h2V24.7h-2zm0 7.831c0 3.118 2.558 5.634 5.682 5.634v-2c-2.039 0-3.682-1.64-3.682-3.634h-2zm2.924-7.831c0-.661.241-1.269.646-1.744l-1.523-1.296a4.68 4.68 0 00-1.123 3.04h2zm-.819-1.681l.875.866L3.45 22.46l-.875-.866-1.407 1.422zm.875.866c.286.283.661.423 1.03.423v-2c.133 0 .272.05.377.155l-1.407 1.422zm1.03.423c.37 0 .744-.14 1.03-.423L2.696 22.46a.537.537 0 01.376-.155v2zm1.03-.423a1.453 1.453 0 000-2.069l-1.406 1.423a.547.547 0 010-.776l1.406 1.422zm0-2.068l-.85-.84-1.406 1.421.85.84 1.406-1.421zm-.971.684a2.76 2.76 0 011.613-.52v-2a4.76 4.76 0 00-2.777.893L3.131 22.5zm1.613-.52H8.91v-2H4.744v2zm3.166-1v.87h2v-.87h-2zm0 .87a1.46 1.46 0 001.462 1.458v-2a.54.54 0 01.538.543h-2zm1.462 1.458a1.46 1.46 0 001.462-1.457h-2a.54.54 0 01.538-.543v2zm1.462-1.457v-.871h-2v.87h2zm-1 .129h2.824v-2H9.834v2zm2.824 0c1.53 0 2.758 1.23 2.758 2.72h2c0-2.614-2.144-4.72-4.758-4.72v2zm2.758 2.72v2.34h2V24.7h-2zm1 1.34a.979.979 0 01.281.042h.002l-.006-.001a.518.518 0 00-.073-.02 1.017 1.017 0 00-.22-.023v2a.978.978 0 01-.279-.04l-.003-.002h-.001l.004.001a.565.565 0 00.07.018.947.947 0 00.225.026v-2zm-.016-.002l-1.343-.001v2h1.342l.001-2zm-1.343-.001a1.46 1.46 0 00-1.462 1.457h2a.54.54 0 01-.538.543v-2zm-1.462 1.457a1.46 1.46 0 001.462 1.458v-2a.54.54 0 01.538.542h-2zm1.462 1.458h1.342v-2h-1.342v2zm1.342 0a1.016 1.016 0 00.295-.044.008.008 0 00.005-.002h-.002l-.003.002a.91.91 0 01-.279.04v-2a1.017 1.017 0 00-.3.045h.003l.012-.004a.98.98 0 01.27-.038v2zm-.984-1.004v4.583h2v-4.583h-2zm0 4.583c0 1.489-1.228 2.72-2.758 2.72v2c2.615 0 4.758-2.107 4.758-4.72h-2zm-2.758 2.72h-.277v2h.277v-2zm.664 1.337c.033-.092.09-.269.09-.491h-2a.639.639 0 01.028-.184l1.882.675zm.09-.491v-1.328h-2v1.328h2zm0-1.328a1.46 1.46 0 00-1.462-1.458v2a.54.54 0 01-.538-.543h2zm-1.462-1.458a1.46 1.46 0 00-1.462 1.457h2a.54.54 0 01-.538.543v-2zm-1.462 1.457v1.329h2v-1.328h-2zm0 1.329c0 .222.057.399.09.491l1.883-.675.003.012.01.035a.639.639 0 01.014.137h-2zm1.031-.846H4.744v2h6.774v-2zm-6.774 0c-1.53 0-2.758-1.231-2.758-2.72h-2c0 2.613 2.143 4.72 4.758 4.72v-2zm-2.758-2.72v-7.832h-2v7.831h2z" fill="url(#paint21_linear_99_239)" mask="url(#e)"/><mask id="f" fill="#fff"><path d="M11.474 22.837h1.343a.46.46 0 00.462-.457.46.46 0 00-.462-.457h-1.343a.46.46 0 00-.462.457.46.46 0 00.462.457z"/></mask><path d="M11.474 22.837h1.343a.46.46 0 00.462-.457.46.46 0 00-.462-.457h-1.343a.46.46 0 00-.462.457.46.46 0 00.462.457z" fill="url(#paint22_linear_99_239)"/><path d="M11.474 23.837h1.343v-2h-1.343v2zm1.343 0a1.46 1.46 0 001.462-1.457h-2a.54.54 0 01.538-.543v2zm1.462-1.457a1.46 1.46 0 00-1.462-1.457v2a.54.54 0 01-.538-.543h2zm-1.462-1.457h-1.343v2h1.343v-2zm-1.343 0a1.46 1.46 0 00-1.462 1.457h2a.54.54 0 01-.538.543v-2zm-1.462 1.457a1.46 1.46 0 001.462 1.457v-2a.54.54 0 01.538.543h-2z" fill="url(#paint23_linear_99_239)" mask="url(#f)"/><mask id="g" fill="#fff"><path d="M9.372 34.642H8.03a.46.46 0 00-.462.457.46.46 0 00.462.458h1.342a.46.46 0 00.462-.458.46.46 0 00-.462-.457z"/></mask><path d="M9.372 34.642H8.03a.46.46 0 00-.462.457.46.46 0 00.462.458h1.342a.46.46 0 00.462-.458.46.46 0 00-.462-.457z" fill="url(#paint24_linear_99_239)"/><path d="M9.834 35.1h1v-.002l-1 .001zm-.462-1.458H8.03v2h1.342v-2zm-1.342 0A1.46 1.46 0 006.568 35.1h2a.54.54 0 01-.538.543v-2zM6.568 35.1a1.46 1.46 0 001.462 1.458v-2a.54.54 0 01.538.542h-2zm1.462 1.458h1.342v-2H8.03v2zm1.342 0a1.46 1.46 0 001.462-1.458h-2a.54.54 0 01.538-.542v2zm1.462-1.459a1.46 1.46 0 00-1.462-1.456v2a.54.54 0 01-.538-.541l2-.003z" fill="url(#paint25_linear_99_239)" mask="url(#g)"/><mask id="h" fill="#fff"><path d="M15.253 31.535a.46.46 0 00.462-.457V29.75a.46.46 0 00-.462-.457.46.46 0 00-.462.457v1.328a.46.46 0 00.462.457z"/></mask><path d="M15.253 31.535a.46.46 0 00.462-.457V29.75a.46.46 0 00-.462-.457.46.46 0 00-.462.457v1.328a.46.46 0 00.462.457z" fill="url(#paint26_linear_99_239)"/><path d="M14.791 31.078h-1v.002l1-.002zm.462 1.457a1.46 1.46 0 001.462-1.457h-2a.54.54 0 01.538-.543v2zm1.462-1.457V29.75h-2v1.328h2zm0-1.328a1.46 1.46 0 00-1.462-1.457v2a.54.54 0 01-.538-.543h2zm-1.462-1.457a1.46 1.46 0 00-1.462 1.457h2a.54.54 0 01-.538.543v-2zm-1.462 1.457v1.328h2V29.75h-2zm0 1.33a1.46 1.46 0 001.462 1.455v-2a.54.54 0 01.538.542l-2 .002z" fill="url(#paint27_linear_99_239)" mask="url(#h)"/><mask id="i" fill="#fff"><path d="M2.743 25.823a.463.463 0 00.653 0 .453.453 0 000-.646l-.949-.94a.464.464 0 00-.653 0 .453.453 0 000 .647l.949.939z"/></mask><path d="M2.743 25.823a.463.463 0 00.653 0 .453.453 0 000-.646l-.949-.94a.464.464 0 00-.653 0 .453.453 0 000 .647l.949.939z" fill="url(#paint28_linear_99_239)"/><path d="M2.743 25.823l-.704.71.704-.71zm.653 0l-.703-.71.703.71zm0-.646l-.703.71v.001l.703-.711zm-.949-.94l-.703.711.703-.71zm-.653 0l.704.711-.704-.71zm0 .647l.704-.711h-.001l-.703.71zm.246 1.65c.286.283.66.423 1.03.423v-2c.133 0 .27.05.376.155L2.04 26.534zm1.03.423c.369 0 .744-.14 1.03-.423l-1.407-1.422a.537.537 0 01.377-.155v2zm1.03-.423a1.453 1.453 0 000-2.069l-1.406 1.423a.547.547 0 01-.001-.776L4.1 26.534zm0-2.068l-.95-.94-1.406 1.422.949.94L4.1 24.465zm-.95-.94a1.464 1.464 0 00-2.06.001l1.408 1.42a.536.536 0 01-.754.001l1.407-1.422zm-2.06 0a1.453 1.453 0 00.001 2.069l1.406-1.423a.547.547 0 010 .776l-1.406-1.422zm0 2.068l.95.94 1.407-1.422-.95-.94-1.406 1.422z" fill="url(#paint29_linear_99_239)" mask="url(#i)"/><mask id="j" fill="#fff"><path d="M14.71 25.354a.463.463 0 00.654 0 .453.453 0 000-.647l-.949-.94a.465.465 0 00-.653 0 .453.453 0 000 .647l.949.94z"/></mask><path d="M14.71 25.354a.463.463 0 00.654 0 .453.453 0 000-.647l-.949-.94a.465.465 0 00-.653 0 .453.453 0 000 .647l.949.94z" fill="url(#paint30_linear_99_239)"/><path d="M14.71 25.354l-.703.71.704-.71zm.654 0l-.703-.711.703.71zm0-.647l-.703.711.703-.71zm-.949-.94l-.703.712.703-.711zm-.653 0l.704.712-.704-.711zm0 .647l.704-.71-.001-.001-.703.711zm.245 1.65c.287.283.661.423 1.03.423v-2c.133 0 .272.051.377.156l-1.406 1.421zm1.03.423c.37 0 .745-.14 1.03-.423l-1.406-1.421a.537.537 0 01.377-.156v2zm1.03-.423a1.453 1.453 0 000-2.068l-1.406 1.423a.547.547 0 010-.776l1.407 1.421zm0-2.067l-.948-.94-1.407 1.422.949.939 1.407-1.421zm-.948-.94a1.464 1.464 0 00-2.06 0l1.407 1.421a.536.536 0 01-.754 0l1.407-1.42zm-2.06 0a1.453 1.453 0 000 2.069l1.406-1.423a.547.547 0 010 .776l-1.406-1.422zm0 2.068l.948.94 1.408-1.422-.95-.94-1.406 1.422z" fill="url(#paint31_linear_99_239)" mask="url(#j)"/><mask id="k" fill="#fff"><path d="M2.45 33.843l.95-.94a.453.453 0 000-.646.465.465 0 00-.654 0l-.949.94a.453.453 0 000 .646.463.463 0 00.653 0z"/></mask><path d="M2.45 33.843l.95-.94a.453.453 0 000-.646.465.465 0 00-.654 0l-.949.94a.453.453 0 000 .646.463.463 0 00.653 0z" fill="url(#paint32_linear_99_239)"/><path d="M2.45 33.843v1h.411l.293-.29-.704-.71zm.95-1.586l-.704.711.703-.71zm-.654 0l.704.711-.704-.71zm-.949 1.586l.704-.71v-.002l-.704.712zm.653 0v-1h-.41l-.293.29.703.71zm.704.71l.949-.939-1.407-1.421-.95.94 1.408 1.42zm.949-.939a1.453 1.453 0 000-2.068l-1.406 1.423a.547.547 0 01-.001-.776l1.407 1.421zm0-2.067a1.464 1.464 0 00-2.06 0l1.407 1.42a.536.536 0 01-.754.001l1.407-1.421zm-2.06 0l-.95.939 1.408 1.421.949-.939-1.407-1.421zm-.95.939a1.453 1.453 0 00.001 2.068L2.5 33.132a.547.547 0 010 .775l-1.406-1.421zm0 2.068c.287.283.662.423 1.03.423v-2c.134 0 .272.05.378.155l-1.407 1.422zm1.03.423c.37 0 .745-.14 1.03-.423l-1.406-1.422a.537.537 0 01.377-.155v2zm.327-.134v-2 2z" fill="url(#paint33_linear_99_239)" mask="url(#k)"/><path d="M14.537 33.957h0zm0 .065s0 0 0 0h0z" fill="url(#paint34_linear_99_239)" stroke="url(#paint35_linear_99_239)"/><mask id="l" fill="#fff"><path d="M24.43 11.636c3.077 0 5.581-2.478 5.581-5.524S27.507.588 24.43.588c-3.078 0-5.582 2.478-5.582 5.524s2.504 5.524 5.582 5.524zm0-10.133c2.568 0 4.657 2.068 4.657 4.61 0 2.54-2.09 4.61-4.657 4.61-2.569 0-4.658-2.069-4.658-4.61 0-2.542 2.09-4.61 4.658-4.61z"/></mask><path d="M24.43 11.636c3.077 0 5.581-2.478 5.581-5.524S27.507.588 24.43.588c-3.078 0-5.582 2.478-5.582 5.524s2.504 5.524 5.582 5.524zm0-10.133c2.568 0 4.657 2.068 4.657 4.61 0 2.54-2.09 4.61-4.657 4.61-2.569 0-4.658-2.069-4.658-4.61 0-2.542 2.09-4.61 4.658-4.61z" fill="url(#paint36_linear_99_239)"/><path d="M24.43 12.636c3.62 0 6.581-2.915 6.581-6.524h-2c0 2.484-2.046 4.524-4.581 4.524v2zm6.581-6.524c0-3.608-2.961-6.524-6.581-6.524v2c2.535 0 4.581 2.04 4.581 4.524h2zM24.43-.412c-3.62 0-6.582 2.916-6.582 6.524h2c0-2.484 2.046-4.524 4.582-4.524v-2zm-6.582 6.524c0 3.608 2.961 6.524 6.582 6.524v-2c-2.536 0-4.582-2.04-4.582-4.524h-2zm6.582-3.61c2.025 0 3.657 1.631 3.657 3.61h2c0-3.103-2.546-5.61-5.657-5.61v2zm3.657 3.61c0 1.98-1.632 3.61-3.657 3.61v2c3.11 0 5.657-2.506 5.657-5.61h-2zm-3.657 3.61c-2.026 0-3.658-1.63-3.658-3.61h-2c0 3.104 2.547 5.61 5.658 5.61v-2zm-3.658-3.61c0-1.98 1.632-3.61 3.658-3.61v-2c-3.111 0-5.658 2.507-5.658 5.61h2z" fill="url(#paint37_linear_99_239)" mask="url(#l)"/><mask id="m" fill="#fff"><path d="M24.43 9.321c1.787 0 3.241-1.439 3.241-3.208 0-1.77-1.454-3.209-3.241-3.209-1.788 0-3.242 1.44-3.242 3.209 0 1.769 1.454 3.208 3.242 3.208zm0-.914a2.305 2.305 0 01-2.307-2.18c.373.018.6.135.872.286.329.18.737.407 1.41.407.667 0 1.07-.214 1.427-.404.288-.153.525-.27.904-.288a2.305 2.305 0 01-2.306 2.18zm0-4.588c.997 0 1.841.63 2.168 1.505-.53.044-.89.22-1.203.386-.31.164-.555.295-.99.295-.432 0-.665-.128-.96-.292-.288-.159-.649-.343-1.184-.388a2.314 2.314 0 012.169-1.506z"/></mask><path d="M24.43 9.321c1.787 0 3.241-1.439 3.241-3.208 0-1.77-1.454-3.209-3.241-3.209-1.788 0-3.242 1.44-3.242 3.209 0 1.769 1.454 3.208 3.242 3.208zm0-.914a2.305 2.305 0 01-2.307-2.18c.373.018.6.135.872.286.329.18.737.407 1.41.407.667 0 1.07-.214 1.427-.404.288-.153.525-.27.904-.288a2.305 2.305 0 01-2.306 2.18zm0-4.588c.997 0 1.841.63 2.168 1.505-.53.044-.89.22-1.203.386-.31.164-.555.295-.99.295-.432 0-.665-.128-.96-.292-.288-.159-.649-.343-1.184-.388a2.314 2.314 0 012.169-1.506z" fill="url(#paint38_linear_99_239)"/><path d="M24.43 8.407h1v-1h-1v1zm-2.307-2.18l.046-.998-1.1-.05.056 1.1.998-.051zm.872.286l-.484.875h.001l.483-.875zm2.837.003l-.469-.883.469.883zm.904-.288l.999.05.056-1.1-1.101.05.046 1zm-2.306 2.18h-1v1h1v-1zm2.168-3.084l.082.997 1.317-.108-.462-1.238-.937.35zm-1.203.386l-.468-.884.468.884zm-1.95.003l.486-.874-.002-.001-.483.875zm-1.184-.388l-.937-.35-.46 1.235 1.313.111.084-.996zm2.169 4.996c2.33 0 4.241-1.877 4.241-4.208h-2c0 1.207-.997 2.208-2.241 2.208v2zm4.241-4.208c0-2.332-1.912-4.209-4.241-4.209v2c1.244 0 2.241 1.001 2.241 2.209h2zM24.43 1.904c-2.33 0-4.242 1.877-4.242 4.209h2c0-1.208.997-2.209 2.242-2.209v-2zm-4.242 4.209c0 2.33 1.912 4.208 4.242 4.208v-2c-1.245 0-2.242-1.001-2.242-2.208h-2zm4.242 1.294a1.305 1.305 0 01-1.308-1.23l-1.997.102a3.305 3.305 0 003.305 3.128v-2zm-2.353-.18a.553.553 0 01.177.032c.056.021.12.053.257.129l.969-1.75c-.304-.168-.698-.38-1.31-.409l-.093 1.998zm.435.161c.36.199.956.532 1.892.532v-2c-.217 0-.376-.036-.504-.08a2.678 2.678 0 01-.422-.203l-.966 1.751zm1.892.532c.925 0 1.511-.315 1.898-.521l-.94-1.766a2.94 2.94 0 01-.447.208c-.13.045-.29.079-.51.079v2zm1.897-.52a2.22 2.22 0 01.285-.137.637.637 0 01.197-.036l-.093-1.998c-.612.028-1.014.238-1.327.404l.938 1.766zm-.563-1.224a1.305 1.305 0 01-1.308 1.231v2a3.305 3.305 0 003.305-3.128l-1.997-.103zm-.308 2.231h-2 2zm-1-3.588c.564 0 1.045.356 1.231.855l1.874-.7A3.315 3.315 0 0024.43 2.82v2zm2.087-.491c-.737.06-1.242.314-1.59.498l.937 1.767c.276-.146.49-.245.816-.272l-.163-1.993zm-1.59.498a2.272 2.272 0 01-.306.148.62.62 0 01-.217.031v2c.698 0 1.13-.237 1.46-.412l-.937-1.767zm-.523.179a.552.552 0 01-.198-.028 1.92 1.92 0 01-.275-.138l-.97 1.749c.322.179.744.417 1.443.417v-2zm-.475-.167c-.329-.182-.838-.447-1.584-.51l-.168 1.993c.324.028.538.131.785.268l.967-1.751zm-.73.835a1.314 1.314 0 011.23-.854v-2c-1.43 0-2.639.904-3.105 2.157l1.874.697z" fill="url(#paint39_linear_99_239)" mask="url(#m)"/><mask id="n" fill="#fff"><path d="M24.43 24.4c3.077 0 5.581-2.478 5.581-5.524s-2.504-5.524-5.581-5.524c-3.078 0-5.582 2.478-5.582 5.524S21.352 24.4 24.43 24.4zm0-10.133c2.568 0 4.657 2.068 4.657 4.61 0 2.541-2.09 4.61-4.657 4.61-2.569 0-4.658-2.069-4.658-4.61 0-2.542 2.09-4.61 4.658-4.61z"/></mask><path d="M24.43 24.4c3.077 0 5.581-2.478 5.581-5.524s-2.504-5.524-5.581-5.524c-3.078 0-5.582 2.478-5.582 5.524S21.352 24.4 24.43 24.4zm0-10.133c2.568 0 4.657 2.068 4.657 4.61 0 2.541-2.09 4.61-4.657 4.61-2.569 0-4.658-2.069-4.658-4.61 0-2.542 2.09-4.61 4.658-4.61z" fill="url(#paint40_linear_99_239)"/><path d="M24.43 25.4c3.62 0 6.581-2.916 6.581-6.524h-2c0 2.484-2.046 4.524-4.581 4.524v2zm6.581-6.524c0-3.608-2.961-6.524-6.581-6.524v2c2.535 0 4.581 2.04 4.581 4.524h2zm-6.581-6.524c-3.62 0-6.582 2.916-6.582 6.524h2c0-2.484 2.046-4.524 4.582-4.524v-2zm-6.582 6.524c0 3.608 2.961 6.524 6.582 6.524v-2c-2.536 0-4.582-2.04-4.582-4.524h-2zm6.582-3.61c2.025 0 3.657 1.63 3.657 3.61h2c0-3.103-2.547-5.61-5.657-5.61v2zm3.657 3.61c0 1.98-1.632 3.61-3.657 3.61v2c3.11 0 5.657-2.506 5.657-5.61h-2zm-3.657 3.61c-2.026 0-3.658-1.63-3.658-3.61h-2c0 3.104 2.547 5.61 5.658 5.61v-2zm-3.658-3.61c0-1.979 1.632-3.61 3.658-3.61v-2c-3.111 0-5.658 2.507-5.658 5.61h2z" fill="url(#paint41_linear_99_239)" mask="url(#n)"/><mask id="o" fill="#fff"><path d="M24.43 22.084c1.787 0 3.241-1.438 3.241-3.208 0-1.769-1.454-3.208-3.241-3.208-1.788 0-3.242 1.44-3.242 3.208 0 1.77 1.454 3.208 3.242 3.208zm2.317-3.208c0 .987-.636 1.823-1.52 2.146-.045-.525-.223-.881-.39-1.19-.167-.308-.299-.55-.299-.98 0-.428.13-.658.295-.95.16-.285.347-.642.392-1.172a2.292 2.292 0 011.522 2.146zm-2.433-2.282c-.018.37-.136.593-.288.863-.183.325-.411.73-.411 1.395 0 .66.216 1.06.408 1.413.154.284.273.52.291.894-1.223-.061-2.202-1.056-2.202-2.282s.978-2.222 2.202-2.283z"/></mask><path d="M24.43 22.084c1.787 0 3.241-1.438 3.241-3.208 0-1.769-1.454-3.208-3.241-3.208-1.788 0-3.242 1.44-3.242 3.208 0 1.77 1.454 3.208 3.242 3.208zm2.317-3.208c0 .987-.636 1.823-1.52 2.146-.045-.525-.223-.881-.39-1.19-.167-.308-.299-.55-.299-.98 0-.428.13-.658.295-.95.16-.285.347-.642.392-1.172a2.292 2.292 0 011.522 2.146zm-2.433-2.282c-.018.37-.136.593-.288.863-.183.325-.411.73-.411 1.395 0 .66.216 1.06.408 1.413.154.284.273.52.291.894-1.223-.061-2.202-1.056-2.202-2.282s.978-2.222 2.202-2.283z" fill="url(#paint42_linear_99_239)"/><path d="M26.747 18.876v-1h-1v1h1zm-1.52 2.146l-.997.083.109 1.305 1.23-.449-.343-.94zm-.39-1.19l-.88.476.88-.477zm-.004-1.93l.87.491-.87-.49zm.392-1.172l.343-.94-1.227-.447-.112 1.301.996.086zm1.522 2.146v1h1v-1h-1zm-2.433-2.282l.998.047.05-1.047h-1.048v1zm-.288.863l.871.491-.87-.49zm-.003 2.808l-.88.476.88-.476zm.291.894l-.05.999 1.101.055-.052-1.101-.999.047zm-2.202-2.282h1-1zm2.202-2.283v-1h-.025l-.025.001.05 1zm.116 6.49c2.33 0 4.241-1.876 4.241-4.208h-2c0 1.207-.997 2.208-2.241 2.208v2zm4.241-4.208c0-2.331-1.912-4.208-4.241-4.208v2c1.244 0 2.241 1.001 2.241 2.208h2zm-4.241-4.208c-2.33 0-4.242 1.877-4.242 4.208h2c0-1.207.997-2.208 2.242-2.208v-2zm-4.242 4.208c0 2.332 1.912 4.208 4.242 4.208v-2c-1.245 0-2.242-1-2.242-2.208h-2zm5.56 0c0 .541-.35 1.018-.865 1.206l.686 1.88c1.254-.459 2.178-1.653 2.178-3.086h-2zm.475 2.063c-.061-.735-.32-1.239-.508-1.584l-1.758.953c.148.273.246.482.273.797l1.993-.166zm-.507-1.584a2.221 2.221 0 01-.148-.299.573.573 0 01-.03-.205h-2c0 .699.243 1.131.419 1.457l1.759-.953zm-.178-.504a.51.51 0 01.027-.187c.02-.055.05-.113.139-.27l-1.742-.983c-.18.317-.424.74-.424 1.44h2zm.166-.458c.183-.325.453-.832.518-1.577l-1.993-.172c-.027.315-.13.522-.268.767l1.743.982zm-.822-.723c.517.188.865.665.865 1.206h2c0-1.433-.923-2.627-2.179-3.085l-.686 1.879zm1.865.206v2-2zm-3.432-1.329a.51.51 0 01-.032.167c-.02.054-.051.116-.128.252l1.742.982c.17-.3.387-.694.415-1.307l-1.997-.094zm-.16.419c-.201.357-.54.95-.54 1.886h2c0-.212.035-.366.079-.49.048-.134.11-.248.203-.413l-1.742-.983zm-.54 1.886c0 .922.321 1.507.529 1.89l1.758-.954a2.87 2.87 0 01-.21-.44 1.472 1.472 0 01-.077-.496h-2zm.529 1.89c.078.143.113.214.136.278.018.05.031.103.035.186l1.998-.094c-.029-.613-.244-1.015-.411-1.324l-1.758.953zm1.22-.582c-.71-.035-1.252-.608-1.252-1.283h-2c0 1.777 1.415 3.194 3.152 3.281l.1-1.998zm-1.252-1.283c0-.676.543-1.249 1.251-1.284l-.1-1.998c-1.737.087-3.151 1.505-3.15 3.282h2zm1.202-1.283v-2 2z" fill="url(#paint43_linear_99_239)" mask="url(#o)"/><mask id="p" fill="#fff"><path d="M24.43 37.163c3.077 0 5.581-2.478 5.581-5.523 0-3.047-2.504-5.524-5.581-5.524-3.078 0-5.582 2.477-5.582 5.524 0 3.045 2.504 5.523 5.582 5.523zm0-10.133c2.568 0 4.657 2.068 4.657 4.61 0 2.541-2.09 4.61-4.657 4.61-2.569 0-4.658-2.069-4.658-4.61 0-2.542 2.09-4.61 4.658-4.61z"/></mask><path d="M24.43 37.163c3.077 0 5.581-2.478 5.581-5.523 0-3.047-2.504-5.524-5.581-5.524-3.078 0-5.582 2.477-5.582 5.524 0 3.045 2.504 5.523 5.582 5.523zm0-10.133c2.568 0 4.657 2.068 4.657 4.61 0 2.541-2.09 4.61-4.657 4.61-2.569 0-4.658-2.069-4.658-4.61 0-2.542 2.09-4.61 4.658-4.61z" fill="url(#paint44_linear_99_239)"/><path d="M24.43 38.163c3.62 0 6.581-2.916 6.581-6.523h-2c0 2.483-2.046 4.523-4.581 4.523v2zm6.581-6.523c0-3.609-2.961-6.524-6.581-6.524v2c2.535 0 4.581 2.04 4.581 4.524h2zm-6.581-6.524c-3.62 0-6.582 2.915-6.582 6.524h2c0-2.485 2.046-4.524 4.582-4.524v-2zm-6.582 6.524c0 3.607 2.961 6.523 6.582 6.523v-2c-2.536 0-4.582-2.04-4.582-4.523h-2zm6.582-3.61c2.026 0 3.657 1.63 3.657 3.61h2c0-3.105-2.547-5.61-5.657-5.61v2zm3.657 3.61c0 1.98-1.632 3.61-3.657 3.61v2c3.11 0 5.657-2.507 5.657-5.61h-2zm-3.657 3.61c-2.026 0-3.658-1.63-3.658-3.61h-2c0 3.103 2.547 5.61 5.658 5.61v-2zm-3.658-3.61c0-1.98 1.632-3.61 3.658-3.61v-2c-3.111 0-5.658 2.506-5.658 5.61h2z" fill="url(#paint45_linear_99_239)" mask="url(#p)"/><mask id="q" fill="#fff"><path d="M24.43 34.848c1.787 0 3.241-1.44 3.241-3.208 0-1.77-1.454-3.209-3.241-3.209-1.788 0-3.242 1.44-3.242 3.209 0 1.769 1.454 3.208 3.242 3.208zm0-.914a2.304 2.304 0 01-2.307-2.18c.373.018.6.134.872.285.329.181.737.407 1.41.407.667 0 1.07-.214 1.427-.403.288-.153.525-.271.904-.289a2.305 2.305 0 01-2.306 2.18zm0-4.589c.997 0 1.841.63 2.168 1.506-.53.043-.89.22-1.203.385-.31.165-.555.296-.99.296-.432 0-.665-.129-.96-.292-.288-.16-.649-.343-1.184-.389a2.315 2.315 0 012.169-1.506z"/></mask><path d="M24.43 34.848c1.787 0 3.241-1.44 3.241-3.208 0-1.77-1.454-3.209-3.241-3.209-1.788 0-3.242 1.44-3.242 3.209 0 1.769 1.454 3.208 3.242 3.208zm0-.914a2.304 2.304 0 01-2.307-2.18c.373.018.6.134.872.285.329.181.737.407 1.41.407.667 0 1.07-.214 1.427-.403.288-.153.525-.271.904-.289a2.305 2.305 0 01-2.306 2.18zm0-4.589c.997 0 1.841.63 2.168 1.506-.53.043-.89.22-1.203.385-.31.165-.555.296-.99.296-.432 0-.665-.129-.96-.292-.288-.16-.649-.343-1.184-.389a2.315 2.315 0 012.169-1.506z" fill="url(#paint46_linear_99_239)"/><path d="M24.43 33.934h1v-1h-1v1zm-2.307-2.18l.046-.998-1.1-.051.056 1.1.998-.05zm.872.285l-.484.875h.001l.483-.875zm2.837.004l-.469-.883.469.883zm.904-.289l.999.051.056-1.1-1.101.05.046 1zm-2.306 2.18h-1v1h1v-1zm2.168-3.083l.082.997 1.317-.108-.462-1.239-.937.35zm-1.203.385l-.468-.883.468.883zm-1.95.004l.486-.874-.002-.002-.483.876zm-1.184-.389l-.937-.35-.46 1.235 1.313.112.084-.997zm2.169 4.997c2.33 0 4.241-1.877 4.241-4.208h-2c0 1.207-.997 2.208-2.241 2.208v2zm4.241-4.208c0-2.331-1.911-4.209-4.241-4.209v2c1.244 0 2.241 1.001 2.241 2.209h2zm-4.241-4.21c-2.33 0-4.242 1.877-4.242 4.209h2c0-1.208.997-2.209 2.242-2.209v-2zm-4.242 4.209c0 2.331 1.912 4.208 4.242 4.208v-2c-1.245 0-2.242-1.001-2.242-2.208h-2zm4.242 1.294a1.305 1.305 0 01-1.308-1.23l-1.997.102a3.304 3.304 0 003.305 3.128v-2zm-2.353-.18a.552.552 0 01.177.032c.056.02.12.053.257.128l.969-1.75c-.304-.168-.698-.38-1.31-.408l-.093 1.998zm.435.16c.36.2.956.532 1.892.532v-2c-.217 0-.376-.035-.504-.08a2.677 2.677 0 01-.422-.202l-.966 1.75zm1.892.532c.925 0 1.511-.315 1.898-.52l-.94-1.766c-.182.097-.305.16-.447.208-.13.044-.29.078-.51.078v2zm1.897-.52a2.09 2.09 0 01.285-.136.637.637 0 01.197-.037l-.093-1.998c-.612.029-1.014.239-1.327.405l.938 1.766zm-.563-1.223a1.305 1.305 0 01-1.308 1.23v2a3.305 3.305 0 003.305-3.128l-1.997-.102zm-.308 2.23h-2 2zm-1-3.588c.563 0 1.044.356 1.231.856l1.874-.7a3.315 3.315 0 00-3.105-2.156v2zm2.087-.49c-.737.06-1.242.313-1.59.498l.937 1.767c.276-.146.49-.246.816-.272l-.163-1.994zm-1.59.498a2.272 2.272 0 01-.306.147.62.62 0 01-.217.032v2c.698 0 1.13-.238 1.46-.412l-.937-1.767zm-.523.179a.552.552 0 01-.198-.028 1.912 1.912 0 01-.275-.139l-.97 1.75c.322.178.744.417 1.443.417v-2zm-.475-.168c-.329-.181-.838-.446-1.584-.51l-.168 1.994c.324.027.538.13.785.267l.967-1.75zm-.731.837c.186-.5.668-.856 1.232-.856v-2c-1.43 0-2.639.905-3.106 2.157l1.874.699z" fill="url(#paint47_linear_99_239)" mask="url(#q)"/><path d="M34.197 21.175l.47 3.386-.838.012.368-3.398zm.36-4.023l-.369 3.399-.47-3.386.838-.013z" fill="url(#paint48_linear_99_239)" stroke="url(#paint49_linear_99_239)"/><defs><linearGradient id="paint0_linear_99_239" x1="-15.255" y1="29.162" x2="17.919" y2="46.312" gradientUnits="userSpaceOnUse"><stop stop-color="#AF7912"/><stop offset=".019" stop-color="#AD7712"/><stop offset=".183" stop-color="#A26914"/><stop offset=".324" stop-color="#9E6414"/><stop offset=".389" stop-color="#A36C19"/><stop offset=".489" stop-color="#B28126"/><stop offset=".609" stop-color="#C9A33B"/><stop offset=".707" stop-color="#E0C44F"/><stop offset=".8" stop-color="#DEC14D"/><stop offset=".866" stop-color="#D8B847"/><stop offset=".924" stop-color="#CEA83C"/><stop offset=".977" stop-color="#BF922D"/><stop offset="1" stop-color="#B78624"/></linearGradient><linearGradient id="paint1_linear_99_239" x1="-15.255" y1="29.162" x2="17.919" y2="46.312" gradientUnits="userSpaceOnUse"><stop stop-color="#AF7912"/><stop offset=".019" stop-color="#AD7712"/><stop offset=".183" stop-color="#A26914"/><stop offset=".324" stop-color="#9E6414"/><stop offset=".389" stop-color="#A36C19"/><stop offset=".489" stop-color="#B28126"/><stop offset=".609" stop-color="#C9A33B"/><stop offset=".707" stop-color="#E0C44F"/><stop offset=".8" stop-color="#DEC14D"/><stop offset=".866" stop-color="#D8B847"/><stop offset=".924" stop-color="#CEA83C"/><stop offset=".977" stop-color="#BF922D"/><stop offset="1" stop-color="#B78624"/></linearGradient><linearGradient id="paint2_linear_99_239" x1="-24.507" y1="9.715" x2="21.961" y2="34.862" gradientUnits="userSpaceOnUse"><stop stop-color="#AF7912"/><stop offset=".019" stop-color="#AD7712"/><stop offset=".183" stop-color="#A26914"/><stop offset=".324" stop-color="#9E6414"/><stop offset=".389" stop-color="#A36C19"/><stop offset=".489" stop-color="#B28126"/><stop offset=".609" stop-color="#C9A33B"/><stop offset=".707" stop-color="#E0C44F"/><stop offset=".8" stop-color="#DEC14D"/><stop offset=".866" stop-color="#D8B847"/><stop offset=".924" stop-color="#CEA83C"/><stop offset=".977" stop-color="#BF922D"/><stop offset="1" stop-color="#B78624"/></linearGradient><linearGradient id="paint3_linear_99_239" x1="-24.507" y1="9.715" x2="21.961" y2="34.862" gradientUnits="userSpaceOnUse"><stop stop-color="#AF7912"/><stop offset=".019" stop-color="#AD7712"/><stop offset=".183" stop-color="#A26914"/><stop offset=".324" stop-color="#9E6414"/><stop offset=".389" stop-color="#A36C19"/><stop offset=".489" stop-color="#B28126"/><stop offset=".609" stop-color="#C9A33B"/><stop offset=".707" stop-color="#E0C44F"/><stop offset=".8" stop-color="#DEC14D"/><stop offset=".866" stop-color="#D8B847"/><stop offset=".924" stop-color="#CEA83C"/><stop offset=".977" stop-color="#BF922D"/><stop offset="1" stop-color="#B78624"/></linearGradient><linearGradient id="paint4_linear_99_239" x1=".624" y1="5.704" x2="3.687" y2="6.38" gradientUnits="userSpaceOnUse"><stop stop-color="#AF7912"/><stop offset=".019" stop-color="#AD7712"/><stop offset=".183" stop-color="#A26914"/><stop offset=".324" stop-color="#9E6414"/><stop offset=".389" stop-color="#A36C19"/><stop offset=".489" stop-color="#B28126"/><stop offset=".609" stop-color="#C9A33B"/><stop offset=".707" stop-color="#E0C44F"/><stop offset=".8" stop-color="#DEC14D"/><stop offset=".866" stop-color="#D8B847"/><stop offset=".924" stop-color="#CEA83C"/><stop offset=".977" stop-color="#BF922D"/><stop offset="1" stop-color="#B78624"/></linearGradient><linearGradient id="paint5_linear_99_239" x1=".624" y1="5.704" x2="3.687" y2="6.38" gradientUnits="userSpaceOnUse"><stop stop-color="#AF7912"/><stop offset=".019" stop-color="#AD7712"/><stop offset=".183" stop-color="#A26914"/><stop offset=".324" stop-color="#9E6414"/><stop offset=".389" stop-color="#A36C19"/><stop offset=".489" stop-color="#B28126"/><stop offset=".609" stop-color="#C9A33B"/><stop offset=".707" stop-color="#E0C44F"/><stop offset=".8" stop-color="#DEC14D"/><stop offset=".866" stop-color="#D8B847"/><stop offset=".924" stop-color="#CEA83C"/><stop offset=".977" stop-color="#BF922D"/><stop offset="1" stop-color="#B78624"/></linearGradient><linearGradient id="paint6_linear_99_239" x1="13.477" y1="9.114" x2="16.541" y2="9.79" gradientUnits="userSpaceOnUse"><stop stop-color="#AF7912"/><stop offset=".019" stop-color="#AD7712"/><stop offset=".183" stop-color="#A26914"/><stop offset=".324" stop-color="#9E6414"/><stop offset=".389" stop-color="#A36C19"/><stop offset=".489" stop-color="#B28126"/><stop offset=".609" stop-color="#C9A33B"/><stop offset=".707" stop-color="#E0C44F"/><stop offset=".8" stop-color="#DEC14D"/><stop offset=".866" stop-color="#D8B847"/><stop offset=".924" stop-color="#CEA83C"/><stop offset=".977" stop-color="#BF922D"/><stop offset="1" stop-color="#B78624"/></linearGradient><linearGradient id="paint7_linear_99_239" x1="13.477" y1="9.114" x2="16.541" y2="9.79" gradientUnits="userSpaceOnUse"><stop stop-color="#AF7912"/><stop offset=".019" stop-color="#AD7712"/><stop offset=".183" stop-color="#A26914"/><stop offset=".324" stop-color="#9E6414"/><stop offset=".389" stop-color="#A36C19"/><stop offset=".489" stop-color="#B28126"/><stop offset=".609" stop-color="#C9A33B"/><stop offset=".707" stop-color="#E0C44F"/><stop offset=".8" stop-color="#DEC14D"/><stop offset=".866" stop-color="#D8B847"/><stop offset=".924" stop-color="#CEA83C"/><stop offset=".977" stop-color="#BF922D"/><stop offset="1" stop-color="#B78624"/></linearGradient><linearGradient id="paint8_linear_99_239" x1="6.165" y1="2.575" x2="9.018" y2="6.362" gradientUnits="userSpaceOnUse"><stop stop-color="#AF7912"/><stop offset=".019" stop-color="#AD7712"/><stop offset=".183" stop-color="#A26914"/><stop offset=".324" stop-color="#9E6414"/><stop offset=".389" stop-color="#A36C19"/><stop offset=".489" stop-color="#B28126"/><stop offset=".609" stop-color="#C9A33B"/><stop offset=".707" stop-color="#E0C44F"/><stop offset=".8" stop-color="#DEC14D"/><stop offset=".866" stop-color="#D8B847"/><stop offset=".924" stop-color="#CEA83C"/><stop offset=".977" stop-color="#BF922D"/><stop offset="1" stop-color="#B78624"/></linearGradient><linearGradient id="paint9_linear_99_239" x1="6.165" y1="2.575" x2="9.018" y2="6.362" gradientUnits="userSpaceOnUse"><stop stop-color="#AF7912"/><stop offset=".019" stop-color="#AD7712"/><stop offset=".183" stop-color="#A26914"/><stop offset=".324" stop-color="#9E6414"/><stop offset=".389" stop-color="#A36C19"/><stop offset=".489" stop-color="#B28126"/><stop offset=".609" stop-color="#C9A33B"/><stop offset=".707" stop-color="#E0C44F"/><stop offset=".8" stop-color="#DEC14D"/><stop offset=".866" stop-color="#D8B847"/><stop offset=".924" stop-color="#CEA83C"/><stop offset=".977" stop-color="#BF922D"/><stop offset="1" stop-color="#B78624"/></linearGradient><linearGradient id="paint10_linear_99_239" x1="1.479" y1="15.143" x2="6.517" y2="17.87" gradientUnits="userSpaceOnUse"><stop stop-color="#AF7912"/><stop offset=".019" stop-color="#AD7712"/><stop offset=".183" stop-color="#A26914"/><stop offset=".324" stop-color="#9E6414"/><stop offset=".389" stop-color="#A36C19"/><stop offset=".489" stop-color="#B28126"/><stop offset=".609" stop-color="#C9A33B"/><stop offset=".707" stop-color="#E0C44F"/><stop offset=".8" stop-color="#DEC14D"/><stop offset=".866" stop-color="#D8B847"/><stop offset=".924" stop-color="#CEA83C"/><stop offset=".977" stop-color="#BF922D"/><stop offset="1" stop-color="#B78624"/></linearGradient><linearGradient id="paint11_linear_99_239" x1="1.479" y1="15.143" x2="6.517" y2="17.87" gradientUnits="userSpaceOnUse"><stop stop-color="#AF7912"/><stop offset=".019" stop-color="#AD7712"/><stop offset=".183" stop-color="#A26914"/><stop offset=".324" stop-color="#9E6414"/><stop offset=".389" stop-color="#A36C19"/><stop offset=".489" stop-color="#B28126"/><stop offset=".609" stop-color="#C9A33B"/><stop offset=".707" stop-color="#E0C44F"/><stop offset=".8" stop-color="#DEC14D"/><stop offset=".866" stop-color="#D8B847"/><stop offset=".924" stop-color="#CEA83C"/><stop offset=".977" stop-color="#BF922D"/><stop offset="1" stop-color="#B78624"/></linearGradient><linearGradient id="paint12_linear_99_239" x1="-15.582" y1="10.166" x2="17.88" y2="28.948" gradientUnits="userSpaceOnUse"><stop stop-color="#AF7912"/><stop offset=".019" stop-color="#AD7712"/><stop offset=".183" stop-color="#A26914"/><stop offset=".324" stop-color="#9E6414"/><stop offset=".389" stop-color="#A36C19"/><stop offset=".489" stop-color="#B28126"/><stop offset=".609" stop-color="#C9A33B"/><stop offset=".707" stop-color="#E0C44F"/><stop offset=".8" stop-color="#DEC14D"/><stop offset=".866" stop-color="#D8B847"/><stop offset=".924" stop-color="#CEA83C"/><stop offset=".977" stop-color="#BF922D"/><stop offset="1" stop-color="#B78624"/></linearGradient><linearGradient id="paint13_linear_99_239" x1="-15.582" y1="10.166" x2="17.88" y2="28.948" gradientUnits="userSpaceOnUse"><stop stop-color="#AF7912"/><stop offset=".019" stop-color="#AD7712"/><stop offset=".183" stop-color="#A26914"/><stop offset=".324" stop-color="#9E6414"/><stop offset=".389" stop-color="#A36C19"/><stop offset=".489" stop-color="#B28126"/><stop offset=".609" stop-color="#C9A33B"/><stop offset=".707" stop-color="#E0C44F"/><stop offset=".8" stop-color="#DEC14D"/><stop offset=".866" stop-color="#D8B847"/><stop offset=".924" stop-color="#CEA83C"/><stop offset=".977" stop-color="#BF922D"/><stop offset="1" stop-color="#B78624"/></linearGradient><linearGradient id="paint14_linear_99_239" x1="1.006" y1="3.296" x2="6.043" y2="6.02" gradientUnits="userSpaceOnUse"><stop stop-color="#AF7912"/><stop offset=".019" stop-color="#AD7712"/><stop offset=".183" stop-color="#A26914"/><stop offset=".324" stop-color="#9E6414"/><stop offset=".389" stop-color="#A36C19"/><stop offset=".489" stop-color="#B28126"/><stop offset=".609" stop-color="#C9A33B"/><stop offset=".707" stop-color="#E0C44F"/><stop offset=".8" stop-color="#DEC14D"/><stop offset=".866" stop-color="#D8B847"/><stop offset=".924" stop-color="#CEA83C"/><stop offset=".977" stop-color="#BF922D"/><stop offset="1" stop-color="#B78624"/></linearGradient><linearGradient id="paint15_linear_99_239" x1="1.006" y1="3.296" x2="6.043" y2="6.02" gradientUnits="userSpaceOnUse"><stop stop-color="#AF7912"/><stop offset=".019" stop-color="#AD7712"/><stop offset=".183" stop-color="#A26914"/><stop offset=".324" stop-color="#9E6414"/><stop offset=".389" stop-color="#A36C19"/><stop offset=".489" stop-color="#B28126"/><stop offset=".609" stop-color="#C9A33B"/><stop offset=".707" stop-color="#E0C44F"/><stop offset=".8" stop-color="#DEC14D"/><stop offset=".866" stop-color="#D8B847"/><stop offset=".924" stop-color="#CEA83C"/><stop offset=".977" stop-color="#BF922D"/><stop offset="1" stop-color="#B78624"/></linearGradient><linearGradient id="paint16_linear_99_239" x1="9.583" y1="15.139" x2="14.621" y2="17.866" gradientUnits="userSpaceOnUse"><stop stop-color="#AF7912"/><stop offset=".019" stop-color="#AD7712"/><stop offset=".183" stop-color="#A26914"/><stop offset=".324" stop-color="#9E6414"/><stop offset=".389" stop-color="#A36C19"/><stop offset=".489" stop-color="#B28126"/><stop offset=".609" stop-color="#C9A33B"/><stop offset=".707" stop-color="#E0C44F"/><stop offset=".8" stop-color="#DEC14D"/><stop offset=".866" stop-color="#D8B847"/><stop offset=".924" stop-color="#CEA83C"/><stop offset=".977" stop-color="#BF922D"/><stop offset="1" stop-color="#B78624"/></linearGradient><linearGradient id="paint17_linear_99_239" x1="9.583" y1="15.139" x2="14.621" y2="17.866" gradientUnits="userSpaceOnUse"><stop stop-color="#AF7912"/><stop offset=".019" stop-color="#AD7712"/><stop offset=".183" stop-color="#A26914"/><stop offset=".324" stop-color="#9E6414"/><stop offset=".389" stop-color="#A36C19"/><stop offset=".489" stop-color="#B28126"/><stop offset=".609" stop-color="#C9A33B"/><stop offset=".707" stop-color="#E0C44F"/><stop offset=".8" stop-color="#DEC14D"/><stop offset=".866" stop-color="#D8B847"/><stop offset=".924" stop-color="#CEA83C"/><stop offset=".977" stop-color="#BF922D"/><stop offset="1" stop-color="#B78624"/></linearGradient><linearGradient id="paint18_linear_99_239" x1="10.058" y1="3.765" x2="15.095" y2="6.492" gradientUnits="userSpaceOnUse"><stop stop-color="#AF7912"/><stop offset=".019" stop-color="#AD7712"/><stop offset=".183" stop-color="#A26914"/><stop offset=".324" stop-color="#9E6414"/><stop offset=".389" stop-color="#A36C19"/><stop offset=".489" stop-color="#B28126"/><stop offset=".609" stop-color="#C9A33B"/><stop offset=".707" stop-color="#E0C44F"/><stop offset=".8" stop-color="#DEC14D"/><stop offset=".866" stop-color="#D8B847"/><stop offset=".924" stop-color="#CEA83C"/><stop offset=".977" stop-color="#BF922D"/><stop offset="1" stop-color="#B78624"/></linearGradient><linearGradient id="paint19_linear_99_239" x1="10.058" y1="3.765" x2="15.095" y2="6.492" gradientUnits="userSpaceOnUse"><stop stop-color="#AF7912"/><stop offset=".019" stop-color="#AD7712"/><stop offset=".183" stop-color="#A26914"/><stop offset=".324" stop-color="#9E6414"/><stop offset=".389" stop-color="#A36C19"/><stop offset=".489" stop-color="#B28126"/><stop offset=".609" stop-color="#C9A33B"/><stop offset=".707" stop-color="#E0C44F"/><stop offset=".8" stop-color="#DEC14D"/><stop offset=".866" stop-color="#D8B847"/><stop offset=".924" stop-color="#CEA83C"/><stop offset=".977" stop-color="#BF922D"/><stop offset="1" stop-color="#B78624"/></linearGradient><linearGradient id="paint20_linear_99_239" x1="-24.507" y1="29.305" x2="21.961" y2="54.452" gradientUnits="userSpaceOnUse"><stop stop-color="#AF7912"/><stop offset=".019" stop-color="#AD7712"/><stop offset=".183" stop-color="#A26914"/><stop offset=".324" stop-color="#9E6414"/><stop offset=".389" stop-color="#A36C19"/><stop offset=".489" stop-color="#B28126"/><stop offset=".609" stop-color="#C9A33B"/><stop offset=".707" stop-color="#E0C44F"/><stop offset=".8" stop-color="#DEC14D"/><stop offset=".866" stop-color="#D8B847"/><stop offset=".924" stop-color="#CEA83C"/><stop offset=".977" stop-color="#BF922D"/><stop offset="1" stop-color="#B78624"/></linearGradient><linearGradient id="paint21_linear_99_239" x1="-24.507" y1="29.305" x2="21.961" y2="54.452" gradientUnits="userSpaceOnUse"><stop stop-color="#AF7912"/><stop offset=".019" stop-color="#AD7712"/><stop offset=".183" stop-color="#A26914"/><stop offset=".324" stop-color="#9E6414"/><stop offset=".389" stop-color="#A36C19"/><stop offset=".489" stop-color="#B28126"/><stop offset=".609" stop-color="#C9A33B"/><stop offset=".707" stop-color="#E0C44F"/><stop offset=".8" stop-color="#DEC14D"/><stop offset=".866" stop-color="#D8B847"/><stop offset=".924" stop-color="#CEA83C"/><stop offset=".977" stop-color="#BF922D"/><stop offset="1" stop-color="#B78624"/></linearGradient><linearGradient id="paint22_linear_99_239" x1="7.789" y1="22.417" x2="10.643" y2="26.204" gradientUnits="userSpaceOnUse"><stop stop-color="#AF7912"/><stop offset=".019" stop-color="#AD7712"/><stop offset=".183" stop-color="#A26914"/><stop offset=".324" stop-color="#9E6414"/><stop offset=".389" stop-color="#A36C19"/><stop offset=".489" stop-color="#B28126"/><stop offset=".609" stop-color="#C9A33B"/><stop offset=".707" stop-color="#E0C44F"/><stop offset=".8" stop-color="#DEC14D"/><stop offset=".866" stop-color="#D8B847"/><stop offset=".924" stop-color="#CEA83C"/><stop offset=".977" stop-color="#BF922D"/><stop offset="1" stop-color="#B78624"/></linearGradient><linearGradient id="paint23_linear_99_239" x1="7.789" y1="22.417" x2="10.643" y2="26.204" gradientUnits="userSpaceOnUse"><stop stop-color="#AF7912"/><stop offset=".019" stop-color="#AD7712"/><stop offset=".183" stop-color="#A26914"/><stop offset=".324" stop-color="#9E6414"/><stop offset=".389" stop-color="#A36C19"/><stop offset=".489" stop-color="#B28126"/><stop offset=".609" stop-color="#C9A33B"/><stop offset=".707" stop-color="#E0C44F"/><stop offset=".8" stop-color="#DEC14D"/><stop offset=".866" stop-color="#D8B847"/><stop offset=".924" stop-color="#CEA83C"/><stop offset=".977" stop-color="#BF922D"/><stop offset="1" stop-color="#B78624"/></linearGradient><linearGradient id="paint24_linear_99_239" x1="4.345" y1="35.136" x2="7.199" y2="38.923" gradientUnits="userSpaceOnUse"><stop stop-color="#AF7912"/><stop offset=".019" stop-color="#AD7712"/><stop offset=".183" stop-color="#A26914"/><stop offset=".324" stop-color="#9E6414"/><stop offset=".389" stop-color="#A36C19"/><stop offset=".489" stop-color="#B28126"/><stop offset=".609" stop-color="#C9A33B"/><stop offset=".707" stop-color="#E0C44F"/><stop offset=".8" stop-color="#DEC14D"/><stop offset=".866" stop-color="#D8B847"/><stop offset=".924" stop-color="#CEA83C"/><stop offset=".977" stop-color="#BF922D"/><stop offset="1" stop-color="#B78624"/></linearGradient><linearGradient id="paint25_linear_99_239" x1="4.345" y1="35.136" x2="7.199" y2="38.923" gradientUnits="userSpaceOnUse"><stop stop-color="#AF7912"/><stop offset=".019" stop-color="#AD7712"/><stop offset=".183" stop-color="#A26914"/><stop offset=".324" stop-color="#9E6414"/><stop offset=".389" stop-color="#A36C19"/><stop offset=".489" stop-color="#B28126"/><stop offset=".609" stop-color="#C9A33B"/><stop offset=".707" stop-color="#E0C44F"/><stop offset=".8" stop-color="#DEC14D"/><stop offset=".866" stop-color="#D8B847"/><stop offset=".924" stop-color="#CEA83C"/><stop offset=".977" stop-color="#BF922D"/><stop offset="1" stop-color="#B78624"/></linearGradient><linearGradient id="paint26_linear_99_239" x1="13.477" y1="30.505" x2="16.541" y2="31.181" gradientUnits="userSpaceOnUse"><stop stop-color="#AF7912"/><stop offset=".019" stop-color="#AD7712"/><stop offset=".183" stop-color="#A26914"/><stop offset=".324" stop-color="#9E6414"/><stop offset=".389" stop-color="#A36C19"/><stop offset=".489" stop-color="#B28126"/><stop offset=".609" stop-color="#C9A33B"/><stop offset=".707" stop-color="#E0C44F"/><stop offset=".8" stop-color="#DEC14D"/><stop offset=".866" stop-color="#D8B847"/><stop offset=".924" stop-color="#CEA83C"/><stop offset=".977" stop-color="#BF922D"/><stop offset="1" stop-color="#B78624"/></linearGradient><linearGradient id="paint27_linear_99_239" x1="13.477" y1="30.505" x2="16.541" y2="31.181" gradientUnits="userSpaceOnUse"><stop stop-color="#AF7912"/><stop offset=".019" stop-color="#AD7712"/><stop offset=".183" stop-color="#A26914"/><stop offset=".324" stop-color="#9E6414"/><stop offset=".389" stop-color="#A36C19"/><stop offset=".489" stop-color="#B28126"/><stop offset=".609" stop-color="#C9A33B"/><stop offset=".707" stop-color="#E0C44F"/><stop offset=".8" stop-color="#DEC14D"/><stop offset=".866" stop-color="#D8B847"/><stop offset=".924" stop-color="#CEA83C"/><stop offset=".977" stop-color="#BF922D"/><stop offset="1" stop-color="#B78624"/></linearGradient><linearGradient id="paint28_linear_99_239" x1="-1.005" y1="25.105" x2="4.033" y2="27.832" gradientUnits="userSpaceOnUse"><stop stop-color="#AF7912"/><stop offset=".019" stop-color="#AD7712"/><stop offset=".183" stop-color="#A26914"/><stop offset=".324" stop-color="#9E6414"/><stop offset=".389" stop-color="#A36C19"/><stop offset=".489" stop-color="#B28126"/><stop offset=".609" stop-color="#C9A33B"/><stop offset=".707" stop-color="#E0C44F"/><stop offset=".8" stop-color="#DEC14D"/><stop offset=".866" stop-color="#D8B847"/><stop offset=".924" stop-color="#CEA83C"/><stop offset=".977" stop-color="#BF922D"/><stop offset="1" stop-color="#B78624"/></linearGradient><linearGradient id="paint29_linear_99_239" x1="-1.005" y1="25.105" x2="4.033" y2="27.832" gradientUnits="userSpaceOnUse"><stop stop-color="#AF7912"/><stop offset=".019" stop-color="#AD7712"/><stop offset=".183" stop-color="#A26914"/><stop offset=".324" stop-color="#9E6414"/><stop offset=".389" stop-color="#A36C19"/><stop offset=".489" stop-color="#B28126"/><stop offset=".609" stop-color="#C9A33B"/><stop offset=".707" stop-color="#E0C44F"/><stop offset=".8" stop-color="#DEC14D"/><stop offset=".866" stop-color="#D8B847"/><stop offset=".924" stop-color="#CEA83C"/><stop offset=".977" stop-color="#BF922D"/><stop offset="1" stop-color="#B78624"/></linearGradient><linearGradient id="paint30_linear_99_239" x1="10.963" y1="24.636" x2="16.001" y2="27.362" gradientUnits="userSpaceOnUse"><stop stop-color="#AF7912"/><stop offset=".019" stop-color="#AD7712"/><stop offset=".183" stop-color="#A26914"/><stop offset=".324" stop-color="#9E6414"/><stop offset=".389" stop-color="#A36C19"/><stop offset=".489" stop-color="#B28126"/><stop offset=".609" stop-color="#C9A33B"/><stop offset=".707" stop-color="#E0C44F"/><stop offset=".8" stop-color="#DEC14D"/><stop offset=".866" stop-color="#D8B847"/><stop offset=".924" stop-color="#CEA83C"/><stop offset=".977" stop-color="#BF922D"/><stop offset="1" stop-color="#B78624"/></linearGradient><linearGradient id="paint31_linear_99_239" x1="10.963" y1="24.636" x2="16.001" y2="27.362" gradientUnits="userSpaceOnUse"><stop stop-color="#AF7912"/><stop offset=".019" stop-color="#AD7712"/><stop offset=".183" stop-color="#A26914"/><stop offset=".324" stop-color="#9E6414"/><stop offset=".389" stop-color="#A36C19"/><stop offset=".489" stop-color="#B28126"/><stop offset=".609" stop-color="#C9A33B"/><stop offset=".707" stop-color="#E0C44F"/><stop offset=".8" stop-color="#DEC14D"/><stop offset=".866" stop-color="#D8B847"/><stop offset=".924" stop-color="#CEA83C"/><stop offset=".977" stop-color="#BF922D"/><stop offset="1" stop-color="#B78624"/></linearGradient><linearGradient id="paint32_linear_99_239" x1="-1.002" y1="33.125" x2="4.036" y2="35.852" gradientUnits="userSpaceOnUse"><stop stop-color="#AF7912"/><stop offset=".019" stop-color="#AD7712"/><stop offset=".183" stop-color="#A26914"/><stop offset=".324" stop-color="#9E6414"/><stop offset=".389" stop-color="#A36C19"/><stop offset=".489" stop-color="#B28126"/><stop offset=".609" stop-color="#C9A33B"/><stop offset=".707" stop-color="#E0C44F"/><stop offset=".8" stop-color="#DEC14D"/><stop offset=".866" stop-color="#D8B847"/><stop offset=".924" stop-color="#CEA83C"/><stop offset=".977" stop-color="#BF922D"/><stop offset="1" stop-color="#B78624"/></linearGradient><linearGradient id="paint33_linear_99_239" x1="-1.002" y1="33.125" x2="4.036" y2="35.852" gradientUnits="userSpaceOnUse"><stop stop-color="#AF7912"/><stop offset=".019" stop-color="#AD7712"/><stop offset=".183" stop-color="#A26914"/><stop offset=".324" stop-color="#9E6414"/><stop offset=".389" stop-color="#A36C19"/><stop offset=".489" stop-color="#B28126"/><stop offset=".609" stop-color="#C9A33B"/><stop offset=".707" stop-color="#E0C44F"/><stop offset=".8" stop-color="#DEC14D"/><stop offset=".866" stop-color="#D8B847"/><stop offset=".924" stop-color="#CEA83C"/><stop offset=".977" stop-color="#BF922D"/><stop offset="1" stop-color="#B78624"/></linearGradient><linearGradient id="paint34_linear_99_239" x1="10.487" y1="33.595" x2="15.525" y2="36.322" gradientUnits="userSpaceOnUse"><stop stop-color="#AF7912"/><stop offset=".019" stop-color="#AD7712"/><stop offset=".183" stop-color="#A26914"/><stop offset=".324" stop-color="#9E6414"/><stop offset=".389" stop-color="#A36C19"/><stop offset=".489" stop-color="#B28126"/><stop offset=".609" stop-color="#C9A33B"/><stop offset=".707" stop-color="#E0C44F"/><stop offset=".8" stop-color="#DEC14D"/><stop offset=".866" stop-color="#D8B847"/><stop offset=".924" stop-color="#CEA83C"/><stop offset=".977" stop-color="#BF922D"/><stop offset="1" stop-color="#B78624"/></linearGradient><linearGradient id="paint35_linear_99_239" x1="10.487" y1="33.595" x2="15.525" y2="36.322" gradientUnits="userSpaceOnUse"><stop stop-color="#AF7912"/><stop offset=".019" stop-color="#AD7712"/><stop offset=".183" stop-color="#A26914"/><stop offset=".324" stop-color="#9E6414"/><stop offset=".389" stop-color="#A36C19"/><stop offset=".489" stop-color="#B28126"/><stop offset=".609" stop-color="#C9A33B"/><stop offset=".707" stop-color="#E0C44F"/><stop offset=".8" stop-color="#DEC14D"/><stop offset=".866" stop-color="#D8B847"/><stop offset=".924" stop-color="#CEA83C"/><stop offset=".977" stop-color="#BF922D"/><stop offset="1" stop-color="#B78624"/></linearGradient><linearGradient id="paint36_linear_99_239" x1="2.974" y1="6.559" x2="32.997" y2="22.806" gradientUnits="userSpaceOnUse"><stop stop-color="#AF7912"/><stop offset=".019" stop-color="#AD7712"/><stop offset=".183" stop-color="#A26914"/><stop offset=".324" stop-color="#9E6414"/><stop offset=".389" stop-color="#A36C19"/><stop offset=".489" stop-color="#B28126"/><stop offset=".609" stop-color="#C9A33B"/><stop offset=".707" stop-color="#E0C44F"/><stop offset=".8" stop-color="#DEC14D"/><stop offset=".866" stop-color="#D8B847"/><stop offset=".924" stop-color="#CEA83C"/><stop offset=".977" stop-color="#BF922D"/><stop offset="1" stop-color="#B78624"/></linearGradient><linearGradient id="paint37_linear_99_239" x1="2.974" y1="6.559" x2="32.997" y2="22.806" gradientUnits="userSpaceOnUse"><stop stop-color="#AF7912"/><stop offset=".019" stop-color="#AD7712"/><stop offset=".183" stop-color="#A26914"/><stop offset=".324" stop-color="#9E6414"/><stop offset=".389" stop-color="#A36C19"/><stop offset=".489" stop-color="#B28126"/><stop offset=".609" stop-color="#C9A33B"/><stop offset=".707" stop-color="#E0C44F"/><stop offset=".8" stop-color="#DEC14D"/><stop offset=".866" stop-color="#D8B847"/><stop offset=".924" stop-color="#CEA83C"/><stop offset=".977" stop-color="#BF922D"/><stop offset="1" stop-color="#B78624"/></linearGradient><linearGradient id="paint38_linear_99_239" x1="11.969" y1="6.372" x2="29.406" y2="15.808" gradientUnits="userSpaceOnUse"><stop stop-color="#AF7912"/><stop offset=".019" stop-color="#AD7712"/><stop offset=".183" stop-color="#A26914"/><stop offset=".324" stop-color="#9E6414"/><stop offset=".389" stop-color="#A36C19"/><stop offset=".489" stop-color="#B28126"/><stop offset=".609" stop-color="#C9A33B"/><stop offset=".707" stop-color="#E0C44F"/><stop offset=".8" stop-color="#DEC14D"/><stop offset=".866" stop-color="#D8B847"/><stop offset=".924" stop-color="#CEA83C"/><stop offset=".977" stop-color="#BF922D"/><stop offset="1" stop-color="#B78624"/></linearGradient><linearGradient id="paint39_linear_99_239" x1="11.969" y1="6.372" x2="29.406" y2="15.808" gradientUnits="userSpaceOnUse"><stop stop-color="#AF7912"/><stop offset=".019" stop-color="#AD7712"/><stop offset=".183" stop-color="#A26914"/><stop offset=".324" stop-color="#9E6414"/><stop offset=".389" stop-color="#A36C19"/><stop offset=".489" stop-color="#B28126"/><stop offset=".609" stop-color="#C9A33B"/><stop offset=".707" stop-color="#E0C44F"/><stop offset=".8" stop-color="#DEC14D"/><stop offset=".866" stop-color="#D8B847"/><stop offset=".924" stop-color="#CEA83C"/><stop offset=".977" stop-color="#BF922D"/><stop offset="1" stop-color="#B78624"/></linearGradient><linearGradient id="paint40_linear_99_239" x1="2.974" y1="19.323" x2="32.997" y2="35.571" gradientUnits="userSpaceOnUse"><stop stop-color="#AF7912"/><stop offset=".019" stop-color="#AD7712"/><stop offset=".183" stop-color="#A26914"/><stop offset=".324" stop-color="#9E6414"/><stop offset=".389" stop-color="#A36C19"/><stop offset=".489" stop-color="#B28126"/><stop offset=".609" stop-color="#C9A33B"/><stop offset=".707" stop-color="#E0C44F"/><stop offset=".8" stop-color="#DEC14D"/><stop offset=".866" stop-color="#D8B847"/><stop offset=".924" stop-color="#CEA83C"/><stop offset=".977" stop-color="#BF922D"/><stop offset="1" stop-color="#B78624"/></linearGradient><linearGradient id="paint41_linear_99_239" x1="2.974" y1="19.323" x2="32.997" y2="35.571" gradientUnits="userSpaceOnUse"><stop stop-color="#AF7912"/><stop offset=".019" stop-color="#AD7712"/><stop offset=".183" stop-color="#A26914"/><stop offset=".324" stop-color="#9E6414"/><stop offset=".389" stop-color="#A36C19"/><stop offset=".489" stop-color="#B28126"/><stop offset=".609" stop-color="#C9A33B"/><stop offset=".707" stop-color="#E0C44F"/><stop offset=".8" stop-color="#DEC14D"/><stop offset=".866" stop-color="#D8B847"/><stop offset=".924" stop-color="#CEA83C"/><stop offset=".977" stop-color="#BF922D"/><stop offset="1" stop-color="#B78624"/></linearGradient><linearGradient id="paint42_linear_99_239" x1="11.969" y1="19.136" x2="29.405" y2="28.572" gradientUnits="userSpaceOnUse"><stop stop-color="#AF7912"/><stop offset=".019" stop-color="#AD7712"/><stop offset=".183" stop-color="#A26914"/><stop offset=".324" stop-color="#9E6414"/><stop offset=".389" stop-color="#A36C19"/><stop offset=".489" stop-color="#B28126"/><stop offset=".609" stop-color="#C9A33B"/><stop offset=".707" stop-color="#E0C44F"/><stop offset=".8" stop-color="#DEC14D"/><stop offset=".866" stop-color="#D8B847"/><stop offset=".924" stop-color="#CEA83C"/><stop offset=".977" stop-color="#BF922D"/><stop offset="1" stop-color="#B78624"/></linearGradient><linearGradient id="paint43_linear_99_239" x1="11.969" y1="19.136" x2="29.405" y2="28.572" gradientUnits="userSpaceOnUse"><stop stop-color="#AF7912"/><stop offset=".019" stop-color="#AD7712"/><stop offset=".183" stop-color="#A26914"/><stop offset=".324" stop-color="#9E6414"/><stop offset=".389" stop-color="#A36C19"/><stop offset=".489" stop-color="#B28126"/><stop offset=".609" stop-color="#C9A33B"/><stop offset=".707" stop-color="#E0C44F"/><stop offset=".8" stop-color="#DEC14D"/><stop offset=".866" stop-color="#D8B847"/><stop offset=".924" stop-color="#CEA83C"/><stop offset=".977" stop-color="#BF922D"/><stop offset="1" stop-color="#B78624"/></linearGradient><linearGradient id="paint44_linear_99_239" x1="2.974" y1="32.086" x2="32.997" y2="48.334" gradientUnits="userSpaceOnUse"><stop stop-color="#AF7912"/><stop offset=".019" stop-color="#AD7712"/><stop offset=".183" stop-color="#A26914"/><stop offset=".324" stop-color="#9E6414"/><stop offset=".389" stop-color="#A36C19"/><stop offset=".489" stop-color="#B28126"/><stop offset=".609" stop-color="#C9A33B"/><stop offset=".707" stop-color="#E0C44F"/><stop offset=".8" stop-color="#DEC14D"/><stop offset=".866" stop-color="#D8B847"/><stop offset=".924" stop-color="#CEA83C"/><stop offset=".977" stop-color="#BF922D"/><stop offset="1" stop-color="#B78624"/></linearGradient><linearGradient id="paint45_linear_99_239" x1="2.974" y1="32.086" x2="32.997" y2="48.334" gradientUnits="userSpaceOnUse"><stop stop-color="#AF7912"/><stop offset=".019" stop-color="#AD7712"/><stop offset=".183" stop-color="#A26914"/><stop offset=".324" stop-color="#9E6414"/><stop offset=".389" stop-color="#A36C19"/><stop offset=".489" stop-color="#B28126"/><stop offset=".609" stop-color="#C9A33B"/><stop offset=".707" stop-color="#E0C44F"/><stop offset=".8" stop-color="#DEC14D"/><stop offset=".866" stop-color="#D8B847"/><stop offset=".924" stop-color="#CEA83C"/><stop offset=".977" stop-color="#BF922D"/><stop offset="1" stop-color="#B78624"/></linearGradient><linearGradient id="paint46_linear_99_239" x1="11.969" y1="31.899" x2="29.406" y2="41.335" gradientUnits="userSpaceOnUse"><stop stop-color="#AF7912"/><stop offset=".019" stop-color="#AD7712"/><stop offset=".183" stop-color="#A26914"/><stop offset=".324" stop-color="#9E6414"/><stop offset=".389" stop-color="#A36C19"/><stop offset=".489" stop-color="#B28126"/><stop offset=".609" stop-color="#C9A33B"/><stop offset=".707" stop-color="#E0C44F"/><stop offset=".8" stop-color="#DEC14D"/><stop offset=".866" stop-color="#D8B847"/><stop offset=".924" stop-color="#CEA83C"/><stop offset=".977" stop-color="#BF922D"/><stop offset="1" stop-color="#B78624"/></linearGradient><linearGradient id="paint47_linear_99_239" x1="11.969" y1="31.899" x2="29.406" y2="41.335" gradientUnits="userSpaceOnUse"><stop stop-color="#AF7912"/><stop offset=".019" stop-color="#AD7712"/><stop offset=".183" stop-color="#A26914"/><stop offset=".324" stop-color="#9E6414"/><stop offset=".389" stop-color="#A36C19"/><stop offset=".489" stop-color="#B28126"/><stop offset=".609" stop-color="#C9A33B"/><stop offset=".707" stop-color="#E0C44F"/><stop offset=".8" stop-color="#DEC14D"/><stop offset=".866" stop-color="#D8B847"/><stop offset=".924" stop-color="#CEA83C"/><stop offset=".977" stop-color="#BF922D"/><stop offset="1" stop-color="#B78624"/></linearGradient><linearGradient id="paint48_linear_99_239" x1="22.744" y1="20.278" x2="42.711" y2="21.967" gradientUnits="userSpaceOnUse"><stop stop-color="#AF7912"/><stop offset=".019" stop-color="#AD7712"/><stop offset=".183" stop-color="#A26914"/><stop offset=".324" stop-color="#9E6414"/><stop offset=".389" stop-color="#A36C19"/><stop offset=".489" stop-color="#B28126"/><stop offset=".609" stop-color="#C9A33B"/><stop offset=".707" stop-color="#E0C44F"/><stop offset=".8" stop-color="#DEC14D"/><stop offset=".866" stop-color="#D8B847"/><stop offset=".924" stop-color="#CEA83C"/><stop offset=".977" stop-color="#BF922D"/><stop offset="1" stop-color="#B78624"/></linearGradient><linearGradient id="paint49_linear_99_239" x1="22.744" y1="20.278" x2="42.711" y2="21.967" gradientUnits="userSpaceOnUse"><stop stop-color="#AF7912"/><stop offset=".019" stop-color="#AD7712"/><stop offset=".183" stop-color="#A26914"/><stop offset=".324" stop-color="#9E6414"/><stop offset=".389" stop-color="#A36C19"/><stop offset=".489" stop-color="#B28126"/><stop offset=".609" stop-color="#C9A33B"/><stop offset=".707" stop-color="#E0C44F"/><stop offset=".8" stop-color="#DEC14D"/><stop offset=".866" stop-color="#D8B847"/><stop offset=".924" stop-color="#CEA83C"/><stop offset=".977" stop-color="#BF922D"/><stop offset="1" stop-color="#B78624"/></linearGradient></defs></svg>