<svg width="160" height="136" fill="none" xmlns="http://www.w3.org/2000/svg"><path d="M.002 94.44c1.404-.715 2.882-1.24 4.408-1.639.19-.049.308-.124.382-.316.12-.312.288-.608.427-.912.055-.12.132-.17.269-.167.468.007.938.007 1.406 0 .166-.002.204.047.156.2-.046.143-.058.293-.1.438-.049.169-.013.216.174.183a45.899 45.899 0 012.59-.394 60.93 60.93 0 015.146-.406 77.81 77.81 0 016.979.059c.487.023.971.073 1.456.091.168.007.233.066.276.218.163.584.211 1.18.177 1.78-.057 1.031-.259 2.026-.849 2.912-.446.673-.444.668-1.2.417a37.778 37.778 0 00-8.403-1.782 35.89 35.89 0 00-6.752 0c-.18.017-.219.092-.24.237a36.388 36.388 0 00-.463 5.076c-.003.157.014.216.206.171 3.549-.85 7.15-.966 10.776-.729.36.023.72.056 1.08.08.14.01.238.042.262.199.27 1.679.201 3.32-.593 4.872-.247.483-.264.474-.775.246-2.867-1.285-5.867-1.976-9.032-1.922-.53.009-1.063.065-1.593.086-.197.008-.235.092-.221.265.115 1.468.324 2.924.624 4.366.355 1.709.825 3.39 1.418 5.034.062.171.034.265-.106.38-.842.687-1.833.994-2.9 1.109-.747.079-1.493.077-2.232-.09-.264-.06-.367-.152-.389-.445-.178-2.588-.245-5.177-.144-7.768a75.77 75.77 0 01.106-1.953c.012-.187-.034-.225-.216-.161-.348.119-.708.208-1.056.328-.173.059-.24.049-.235-.155.012-.457.01-.917 0-1.374-.003-.131.048-.208.158-.276.425-.268.85-.537 1.31-.739.23-.101.283-.256.305-.469a38.37 38.37 0 01.765-4.665c.087-.378.178-.755.286-1.128.053-.183.062-.249-.18-.207a75.314 75.314 0 00-3.465.7c.002-.587.002-1.168.002-1.75z" fill="url(#paint0_linear_87_4790)"/><path d="M140.727 106.709c-.588 0-1.137-.005-1.687.002-.12.003-.177-.063-.242-.136a8.1 8.1 0 01-.958-1.31c-.081-.141-.167-.176-.323-.143-.519.11-1.042.204-1.56.316-.192.043-.25-.002-.243-.199.015-.45.01-.898.003-1.348-.003-.131.036-.211.163-.265.274-.115.538-.251.809-.366.12-.051.158-.098.11-.234-.991-2.84-1.183-5.77-1.022-8.738.029-.537.103-1.07.146-1.606.012-.148.075-.19.214-.21 1.66-.234 3.29-.133 4.88.404a.868.868 0 00.495.038c4.422-1.037 8.919-1.334 13.452-1.245a83.7 83.7 0 014.055.18c.13.01.25.005.283.169.396 1.869.245 3.641-.955 5.235-.175.233-.333.258-.607.162-2.402-.827-4.859-1.444-7.383-1.793a32.264 32.264 0 00-6.909-.195 63.18 63.18 0 00-2.742.286c-.183.021-.279.094-.344.267-.739 1.918-1.043 3.895-.851 5.939.031.324.031.326.345.239 2.642-.717 5.337-1.116 8.065-1.327 3.182-.246 6.361-.222 9.543-.035.379.021.756.068 1.133.082.175.007.242.073.292.232.298.957.245 1.916.029 2.875a.55.55 0 00.01.333c.89 2.351 1.137 4.792 1.058 7.277a24.32 24.32 0 01-.177 2.239c-.02.155-.077.211-.226.232-1.668.228-3.309.127-4.914-.387a.905.905 0 00-.497-.025c-2.493.59-5.027.926-7.585 1.109-2.904.206-5.805.178-8.708.032-.415-.021-.828-.065-1.241-.082-.172-.007-.247-.061-.292-.229-.214-.762-.214-1.536-.135-2.31.111-1.062.432-2.047 1.13-2.895.161-.197.298-.23.54-.146a39.03 39.03 0 007.326 1.794c2.448.347 4.905.391 7.367.187.871-.072 1.74-.166 2.608-.274.156-.019.235-.072.288-.218.523-1.385.797-2.813.778-4.293-.003-.199-.065-.288-.264-.349-2.58-.786-5.207-1.351-7.902-1.583a32.653 32.653 0 00-5.541.019c-.746.063-1.487.152-2.231.23-.221.023-.257.094-.195.295.178.582.382 1.154.612 1.768z" fill="url(#paint1_linear_87_4790)"/><path d="M73.542 96.346c-.516.762-.967 1.51-1.394 2.275-1.826 3.251-3.074 6.705-3.825 10.337-.07.342.029.665.072.994a22.12 22.12 0 01.19 3.798c-.008.19-.082.286-.252.349-.178.066-.346.15-.519.225-.033.014-.086.024-.093.045-.12.335-.423.232-.665.27-.04.007-.098.056-.12.009-.17-.352-.552-.277-.835-.392-.175-.07-.247-.15-.278-.33-.247-1.459-.3-2.926-.245-4.401a1 1 0 00-.038-.366c-1.388-4.283-3.482-8.203-6.35-11.723-.029-.035-.055-.07-.086-.103-.012-.011-.031-.016-.077-.04-.093.293-.19.58-.278.87-1.049 3.48-1.584 7.029-1.524 10.661a34.27 34.27 0 00.413 4.816c.062.403.067.405-.305.576-.993.455-2.047.526-3.122.455a5.756 5.756 0 01-1.931-.462c-.248-.107-.36-.22-.32-.527.643-4.982 1.608-9.892 3.422-14.611a33.916 33.916 0 011.658-3.67.612.612 0 00.063-.363c-.015-.178.146-.354.27-.504.61-.734 1.102-1.547 1.678-2.303.106-.138.197-.196.38-.14.498.157.976.138 1.49-.042.858-.303.87-.268 1.285.525 1.656 3.153 3.091 6.396 4.26 9.751.021.066.05.129.093.241.18-.724.341-1.404.514-2.079a73.514 73.514 0 012.908-8.84c.065-.166.144-.227.329-.222.924.033 1.77.307 2.563.753.187.105.352.152.551.072.084-.033.17-.063.245.026.466.572 1.01 1.1 1.375 1.726.422.731.86 1.458 1.248 2.21 1.555 3.009 2.661 6.174 3.556 9.419.734 2.663 1.289 5.362 1.718 8.088.024.151-.007.237-.151.317-.722.399-1.505.581-2.323.635-1.036.071-2.054-.004-3.018-.431-.183-.082-.25-.174-.221-.38a33.35 33.35 0 00.22-6.436c-.227-3.749-1.08-7.362-2.445-10.867a21.248 21.248 0 00-.086-.21z" fill="url(#paint2_linear_87_4790)"/><path d="M26.038 104.648v-1.674c0-.133.113-.159.197-.18.492-.127.628-.446.67-.922.143-1.641.422-3.266.784-4.874.01-.04.012-.082.024-.162-.288.1-.552.178-.804.288-.177.078-.273.02-.384-.112-.595-.708-.926-1.529-1.072-2.42-.142-.865-.173-1.732.033-2.6.06-.248.151-.35.44-.368a78.591 78.591 0 018.004-.143c2.897.101 5.776.361 8.617.93.154.031.274 0 .408-.072 1.401-.745 2.89-.93 4.451-.654.312.056.43.195.437.5.014.527.074 1.055.103 1.582.007.15.05.237.2.298.294.124.695.183.84.436.134.24.042.6.045.907 0 .263.093.631-.044.762-.146.141-.491-.065-.748-.126-.17-.04-.218-.005-.218.169 0 1.188-.008 2.38-.02 3.568-.002.171.068.204.221.209.36.011.72.042 1.08.056.134.005.218.042.25.183.4 1.826.244 3.552-.946 5.097-.151.197-.298.251-.545.157-.513-.19-.506-.176-.585.398-.331 2.413-.833 4.788-1.737 7.069a21.085 21.085 0 01-.701 1.543c-.08.159-.175.211-.353.204a27.95 27.95 0 00-1.327-.002c-.153.002-.22-.003-.175-.197.398-1.627.705-3.273.907-4.936.2-1.648.293-3.298.278-4.958-.002-.153-.055-.209-.208-.242a37.358 37.358 0 00-5.553-.832 38.031 38.031 0 00-6.241.063c-.629.056-1.253.146-1.882.206-.194.019-.18.129-.168.256a34.62 34.62 0 00.401 3.064 36.644 36.644 0 001.61 6.047c.065.178.012.27-.117.378-.811.658-1.766.973-2.796 1.09-.81.094-1.62.098-2.416-.11-.146-.038-.245-.085-.257-.272-.154-2.181-.242-4.366-.199-6.551.02-.961.07-1.92.105-2.879.013-.324.015-.324-.316-.242-.091.024-.18.042-.293.068zm4.178-3.334c.117-.028.223-.051.326-.077 1.92-.495 3.875-.811 5.845-1.025 2.422-.262 4.855-.358 7.29-.356.274 0 .305-.087.267-.317a37.84 37.84 0 00-.792-3.638c-.195-.708-.19-.71-.931-.767-3.83-.293-7.616-.042-11.36.823-.228.054-.3.15-.326.361a44.875 44.875 0 00-.255 2.656c-.045.774-.098 1.548-.064 2.34z" fill="url(#paint3_linear_87_4790)"/><path d="M105.694 108.636c.057-.007.091-.009.125-.019.439-.119.439-.119.712.237.591.772.867 1.656.975 2.598.086.757.086 1.512-.104 2.258-.052.204-.132.3-.376.307-.991.035-1.982.103-2.973.145-.171.007-.248.08-.286.218-.072.265-.242.34-.518.324a11.828 11.828 0 00-1.191-.002c-.201.007-.295-.031-.206-.242.079-.19.027-.251-.194-.251-2.121.01-4.238-.07-6.352-.258a42.39 42.39 0 01-3.273-.401.701.701 0 00-.571.129c-.953.692-2.056.95-3.22 1.011a6.097 6.097 0 01-1.771-.15c-.2-.049-.298-.122-.302-.347-.015-.626-.07-1.25-.092-1.873-.004-.15-.057-.214-.196-.261a16.328 16.328 0 01-1.865-.771c-.163-.077-.218-.171-.213-.345.012-.422.021-.846-.003-1.268-.014-.26.084-.256.288-.209.543.127 1.092.228 1.634.354.233.054.293-.009.288-.239a63.505 63.505 0 01.178-6.157c.204-2.558.561-5.095 1.233-7.58.091-.34.091-.337-.285-.272a63.961 63.961 0 00-3.122.629c-.185.042-.214-.005-.209-.17.01-.421.014-.846-.002-1.268-.008-.194.055-.295.235-.382 1.303-.64 2.668-1.109 4.074-1.465.26-.066.42-.169.511-.424.106-.298.27-.577.401-.866.05-.11.118-.159.247-.157.478.007.955.005 1.435 0 .14-.002.2.022.149.176-.05.16-.072.326-.113.49-.033.138-.012.185.156.155a53.903 53.903 0 013.127-.457c2.951-.338 5.915-.443 8.885-.382 1.37.028 2.741.065 4.106.173.233.019.331.092.379.305.341 1.512.142 2.959-.554 4.34-.091.18-.137.351-.135.553a61.235 61.235 0 01-.287 7.076 41.937 41.937 0 01-.68 4.466c-.019.082-.028.169-.045.272zm-2.649-3.585a34.775 34.775 0 00-1.164-8.914c-.038-.145-.103-.218-.257-.25a37.223 37.223 0 00-5.936-.816 36.984 36.984 0 00-5.272.098c-.216.019-.29.087-.32.284a37.896 37.896 0 00-.448 5.078c-.026 1.51.046 3.013.218 4.513a36.126 36.126 0 001.037 5.313c.036.131.103.185.242.19.315.007.631.028.946.042 3.537.162 7.02-.201 10.457-1.036.163-.04.233-.11.252-.279a40.27 40.27 0 00.245-4.223z" fill="url(#paint4_linear_87_4790)"/><path d="M131.647 108.601c.043.003.062.007.079.003.497-.141.497-.141.814.276.683.908.931 1.951.995 3.05.036.61.005 1.215-.153 1.81-.051.19-.135.265-.348.275-1.018.04-2.035.105-3.052.147-.171.008-.221.101-.257.216-.077.26-.238.34-.516.324-.475-.026-.955-.007-1.428-.007-.036-.174.149-.359.031-.453-.1-.08-.309-.03-.472-.03-3.161-.019-6.309-.181-9.433-.671-.151-.023-.286-.033-.43.075-1.274.936-2.735 1.156-4.278 1.053a4.662 4.662 0 01-.902-.162c-.135-.037-.187-.098-.192-.237-.029-.642-.075-1.284-.099-1.927-.004-.169-.06-.241-.223-.295a15.525 15.525 0 01-1.862-.776c-.125-.061-.194-.127-.189-.279.009-.467.009-.934 0-1.402-.003-.169.05-.179.204-.146.578.132 1.161.244 1.742.373.199.045.266-.002.261-.216a66.682 66.682 0 01.115-5.495c.231-3.482.692-6.921 1.891-10.232a19.05 19.05 0 01.977-2.232c.077-.153.161-.223.345-.216.452.017.903.014 1.354 0 .201-.007.221.068.18.232a41.37 41.37 0 00-.818 4.202 36.787 36.787 0 00-.32 7.355 35.81 35.81 0 001.138 7.033c.057.221.146.296.372.308 2.092.11 4.182.091 6.267-.129a39.331 39.331 0 005.001-.863c.197-.047.293-.113.319-.335.216-1.914.298-3.832.211-5.754-.163-3.606-.887-7.106-2.126-10.504-.055-.15-.024-.236.096-.335.792-.654 1.726-.978 2.736-1.102.854-.105 1.708-.126 2.551.1.136.038.23.074.244.254a76.33 76.33 0 01.195 6.764c-.06 3.149-.298 6.281-.902 9.381-.046.19-.082.377-.118.567z" fill="url(#paint5_linear_87_4790)"/><path d="M1.32 126.296c0 .355.16.638.48.846.32.211.712.37 1.171.488.46.114.922.244 1.381.385.46.142.85.377 1.171.705.32.328.481.762.481 1.295 0 .668-.271 1.213-.81 1.632-.54.419-1.24.626-2.096.626-.771 0-1.427-.168-1.967-.503-.54-.334-.918-.767-1.131-1.304l.9-.517c.151.406.42.728.81.963.392.235.854.353 1.39.353.525 0 .965-.103 1.317-.308.354-.204.53-.521.53-.948 0-.356-.16-.639-.481-.846a3.921 3.921 0 00-1.171-.488c-.46-.115-.922-.244-1.381-.386a2.698 2.698 0 01-1.171-.708c-.32-.328-.481-.761-.481-1.294 0-.639.259-1.172.78-1.603.518-.427 1.174-.644 1.966-.644.654 0 1.227.145 1.72.431.493.289.857.677 1.091 1.168l-.885.503c-.31-.732-.952-1.099-1.926-1.099-.46 0-.857.108-1.19.322-.335.229-.499.533-.499.931z" fill="url(#paint6_linear_87_4790)"/><path d="M13.347 124.242h1.06v7.845h-1.06v-1.223c-.601.943-1.498 1.412-2.697 1.412-.974 0-1.741-.289-2.306-.87-.56-.581-.844-1.361-.844-2.346v-4.818h1.06v4.818c0 .702.191 1.244.57 1.632.38.389.919.582 1.615.582.771 0 1.397-.238 1.88-.714.481-.476.725-1.211.725-2.205v-4.113h-.003z" fill="url(#paint7_linear_87_4790)"/><path d="M17.49 126.296c0 .355.16.638.48.846.321.211.713.37 1.172.488.46.114.922.244 1.38.385.46.142.852.377 1.172.705.32.328.48.762.48 1.295 0 .668-.27 1.214-.81 1.632-.54.419-1.239.626-2.096.626-.77 0-1.427-.168-1.966-.502-.54-.335-.918-.768-1.131-1.304l.9-.518c.15.406.419.728.81.963.392.235.854.353 1.39.353.524 0 .965-.103 1.317-.308.354-.204.53-.521.53-.948 0-.356-.16-.639-.481-.846a3.921 3.921 0 00-1.171-.488c-.46-.115-.922-.244-1.381-.386a2.706 2.706 0 01-1.171-.707c-.32-.329-.481-.762-.481-1.295 0-.639.259-1.172.78-1.602.517-.428 1.174-.645 1.966-.645.654 0 1.227.145 1.72.431.493.289.857.677 1.091 1.168l-.885.503c-.31-.732-.952-1.099-1.926-1.099-.46 0-.857.108-1.19.322-.332.229-.499.533-.499.931z" fill="url(#paint8_linear_87_4790)"/><path d="M27.625 124.052c.974 0 1.742.289 2.306.87.56.581.844 1.364.844 2.346v4.819h-1.06v-4.819c0-.701-.191-1.244-.57-1.632-.38-.389-.919-.581-1.615-.581-.77 0-1.396.238-1.88.713-.481.476-.724 1.211-.724 2.205v4.111h-1.06v-10.986h1.06v4.363c.6-.936 1.5-1.409 2.7-1.409z" fill="url(#paint9_linear_87_4790)"/><path d="M33.908 122.359a.75.75 0 01-.546.22.74.74 0 01-.545-.22.716.716 0 01-.225-.533c0-.208.074-.385.225-.533a.753.753 0 01.545-.22c.213 0 .395.073.546.22a.717.717 0 01.225.533.727.727 0 01-.225.533zm-1.079 9.727v-7.845h1.06v7.845h-1.06z" fill="url(#paint10_linear_87_4790)"/><path d="M49.181 131.725l-.995.548-1.19-1.24c-.845.825-1.948 1.24-3.307 1.24-1.104 0-1.995-.28-2.676-.84-.68-.56-1.02-1.316-1.02-2.268 0-.689.182-1.313.546-1.867.363-.554.906-.993 1.62-1.319-.557-.617-.834-1.307-.834-2.072 0-.909.32-1.638.964-2.18a3.368 3.368 0 012.25-.816c.718 0 1.375.196 1.967.587.595.392 1.02.925 1.276 1.593l-.946.533a2.257 2.257 0 00-.86-1.207 2.397 2.397 0 00-1.421-.44c-.58 0-1.073.172-1.486.518-.413.346-.62.795-.62 1.349 0 .368.09.696.266.988.175.292.437.617.78.973l3.39 3.529c.311-.596.515-1.292.61-2.087l.996.566c-.14.91-.413 1.69-.82 2.337l1.51 1.575zm-5.523-.515c1.07 0 1.926-.325 2.57-.972l-3.307-3.437c-.632.229-1.088.558-1.371.982a2.403 2.403 0 00-.426 1.358c0 .639.228 1.145.681 1.515.45.368 1.07.554 1.853.554z" fill="url(#paint11_linear_87_4790)"/><path d="M59.022 124.052c1.146 0 2.123.397 2.93 1.193.808.795 1.212 1.767 1.212 2.918 0 1.15-.404 2.123-1.211 2.918-.808.795-1.785 1.192-2.931 1.192-1.424 0-2.506-.575-3.246-1.725v4.677h-1.06v-10.986h1.06v1.539c.74-1.151 1.822-1.726 3.245-1.726zm-2.328 6.318c.61.602 1.36.903 2.25.903.888 0 1.64-.301 2.25-.903a2.98 2.98 0 00.916-2.204c0-.868-.305-1.602-.916-2.205-.61-.602-1.359-.903-2.25-.903-.887 0-1.636.301-2.25.903-.61.603-.915 1.337-.915 2.205 0 .867.305 1.602.915 2.204z" fill="url(#paint12_linear_87_4790)"/><path d="M66.008 122.359a.75.75 0 01-.545.22.74.74 0 01-.546-.22.715.715 0 01-.225-.533c0-.208.074-.385.225-.533a.753.753 0 01.546-.22c.213 0 .394.073.546.22a.717.717 0 01.224.533.716.716 0 01-.225.533zm-1.075 9.727v-7.845h1.06v7.845h-1.06z" fill="url(#paint13_linear_87_4790)"/><path d="M69.401 131.084h4.626v1.006h-6.102v-.69l4.466-6.152h-4.306v-1.006h5.782v.689l-4.466 6.153z" fill="url(#paint14_linear_87_4790)"/><path d="M76.786 131.084h4.626v1.006H75.31v-.69l4.466-6.152H75.47v-1.006h5.782v.689l-4.466 6.153z" fill="url(#paint15_linear_87_4790)"/><path d="M89.6 124.242h1.06v7.845H89.6v-1.539c-.74 1.15-1.822 1.725-3.246 1.725-1.146 0-2.123-.397-2.93-1.192-.808-.795-1.212-1.768-1.212-2.918 0-1.151.404-2.123 1.211-2.918.808-.795 1.785-1.193 2.931-1.193 1.424 0 2.506.575 3.246 1.726v-1.536zm-5.412 6.128c.61.602 1.359.904 2.246.904.888 0 1.64-.302 2.25-.904a2.98 2.98 0 00.916-2.204c0-.868-.305-1.602-.916-2.205-.61-.602-1.359-.903-2.25-.903-.887 0-1.636.301-2.246.903a2.982 2.982 0 00-.916 2.205c0 .867.305 1.602.916 2.204z" fill="url(#paint16_linear_87_4790)"/><g clip-path="url(#clip0_87_4790)"><path d="M.2 44.066c0 13.876 6.843 26.159 17.35 33.679 3.954-5.698 5.717-12.329 7.453-18.984.81-3.105 1.228-6.261 1.439-9.45.042-.648.265-1.308-.992-1.13-.98.139-1.169-.95-1.048-1.748.237-1.561-1.988-5.858-3.67-5.728-1.108.085 8.72-19.66 9.183-20.05.832-.698 2.268-.968 3.237-1.183a.453.453 0 00.305-.653l-.815-1.567c-1.1-.062-2.16.16-3.207.448-4.362 1.197-8.748 2.285-13.218 3-.629.1-1.276.084-2.272.143 5.012-5.664 11.853-12.08 17.531-16.934C13.496 8.477.2 24.723.2 44.066zm22.149 36.643c.803.423 1.62.824 2.453 1.195 2.894-5.843 4.979-11.924 5.12-18.652-1.597 6.294-3.535 12.402-7.573 17.457zM63.38 47.225c-.007.003-.013.005-.02.01a.331.331 0 01-.007.005l.027-.015z" fill="#fff"/><path opacity=".14" d="M63.38 47.225c-.007.003-.013.005-.02.01a.331.331 0 01-.007.005l.027-.015z" fill="#fff"/><path d="M49.008 25.55c-.002-.006-.004-.014-.008-.02-.01-.004-.021-.006-.032-.011 0 .002.04.032.04.032z" fill="#fff"/><path opacity=".14" d="M49.008 25.55c-.002-.006-.004-.014-.008-.02-.01-.004-.021-.006-.032-.011 0 .002.04.032.04.032z" fill="#fff"/><path d="M70.709 3.917a180.158 180.158 0 01-8.143 2.91c-.517.172-1.033.34-1.55.507-9.52 3.08-19.208 5.472-28.909 7.814-.204-.476-.007-.78.107-1.091.669-1.817 3.138-7.553 4.696-11.144l.12-.276c.704-1.623 1.195-2.746 1.195-2.746L70.71 3.917zm-29.932 67.15c.203.02.588-.319.64-.548.346-1.489 1.346-2.795.433-4.566-1.274-2.473-2.13-5.16-3.195-7.743-.191-.463-.134-1.394-1.054-1-.756.323-.637 1.059-.375 1.67.84 1.95 1.305 3.997 1.656 6.077.04.234.005.48.005.722-1.016-3.381-1.671-6.875-4.888-9.649l3.684 11.784c-2.05-2.25-3.146-5.002-4.257-7.756.207 2.685 1.212 5.114 2.265 7.516-.545.265-.522-.431-1.01-.42.401 2.009 1.348 3.729 2.462 5.382.315.467.555.164.847.003.915-.502 1.51-1.592 2.787-1.472zM38.49 38.448c2.383 2.953 2.72 6.273 1.364 9.71-1.402 3.562-.209 6.689 1.298 10.188 1.233-3.315 2.007-6.363 2.222-9.562.598-8.91-4.231-13.845-11.637-16.234-2.008-.649-4.07-1.011-6.164-1.289 2.165.877 4.398 1.554 6.497 2.562 2.415 1.16 4.709 2.508 6.42 4.625z" fill="#fff"/><path d="M46.712 42.663c1.263 2.95 1.469 6.028.702 9.095-.6 2.395-.348 4.77-.203 7.179 3.158-7.066 2.997-14.039-1.146-20.666-4.26-6.818-10.646-10.062-18.69-10.148 1.642.519 3.288 1.018 4.921 1.56 5.565 1.846 12.217 7.838 14.416 12.98zm8.768 27.25c.373 1.569.713 3.145 1.127 4.704.525 1.98 1.139 3.955-1.834 5.197 1.387.214 1.835-.868 2.728-.68.179 1.019.362 2.044.543 3.072.356-.151.71-.309 1.06-.47-.553-2.732-1.207-5.385-1.987-7.887-.418-1.348-.88-2.68-1.637-3.936zm-1.565-20.658c.127-2.46-.359-4.82-.92-7.163-.436-1.822-2.397-7.18-2.94-8.055-1.186-1.91-2.437-3.755-4.01-5.369a40.97 40.97 0 00-1.656-1.516c-2.004-1.68-4.19-3.061-6.619-4.057-.57-.233-1.094-.51-1.74.287 11.841 4.584 16.054 14.408 17.885 25.873zM42.454 73.087c.268 1.069 1.046 1.71 1.553 2.51-.843.354-.815.33-1.607-.568-.51-.58-.996-1.223-1.859-1.55.1 1.592 1.194 2.722 1.618 4.103.188.004.443.063.52-.027 1.168-1.404 2.349-.769 3.59.077.153-2.776-1.954-3.485-3.815-4.545zm-.329 4.498c.015.017.032.03.047.046a.609.609 0 00-.017-.049h-.033l.003.003z" fill="#fff"/><path opacity=".14" d="M42.125 77.585c.015.017.032.03.047.046a.609.609 0 00-.017-.049h-.033l.003.003z" fill="#fff"/><path d="M42.122 77.582c0 .002.002.002.002.003l.047.048-.046-.046c0-.003-.001-.003-.003-.005z" fill="#fff"/><path opacity=".14" d="M42.122 77.582c0 .002.002.002.002.003l.047.048-.046-.046c0-.003-.001-.003-.003-.005z" fill="#fff"/><path d="M33.474 40.616c2.172.435 4.254 1.123 6.352 2.056-2.37-2.78-9.256-3.928-13.15-2.42 2.293-.063 4.554-.084 6.798.364zm32.648 37.029c.229-.166.456-.332.681-.502-3.401-4.102-7.211-10.038-8.625-13.734.749 4.4 4.201 10.587 7.944 14.236zM26.786 43.106c4.128.402 8.165 1.2 12.034 2.739-3.654-2.495-7.67-3.384-12.034-2.74zm10.072-5.275c-1.884-2.012-7.628-2.962-10.613-1.316 3.797-.21 7.147.105 10.613 1.316zm21.158 19.177c-.341-.256-.526.133-.685.334-1.619 2.033-10.49 13.579-12.097 15.62l.249.25c1.73-1.98 10.728-13.461 12.458-15.44.213-.242.37-.542.075-.764zM45.742 26.197c.453-.617.339-1.297.886-1.684-1.798.69-2.78-1.33-4.589-1.113 1.032 1.247 2.51 1.715 3.703 2.797zm-3.619 51.385c-.818-.85-1.959-1.038-3.253-1.601.76 1.36 1.408 2.388 2.832 2.51.878.076.9-.318.423-.905l-.002-.004zm.051.051c-.015-.017-.032-.032-.047-.047l.047.047z" fill="#fff"/><path opacity=".14" d="M42.174 77.633c-.015-.017-.032-.032-.047-.047l.047.047z" fill="#fff"/><path d="M42.122 77.582l.002.004c0-.002 0-.004-.002-.004z" fill="#fff"/><path opacity=".14" d="M42.122 77.582l.002.004c0-.002 0-.004-.002-.004z" fill="#fff"/><path d="M42.126 77.587l-.004-.005c.002.002.004.002.004.005z" fill="#fff"/><path opacity=".14" d="M42.126 77.587l-.004-.005c.002.002.004.002.004.005z" fill="#fff"/><path d="M39.29 79.984c-.638.799-2.352 2.794-4.235 4.979l.5.08c1.823-2.104 3.43-4.027 4.029-4.82-.097-.082-.194-.16-.293-.24zM55.116 35c.268-.138.275-.548.064-.773-.282-.299-.517.011-.73.182-.948.762-1.57 1.34-2.518 2.102-.004-.004 2.025-.915 3.184-1.511zm-1.436-4.27c-1.74-.248-2.572 1.21-3.898 1.743l.236.293 3.661-2.036zm-6.05-1.97s2.413-.942 3.06-2.322c0 .002-2.18 1.252-3.06 2.322zm15.06 20.144c-.25.048-.626-.056-.506.447.148.62.409 1.063 1.164.996.372-.033.56-.158.425-.525-.184-.496-.342-1.052-1.083-.918zm.483-2.754c-.138-.79-.357-1.462-1.348-1.322-.301.042-.367.249-.298.526.232.923.838 1.044 1.646.796zm.324-1.628c.405.15.478.018.914.087.016-.052.112-.565-.015-.934-.178-.512-.625-.377-1-.384-.184-.003-.432-.006-.432.266 0 .41.142.819.533.965zm-1.803 3.368c-.159-.712-.292-1.398-1.23-1.341-.368.023-.527.187-.417.561.234.79.716 1.113 1.647.78zm4.999-.801c.321-.017.325-.22.264-.507-.205-.949-.766-1.121-1.612-.806.05.857.44 1.36 1.348 1.313zm-1.801 1.515c.28-.023.473-.115.402-.435-.11-.507-.372-.911-.925-.978-.328-.04-.598.448-.549.723.116.626.535.733 1.072.69zm2.955-3.132c.354.035.538-.07.492-.477-.064-.571-.311-.898-.87-.835-.329 0-.7-.138-.67.34.04.636.45.913 1.048.972zm-2.531-2.417c.398.01.645.005.61-.5-.047-.621-.38-.84-.867-.79-.405-.08-.711-.075-.635.364.084.488.25.911.892.926z" fill="#fff"/><path d="M84.924 44.368c.019-3.737-.487-7.3-1.481-10.655A39.909 39.909 0 0072.405 15.5c2.37 2.518 4.501 5.198 6.22 8.19a33.414 33.414 0 011.584 3.121c2.6 5.889 3.742 12.08 3.655 18.51-.619-5.976-1.936-11.776-4.38-17.298 1.216 3.868 2.143 7.777 2.339 11.85.197 4.115-.173 8.148-1.24 12.123.03-1.37.283-2.717.402-4.077.553-6.357-.517-12.447-3.026-18.277-3.736-8.675-8.549-15.274-16.94-19.627-.27-.14-.656-.246-1.11-.262-.03-.002-.061-.002-.092-.002h-.083l-.066.002a3.863 3.863 0 00-1.638.446c-1.366.478-2.776.854-4.188 1.29.102.534.966 1.733.904 1.925l-.82.396c-.285.326.714 1.465.739 1.956.003.064-.344.166-.33.231.06.268.284.437.103.673-.973 1.276-.593 2.623-.127 3.969.436 1.26.431 2.583.048 4.277-.804-1.876-2.383-2.547-3.461-3.749-1.055-1.175-3.645-.702-4.095.583-.098.286-.288.71.043.752 1.872.231 1.739 1.808 2.152 3.024.636.26 1.037-.87 1.533-.412.863.798 1.552 1.781 2.323 2.679a9.133 9.133 0 011.995 3.95c.346 1.466 1.059 2.841 1.522 4.285.704 2.2.92 4.512 1.631 6.734.486 1.52.68 3.255.422 5.298 1.13-1.431 2.012-2.62 2.968-3.742.861-1.011 1.833-1.928 2.705-2.931.842-.965 1.396-.176 1.958.294.565.472.923 1.065.156 1.688-.528.43-2.585 2.784-3.123 3.524-.247.338-.171.533.272.338 1.027-1.057 2.119-2.061 3.065-3.187.883-1.05 1.561-.788 2.414.007.96.894.477 1.442-.265 2.125-2.906 2.675-5.618 5.536-8.227 8.503-.894 1.016-1.268 1.876-.139 3.299-1.256-.52-1.527-.212-1.444.783.415 4.867 2.167 9.225 4.905 13.23a40.536 40.536 0 003.752 4.677 43.691 43.691 0 001.57-1.292c5.467-4.024 9.638-8.856 12.34-14.56l.055.124a39.678 39.678 0 003.542-16.441 2.93 2.93 0 01-.004-.13z" fill="#fff"/><path d="M.2 44.066c0 13.876 6.843 26.159 17.35 33.679 3.954-5.698 5.717-12.329 7.453-18.984.81-3.105 1.228-6.261 1.439-9.45.042-.648.265-1.308-.992-1.13-.98.139-1.169-.95-1.048-1.748.237-1.561-1.988-5.858-3.67-5.728-1.108.085 8.72-19.66 9.183-20.05.832-.698 2.268-.968 3.237-1.183a.453.453 0 00.305-.653l-.815-1.567c-1.1-.062-2.16.16-3.207.448-4.362 1.197-8.748 2.285-13.218 3-.629.1-1.276.084-2.272.143 5.012-5.664 11.853-12.08 17.531-16.934C13.496 8.477.2 24.723.2 44.066z" fill="url(#paint17_linear_87_4790)"/><path d="M22.349 80.709c.803.423 1.62.824 2.453 1.195 2.894-5.843 4.979-11.924 5.12-18.652-1.597 6.294-3.535 12.402-7.573 17.457z" fill="url(#paint18_linear_87_4790)"/><path d="M63.38 47.225c-.007.003-.013.005-.02.01a.331.331 0 01-.007.005l.027-.015z" fill="url(#paint19_linear_87_4790)"/><path d="M63.38 47.225c-.007.003-.013.005-.02.01a.331.331 0 01-.007.005l.027-.015z" fill="url(#paint20_linear_87_4790)"/><path d="M49.008 25.55c-.002-.006-.004-.014-.008-.02-.01-.004-.021-.006-.032-.011 0 .002.04.032.04.032z" fill="url(#paint21_linear_87_4790)"/><path d="M49.008 25.55c-.002-.006-.004-.014-.008-.02-.01-.004-.021-.006-.032-.011 0 .002.04.032.04.032z" fill="url(#paint22_linear_87_4790)"/><path d="M70.709 3.917a180.158 180.158 0 01-8.143 2.91c-.517.172-1.033.34-1.55.507-9.52 3.08-19.208 5.472-28.909 7.814-.204-.476-.007-.78.107-1.091.669-1.817 3.138-7.553 4.696-11.144l.12-.276c.704-1.623 1.195-2.746 1.195-2.746L70.71 3.917z" fill="url(#paint23_linear_87_4790)"/><path d="M40.777 71.067c.203.02.588-.319.64-.548.346-1.489 1.346-2.795.433-4.566-1.274-2.473-2.13-5.16-3.195-7.743-.191-.463-.134-1.394-1.054-1-.756.323-.637 1.059-.375 1.67.84 1.95 1.305 3.997 1.656 6.077.04.234.005.48.005.722-1.016-3.381-1.671-6.875-4.888-9.649l3.684 11.784c-2.05-2.25-3.146-5.002-4.257-7.756.207 2.685 1.212 5.114 2.265 7.516-.545.265-.522-.431-1.01-.42.401 2.009 1.348 3.729 2.462 5.382.315.467.555.164.847.003.915-.502 1.51-1.592 2.787-1.472z" fill="url(#paint24_linear_87_4790)"/><path d="M38.49 38.448c2.383 2.953 2.72 6.273 1.364 9.71-1.402 3.562-.209 6.689 1.298 10.188 1.233-3.315 2.007-6.363 2.222-9.562.598-8.91-4.231-13.845-11.637-16.234-2.008-.649-4.07-1.011-6.164-1.289 2.165.877 4.398 1.554 6.497 2.562 2.415 1.16 4.709 2.508 6.42 4.625z" fill="url(#paint25_linear_87_4790)"/><path d="M46.712 42.663c1.263 2.95 1.469 6.028.702 9.095-.6 2.395-.348 4.77-.203 7.179 3.158-7.066 2.997-14.039-1.146-20.666-4.26-6.818-10.646-10.062-18.69-10.148 1.642.519 3.288 1.018 4.921 1.56 5.565 1.846 12.217 7.838 14.416 12.98z" fill="url(#paint26_linear_87_4790)"/><path d="M55.48 69.913c.373 1.569.713 3.145 1.127 4.704.525 1.98 1.139 3.955-1.834 5.197 1.387.214 1.835-.868 2.728-.68.179 1.019.362 2.044.543 3.072.356-.151.71-.309 1.06-.47-.553-2.732-1.207-5.385-1.987-7.887-.418-1.348-.88-2.68-1.637-3.936z" fill="url(#paint27_linear_87_4790)"/><path d="M53.915 49.255c.127-2.46-.359-4.82-.92-7.163-.436-1.822-2.397-7.18-2.94-8.055-1.186-1.91-2.437-3.755-4.01-5.369a40.97 40.97 0 00-1.656-1.516c-2.004-1.68-4.19-3.061-6.619-4.057-.57-.233-1.094-.51-1.74.287 11.841 4.584 16.054 14.408 17.885 25.873z" fill="url(#paint28_linear_87_4790)"/><path d="M42.454 73.087c.268 1.069 1.046 1.71 1.553 2.51-.843.354-.815.33-1.607-.568-.51-.58-.996-1.223-1.859-1.55.1 1.592 1.194 2.722 1.618 4.103.188.004.443.063.52-.027 1.168-1.404 2.349-.769 3.59.077.153-2.776-1.954-3.485-3.815-4.545z" fill="url(#paint29_linear_87_4790)"/><path d="M42.125 77.585c.015.017.032.03.047.046a.609.609 0 00-.017-.049h-.033l.003.003z" fill="url(#paint30_linear_87_4790)"/><path d="M42.125 77.585c.015.017.032.03.047.046a.609.609 0 00-.017-.049h-.033l.003.003z" fill="url(#paint31_linear_87_4790)"/><path d="M42.122 77.582c0 .002.002.002.002.003l.047.048-.046-.046c0-.003-.001-.003-.003-.005z" fill="url(#paint32_linear_87_4790)"/><path d="M42.122 77.582c0 .002.002.002.002.003l.047.048-.046-.046c0-.003-.001-.003-.003-.005z" fill="url(#paint33_linear_87_4790)"/><path d="M33.474 40.616c2.172.435 4.254 1.123 6.352 2.056-2.37-2.78-9.256-3.928-13.15-2.42 2.293-.063 4.554-.084 6.798.364z" fill="url(#paint34_linear_87_4790)"/><path d="M66.122 77.645c.229-.166.456-.332.681-.502-3.401-4.102-7.211-10.038-8.625-13.734.749 4.4 4.201 10.587 7.944 14.236z" fill="url(#paint35_linear_87_4790)"/><path d="M26.786 43.106c4.128.402 8.165 1.2 12.034 2.739-3.654-2.495-7.67-3.384-12.034-2.74z" fill="url(#paint36_linear_87_4790)"/><path d="M36.858 37.831c-1.884-2.012-7.628-2.962-10.613-1.316 3.797-.21 7.147.105 10.613 1.316z" fill="url(#paint37_linear_87_4790)"/><path d="M58.016 57.008c-.341-.256-.526.133-.685.334-1.619 2.033-10.49 13.579-12.097 15.62l.249.25c1.73-1.98 10.728-13.461 12.458-15.44.213-.242.37-.542.075-.764z" fill="url(#paint38_linear_87_4790)"/><path d="M45.742 26.197c.453-.617.339-1.297.886-1.684-1.798.69-2.78-1.33-4.589-1.113 1.032 1.247 2.51 1.715 3.703 2.797z" fill="url(#paint39_linear_87_4790)"/><path d="M42.123 77.582c-.818-.85-1.959-1.038-3.253-1.601.76 1.36 1.408 2.388 2.832 2.51.878.076.9-.318.423-.905l-.002-.004z" fill="url(#paint40_linear_87_4790)"/><path d="M42.174 77.633c-.015-.017-.032-.032-.047-.047l.047.047z" fill="url(#paint41_linear_87_4790)"/><path d="M42.174 77.633c-.015-.017-.032-.032-.047-.047l.047.047z" fill="url(#paint42_linear_87_4790)"/><path d="M42.122 77.582l.002.004c0-.002 0-.004-.002-.004z" fill="url(#paint43_linear_87_4790)"/><path d="M42.122 77.582l.002.004c0-.002 0-.004-.002-.004z" fill="url(#paint44_linear_87_4790)"/><path d="M42.126 77.587l-.004-.005c.002.002.004.002.004.005z" fill="url(#paint45_linear_87_4790)"/><path d="M42.126 77.587l-.004-.005c.002.002.004.002.004.005z" fill="url(#paint46_linear_87_4790)"/><path d="M39.29 79.984c-.638.799-2.352 2.794-4.235 4.979l.5.08c1.823-2.104 3.43-4.027 4.029-4.82-.097-.082-.194-.16-.293-.24z" fill="url(#paint47_linear_87_4790)"/><path d="M55.116 35c.268-.138.275-.548.064-.773-.282-.299-.517.011-.73.182-.948.762-1.57 1.34-2.518 2.102-.004-.004 2.025-.915 3.184-1.511z" fill="url(#paint48_linear_87_4790)"/><path d="M53.68 30.73c-1.74-.248-2.572 1.21-3.898 1.743l.236.293 3.661-2.036z" fill="url(#paint49_linear_87_4790)"/><path d="M47.63 28.76s2.413-.942 3.06-2.322c0 .002-2.18 1.252-3.06 2.322z" fill="url(#paint50_linear_87_4790)"/><path d="M62.69 48.904c-.25.048-.626-.056-.506.447.148.62.409 1.063 1.164.996.372-.033.56-.158.425-.525-.184-.496-.342-1.052-1.083-.918z" fill="url(#paint51_linear_87_4790)"/><path d="M63.173 46.15c-.138-.79-.357-1.462-1.348-1.322-.301.042-.367.249-.298.526.232.923.838 1.044 1.646.796z" fill="url(#paint52_linear_87_4790)"/><path d="M63.497 44.522c.405.15.478.018.914.087.016-.052.112-.565-.015-.934-.178-.512-.625-.377-1-.384-.184-.003-.432-.006-.432.266 0 .41.142.819.533.965z" fill="url(#paint53_linear_87_4790)"/><path d="M61.694 47.89c-.159-.712-.292-1.398-1.23-1.341-.368.023-.527.187-.417.561.234.79.716 1.113 1.647.78z" fill="url(#paint54_linear_87_4790)"/><path d="M66.693 47.089c.321-.017.325-.22.264-.507-.205-.949-.766-1.121-1.612-.806.05.857.44 1.36 1.348 1.313z" fill="url(#paint55_linear_87_4790)"/><path d="M64.892 48.604c.28-.023.473-.115.402-.435-.11-.507-.372-.911-.925-.978-.328-.04-.598.448-.549.723.116.626.535.733 1.072.69z" fill="url(#paint56_linear_87_4790)"/><path d="M67.847 45.472c.354.035.538-.07.492-.477-.064-.571-.311-.898-.87-.835-.329 0-.7-.138-.67.34.04.636.45.913 1.048.972z" fill="url(#paint57_linear_87_4790)"/><path d="M65.316 43.055c.398.01.645.005.61-.5-.047-.621-.38-.84-.867-.79-.405-.08-.711-.075-.635.364.084.488.25.911.892.926z" fill="url(#paint58_linear_87_4790)"/><path d="M84.924 44.368c.019-3.737-.487-7.3-1.481-10.655A39.909 39.909 0 0072.405 15.5c2.37 2.518 4.501 5.198 6.22 8.19a33.414 33.414 0 011.584 3.121c2.6 5.889 3.742 12.08 3.655 18.51-.619-5.976-1.936-11.776-4.38-17.298 1.216 3.868 2.143 7.777 2.339 11.85.197 4.115-.173 8.148-1.24 12.123.03-1.37.283-2.717.402-4.077.553-6.357-.517-12.447-3.026-18.277-3.736-8.675-8.549-15.274-16.94-19.627-.27-.14-.656-.246-1.11-.262-.03-.002-.061-.002-.092-.002h-.083l-.066.002a3.863 3.863 0 00-1.638.446c-1.366.478-2.776.854-4.188 1.29.102.534.966 1.733.904 1.925l-.82.396c-.285.326.714 1.465.739 1.956.003.064-.344.166-.33.231.06.268.284.437.103.673-.973 1.276-.593 2.623-.127 3.969.436 1.26.431 2.583.048 4.277-.804-1.876-2.383-2.547-3.461-3.749-1.055-1.175-3.645-.702-4.095.583-.098.286-.288.71.043.752 1.872.231 1.739 1.808 2.152 3.024.636.26 1.037-.87 1.533-.412.863.798 1.552 1.781 2.323 2.679a9.133 9.133 0 011.995 3.95c.346 1.466 1.059 2.841 1.522 4.285.704 2.2.92 4.512 1.631 6.734.486 1.52.68 3.255.422 5.298 1.13-1.431 2.012-2.62 2.968-3.742.861-1.011 1.833-1.928 2.705-2.931.842-.965 1.396-.176 1.958.294.565.472.923 1.065.156 1.688-.528.43-2.585 2.784-3.123 3.524-.247.338-.171.533.272.338 1.027-1.057 2.119-2.061 3.065-3.187.883-1.05 1.561-.788 2.414.007.96.894.477 1.442-.265 2.125-2.906 2.675-5.618 5.536-8.227 8.503-.894 1.016-1.268 1.876-.139 3.299-1.256-.52-1.527-.212-1.444.783.415 4.867 2.167 9.225 4.905 13.23a40.536 40.536 0 003.752 4.677 43.691 43.691 0 001.57-1.292c5.467-4.024 9.638-8.856 12.34-14.56l.055.124a39.678 39.678 0 003.542-16.441 2.93 2.93 0 01-.004-.13z" fill="url(#paint59_linear_87_4790)"/></g><defs><linearGradient id="paint0_linear_87_4790" x1="6.656" y1="22.946" x2="183.344" y2="78.158" gradientUnits="userSpaceOnUse"><stop stop-color="#AF7912"/><stop offset=".019" stop-color="#AD7712"/><stop offset=".183" stop-color="#A26914"/><stop offset=".324" stop-color="#9E6414"/><stop offset=".389" stop-color="#A36C19"/><stop offset=".489" stop-color="#B28126"/><stop offset=".609" stop-color="#C9A33B"/><stop offset=".707" stop-color="#E0C44F"/><stop offset=".8" stop-color="#DEC14D"/><stop offset=".866" stop-color="#D8B847"/><stop offset=".924" stop-color="#CEA83C"/><stop offset=".977" stop-color="#BF922D"/><stop offset="1" stop-color="#B78624"/></linearGradient><linearGradient id="paint1_linear_87_4790" x1="6.655" y1="22.946" x2="183.344" y2="78.157" gradientUnits="userSpaceOnUse"><stop stop-color="#AF7912"/><stop offset=".019" stop-color="#AD7712"/><stop offset=".183" stop-color="#A26914"/><stop offset=".324" stop-color="#9E6414"/><stop offset=".389" stop-color="#A36C19"/><stop offset=".489" stop-color="#B28126"/><stop offset=".609" stop-color="#C9A33B"/><stop offset=".707" stop-color="#E0C44F"/><stop offset=".8" stop-color="#DEC14D"/><stop offset=".866" stop-color="#D8B847"/><stop offset=".924" stop-color="#CEA83C"/><stop offset=".977" stop-color="#BF922D"/><stop offset="1" stop-color="#B78624"/></linearGradient><linearGradient id="paint2_linear_87_4790" x1="6.658" y1="22.946" x2="183.347" y2="78.158" gradientUnits="userSpaceOnUse"><stop stop-color="#AF7912"/><stop offset=".019" stop-color="#AD7712"/><stop offset=".183" stop-color="#A26914"/><stop offset=".324" stop-color="#9E6414"/><stop offset=".389" stop-color="#A36C19"/><stop offset=".489" stop-color="#B28126"/><stop offset=".609" stop-color="#C9A33B"/><stop offset=".707" stop-color="#E0C44F"/><stop offset=".8" stop-color="#DEC14D"/><stop offset=".866" stop-color="#D8B847"/><stop offset=".924" stop-color="#CEA83C"/><stop offset=".977" stop-color="#BF922D"/><stop offset="1" stop-color="#B78624"/></linearGradient><linearGradient id="paint3_linear_87_4790" x1="6.654" y1="22.946" x2="183.342" y2="78.157" gradientUnits="userSpaceOnUse"><stop stop-color="#AF7912"/><stop offset=".019" stop-color="#AD7712"/><stop offset=".183" stop-color="#A26914"/><stop offset=".324" stop-color="#9E6414"/><stop offset=".389" stop-color="#A36C19"/><stop offset=".489" stop-color="#B28126"/><stop offset=".609" stop-color="#C9A33B"/><stop offset=".707" stop-color="#E0C44F"/><stop offset=".8" stop-color="#DEC14D"/><stop offset=".866" stop-color="#D8B847"/><stop offset=".924" stop-color="#CEA83C"/><stop offset=".977" stop-color="#BF922D"/><stop offset="1" stop-color="#B78624"/></linearGradient><linearGradient id="paint4_linear_87_4790" x1="6.658" y1="22.945" x2="183.347" y2="78.157" gradientUnits="userSpaceOnUse"><stop stop-color="#AF7912"/><stop offset=".019" stop-color="#AD7712"/><stop offset=".183" stop-color="#A26914"/><stop offset=".324" stop-color="#9E6414"/><stop offset=".389" stop-color="#A36C19"/><stop offset=".489" stop-color="#B28126"/><stop offset=".609" stop-color="#C9A33B"/><stop offset=".707" stop-color="#E0C44F"/><stop offset=".8" stop-color="#DEC14D"/><stop offset=".866" stop-color="#D8B847"/><stop offset=".924" stop-color="#CEA83C"/><stop offset=".977" stop-color="#BF922D"/><stop offset="1" stop-color="#B78624"/></linearGradient><linearGradient id="paint5_linear_87_4790" x1="6.655" y1="22.946" x2="183.344" y2="78.158" gradientUnits="userSpaceOnUse"><stop stop-color="#AF7912"/><stop offset=".019" stop-color="#AD7712"/><stop offset=".183" stop-color="#A26914"/><stop offset=".324" stop-color="#9E6414"/><stop offset=".389" stop-color="#A36C19"/><stop offset=".489" stop-color="#B28126"/><stop offset=".609" stop-color="#C9A33B"/><stop offset=".707" stop-color="#E0C44F"/><stop offset=".8" stop-color="#DEC14D"/><stop offset=".866" stop-color="#D8B847"/><stop offset=".924" stop-color="#CEA83C"/><stop offset=".977" stop-color="#BF922D"/><stop offset="1" stop-color="#B78624"/></linearGradient><linearGradient id="paint6_linear_87_4790" x1="-48.874" y1="-3.917" x2="178.074" y2="67" gradientUnits="userSpaceOnUse"><stop stop-color="#AF7912"/><stop offset=".019" stop-color="#AD7712"/><stop offset=".183" stop-color="#A26914"/><stop offset=".324" stop-color="#9E6414"/><stop offset=".389" stop-color="#A36C19"/><stop offset=".489" stop-color="#B28126"/><stop offset=".609" stop-color="#C9A33B"/><stop offset=".707" stop-color="#E0C44F"/><stop offset=".8" stop-color="#DEC14D"/><stop offset=".866" stop-color="#D8B847"/><stop offset=".924" stop-color="#CEA83C"/><stop offset=".977" stop-color="#BF922D"/><stop offset="1" stop-color="#B78624"/></linearGradient><linearGradient id="paint7_linear_87_4790" x1="-48.876" y1="-3.916" x2="178.072" y2="67.001" gradientUnits="userSpaceOnUse"><stop stop-color="#AF7912"/><stop offset=".019" stop-color="#AD7712"/><stop offset=".183" stop-color="#A26914"/><stop offset=".324" stop-color="#9E6414"/><stop offset=".389" stop-color="#A36C19"/><stop offset=".489" stop-color="#B28126"/><stop offset=".609" stop-color="#C9A33B"/><stop offset=".707" stop-color="#E0C44F"/><stop offset=".8" stop-color="#DEC14D"/><stop offset=".866" stop-color="#D8B847"/><stop offset=".924" stop-color="#CEA83C"/><stop offset=".977" stop-color="#BF922D"/><stop offset="1" stop-color="#B78624"/></linearGradient><linearGradient id="paint8_linear_87_4790" x1="-48.875" y1="-3.917" x2="178.073" y2="67" gradientUnits="userSpaceOnUse"><stop stop-color="#AF7912"/><stop offset=".019" stop-color="#AD7712"/><stop offset=".183" stop-color="#A26914"/><stop offset=".324" stop-color="#9E6414"/><stop offset=".389" stop-color="#A36C19"/><stop offset=".489" stop-color="#B28126"/><stop offset=".609" stop-color="#C9A33B"/><stop offset=".707" stop-color="#E0C44F"/><stop offset=".8" stop-color="#DEC14D"/><stop offset=".866" stop-color="#D8B847"/><stop offset=".924" stop-color="#CEA83C"/><stop offset=".977" stop-color="#BF922D"/><stop offset="1" stop-color="#B78624"/></linearGradient><linearGradient id="paint9_linear_87_4790" x1="-48.874" y1="-3.917" x2="178.074" y2="67" gradientUnits="userSpaceOnUse"><stop stop-color="#AF7912"/><stop offset=".019" stop-color="#AD7712"/><stop offset=".183" stop-color="#A26914"/><stop offset=".324" stop-color="#9E6414"/><stop offset=".389" stop-color="#A36C19"/><stop offset=".489" stop-color="#B28126"/><stop offset=".609" stop-color="#C9A33B"/><stop offset=".707" stop-color="#E0C44F"/><stop offset=".8" stop-color="#DEC14D"/><stop offset=".866" stop-color="#D8B847"/><stop offset=".924" stop-color="#CEA83C"/><stop offset=".977" stop-color="#BF922D"/><stop offset="1" stop-color="#B78624"/></linearGradient><linearGradient id="paint10_linear_87_4790" x1="-48.873" y1="-3.917" x2="178.075" y2="67" gradientUnits="userSpaceOnUse"><stop stop-color="#AF7912"/><stop offset=".019" stop-color="#AD7712"/><stop offset=".183" stop-color="#A26914"/><stop offset=".324" stop-color="#9E6414"/><stop offset=".389" stop-color="#A36C19"/><stop offset=".489" stop-color="#B28126"/><stop offset=".609" stop-color="#C9A33B"/><stop offset=".707" stop-color="#E0C44F"/><stop offset=".8" stop-color="#DEC14D"/><stop offset=".866" stop-color="#D8B847"/><stop offset=".924" stop-color="#CEA83C"/><stop offset=".977" stop-color="#BF922D"/><stop offset="1" stop-color="#B78624"/></linearGradient><linearGradient id="paint11_linear_87_4790" x1="-48.872" y1="-3.917" x2="178.077" y2="67" gradientUnits="userSpaceOnUse"><stop stop-color="#AF7912"/><stop offset=".019" stop-color="#AD7712"/><stop offset=".183" stop-color="#A26914"/><stop offset=".324" stop-color="#9E6414"/><stop offset=".389" stop-color="#A36C19"/><stop offset=".489" stop-color="#B28126"/><stop offset=".609" stop-color="#C9A33B"/><stop offset=".707" stop-color="#E0C44F"/><stop offset=".8" stop-color="#DEC14D"/><stop offset=".866" stop-color="#D8B847"/><stop offset=".924" stop-color="#CEA83C"/><stop offset=".977" stop-color="#BF922D"/><stop offset="1" stop-color="#B78624"/></linearGradient><linearGradient id="paint12_linear_87_4790" x1="-48.875" y1="-3.917" x2="178.072" y2="67" gradientUnits="userSpaceOnUse"><stop stop-color="#AF7912"/><stop offset=".019" stop-color="#AD7712"/><stop offset=".183" stop-color="#A26914"/><stop offset=".324" stop-color="#9E6414"/><stop offset=".389" stop-color="#A36C19"/><stop offset=".489" stop-color="#B28126"/><stop offset=".609" stop-color="#C9A33B"/><stop offset=".707" stop-color="#E0C44F"/><stop offset=".8" stop-color="#DEC14D"/><stop offset=".866" stop-color="#D8B847"/><stop offset=".924" stop-color="#CEA83C"/><stop offset=".977" stop-color="#BF922D"/><stop offset="1" stop-color="#B78624"/></linearGradient><linearGradient id="paint13_linear_87_4790" x1="-48.876" y1="-3.917" x2="178.072" y2="67" gradientUnits="userSpaceOnUse"><stop stop-color="#AF7912"/><stop offset=".019" stop-color="#AD7712"/><stop offset=".183" stop-color="#A26914"/><stop offset=".324" stop-color="#9E6414"/><stop offset=".389" stop-color="#A36C19"/><stop offset=".489" stop-color="#B28126"/><stop offset=".609" stop-color="#C9A33B"/><stop offset=".707" stop-color="#E0C44F"/><stop offset=".8" stop-color="#DEC14D"/><stop offset=".866" stop-color="#D8B847"/><stop offset=".924" stop-color="#CEA83C"/><stop offset=".977" stop-color="#BF922D"/><stop offset="1" stop-color="#B78624"/></linearGradient><linearGradient id="paint14_linear_87_4790" x1="-48.874" y1="-3.917" x2="178.074" y2="67" gradientUnits="userSpaceOnUse"><stop stop-color="#AF7912"/><stop offset=".019" stop-color="#AD7712"/><stop offset=".183" stop-color="#A26914"/><stop offset=".324" stop-color="#9E6414"/><stop offset=".389" stop-color="#A36C19"/><stop offset=".489" stop-color="#B28126"/><stop offset=".609" stop-color="#C9A33B"/><stop offset=".707" stop-color="#E0C44F"/><stop offset=".8" stop-color="#DEC14D"/><stop offset=".866" stop-color="#D8B847"/><stop offset=".924" stop-color="#CEA83C"/><stop offset=".977" stop-color="#BF922D"/><stop offset="1" stop-color="#B78624"/></linearGradient><linearGradient id="paint15_linear_87_4790" x1="-48.877" y1="-3.917" x2="178.071" y2="67.001" gradientUnits="userSpaceOnUse"><stop stop-color="#AF7912"/><stop offset=".019" stop-color="#AD7712"/><stop offset=".183" stop-color="#A26914"/><stop offset=".324" stop-color="#9E6414"/><stop offset=".389" stop-color="#A36C19"/><stop offset=".489" stop-color="#B28126"/><stop offset=".609" stop-color="#C9A33B"/><stop offset=".707" stop-color="#E0C44F"/><stop offset=".8" stop-color="#DEC14D"/><stop offset=".866" stop-color="#D8B847"/><stop offset=".924" stop-color="#CEA83C"/><stop offset=".977" stop-color="#BF922D"/><stop offset="1" stop-color="#B78624"/></linearGradient><linearGradient id="paint16_linear_87_4790" x1="-48.878" y1="-3.917" x2="178.07" y2="66.999" gradientUnits="userSpaceOnUse"><stop stop-color="#AF7912"/><stop offset=".019" stop-color="#AD7712"/><stop offset=".183" stop-color="#A26914"/><stop offset=".324" stop-color="#9E6414"/><stop offset=".389" stop-color="#A36C19"/><stop offset=".489" stop-color="#B28126"/><stop offset=".609" stop-color="#C9A33B"/><stop offset=".707" stop-color="#E0C44F"/><stop offset=".8" stop-color="#DEC14D"/><stop offset=".866" stop-color="#D8B847"/><stop offset=".924" stop-color="#CEA83C"/><stop offset=".977" stop-color="#BF922D"/><stop offset="1" stop-color="#B78624"/></linearGradient><linearGradient id="paint17_linear_87_4790" x1="-7.76" y1="45.914" x2="113.896" y2="83.177" gradientUnits="userSpaceOnUse"><stop stop-color="#AF7912"/><stop offset=".019" stop-color="#AD7712"/><stop offset=".183" stop-color="#A26914"/><stop offset=".324" stop-color="#9E6414"/><stop offset=".389" stop-color="#A36C19"/><stop offset=".489" stop-color="#B28126"/><stop offset=".609" stop-color="#C9A33B"/><stop offset=".707" stop-color="#E0C44F"/><stop offset=".8" stop-color="#DEC14D"/><stop offset=".866" stop-color="#D8B847"/><stop offset=".924" stop-color="#CEA83C"/><stop offset=".977" stop-color="#BF922D"/><stop offset="1" stop-color="#B78624"/></linearGradient><linearGradient id="paint18_linear_87_4790" x1="-7.762" y1="45.914" x2="113.895" y2="83.177" gradientUnits="userSpaceOnUse"><stop stop-color="#AF7912"/><stop offset=".019" stop-color="#AD7712"/><stop offset=".183" stop-color="#A26914"/><stop offset=".324" stop-color="#9E6414"/><stop offset=".389" stop-color="#A36C19"/><stop offset=".489" stop-color="#B28126"/><stop offset=".609" stop-color="#C9A33B"/><stop offset=".707" stop-color="#E0C44F"/><stop offset=".8" stop-color="#DEC14D"/><stop offset=".866" stop-color="#D8B847"/><stop offset=".924" stop-color="#CEA83C"/><stop offset=".977" stop-color="#BF922D"/><stop offset="1" stop-color="#B78624"/></linearGradient><linearGradient id="paint19_linear_87_4790" x1="-.998" y1="46.042" x2="109.035" y2="79.841" gradientUnits="userSpaceOnUse"><stop stop-color="#AF7912"/><stop offset=".019" stop-color="#AD7712"/><stop offset=".183" stop-color="#A26914"/><stop offset=".324" stop-color="#9E6414"/><stop offset=".389" stop-color="#A36C19"/><stop offset=".489" stop-color="#B28126"/><stop offset=".609" stop-color="#C9A33B"/><stop offset=".707" stop-color="#E0C44F"/><stop offset=".8" stop-color="#DEC14D"/><stop offset=".866" stop-color="#D8B847"/><stop offset=".924" stop-color="#CEA83C"/><stop offset=".977" stop-color="#BF922D"/><stop offset="1" stop-color="#B78624"/></linearGradient><linearGradient id="paint20_linear_87_4790" x1="-.998" y1="46.042" x2="109.035" y2="79.841" gradientUnits="userSpaceOnUse"><stop stop-color="#AF7912"/><stop offset=".019" stop-color="#AD7712"/><stop offset=".183" stop-color="#A26914"/><stop offset=".324" stop-color="#9E6414"/><stop offset=".389" stop-color="#A36C19"/><stop offset=".489" stop-color="#B28126"/><stop offset=".609" stop-color="#C9A33B"/><stop offset=".707" stop-color="#E0C44F"/><stop offset=".8" stop-color="#DEC14D"/><stop offset=".866" stop-color="#D8B847"/><stop offset=".924" stop-color="#CEA83C"/><stop offset=".977" stop-color="#BF922D"/><stop offset="1" stop-color="#B78624"/></linearGradient><linearGradient id="paint21_linear_87_4790" x1="-13.215" y1="47.443" x2="119.682" y2="88.951" gradientUnits="userSpaceOnUse"><stop stop-color="#AF7912"/><stop offset=".019" stop-color="#AD7712"/><stop offset=".183" stop-color="#A26914"/><stop offset=".324" stop-color="#9E6414"/><stop offset=".389" stop-color="#A36C19"/><stop offset=".489" stop-color="#B28126"/><stop offset=".609" stop-color="#C9A33B"/><stop offset=".707" stop-color="#E0C44F"/><stop offset=".8" stop-color="#DEC14D"/><stop offset=".866" stop-color="#D8B847"/><stop offset=".924" stop-color="#CEA83C"/><stop offset=".977" stop-color="#BF922D"/><stop offset="1" stop-color="#B78624"/></linearGradient><linearGradient id="paint22_linear_87_4790" x1="-13.215" y1="47.443" x2="119.682" y2="88.951" gradientUnits="userSpaceOnUse"><stop stop-color="#AF7912"/><stop offset=".019" stop-color="#AD7712"/><stop offset=".183" stop-color="#A26914"/><stop offset=".324" stop-color="#9E6414"/><stop offset=".389" stop-color="#A36C19"/><stop offset=".489" stop-color="#B28126"/><stop offset=".609" stop-color="#C9A33B"/><stop offset=".707" stop-color="#E0C44F"/><stop offset=".8" stop-color="#DEC14D"/><stop offset=".866" stop-color="#D8B847"/><stop offset=".924" stop-color="#CEA83C"/><stop offset=".977" stop-color="#BF922D"/><stop offset="1" stop-color="#B78624"/></linearGradient><linearGradient id="paint23_linear_87_4790" x1="-7.763" y1="45.914" x2="113.893" y2="83.177" gradientUnits="userSpaceOnUse"><stop stop-color="#AF7912"/><stop offset=".019" stop-color="#AD7712"/><stop offset=".183" stop-color="#A26914"/><stop offset=".324" stop-color="#9E6414"/><stop offset=".389" stop-color="#A36C19"/><stop offset=".489" stop-color="#B28126"/><stop offset=".609" stop-color="#C9A33B"/><stop offset=".707" stop-color="#E0C44F"/><stop offset=".8" stop-color="#DEC14D"/><stop offset=".866" stop-color="#D8B847"/><stop offset=".924" stop-color="#CEA83C"/><stop offset=".977" stop-color="#BF922D"/><stop offset="1" stop-color="#B78624"/></linearGradient><linearGradient id="paint24_linear_87_4790" x1="-7.761" y1="45.914" x2="113.894" y2="83.176" gradientUnits="userSpaceOnUse"><stop stop-color="#AF7912"/><stop offset=".019" stop-color="#AD7712"/><stop offset=".183" stop-color="#A26914"/><stop offset=".324" stop-color="#9E6414"/><stop offset=".389" stop-color="#A36C19"/><stop offset=".489" stop-color="#B28126"/><stop offset=".609" stop-color="#C9A33B"/><stop offset=".707" stop-color="#E0C44F"/><stop offset=".8" stop-color="#DEC14D"/><stop offset=".866" stop-color="#D8B847"/><stop offset=".924" stop-color="#CEA83C"/><stop offset=".977" stop-color="#BF922D"/><stop offset="1" stop-color="#B78624"/></linearGradient><linearGradient id="paint25_linear_87_4790" x1="-7.761" y1="45.914" x2="113.895" y2="83.177" gradientUnits="userSpaceOnUse"><stop stop-color="#AF7912"/><stop offset=".019" stop-color="#AD7712"/><stop offset=".183" stop-color="#A26914"/><stop offset=".324" stop-color="#9E6414"/><stop offset=".389" stop-color="#A36C19"/><stop offset=".489" stop-color="#B28126"/><stop offset=".609" stop-color="#C9A33B"/><stop offset=".707" stop-color="#E0C44F"/><stop offset=".8" stop-color="#DEC14D"/><stop offset=".866" stop-color="#D8B847"/><stop offset=".924" stop-color="#CEA83C"/><stop offset=".977" stop-color="#BF922D"/><stop offset="1" stop-color="#B78624"/></linearGradient><linearGradient id="paint26_linear_87_4790" x1="-7.762" y1="45.914" x2="113.894" y2="83.177" gradientUnits="userSpaceOnUse"><stop stop-color="#AF7912"/><stop offset=".019" stop-color="#AD7712"/><stop offset=".183" stop-color="#A26914"/><stop offset=".324" stop-color="#9E6414"/><stop offset=".389" stop-color="#A36C19"/><stop offset=".489" stop-color="#B28126"/><stop offset=".609" stop-color="#C9A33B"/><stop offset=".707" stop-color="#E0C44F"/><stop offset=".8" stop-color="#DEC14D"/><stop offset=".866" stop-color="#D8B847"/><stop offset=".924" stop-color="#CEA83C"/><stop offset=".977" stop-color="#BF922D"/><stop offset="1" stop-color="#B78624"/></linearGradient><linearGradient id="paint27_linear_87_4790" x1="-7.761" y1="45.914" x2="113.896" y2="83.177" gradientUnits="userSpaceOnUse"><stop stop-color="#AF7912"/><stop offset=".019" stop-color="#AD7712"/><stop offset=".183" stop-color="#A26914"/><stop offset=".324" stop-color="#9E6414"/><stop offset=".389" stop-color="#A36C19"/><stop offset=".489" stop-color="#B28126"/><stop offset=".609" stop-color="#C9A33B"/><stop offset=".707" stop-color="#E0C44F"/><stop offset=".8" stop-color="#DEC14D"/><stop offset=".866" stop-color="#D8B847"/><stop offset=".924" stop-color="#CEA83C"/><stop offset=".977" stop-color="#BF922D"/><stop offset="1" stop-color="#B78624"/></linearGradient><linearGradient id="paint28_linear_87_4790" x1="-7.762" y1="45.914" x2="113.894" y2="83.177" gradientUnits="userSpaceOnUse"><stop stop-color="#AF7912"/><stop offset=".019" stop-color="#AD7712"/><stop offset=".183" stop-color="#A26914"/><stop offset=".324" stop-color="#9E6414"/><stop offset=".389" stop-color="#A36C19"/><stop offset=".489" stop-color="#B28126"/><stop offset=".609" stop-color="#C9A33B"/><stop offset=".707" stop-color="#E0C44F"/><stop offset=".8" stop-color="#DEC14D"/><stop offset=".866" stop-color="#D8B847"/><stop offset=".924" stop-color="#CEA83C"/><stop offset=".977" stop-color="#BF922D"/><stop offset="1" stop-color="#B78624"/></linearGradient><linearGradient id="paint29_linear_87_4790" x1="-7.762" y1="45.914" x2="113.894" y2="83.177" gradientUnits="userSpaceOnUse"><stop stop-color="#AF7912"/><stop offset=".019" stop-color="#AD7712"/><stop offset=".183" stop-color="#A26914"/><stop offset=".324" stop-color="#9E6414"/><stop offset=".389" stop-color="#A36C19"/><stop offset=".489" stop-color="#B28126"/><stop offset=".609" stop-color="#C9A33B"/><stop offset=".707" stop-color="#E0C44F"/><stop offset=".8" stop-color="#DEC14D"/><stop offset=".866" stop-color="#D8B847"/><stop offset=".924" stop-color="#CEA83C"/><stop offset=".977" stop-color="#BF922D"/><stop offset="1" stop-color="#B78624"/></linearGradient><linearGradient id="paint30_linear_87_4790" x1="-3.228" y1="49.028" x2="107.212" y2="83.133" gradientUnits="userSpaceOnUse"><stop stop-color="#AF7912"/><stop offset=".019" stop-color="#AD7712"/><stop offset=".183" stop-color="#A26914"/><stop offset=".324" stop-color="#9E6414"/><stop offset=".389" stop-color="#A36C19"/><stop offset=".489" stop-color="#B28126"/><stop offset=".609" stop-color="#C9A33B"/><stop offset=".707" stop-color="#E0C44F"/><stop offset=".8" stop-color="#DEC14D"/><stop offset=".866" stop-color="#D8B847"/><stop offset=".924" stop-color="#CEA83C"/><stop offset=".977" stop-color="#BF922D"/><stop offset="1" stop-color="#B78624"/></linearGradient><linearGradient id="paint31_linear_87_4790" x1="-3.228" y1="49.028" x2="107.212" y2="83.133" gradientUnits="userSpaceOnUse"><stop stop-color="#AF7912"/><stop offset=".019" stop-color="#AD7712"/><stop offset=".183" stop-color="#A26914"/><stop offset=".324" stop-color="#9E6414"/><stop offset=".389" stop-color="#A36C19"/><stop offset=".489" stop-color="#B28126"/><stop offset=".609" stop-color="#C9A33B"/><stop offset=".707" stop-color="#E0C44F"/><stop offset=".8" stop-color="#DEC14D"/><stop offset=".866" stop-color="#D8B847"/><stop offset=".924" stop-color="#CEA83C"/><stop offset=".977" stop-color="#BF922D"/><stop offset="1" stop-color="#B78624"/></linearGradient><linearGradient id="paint32_linear_87_4790" x1="-3.228" y1="49.036" x2="107.207" y2="83.148" gradientUnits="userSpaceOnUse"><stop stop-color="#AF7912"/><stop offset=".019" stop-color="#AD7712"/><stop offset=".183" stop-color="#A26914"/><stop offset=".324" stop-color="#9E6414"/><stop offset=".389" stop-color="#A36C19"/><stop offset=".489" stop-color="#B28126"/><stop offset=".609" stop-color="#C9A33B"/><stop offset=".707" stop-color="#E0C44F"/><stop offset=".8" stop-color="#DEC14D"/><stop offset=".866" stop-color="#D8B847"/><stop offset=".924" stop-color="#CEA83C"/><stop offset=".977" stop-color="#BF922D"/><stop offset="1" stop-color="#B78624"/></linearGradient><linearGradient id="paint33_linear_87_4790" x1="-3.228" y1="49.036" x2="107.207" y2="83.148" gradientUnits="userSpaceOnUse"><stop stop-color="#AF7912"/><stop offset=".019" stop-color="#AD7712"/><stop offset=".183" stop-color="#A26914"/><stop offset=".324" stop-color="#9E6414"/><stop offset=".389" stop-color="#A36C19"/><stop offset=".489" stop-color="#B28126"/><stop offset=".609" stop-color="#C9A33B"/><stop offset=".707" stop-color="#E0C44F"/><stop offset=".8" stop-color="#DEC14D"/><stop offset=".866" stop-color="#D8B847"/><stop offset=".924" stop-color="#CEA83C"/><stop offset=".977" stop-color="#BF922D"/><stop offset="1" stop-color="#B78624"/></linearGradient><linearGradient id="paint34_linear_87_4790" x1="-7.761" y1="45.914" x2="113.895" y2="83.177" gradientUnits="userSpaceOnUse"><stop stop-color="#AF7912"/><stop offset=".019" stop-color="#AD7712"/><stop offset=".183" stop-color="#A26914"/><stop offset=".324" stop-color="#9E6414"/><stop offset=".389" stop-color="#A36C19"/><stop offset=".489" stop-color="#B28126"/><stop offset=".609" stop-color="#C9A33B"/><stop offset=".707" stop-color="#E0C44F"/><stop offset=".8" stop-color="#DEC14D"/><stop offset=".866" stop-color="#D8B847"/><stop offset=".924" stop-color="#CEA83C"/><stop offset=".977" stop-color="#BF922D"/><stop offset="1" stop-color="#B78624"/></linearGradient><linearGradient id="paint35_linear_87_4790" x1="-7.762" y1="45.914" x2="113.894" y2="83.177" gradientUnits="userSpaceOnUse"><stop stop-color="#AF7912"/><stop offset=".019" stop-color="#AD7712"/><stop offset=".183" stop-color="#A26914"/><stop offset=".324" stop-color="#9E6414"/><stop offset=".389" stop-color="#A36C19"/><stop offset=".489" stop-color="#B28126"/><stop offset=".609" stop-color="#C9A33B"/><stop offset=".707" stop-color="#E0C44F"/><stop offset=".8" stop-color="#DEC14D"/><stop offset=".866" stop-color="#D8B847"/><stop offset=".924" stop-color="#CEA83C"/><stop offset=".977" stop-color="#BF922D"/><stop offset="1" stop-color="#B78624"/></linearGradient><linearGradient id="paint36_linear_87_4790" x1="-7.761" y1="45.914" x2="113.895" y2="83.177" gradientUnits="userSpaceOnUse"><stop stop-color="#AF7912"/><stop offset=".019" stop-color="#AD7712"/><stop offset=".183" stop-color="#A26914"/><stop offset=".324" stop-color="#9E6414"/><stop offset=".389" stop-color="#A36C19"/><stop offset=".489" stop-color="#B28126"/><stop offset=".609" stop-color="#C9A33B"/><stop offset=".707" stop-color="#E0C44F"/><stop offset=".8" stop-color="#DEC14D"/><stop offset=".866" stop-color="#D8B847"/><stop offset=".924" stop-color="#CEA83C"/><stop offset=".977" stop-color="#BF922D"/><stop offset="1" stop-color="#B78624"/></linearGradient><linearGradient id="paint37_linear_87_4790" x1="-7.762" y1="45.914" x2="113.894" y2="83.177" gradientUnits="userSpaceOnUse"><stop stop-color="#AF7912"/><stop offset=".019" stop-color="#AD7712"/><stop offset=".183" stop-color="#A26914"/><stop offset=".324" stop-color="#9E6414"/><stop offset=".389" stop-color="#A36C19"/><stop offset=".489" stop-color="#B28126"/><stop offset=".609" stop-color="#C9A33B"/><stop offset=".707" stop-color="#E0C44F"/><stop offset=".8" stop-color="#DEC14D"/><stop offset=".866" stop-color="#D8B847"/><stop offset=".924" stop-color="#CEA83C"/><stop offset=".977" stop-color="#BF922D"/><stop offset="1" stop-color="#B78624"/></linearGradient><linearGradient id="paint38_linear_87_4790" x1="-7.761" y1="45.914" x2="113.895" y2="83.177" gradientUnits="userSpaceOnUse"><stop stop-color="#AF7912"/><stop offset=".019" stop-color="#AD7712"/><stop offset=".183" stop-color="#A26914"/><stop offset=".324" stop-color="#9E6414"/><stop offset=".389" stop-color="#A36C19"/><stop offset=".489" stop-color="#B28126"/><stop offset=".609" stop-color="#C9A33B"/><stop offset=".707" stop-color="#E0C44F"/><stop offset=".8" stop-color="#DEC14D"/><stop offset=".866" stop-color="#D8B847"/><stop offset=".924" stop-color="#CEA83C"/><stop offset=".977" stop-color="#BF922D"/><stop offset="1" stop-color="#B78624"/></linearGradient><linearGradient id="paint39_linear_87_4790" x1="-7.761" y1="45.914" x2="113.895" y2="83.177" gradientUnits="userSpaceOnUse"><stop stop-color="#AF7912"/><stop offset=".019" stop-color="#AD7712"/><stop offset=".183" stop-color="#A26914"/><stop offset=".324" stop-color="#9E6414"/><stop offset=".389" stop-color="#A36C19"/><stop offset=".489" stop-color="#B28126"/><stop offset=".609" stop-color="#C9A33B"/><stop offset=".707" stop-color="#E0C44F"/><stop offset=".8" stop-color="#DEC14D"/><stop offset=".866" stop-color="#D8B847"/><stop offset=".924" stop-color="#CEA83C"/><stop offset=".977" stop-color="#BF922D"/><stop offset="1" stop-color="#B78624"/></linearGradient><linearGradient id="paint40_linear_87_4790" x1="-7.762" y1="45.914" x2="113.894" y2="83.177" gradientUnits="userSpaceOnUse"><stop stop-color="#AF7912"/><stop offset=".019" stop-color="#AD7712"/><stop offset=".183" stop-color="#A26914"/><stop offset=".324" stop-color="#9E6414"/><stop offset=".389" stop-color="#A36C19"/><stop offset=".489" stop-color="#B28126"/><stop offset=".609" stop-color="#C9A33B"/><stop offset=".707" stop-color="#E0C44F"/><stop offset=".8" stop-color="#DEC14D"/><stop offset=".866" stop-color="#D8B847"/><stop offset=".924" stop-color="#CEA83C"/><stop offset=".977" stop-color="#BF922D"/><stop offset="1" stop-color="#B78624"/></linearGradient><linearGradient id="paint41_linear_87_4790" x1="-4.299" y1="48.325" x2="108.772" y2="83.209" gradientUnits="userSpaceOnUse"><stop stop-color="#AF7912"/><stop offset=".019" stop-color="#AD7712"/><stop offset=".183" stop-color="#A26914"/><stop offset=".324" stop-color="#9E6414"/><stop offset=".389" stop-color="#A36C19"/><stop offset=".489" stop-color="#B28126"/><stop offset=".609" stop-color="#C9A33B"/><stop offset=".707" stop-color="#E0C44F"/><stop offset=".8" stop-color="#DEC14D"/><stop offset=".866" stop-color="#D8B847"/><stop offset=".924" stop-color="#CEA83C"/><stop offset=".977" stop-color="#BF922D"/><stop offset="1" stop-color="#B78624"/></linearGradient><linearGradient id="paint42_linear_87_4790" x1="-4.299" y1="48.325" x2="108.772" y2="83.209" gradientUnits="userSpaceOnUse"><stop stop-color="#AF7912"/><stop offset=".019" stop-color="#AD7712"/><stop offset=".183" stop-color="#A26914"/><stop offset=".324" stop-color="#9E6414"/><stop offset=".389" stop-color="#A36C19"/><stop offset=".489" stop-color="#B28126"/><stop offset=".609" stop-color="#C9A33B"/><stop offset=".707" stop-color="#E0C44F"/><stop offset=".8" stop-color="#DEC14D"/><stop offset=".866" stop-color="#D8B847"/><stop offset=".924" stop-color="#CEA83C"/><stop offset=".977" stop-color="#BF922D"/><stop offset="1" stop-color="#B78624"/></linearGradient><linearGradient id="paint43_linear_87_4790" x1="-19.137" y1="38.791" x2="130.192" y2="84.644" gradientUnits="userSpaceOnUse"><stop stop-color="#AF7912"/><stop offset=".019" stop-color="#AD7712"/><stop offset=".183" stop-color="#A26914"/><stop offset=".324" stop-color="#9E6414"/><stop offset=".389" stop-color="#A36C19"/><stop offset=".489" stop-color="#B28126"/><stop offset=".609" stop-color="#C9A33B"/><stop offset=".707" stop-color="#E0C44F"/><stop offset=".8" stop-color="#DEC14D"/><stop offset=".866" stop-color="#D8B847"/><stop offset=".924" stop-color="#CEA83C"/><stop offset=".977" stop-color="#BF922D"/><stop offset="1" stop-color="#B78624"/></linearGradient><linearGradient id="paint44_linear_87_4790" x1="-19.137" y1="38.791" x2="130.192" y2="84.644" gradientUnits="userSpaceOnUse"><stop stop-color="#AF7912"/><stop offset=".019" stop-color="#AD7712"/><stop offset=".183" stop-color="#A26914"/><stop offset=".324" stop-color="#9E6414"/><stop offset=".389" stop-color="#A36C19"/><stop offset=".489" stop-color="#B28126"/><stop offset=".609" stop-color="#C9A33B"/><stop offset=".707" stop-color="#E0C44F"/><stop offset=".8" stop-color="#DEC14D"/><stop offset=".866" stop-color="#D8B847"/><stop offset=".924" stop-color="#CEA83C"/><stop offset=".977" stop-color="#BF922D"/><stop offset="1" stop-color="#B78624"/></linearGradient><linearGradient id="paint45_linear_87_4790" x1="-19.541" y1="38.423" x2="130.847" y2="84.469" gradientUnits="userSpaceOnUse"><stop stop-color="#AF7912"/><stop offset=".019" stop-color="#AD7712"/><stop offset=".183" stop-color="#A26914"/><stop offset=".324" stop-color="#9E6414"/><stop offset=".389" stop-color="#A36C19"/><stop offset=".489" stop-color="#B28126"/><stop offset=".609" stop-color="#C9A33B"/><stop offset=".707" stop-color="#E0C44F"/><stop offset=".8" stop-color="#DEC14D"/><stop offset=".866" stop-color="#D8B847"/><stop offset=".924" stop-color="#CEA83C"/><stop offset=".977" stop-color="#BF922D"/><stop offset="1" stop-color="#B78624"/></linearGradient><linearGradient id="paint46_linear_87_4790" x1="-19.541" y1="38.423" x2="130.847" y2="84.469" gradientUnits="userSpaceOnUse"><stop stop-color="#AF7912"/><stop offset=".019" stop-color="#AD7712"/><stop offset=".183" stop-color="#A26914"/><stop offset=".324" stop-color="#9E6414"/><stop offset=".389" stop-color="#A36C19"/><stop offset=".489" stop-color="#B28126"/><stop offset=".609" stop-color="#C9A33B"/><stop offset=".707" stop-color="#E0C44F"/><stop offset=".8" stop-color="#DEC14D"/><stop offset=".866" stop-color="#D8B847"/><stop offset=".924" stop-color="#CEA83C"/><stop offset=".977" stop-color="#BF922D"/><stop offset="1" stop-color="#B78624"/></linearGradient><linearGradient id="paint47_linear_87_4790" x1="-7.762" y1="45.915" x2="113.893" y2="83.177" gradientUnits="userSpaceOnUse"><stop stop-color="#AF7912"/><stop offset=".019" stop-color="#AD7712"/><stop offset=".183" stop-color="#A26914"/><stop offset=".324" stop-color="#9E6414"/><stop offset=".389" stop-color="#A36C19"/><stop offset=".489" stop-color="#B28126"/><stop offset=".609" stop-color="#C9A33B"/><stop offset=".707" stop-color="#E0C44F"/><stop offset=".8" stop-color="#DEC14D"/><stop offset=".866" stop-color="#D8B847"/><stop offset=".924" stop-color="#CEA83C"/><stop offset=".977" stop-color="#BF922D"/><stop offset="1" stop-color="#B78624"/></linearGradient><linearGradient id="paint48_linear_87_4790" x1="-7.762" y1="45.914" x2="113.895" y2="83.177" gradientUnits="userSpaceOnUse"><stop stop-color="#AF7912"/><stop offset=".019" stop-color="#AD7712"/><stop offset=".183" stop-color="#A26914"/><stop offset=".324" stop-color="#9E6414"/><stop offset=".389" stop-color="#A36C19"/><stop offset=".489" stop-color="#B28126"/><stop offset=".609" stop-color="#C9A33B"/><stop offset=".707" stop-color="#E0C44F"/><stop offset=".8" stop-color="#DEC14D"/><stop offset=".866" stop-color="#D8B847"/><stop offset=".924" stop-color="#CEA83C"/><stop offset=".977" stop-color="#BF922D"/><stop offset="1" stop-color="#B78624"/></linearGradient><linearGradient id="paint49_linear_87_4790" x1="-7.763" y1="45.915" x2="113.894" y2="83.177" gradientUnits="userSpaceOnUse"><stop stop-color="#AF7912"/><stop offset=".019" stop-color="#AD7712"/><stop offset=".183" stop-color="#A26914"/><stop offset=".324" stop-color="#9E6414"/><stop offset=".389" stop-color="#A36C19"/><stop offset=".489" stop-color="#B28126"/><stop offset=".609" stop-color="#C9A33B"/><stop offset=".707" stop-color="#E0C44F"/><stop offset=".8" stop-color="#DEC14D"/><stop offset=".866" stop-color="#D8B847"/><stop offset=".924" stop-color="#CEA83C"/><stop offset=".977" stop-color="#BF922D"/><stop offset="1" stop-color="#B78624"/></linearGradient><linearGradient id="paint50_linear_87_4790" x1="-7.763" y1="45.915" x2="113.894" y2="83.177" gradientUnits="userSpaceOnUse"><stop stop-color="#AF7912"/><stop offset=".019" stop-color="#AD7712"/><stop offset=".183" stop-color="#A26914"/><stop offset=".324" stop-color="#9E6414"/><stop offset=".389" stop-color="#A36C19"/><stop offset=".489" stop-color="#B28126"/><stop offset=".609" stop-color="#C9A33B"/><stop offset=".707" stop-color="#E0C44F"/><stop offset=".8" stop-color="#DEC14D"/><stop offset=".866" stop-color="#D8B847"/><stop offset=".924" stop-color="#CEA83C"/><stop offset=".977" stop-color="#BF922D"/><stop offset="1" stop-color="#B78624"/></linearGradient><linearGradient id="paint51_linear_87_4790" x1="-7.761" y1="45.915" x2="113.895" y2="83.178" gradientUnits="userSpaceOnUse"><stop stop-color="#AF7912"/><stop offset=".019" stop-color="#AD7712"/><stop offset=".183" stop-color="#A26914"/><stop offset=".324" stop-color="#9E6414"/><stop offset=".389" stop-color="#A36C19"/><stop offset=".489" stop-color="#B28126"/><stop offset=".609" stop-color="#C9A33B"/><stop offset=".707" stop-color="#E0C44F"/><stop offset=".8" stop-color="#DEC14D"/><stop offset=".866" stop-color="#D8B847"/><stop offset=".924" stop-color="#CEA83C"/><stop offset=".977" stop-color="#BF922D"/><stop offset="1" stop-color="#B78624"/></linearGradient><linearGradient id="paint52_linear_87_4790" x1="-7.762" y1="45.914" x2="113.895" y2="83.177" gradientUnits="userSpaceOnUse"><stop stop-color="#AF7912"/><stop offset=".019" stop-color="#AD7712"/><stop offset=".183" stop-color="#A26914"/><stop offset=".324" stop-color="#9E6414"/><stop offset=".389" stop-color="#A36C19"/><stop offset=".489" stop-color="#B28126"/><stop offset=".609" stop-color="#C9A33B"/><stop offset=".707" stop-color="#E0C44F"/><stop offset=".8" stop-color="#DEC14D"/><stop offset=".866" stop-color="#D8B847"/><stop offset=".924" stop-color="#CEA83C"/><stop offset=".977" stop-color="#BF922D"/><stop offset="1" stop-color="#B78624"/></linearGradient><linearGradient id="paint53_linear_87_4790" x1="-7.764" y1="45.914" x2="113.893" y2="83.177" gradientUnits="userSpaceOnUse"><stop stop-color="#AF7912"/><stop offset=".019" stop-color="#AD7712"/><stop offset=".183" stop-color="#A26914"/><stop offset=".324" stop-color="#9E6414"/><stop offset=".389" stop-color="#A36C19"/><stop offset=".489" stop-color="#B28126"/><stop offset=".609" stop-color="#C9A33B"/><stop offset=".707" stop-color="#E0C44F"/><stop offset=".8" stop-color="#DEC14D"/><stop offset=".866" stop-color="#D8B847"/><stop offset=".924" stop-color="#CEA83C"/><stop offset=".977" stop-color="#BF922D"/><stop offset="1" stop-color="#B78624"/></linearGradient><linearGradient id="paint54_linear_87_4790" x1="-7.761" y1="45.914" x2="113.894" y2="83.176" gradientUnits="userSpaceOnUse"><stop stop-color="#AF7912"/><stop offset=".019" stop-color="#AD7712"/><stop offset=".183" stop-color="#A26914"/><stop offset=".324" stop-color="#9E6414"/><stop offset=".389" stop-color="#A36C19"/><stop offset=".489" stop-color="#B28126"/><stop offset=".609" stop-color="#C9A33B"/><stop offset=".707" stop-color="#E0C44F"/><stop offset=".8" stop-color="#DEC14D"/><stop offset=".866" stop-color="#D8B847"/><stop offset=".924" stop-color="#CEA83C"/><stop offset=".977" stop-color="#BF922D"/><stop offset="1" stop-color="#B78624"/></linearGradient><linearGradient id="paint55_linear_87_4790" x1="-7.759" y1="45.914" x2="113.895" y2="83.175" gradientUnits="userSpaceOnUse"><stop stop-color="#AF7912"/><stop offset=".019" stop-color="#AD7712"/><stop offset=".183" stop-color="#A26914"/><stop offset=".324" stop-color="#9E6414"/><stop offset=".389" stop-color="#A36C19"/><stop offset=".489" stop-color="#B28126"/><stop offset=".609" stop-color="#C9A33B"/><stop offset=".707" stop-color="#E0C44F"/><stop offset=".8" stop-color="#DEC14D"/><stop offset=".866" stop-color="#D8B847"/><stop offset=".924" stop-color="#CEA83C"/><stop offset=".977" stop-color="#BF922D"/><stop offset="1" stop-color="#B78624"/></linearGradient><linearGradient id="paint56_linear_87_4790" x1="-7.759" y1="45.914" x2="113.896" y2="83.175" gradientUnits="userSpaceOnUse"><stop stop-color="#AF7912"/><stop offset=".019" stop-color="#AD7712"/><stop offset=".183" stop-color="#A26914"/><stop offset=".324" stop-color="#9E6414"/><stop offset=".389" stop-color="#A36C19"/><stop offset=".489" stop-color="#B28126"/><stop offset=".609" stop-color="#C9A33B"/><stop offset=".707" stop-color="#E0C44F"/><stop offset=".8" stop-color="#DEC14D"/><stop offset=".866" stop-color="#D8B847"/><stop offset=".924" stop-color="#CEA83C"/><stop offset=".977" stop-color="#BF922D"/><stop offset="1" stop-color="#B78624"/></linearGradient><linearGradient id="paint57_linear_87_4790" x1="-7.763" y1="45.914" x2="113.894" y2="83.177" gradientUnits="userSpaceOnUse"><stop stop-color="#AF7912"/><stop offset=".019" stop-color="#AD7712"/><stop offset=".183" stop-color="#A26914"/><stop offset=".324" stop-color="#9E6414"/><stop offset=".389" stop-color="#A36C19"/><stop offset=".489" stop-color="#B28126"/><stop offset=".609" stop-color="#C9A33B"/><stop offset=".707" stop-color="#E0C44F"/><stop offset=".8" stop-color="#DEC14D"/><stop offset=".866" stop-color="#D8B847"/><stop offset=".924" stop-color="#CEA83C"/><stop offset=".977" stop-color="#BF922D"/><stop offset="1" stop-color="#B78624"/></linearGradient><linearGradient id="paint58_linear_87_4790" x1="-7.762" y1="45.914" x2="113.893" y2="83.177" gradientUnits="userSpaceOnUse"><stop stop-color="#AF7912"/><stop offset=".019" stop-color="#AD7712"/><stop offset=".183" stop-color="#A26914"/><stop offset=".324" stop-color="#9E6414"/><stop offset=".389" stop-color="#A36C19"/><stop offset=".489" stop-color="#B28126"/><stop offset=".609" stop-color="#C9A33B"/><stop offset=".707" stop-color="#E0C44F"/><stop offset=".8" stop-color="#DEC14D"/><stop offset=".866" stop-color="#D8B847"/><stop offset=".924" stop-color="#CEA83C"/><stop offset=".977" stop-color="#BF922D"/><stop offset="1" stop-color="#B78624"/></linearGradient><linearGradient id="paint59_linear_87_4790" x1="-7.761" y1="45.914" x2="113.895" y2="83.177" gradientUnits="userSpaceOnUse"><stop stop-color="#AF7912"/><stop offset=".019" stop-color="#AD7712"/><stop offset=".183" stop-color="#A26914"/><stop offset=".324" stop-color="#9E6414"/><stop offset=".389" stop-color="#A36C19"/><stop offset=".489" stop-color="#B28126"/><stop offset=".609" stop-color="#C9A33B"/><stop offset=".707" stop-color="#E0C44F"/><stop offset=".8" stop-color="#DEC14D"/><stop offset=".866" stop-color="#D8B847"/><stop offset=".924" stop-color="#CEA83C"/><stop offset=".977" stop-color="#BF922D"/><stop offset="1" stop-color="#B78624"/></linearGradient><clipPath id="clip0_87_4790"><path fill="#fff" d="M0 0h84.579v84.579H0z"/></clipPath></defs></svg>