<svg width="251" height="196" viewBox="0 0 251 196" fill="none" xmlns="http://www.w3.org/2000/svg">
<path d="M67.0977 174.978C58.3078 175.343 52.6506 170.872 47.5713 164.82C41.245 166.28 36.3482 163.421 31.938 159.162C30.9039 158.159 29.6265 157.277 28.3491 156.608C25.5205 155.087 22.5094 153.87 19.7417 152.289C17.9472 151.285 16.3047 149.947 14.8144 148.517C11.4079 145.263 9.55266 140.822 6.72407 137.112C4.47336 134.192 3.9867 130.086 5.4162 126.223C5.87242 124.976 6.14617 123.699 6.57198 122.239C5.87244 120.779 5.17291 119.258 4.44295 117.707C2.43556 113.449 1.76642 108.978 3.28716 104.476C4.19961 101.769 3.92586 99.3667 2.89176 96.8119C1.88806 94.3483 1.43185 91.7629 2.19223 89.056C2.70928 87.2007 2.19223 85.4367 1.43185 83.5814C-0.758022 78.1979 -0.575532 72.8449 2.9526 67.9785C3.89546 66.7011 4.35169 65.6061 4.29086 63.9029C4.19962 60.8006 5.29455 58.0024 8.18397 56.2079C8.91393 55.7517 9.431 54.9001 10.3435 53.8964C9.24851 53.3185 8.51852 52.7102 7.69732 52.5278C5.81159 52.0715 4.01714 51.5848 3.16553 49.2124C6.72407 44.0419 11.7729 40.453 17.4301 37.8677C22.0836 35.7387 26.7979 33.9442 30.9039 30.7202C33.3979 28.7737 36.4698 27.5571 39.2984 26.0059C41.61 24.7589 43.9519 23.5727 46.233 22.2345C48.5446 20.8962 50.7345 20.5312 53.1981 21.9607C54.293 22.5994 55.6312 22.9644 56.8783 23.2382C63.7216 24.6068 70.6258 25.7626 77.4388 27.2225C80.0545 27.77 82.6093 27.7396 85.1945 27.9829C87.4757 28.1958 89.5135 30.2032 91.825 30.8419C95.0794 31.7239 98.4859 32.0585 102.014 32.6364C104.478 29.8686 107.124 26.9488 109.648 23.9377C112.842 20.1358 116.704 17.1552 120.932 14.5699C124.308 12.5017 127.623 10.2814 130.847 7.96986C133.798 5.84082 136.961 4.38087 140.367 3.04261C148.001 0.0923636 155.94 -0.698387 163.756 0.609455C172.242 2.03896 180.971 3.31639 188.392 8.45651C190.096 9.64269 192.012 10.4943 193.928 11.3459C203.387 15.6344 212.907 19.8013 222.366 24.1202C231.186 28.135 238.395 34.0658 243.474 42.3995C244.508 44.1028 245.664 45.9581 244.964 48.2392C244.751 48.9084 244.934 49.7296 245.086 50.4291C247.458 59.7361 246.515 69.2255 246.637 78.6542C246.637 79.7795 246.394 80.9049 246.12 81.9998C245.755 83.5206 245.998 84.7979 246.728 86.2883C249.496 92.1583 251.351 98.363 250.043 104.872C249.253 108.795 247.093 112.476 248.584 116.673C247.063 120.748 245.846 124.976 242.288 127.865C241.314 128.656 240.037 129.508 238.851 129.538C236.6 129.599 234.806 130.329 233.224 131.789C230.274 134.466 226.715 135.652 222.822 135.439C220.663 135.348 219.203 136.169 217.925 137.69C217.317 138.42 216.739 139.18 216.1 139.849C213.211 142.921 210.139 145.628 205.607 145.902C204.695 145.962 203.722 146.266 202.9 146.662C199.068 148.517 195.023 149.004 190.795 149.034C187.45 149.065 184.104 149.977 180.819 150.464C178.72 152.684 179.146 155.209 179.785 157.52C180.576 160.379 180.91 163.056 179.268 165.702C177.078 169.169 175.74 173.305 171.36 174.917C168.136 176.104 165.338 178.05 162.905 180.514C160.471 182.977 157.46 183.738 154.115 183.586C152.989 183.525 151.834 183.707 150.739 183.555C146.967 183.008 143.713 183.494 141.128 186.779C139.911 188.33 137.843 188.513 135.896 188.543C133.25 188.574 130.634 188.665 127.928 188.726C126.681 190.581 125.555 192.284 124.369 194.048C123.487 194.14 122.392 193.927 121.662 194.352C116.613 197.151 111.808 196.117 107.306 193.258C105.451 192.071 103.626 191.494 101.497 191.494C99.9762 191.494 98.4859 191.281 96.9651 191.189C93.6499 190.946 90.6693 189.912 88.3273 187.448C86.3199 185.319 84.0996 184.072 80.9669 183.859C75.0055 183.525 70.0783 180.94 67.0977 174.978ZM104.691 48.0871C103.383 48.1784 102.044 48.4217 100.767 48.3305C96.0831 47.9047 93.8324 50.8549 91.5513 54.5047C94.684 55.8126 97.4213 57.0291 100.22 58.0632C101.923 58.6715 103.626 57.3637 102.987 55.8125C101.984 53.2577 102.987 51.4936 104.295 49.5775C104.569 49.1821 104.478 48.513 104.569 47.9655C106.698 48.0568 108.34 46.901 110.348 46.0189C109.709 44.6198 108.979 43.5249 108.675 42.3083C108.371 41.0309 108.432 39.6622 108.31 37.6244C106.455 39.3885 105.147 40.6051 104.417 41.2742C104.538 44.0724 104.63 46.0797 104.691 48.0871ZM209.075 99.3363C206.337 90.0293 210.352 81.7565 213.272 73.3011C210.595 76.0993 209.774 79.8099 208.04 83.0339C205.486 87.8395 205.699 92.7667 206.976 97.8155C207.28 98.9409 208.284 99.0017 209.196 99.2146C210.991 100.857 212.785 102.499 214.641 104.081C215.888 105.146 217.013 106.514 219.081 105.967C219.233 102.408 219.051 98.7888 219.659 95.3215C220.267 91.8542 221.666 88.539 222.883 84.6763C218.655 83.4293 215.492 81.3002 215.948 76.4034C220.511 73.3619 221.028 73.4836 226.563 78.3196C227.019 77.7417 227.536 77.2247 227.932 76.6468C232.95 68.891 237.178 60.7397 240.402 52.0715C242.622 46.1405 241.679 42.7341 236.235 38.6585C235.961 39.1147 235.505 39.5405 235.444 40.0272C234.714 44.7719 232.707 48.9692 230.183 52.984C225.955 59.6448 221.666 66.3057 217.469 72.9969C216.8 74.0615 216.526 75.3389 216.04 76.5251C215.188 77.9242 214.154 79.2016 213.576 80.6919C211.812 85.2237 210.717 89.9077 211.295 94.8045C211.538 96.7815 211.173 98.4847 209.075 99.3363ZM190.947 87.9307C190.674 85.4975 189.883 83.0035 190.248 80.6616C191.282 74.1832 192.468 67.796 196.574 62.1997C201.592 55.3867 206.094 48.1784 208.649 39.9968C208.862 39.3276 208.77 38.5369 208.922 36.6207C207.645 38.8714 206.915 39.936 206.398 41.1526C204.147 46.4143 200.893 51.0069 197.213 55.2954C193.867 59.219 191.647 63.7508 189.274 68.2218C186.355 73.7269 186.963 79.5058 188.332 85.2238C188.575 86.2275 190.126 86.927 191.069 87.7786C192.863 89.4211 194.475 91.3676 196.483 92.6451C198.551 93.9529 200.133 96.4165 203.174 96.3252C203.387 93.1925 203.296 90.3335 203.843 87.5962C204.391 84.8892 205.577 82.3343 206.489 79.6578C198.794 78.2283 198.186 77.4376 199.159 70.2901C200.163 70.1684 201.41 69.6514 202.292 70.0163C204.604 70.9896 206.793 72.3279 209.196 73.6357C209.531 72.997 209.835 72.3887 210.322 71.4154C209.257 71.02 208.405 70.8071 207.615 70.4117C205.242 69.2559 203.782 67.3702 203.509 64.7241C203.144 61.2264 206.033 58.9149 209.348 60.1315C210.352 60.4965 211.295 61.2264 212.086 61.9868C212.876 62.7471 213.424 63.7509 214.306 64.9675C221.028 54.3831 227.202 43.9811 228.449 31.3285C224.282 28.4695 220.754 24.9718 215.279 24.9414C214.823 26.7055 214.276 28.1045 214.063 29.5644C212.39 41.4567 207.28 51.8282 200.315 61.4393C195.205 68.4956 191.921 76.1602 193.654 85.2238C193.958 86.9575 193.502 87.2616 190.947 87.9307ZM129.57 39.1147C129.905 37.4419 130.422 35.7995 130.513 34.1267C130.695 30.9939 131.851 28.2566 133.615 25.7626C135.896 22.5386 138.238 19.345 140.702 16.2731C142.983 13.4141 144.26 10.0685 145.355 6.69244C145.872 5.11086 144.412 5.01962 143.105 5.41502C140.945 10.616 138.299 15.5432 134.862 20.0446C131.273 24.7589 129.144 30.1727 127.988 35.982C127.654 37.6244 128.293 38.476 129.692 39.0235C129.357 40.2705 129.053 41.5479 128.688 42.7949C128.323 44.1028 126.163 44.2853 126.255 46.5056C128.597 45.806 130.543 45.2281 132.49 44.5894C132.733 44.4982 132.885 44.1028 133.007 43.9203C132.52 43.1599 132.064 42.4604 131.517 41.6392C132.399 41.2438 132.946 40.7876 133.433 40.818C135.318 40.9092 137.174 41.2438 139.059 41.3654C143.257 41.6088 145.842 45.1977 149.735 46.7793C151.073 43.4945 153.659 41.0917 154.206 37.5636C154.358 36.5903 155.271 35.3129 156.122 35.0087C158.13 34.2484 158.86 32.6059 159.924 31.0548C161.931 28.1349 163.543 24.8501 166.737 23.0861C167.68 23.5119 168.44 23.8768 169.231 24.2418C169.383 19.3754 169.322 19.3146 172.637 14.9957C174.706 12.3192 175.375 9.39933 175.344 6.0841C167.041 3.80298 159.103 1.33941 150.252 3.65095C147.515 11.0722 143.226 17.9155 138.147 24.2723C134.862 28.3783 132.703 32.8797 132.855 38.2631C132.855 38.5673 132.459 38.8714 132.064 39.4493C131.364 39.358 130.482 39.2364 129.57 39.1147ZM75.4618 44.3157C75.7963 44.4678 76.1614 44.6198 76.4959 44.7719C77.6213 45.3194 78.2904 46.171 78.1383 47.4484C77.9558 48.7563 76.8913 49.395 75.7355 49.4863C74.2756 49.6079 72.7549 49.5167 71.2949 49.2733C69.318 48.9388 67.9189 49.6687 67.0369 51.3111C65.0903 54.9913 63.1437 58.6412 61.4101 62.4126C60.0414 65.3933 59.646 68.5564 60.7714 71.9933C64.8165 73.514 68.0101 76.951 72.7244 78.198C73.4544 75.0956 74.0627 72.3887 74.7318 69.4385C73.1503 69.0431 71.8728 68.7997 70.6867 68.3739C69.8046 68.0698 68.9226 67.644 68.1926 67.0661C67.0673 66.1232 66.976 64.785 67.3714 63.4467C67.7668 62.1693 68.8009 61.7434 70.0175 61.7738C71.1429 61.8042 72.3899 61.713 73.3631 62.1388C74.4581 62.6558 75.3097 63.69 76.3742 64.6025C79.5982 61.8956 80.9365 58.5194 81.6968 54.748C80.389 53.8355 79.2028 53.0448 77.9558 52.1931C80.0849 50.4595 83.3088 53.1664 84.6775 49.7295C84.13 49.2429 83.5522 48.7562 83.0047 48.2696C82.3052 47.6309 81.5752 47.0226 80.9669 46.3231C79.8415 45.0457 80.1457 43.4033 81.5448 42.43C82.7005 41.6392 83.9476 41.3046 85.2858 41.7608C86.3503 42.0954 87.3844 42.5212 88.5402 42.9166C91.5513 40.3618 95.5052 39.0235 97.543 34.9479C95.6573 34.5221 94.0453 34.1571 92.0987 33.7009C90.4259 37.4115 87.4148 37.8677 83.978 37.3507C79.9632 36.7424 79.7199 33.0926 78.5337 30.1728C72.2987 28.9258 66.2157 27.7091 60.2239 26.4925C55.9658 30.6898 54.1409 31.0852 48.6662 28.8649C47.1455 28.2566 45.716 27.3442 44.3777 26.6446C38.4772 28.9866 38.4772 28.9865 35.7399 31.8456C38.9943 34.9175 44.621 37.5636 49.7916 38.3543C50.187 37.1682 50.3999 35.8299 51.069 34.7654C51.8902 33.488 53.1068 32.4234 54.8101 32.6059C57.5474 32.9101 60.5281 34.9783 60.5585 37.8981C60.5889 39.571 60.741 41.2438 60.893 43.2511C62.9917 44.0115 65.0599 44.7719 67.1281 45.5323C68.071 43.5249 68.8313 41.8521 69.6221 40.1184C68.953 39.0539 68.1014 38.0198 67.5843 36.8336C66.3677 34.1267 67.341 32.4234 70.1696 31.9064C73.2719 31.3589 76.8305 33.0926 78.2295 35.8603C79.2637 37.8677 78.5337 39.8143 76.3134 40.9396C75.6747 41.2438 74.9143 41.3654 74.1235 41.6088C74.7014 42.6733 75.1272 43.4945 75.553 44.3157C74.2452 43.677 72.9373 42.9166 71.2341 44.2244C71.5383 45.1369 71.6903 46.2319 72.2682 47.0227C72.9373 47.9959 74.1235 48.1783 75.2185 47.6005C76.1613 47.0834 76.1918 46.171 75.918 45.2281C75.7964 44.9544 75.6139 44.6503 75.4618 44.3157ZM179.633 52.6798C177.048 53.3489 176.196 55.5692 175.618 57.6982C174.949 60.2227 174.462 62.8992 175.618 65.4237C177.656 69.8642 179.755 74.2744 181.914 78.6542C182.218 79.2929 183.07 79.6578 183.709 80.2053C184.013 79.6274 184.165 79.4753 184.165 79.2929C183.952 70.29 188.027 62.6863 193.35 56.1775C198.308 50.1249 202.353 43.677 205.486 36.6511C207.615 31.9064 208.649 26.675 208.071 21.4133C205.638 19.1017 202.961 17.8547 199.92 17.3377L200.041 17.4289C197.243 15.1782 194.171 13.6879 190.278 13.11C190.43 15.8473 192.164 18.1893 190.369 20.5008C187.45 22.4778 184.438 22.3257 181.427 20.5312C181.275 21.0178 181.093 21.3524 181.062 21.7174C180.424 25.6714 179.785 26.4013 176.287 26.5838C174.797 26.675 173.276 26.5838 171.695 26.5838C169.292 27.8916 168.258 30.4161 166.798 32.5755C165.642 34.2788 166.098 36.1645 166.22 38.0502C166.372 40.2401 165.247 41.548 163.178 42.2475C161.779 42.7037 160.319 43.0686 158.677 43.5249C158.099 45.7756 157.552 47.9351 157.035 49.912C162.813 54.6263 165.581 55.9646 169.505 55.9646C169.748 55.4779 170.113 55.0217 170.235 54.4743C171.603 48.3913 174.675 43.3728 178.903 38.841C180.667 36.9553 181.792 34.4612 183.222 32.2714C184.043 31.0243 184.621 29.4428 185.777 28.652C186.872 27.8916 188.514 27.9525 190.278 27.5875C191.556 23.9377 192.894 20.1054 194.202 16.3948C196.057 16.6077 196.3 17.8243 196.057 18.9192C195.631 20.7441 194.81 22.4778 194.232 24.2723C193.289 27.2225 191.495 29.9294 193.289 33.3663C194.202 35.0999 192.711 37.4723 190.826 37.6548C187.906 37.9285 186.598 39.6926 185.381 41.9129C183.404 45.5323 180.545 48.665 179.511 52.771L179.633 52.6798ZM75.2793 84.5242L75.401 84.6763C71.0212 81.0569 66.2461 78.0459 61.1364 75.6127C59.9502 75.0348 58.6727 74.5481 57.3649 74.3657C50.4607 73.4532 44.2865 70.8984 38.9335 66.397C38.3556 65.9103 37.6256 65.6365 36.9869 65.2107C31.0864 61.4089 24.456 59.1278 18.0688 56.2992C16.7001 55.6909 15.2706 55.2955 13.8715 54.7784C12.2596 56.0863 10.8301 57.2725 9.37015 58.4891C7.48443 60.0706 6.20701 62.1084 7.24111 64.4504C8.09273 66.3969 6.81529 67.6136 6.51114 69.0735C7.36276 69.8339 8.12314 70.5029 8.94434 71.2633C6.75447 72.9665 5.3858 75.0652 2.86136 75.5214C2.19223 78.1371 2.40515 80.6007 3.68257 82.7602C4.89917 84.8588 5.29455 86.8357 4.71667 89.2385C4.10837 91.8542 4.35169 94.5915 5.56828 97.0247C6.93696 99.7621 6.96736 102.226 5.75077 105.115C4.16919 108.917 4.10836 113.175 6.4199 116.582C9.00517 120.444 9.40054 124.033 7.63648 128.17C6.41988 131.059 7.72776 133.705 8.91395 136.29C12.1379 137.811 12.655 141.309 14.419 143.894C15.2707 145.111 16.3352 146.236 17.4301 147.24C20.8061 150.342 24.9122 152.38 28.9878 154.327C31.2385 155.421 33.2458 156.547 34.9187 158.524C37.4735 161.504 40.8496 163.147 44.9252 162.964C46.4155 162.904 47.9058 162.964 49.2745 162.964C55.7225 170.659 57.6691 171.602 68.3447 172.454C68.6488 172.819 69.1051 173.214 69.3788 173.67C72.5419 179.115 77.2563 181.639 83.4913 181.365C85.5595 181.274 87.1411 182.217 88.3577 183.768C89.9393 185.745 91.8858 187.114 94.2886 187.935C97.8168 189.152 101.284 189.365 104.782 187.692C105.725 188.574 106.515 189.364 107.337 190.125C110.439 193.166 114.271 193.775 118.377 193.288C120.993 192.984 122.939 191.646 123.913 189.091C124.521 187.54 125.19 186.019 125.859 184.346C125.099 182.217 123.639 180.24 124.582 177.472C124.977 176.347 123.913 174.613 123.304 173.245C122.787 172.089 121.936 171.085 121.145 169.899C123.152 169.899 124.947 169.899 127.046 169.899C126.468 171.268 126.042 172.271 125.707 173.032C126.255 174.857 126.741 176.438 127.258 178.02C127.806 179.632 128.201 181.304 129.022 182.764C130.361 185.137 132.581 186.08 135.258 185.745C137.904 185.441 140.428 184.863 141.31 181.791C135.44 178.963 133.615 177.077 134.254 174.096C135.075 174.796 135.866 175.282 136.444 175.951C138.177 177.837 140.246 178.993 142.831 179.297C143.956 179.419 145.082 179.693 146.116 180.118C149.218 181.426 152.472 181 155.666 180.94C158.221 180.909 160.38 179.632 161.931 177.533C162.601 176.621 163.178 175.647 163.848 174.674C164.608 174.492 165.338 174.248 166.068 174.157C170.904 173.549 173.55 170.294 176.014 166.523C178.264 163.086 178.082 159.801 176.591 156.303C175.892 154.631 176.044 152.988 176.835 151.376C177.261 150.555 177.565 149.643 177.899 148.852C176.257 146.784 173.976 146.601 171.877 145.871C169.444 148.517 167.193 150.95 165.155 153.171C165.612 155.604 168.927 153.779 168.714 156.425C166.463 158.037 164.365 156.303 162.205 156.151C160.35 157.155 158.525 158.128 156.73 159.162C154.419 160.531 152.442 160.044 150.587 158.28C149.796 157.52 148.975 156.547 148.001 156.212C143.865 154.783 141.766 151.437 139.972 147.848C139.029 145.993 138.238 144.046 137.66 142.069C136.991 139.819 135.866 137.902 134.193 136.29C130.726 132.975 128.14 129.052 126.194 124.702C126.103 124.489 125.707 124.429 125.434 124.277C125.069 125.128 124.734 125.919 124.217 127.136C122.24 124.854 122.575 122.452 122.088 120.323C121.388 117.22 120.932 113.996 121.875 110.894C120.689 109.282 119.594 107.731 118.438 106.24C116.248 103.381 113.602 101.009 110.591 98.9409C106.424 96.0515 101.649 94.9566 96.9347 93.6487C92.555 92.4321 88.2665 91.0331 84.2517 88.8432C81.4535 87.3224 78.3208 85.9841 75.2793 84.5242ZM216.982 125.006C219.811 125.006 221.818 124.915 223.795 125.037C225.073 125.128 226.563 125.25 227.567 125.919C230.335 127.805 233.285 127.409 236.326 127.288C239.581 127.166 241.436 125.615 242.196 122.695C240.219 121.357 238.547 120.201 236.752 118.984C236.113 119.228 235.383 119.441 234.714 119.714C230.912 121.326 227.658 120.323 224.921 117.524C223.491 116.065 222.335 114.3 221.028 112.688C220.206 111.685 219.568 110.225 218.503 109.769C215.097 108.309 212.572 105.784 210.017 103.26C209.5 102.773 208.74 102.53 207.888 102.074C205.546 104.963 202.9 106.605 198.642 103.99C200.254 103.473 201.258 103.108 202.262 102.804C203.113 102.56 204.178 102.621 204.178 100.918C198.886 98.1501 194.475 93.5271 188.453 92.1584C187.054 88.6911 187.054 88.6911 183.982 86.9878C183.891 87.7786 183.709 88.4781 183.739 89.1473C183.891 94.9869 184.378 100.857 184.195 106.666C183.952 114.057 182.948 121.357 178.72 127.774C178.416 128.23 178.264 128.808 178.203 129.356C178.173 129.63 178.508 129.934 178.69 130.207C179.481 129.782 180.241 129.325 181.123 128.839C182.34 130.299 184.438 130.694 185.26 133.036C183.648 133.401 182.37 133.675 180.606 134.07C184.043 138.267 182.066 142.647 181.944 147.301C185.625 146.753 188.909 146.267 192.194 145.719C192.407 145.689 192.498 145.172 192.65 144.867C192.073 143.438 189.792 143.073 189.974 140.427C193.076 142.13 195.722 143.62 198.825 145.324C199.707 145.019 201.075 144.259 202.535 144.046C208.314 143.195 212.633 140.092 216.1 135.591C217.469 133.827 219.111 133.006 221.423 132.945C224.16 132.884 226.989 132.671 229.27 130.329C227.841 129.021 226.624 127.896 225.103 126.497C222.457 128.078 219.659 128.383 216.982 125.006ZM223.978 111.958C225.377 113.57 226.229 114.878 227.354 115.791C230.852 118.559 235.901 117.281 237.786 113.175C238.242 112.171 238.486 111.046 238.699 109.921C239.337 106.788 239.611 103.534 240.584 100.523C241.466 97.7852 241.953 95.0782 242.105 92.2496C242.196 89.9989 242.531 87.7482 243.018 85.5279C244.417 79.0191 244.508 72.4495 244.417 65.8494C244.417 65.0282 244.66 63.9029 243.018 63.6595C238.395 71.6891 232.068 78.8366 229.848 88.2956C229.392 90.303 228.358 92.1584 227.476 94.0441C226.502 96.1427 226.107 98.3326 226.198 100.644C226.35 104.476 226.259 108.217 223.978 111.958ZM178.629 82.2431C178.933 81.939 179.207 81.6044 179.511 81.3003C178.477 78.5021 177.261 75.7647 176.409 72.9361C175.223 68.9214 172.212 67.0052 168.531 66.549C165.003 66.0928 161.354 66.2752 157.795 66.6098C152.168 67.1268 146.541 67.9481 140.945 68.7389C137.782 69.1951 134.619 69.8034 131.486 70.5029C130.513 70.7158 129.692 71.5066 128.749 72.0541C132.581 76.738 132.703 76.8292 137.265 78.8062C143.987 76.1905 150.891 76.3426 157.917 77.1334C165.034 77.8938 171.938 79.4753 178.629 82.2431ZM144.686 85.8929C144.686 86.3187 144.564 86.7445 144.717 87.0486C146.937 91.7021 150.252 94.8045 155.575 95.7778C161.901 96.9336 167.893 99.2146 173.702 102.074C175.983 103.199 178.447 104.294 181.123 104.263C182.279 98.9713 182.127 96.7511 180.272 90.6377C170.691 85.2542 160.198 83.8551 149.279 84.3722C147.576 84.4939 145.781 84.1593 144.686 85.8929ZM108.127 64.4504C105.36 69.3776 102.653 74.0615 100.098 78.8062C99.3071 80.2965 98.6988 81.939 98.425 83.5814C98.1513 85.1934 98.2121 86.927 98.425 88.5998C98.638 90.4551 99.9458 91.5501 101.679 92.128C105.208 93.2837 108.736 94.5003 112.781 95.8386C112.325 90.8201 114.575 86.4403 116.644 82.0302C117.769 79.6578 119.229 77.468 120.445 75.126C121.023 74.0007 121.419 72.7537 122.027 71.2329C117.799 68.0089 113.055 66.4882 108.127 64.4504ZM33.1546 58.1241C32.5463 50.4595 36.9869 44.7719 40.15 38.3239C37.6256 35.9516 34.2192 35.6779 31.9076 34.0659C28.4099 35.7691 25.338 37.6852 21.9619 38.8106C17.0043 40.453 12.8375 43.312 8.8531 46.5056C8.18397 47.053 7.66693 47.8439 6.72407 48.9084C15.6052 52.1932 23.6956 56.0863 33.1546 58.1241ZM163.087 57.7895C161.232 55.5388 158.677 55.1434 156.73 53.7747C151.225 49.9424 145.082 49.6992 138.816 50.5204C135.288 50.9766 131.669 51.4023 129.053 54.3526C128.475 55.0217 127.441 55.2955 126.681 55.8125C124.764 57.09 122.757 57.1204 120.75 56.1775C119.746 55.7213 118.833 54.9913 117.86 54.4438C117.647 54.3222 117.252 54.5047 116.948 54.5655C117.069 55.478 117.161 56.36 117.282 57.2116C115.062 58.9452 112.021 59.0669 110.621 61.9563C113.724 64.1766 116.887 65.9407 120.445 66.9444C127.106 63.7204 133.706 60.831 140.884 59.9186C148.093 59.0061 155.362 58.5194 163.087 57.7895ZM136.231 132.914C136.748 129.386 137.447 126.284 137.63 123.182C137.873 119.136 139.211 115.517 141.067 111.958C142.709 108.795 143.956 105.419 145.507 102.226C147.697 97.7547 146.724 93.8311 143.622 90.2726C143.013 89.5731 141.858 89.3298 141.158 88.9648C138.907 93.1316 136.9 96.9335 134.771 100.675C133.189 103.442 131.425 106.119 129.661 108.765C126.833 113.053 126.589 117.555 128.627 122.178C129.54 124.246 130.604 126.254 131.729 128.17C132.794 129.934 133.95 131.637 136.231 132.914ZM89.2093 57.2116C87.9015 59.6144 87.0195 61.6826 85.742 63.5075C84.3429 65.4845 82.7918 67.4615 80.9669 69.043C78.0166 71.6283 77.2867 75.0651 76.6784 78.5933C76.3743 80.2357 76.9217 81.6044 78.4425 82.3951C82.2747 84.3721 86.107 86.3491 89.9697 88.2956C90.7605 88.691 91.6425 89.2689 92.6462 88.1132C91.4296 82.3647 92.2813 76.7076 94.9274 71.3242C96.0223 69.1343 97.0868 66.9444 98.0296 64.6937C98.5163 63.538 98.6988 62.2605 99.0638 60.9222C95.9006 59.0061 92.9808 57.4549 89.2093 57.2116ZM40.363 63.4467C44.0128 67.4006 49.2441 68.7389 53.9888 70.9592C54.5059 71.2025 55.3575 70.8071 55.8442 70.7463C56.27 66.549 56.6349 62.6863 57.0607 58.6107C55.0534 58.2154 52.7418 58.8845 51.3428 56.8771C49.9133 54.8089 49.7308 52.771 51.0082 50.642C54.2626 49.8816 56.6045 51.2807 58.8248 53.6531C59.9806 51.3111 62.2009 49.6991 61.4709 46.8705C59.2811 45.5627 57.0912 44.4677 55.1142 43.0382C53.6543 41.9737 52.3768 41.2742 50.4607 41.8825C49.5178 42.1866 48.3621 41.7304 47.4496 41.6088C43.0091 48.3913 38.751 54.9305 40.363 63.4467ZM117.86 100.979C119.442 103.534 121.753 105.237 124.704 106.149C129.813 98.3934 135.045 90.7289 133.676 80.5399C131.821 79.0495 129.844 77.4376 127.623 75.6127C126.163 78.35 125.099 80.7832 123.639 82.9122C119.837 88.3565 117.83 94.2874 117.86 100.979ZM142.77 146.875C143.835 144.594 144.443 143.651 144.747 142.586C145.811 138.937 147.363 135.53 149.492 132.367C150.313 131.12 150.952 129.69 151.377 128.261C152.594 124.277 153.689 120.292 154.723 116.277C155.605 112.871 154.236 108.887 151.043 105.784C150.708 106.545 150.465 107.183 150.161 107.853C148.518 111.259 147.271 114.909 145.142 117.981C143.044 121.083 141.949 124.368 141.188 127.896C140.55 130.816 140.063 133.766 139.546 136.747C139.455 137.264 139.455 137.902 139.637 138.389C140.489 140.792 141.432 143.225 142.77 146.875ZM154.236 102.986C155.392 107.244 157.369 110.833 158.677 114.665C158.799 115 159.072 115.365 159.377 115.517C161.81 116.886 164.152 118.558 166.737 119.471C170.417 120.748 174.28 121.478 178.355 122.543C179.967 119.349 181.032 116.065 180.485 112.202C179.45 111.685 178.538 111.016 177.504 110.651C170.417 108.157 163.33 105.723 156.244 103.29C155.788 103.138 155.24 103.138 154.236 102.986ZM138.482 7.93942C137.934 7.63527 137.752 7.4224 137.63 7.45281C133.007 9.21688 129.296 12.4104 125.494 15.4215C124.795 15.969 124.217 16.9118 124.004 17.7939C123.152 21.0179 120.993 23.4206 118.986 25.8843C116.37 29.1082 115.336 32.7884 115.062 37.1682C116.096 37.2898 117.313 37.8373 117.739 37.4419C119.807 35.5562 122.514 35.4345 125.038 34.6742C125.373 33.9138 125.799 33.2447 125.92 32.5451C126.985 27.2529 129.57 22.6907 132.703 18.3718C134.467 15.9386 136.079 13.3837 137.63 10.7984C138.177 9.97722 138.238 8.85186 138.482 7.93942ZM161.81 150.92C170.113 146.905 174.858 138.541 174.219 129.386C170.265 127.531 165.946 126.588 161.232 125.676C161.354 128.535 161.566 130.937 161.566 133.371C161.566 135.621 161.779 137.994 161.141 140.092C159.985 143.742 160.715 147.057 161.81 150.92ZM159.164 155.026C159.042 151.65 159.194 148.639 158.768 145.689C158.464 143.59 158.403 141.704 159.072 139.636C159.985 136.807 159.407 133.34 158.038 129.903C155.514 134.07 152.989 138.024 150.678 142.13C149.674 143.925 149.096 145.962 148.427 147.939C147.88 149.582 147.697 151.255 148.792 153.049C151.134 154.266 153.598 155.574 156.274 156.973C157.339 156.273 158.373 155.573 159.164 155.026ZM170.478 63.0513C169.718 62.443 169.231 61.7739 168.653 61.6522C166.433 61.2264 164.182 60.6485 161.962 60.7702C155.392 61.1047 148.823 61.6827 142.283 62.3214C136.991 62.8384 131.973 64.4808 127.167 66.6402C126.224 67.066 125.403 67.7656 124.551 68.3435C125.464 70.2596 126.62 69.4993 127.593 69.1647C131.516 67.7656 135.44 66.4578 139.637 66.3665C145.69 66.2144 151.651 65.5149 157.521 64.0854C160.076 63.4771 162.692 63.2034 165.368 63.7509C166.889 64.055 168.623 64.42 170.478 63.0513ZM231.673 34.005C231.369 34.5525 230.973 35.1304 230.791 35.7691C229.665 39.3581 228.966 43.1295 227.445 46.536C225.286 51.3112 222.518 55.8429 220.024 60.466C218.503 63.2946 216.952 66.0928 215.431 68.9214C215.31 69.1647 215.492 69.5905 215.553 69.9555C215.705 69.9555 215.918 69.9859 215.979 69.8947C219.933 63.9637 223.704 57.8807 227.871 52.1019C231.217 47.4484 231.916 42.0346 233.285 36.8032C233.498 35.7387 233.406 34.5221 231.673 34.005ZM139.576 81.5435C141.31 83.0643 141.31 83.0643 142.375 82.8818C152.381 81.1786 162.296 81.3307 172.06 84.3722C173.337 84.7676 174.706 84.9804 176.014 85.2542C168.714 80.3574 160.411 79.3537 152.138 79.1104C148.032 79.0191 143.409 78.6845 139.576 81.5435ZM95.1098 83.8247C96.9651 79.1408 99.2463 74.8523 101.862 70.7158C103.048 68.8605 103.687 66.6403 104.417 64.5112C104.538 64.1767 104.052 63.2642 103.687 63.173C103.048 63.0209 101.953 63.0513 101.71 63.4163C100.22 65.819 98.6988 68.2219 97.6343 70.7767C95.9006 74.9436 94.2886 79.2016 95.1098 83.8247ZM223.37 105.784C223.735 102.074 223.704 98.2718 224.556 94.6828C225.468 90.8809 227.202 87.292 228.571 83.6118C228.631 83.4293 228.723 83.2772 228.753 83.0947C228.936 82.3039 229.088 81.5131 229.453 79.8403C222.518 89.3298 220.389 97.9068 223.37 105.784ZM176.044 106.605C169.626 102.165 156.548 97.6939 151.621 98.0285C159.072 103.108 167.619 104.75 176.044 106.605ZM244.751 108.795C242.957 107.518 241.953 108.157 241.466 109.677C240.615 112.323 239.885 115 239.124 117.646C241.254 119.41 241.254 119.41 245.664 118.346C246.941 114.878 244.265 111.898 244.751 108.795ZM43.0395 39.6622C42.2487 40.6659 41.3666 41.548 40.7279 42.6429C37.8385 47.5397 35.0403 52.5278 35.5878 58.5195C35.679 59.4319 35.6486 60.4356 37.1998 60.6789C37.656 58.3066 37.9906 55.9037 38.6293 53.5922C39.2984 51.2503 40.2717 48.9692 41.1842 46.7185C42.0966 44.5286 43.9215 42.7037 43.0395 39.6622ZM245.147 90.8809C244.234 95.8082 243.474 100.005 242.653 104.446C244.113 104.963 245.299 106.484 247.458 105.48C248.644 100.674 248.279 95.9906 245.147 90.8809ZM178.933 145.719C180.089 142.708 180.728 140.214 179.359 137.72C178.933 136.929 177.899 136.442 177.017 135.713C176.044 138.237 175.253 140.305 174.493 142.404C174.402 142.708 174.584 143.103 174.645 143.62C175.162 143.955 175.74 144.411 176.379 144.746C177.048 145.05 177.747 145.263 178.933 145.719ZM118.864 48.8779C119.32 52.1323 120.385 53.653 122.848 54.0789C124.734 54.4134 126.072 53.5922 126.681 51.7977C123.335 47.4788 123.335 47.4788 118.864 48.8779ZM161.141 120.657C164.699 125.28 170.052 125.371 175.344 125.676C171.147 122.695 166.007 122.178 161.141 120.657ZM183.131 39.2972C176.743 44.6503 174.614 48.2088 174.645 52.9231C178.112 49.1212 180.667 45.0153 183.131 39.2972ZM87.5061 52.5886C88.1752 52.4061 88.9964 52.4365 89.4831 52.0411C90.9126 50.8245 92.2812 49.5471 93.5586 48.148C95.2315 46.2927 95.0794 45.806 92.2508 43.1295C91.5817 44.0115 90.3043 44.8936 90.3651 45.6844C90.5476 48.5434 88.5706 50.0337 87.5061 52.5886ZM128.505 48.5434C129.479 49.4254 129.631 49.6687 129.722 49.6687C133.889 48.9692 138.056 48.2392 142.192 47.4789C142.466 47.418 142.648 46.9618 143.135 46.3535C142.283 45.9886 141.462 45.289 140.763 45.3802C138.36 45.7148 135.987 46.2622 133.646 46.8401C132.125 47.2355 130.604 47.8439 128.505 48.5434ZM114.454 50.9461C113.115 49.0604 111.291 49.03 109.466 49.8208C107.854 50.5203 105.907 51.1894 106.303 54.5655C109.222 53.2577 112.811 55.0521 114.454 50.9461ZM105.116 33.5792C107.61 35.1304 109.557 36.0428 112.142 35.1912C112.385 33.0013 114.058 31.1765 113.328 28.0741C112.203 30.4161 111.382 32.1801 110.317 34.37C109.101 33.0622 108.279 32.1497 107.245 31.0244C106.637 31.7543 106.09 32.4235 105.116 33.5792ZM178.112 22.8428C177.747 21.0787 177.078 19.8013 175.649 19.0409C174.614 18.463 173.124 19.1017 173.124 20.2879C173.124 21.322 173.246 22.6603 173.884 23.3294C175.071 24.546 176.561 24.3939 178.112 22.8428ZM188.453 17.8243C188.21 16.0906 187.085 15.1478 185.503 14.8436C184.895 14.722 183.921 15.0565 183.587 15.5431C183.252 16.0298 183.222 17.0639 183.526 17.6418C184.591 19.5579 186.172 19.5883 188.453 17.8243ZM56.3612 26.1884C54.3538 25.2759 53.1676 24.7285 51.9814 24.2114C50.9473 23.7856 49.9133 23.1469 48.8792 24.2114C48.1492 24.9718 49.0312 26.0059 51.0082 26.7359C52.5289 27.3137 54.0497 28.0437 56.3612 26.1884ZM79.9328 65.089C82.7918 64.2374 84.1604 62.0476 85.1033 59.584C85.4074 58.7932 85.1033 57.7895 85.0425 55.6908C82.9135 59.6144 81.4231 62.3517 79.9328 65.089ZM117.739 42.0042C116.948 41.4567 116.522 41.0917 116.035 40.8484C115.549 40.6051 115.001 40.4226 114.484 40.3313C113.541 40.2097 112.477 40.2097 112.294 41.3654C112.203 41.9433 112.598 42.8253 113.085 43.2511C114.667 44.7415 115.214 44.5894 117.739 42.0042ZM88.9052 33.3359C85.5899 30.9027 85.59 30.8419 84.1909 31.3285C83.7347 31.4806 83.1872 31.9672 83.0655 32.4234C82.9438 32.8493 83.0655 33.6096 83.4001 33.9138C85.1337 35.5258 86.3503 35.4041 88.9052 33.3359ZM237.634 64.9978C240.584 62.4734 242.288 59.219 243.504 55.7213C243.565 55.5388 243.139 55.1738 242.622 54.5351C240.919 58.1544 239.277 61.5913 237.634 64.9978ZM97.0868 41.6088C97.1476 44.0724 97.9688 45.441 99.5504 46.2926C99.9458 46.5055 100.706 46.4447 101.071 46.2014C101.406 45.9581 101.74 45.1369 101.588 44.8023C100.767 43.0991 99.6721 41.7304 97.0868 41.6088ZM179.025 7.45281C177.778 10.5551 176.439 12.8971 176.318 15.9082C177.352 16.2123 178.143 16.4252 179.025 16.6989C179.025 13.6574 179.025 11.0418 179.025 7.45281ZM207.615 63.2642C206.702 66.1536 207.037 67.5223 208.892 68.0089C209.287 68.1002 210.048 67.796 210.261 67.4311C211.143 65.9711 210.504 64.7545 208.132 63.2338C208.04 63.1425 207.797 63.2338 207.615 63.2642ZM71.6904 34.7046C71.3558 35.1304 70.8083 35.4954 70.7779 35.9516C70.6258 37.3811 71.8424 38.7193 73.5457 38.841C74.154 38.8714 75.0056 38.4456 75.4314 37.959C76.1005 37.1378 75.2185 35.9212 73.4544 35.1608C72.9374 34.9175 72.3595 34.8566 71.6904 34.7046ZM123.943 74.2744C121.875 77.6809 120.385 79.962 119.046 82.3344C118.681 82.9731 118.803 83.8246 118.529 85.5279C121.419 82.0302 123.396 79.232 123.943 74.2744ZM145.872 108.278C144.777 110.438 143.652 112.567 142.618 114.726C142.405 115.152 142.618 115.791 142.679 117.129C145.082 114.057 145.994 111.35 145.872 108.278ZM56.6654 40.0272C56.9087 39.723 57.5778 39.2668 57.6995 38.6889C57.9732 37.3811 56.9087 36.1645 55.4792 36.1341C55.023 36.1341 54.2018 36.9249 54.1409 37.4115C53.8976 39.0235 54.8101 39.9663 56.6654 40.0272ZM134.528 94.6828C136.687 92.0671 138.329 89.2081 137.204 85.3758C136.261 88.6911 135.379 91.7021 134.528 94.6828ZM190.339 34.9175C190.613 33.1534 189.305 31.4502 187.967 31.4806C187.662 31.4806 187.267 31.7847 187.115 32.0585C186.415 33.4272 187.176 35.2216 188.666 35.4649C189.244 35.5866 189.913 35.0696 190.339 34.9175ZM126.042 41.183C125.768 39.5101 124.217 38.2023 122.818 38.4456C122.453 38.5065 121.875 39.2364 121.905 39.6318C122.027 41.2742 123.457 42.43 124.977 42.1258C125.403 42.0346 125.738 41.4567 126.042 41.183ZM182.005 11.2242C184.621 11.5892 184.621 11.5892 186.72 10.8897C183.708 8.73021 183.708 8.73021 182.005 11.2242ZM222.123 81.2698C222.883 78.867 222.761 78.3195 221.301 77.8329C220.511 77.5592 219.75 77.8026 219.568 78.6542C219.172 80.2966 220.115 81.0265 221.575 81.3003C221.758 81.3611 221.94 81.3002 222.123 81.2698ZM160.441 37.6244C159.954 37.6548 159.529 37.594 159.225 37.7461C158.768 37.9894 158.13 38.3543 158.099 38.6889C158.069 39.0539 158.647 39.8143 158.981 39.8143C160.046 39.8447 161.141 39.6622 162.205 39.4189C162.448 39.3581 162.722 38.8106 162.692 38.5369C162.661 38.2936 162.266 37.9894 161.962 37.8981C161.445 37.7156 160.867 37.6852 160.441 37.6244ZM115.64 24.7285C118.864 21.8695 118.864 21.8695 118.803 19.5883C116.552 21.5653 116.583 21.5957 115.64 24.7285ZM152.746 47.5701C153.172 47.8438 153.628 48.1175 154.054 48.3913C155.392 47.1443 155.879 45.5323 155.301 42.7037C154.236 44.7719 153.476 46.171 152.746 47.5701ZM105.086 59.4624C105.329 59.8273 105.603 60.1923 105.846 60.5573C107.185 59.7969 108.553 59.0366 110.652 57.8504C107.55 57.0596 106.181 57.972 105.086 59.4624ZM99.8546 38.5673C102.075 39.6014 103.2 38.841 104.295 37.3507C102.257 35.7995 101.01 36.2557 99.8546 38.5673ZM202.505 73.1186C202.201 73.3619 201.562 73.6357 201.501 74.0007C201.319 75.2173 201.957 76.1601 203.144 76.4034C203.691 76.4946 204.33 75.9776 204.938 75.7343C204.512 74.9739 204.147 74.2136 203.661 73.514C203.539 73.2707 203.022 73.2707 202.505 73.1186ZM158.008 121.235C156.335 121.904 155.818 122.999 156.822 125.463C157.4 123.364 157.704 122.3 158.008 121.235ZM55.9962 54.383C54.8405 54.018 54.1105 53.7443 53.3806 53.5922C53.3197 53.5618 52.9243 54.3222 52.9851 54.4135C53.411 54.9001 53.8976 55.3867 54.4755 55.5996C54.6884 55.6908 55.2055 55.0522 55.9962 54.383ZM71.4774 63.69C70.7475 64.4504 70.4129 64.7545 70.0784 65.089C70.4433 65.4236 70.8083 65.9712 71.2341 66.032C71.5687 66.0624 72.2378 65.5149 72.2682 65.2107C72.2986 64.7849 71.8424 64.3287 71.4774 63.69Z" fill="white" fill-opacity="0.13"/>
<path d="M18.0382 84.9806C14.5405 83.3382 12.0464 81.1179 11.1036 77.5593C10.9515 76.9814 11.286 76.2515 11.5598 74.6395C13.3847 77.2856 14.6925 79.2018 15.8483 80.8442C16.6695 80.9963 17.0953 81.2091 17.3994 81.0875C20.8971 79.6884 23.6345 80.5705 26.7064 82.8516C30.8124 85.8931 35.9221 87.1097 40.8798 88.3567C45.6549 89.5733 50.43 90.6682 54.6881 93.2839C56.1176 94.1659 57.7296 94.9263 58.855 96.1125C60.3149 97.6636 61.9269 98.0286 63.9038 98.0591C66.7324 98.1199 69.4089 98.6673 72.1767 99.5189C76.2827 100.766 80.7233 100.918 84.9814 101.678C87.1713 102.074 89.5132 102.5 91.4294 103.534C95.3225 105.602 99.4285 106.94 103.626 108.035C108.401 109.313 110.834 112.415 110.013 117.099C109.192 121.813 109.253 126.497 109.192 131.211C109.161 133.28 108.918 135.378 108.37 137.355C107.488 140.488 106.911 143.56 107.002 146.845C107.123 151.407 105.846 152.836 101.77 154.479C97.1778 156.334 93.0109 156.182 88.9658 153.08C85.0118 150.038 80.6016 147.939 75.4615 147.818C74.7316 147.787 74.0016 147.422 73.3325 147.088C63.8734 142.343 53.7149 139.302 44.0733 135.044C40.8189 133.614 37.7166 131.668 34.8576 129.569C31.512 127.136 28.5617 124.216 25.064 121.904C20.4409 118.832 19.346 113.631 18.5248 108.552C18.1902 106.514 18.4335 104.385 18.4031 102.317C18.4031 100.796 18.6464 99.2452 18.3423 97.7852C17.6123 94.3788 17.7948 91.0332 18.1902 87.6571C18.2814 86.9272 18.1294 86.1668 18.0382 84.9806ZM80.7537 140.214C82.0312 141.218 83.3694 141.583 84.951 140.427C85.2552 139.058 85.5289 137.598 85.8939 136.169C86.8976 132.337 85.9851 130.238 82.1528 127.805C82.092 128.383 82.0007 128.961 82.0312 129.508C82.2136 131.759 82.2745 134.009 82.7003 136.23C83.0957 138.298 82.1528 139.423 80.632 140.397C80.9058 134.009 78.9288 127.957 77.8947 121.661C77.3168 122.239 76.9214 122.847 76.891 123.455C76.7998 127.196 77.0735 130.968 76.6781 134.679C76.3436 138.024 77.7731 139.545 80.7537 140.214ZM31.9986 121.965C31.1166 119.836 29.6871 118.194 27.6797 117.038C25.8244 115.973 24.5774 114.422 23.9082 112.354C23.6649 111.533 23.0262 110.833 22.2962 109.647C22.9045 116.825 25.5811 120.019 32.0898 121.843C31.9986 123.79 33.276 125.037 34.6447 125.98C37.5341 128.048 40.4235 130.299 43.6475 131.759C48.7572 134.131 54.1711 135.865 59.4024 137.963C63.2347 139.484 67.0974 140.974 70.808 142.769C73.3629 144.046 75.8874 145.172 78.7768 145.506C81.8183 145.841 84.5556 146.997 87.08 148.821C89.057 150.221 91.3077 151.285 93.528 152.319C95.8395 153.384 101.892 151.954 103.413 149.977C104.052 149.156 104.386 147.97 104.508 146.875C104.69 145.202 104.264 143.408 104.69 141.796C106.12 136.503 106.941 131.242 106.576 125.676C106.363 122.239 105.998 118.62 107.063 115.122C107.397 114.057 107.032 112.476 104.934 112.354C104.477 116.46 104.052 120.536 103.535 124.611C103.382 125.706 102.987 126.832 102.44 127.774C101.223 129.903 101.01 132.032 101.862 134.283C103.109 137.598 102.592 141.005 102.318 144.381C102.075 147.483 100.219 149.095 97.117 149.247C94.4405 149.369 91.8552 149.126 89.574 147.422C87.3233 145.719 84.7381 144.716 82.0008 143.864C78.2293 142.678 74.3058 141.887 70.7168 140.427C63.3868 137.416 56.361 133.736 49.2135 130.329C46.8107 129.173 44.5295 127.896 42.9176 125.645C42.4005 124.915 41.5793 124.185 40.7277 123.942C37.8383 123.212 34.9184 122.634 31.9986 121.965ZM56.5434 130.512C57.0605 129.873 57.7904 129.386 57.9729 128.778C58.6725 126.041 59.2199 123.395 58.5812 120.444C57.3646 114.513 56.6651 108.491 58.0946 102.469C58.6117 100.34 57.8817 98.6977 56.1481 97.6028C54.4144 96.5078 52.5895 95.4737 50.7038 94.5917C44.0125 91.3981 36.7129 90.0599 29.7175 87.8396C28.3792 87.4138 26.9497 87.2009 25.064 86.7447C25.0032 89.2996 24.9423 91.3373 24.9119 93.3751C24.8815 96.2037 25.2769 99.0627 24.8207 101.8C23.9691 106.971 25.7635 110.985 29.3829 114.453C30.052 115.091 31.0253 115.517 31.5424 116.247C33.641 119.349 36.6521 120.657 40.2106 120.779C41.853 120.84 43.2217 121.266 44.195 122.543C47.3277 126.619 52.042 128.2 56.5434 130.512ZM75.3399 104.051C75.3399 105.845 75.0965 107.001 75.3703 108.035C76.4956 112.263 78.0772 116.247 80.9971 119.623C82.609 121.448 84.1298 123.395 85.4376 125.432C89.3611 131.485 91.7335 138.237 93.7105 145.111C93.8017 145.415 94.2276 145.598 94.9271 146.236C95.4137 145.567 95.9308 144.868 96.5086 144.107C97.1169 144.29 97.8165 144.503 98.6377 144.746C99.8847 141.552 100.402 138.328 99.2764 134.952C98.364 132.215 98.0598 129.569 99.7327 126.832C100.554 125.463 100.797 123.577 100.767 121.935C100.706 119.988 100.98 118.285 101.801 116.49C102.683 114.605 102.287 113.571 100.523 112.841C98.0902 111.837 95.5962 110.955 93.0718 110.286C89.057 109.252 85.0118 108.491 81.362 106.301C79.75 105.359 77.8339 104.963 75.3399 104.051ZM63.2347 132.793C64.7859 131.029 63.6909 128.869 63.8734 126.923C64.0559 124.855 63.9951 122.786 64.2688 120.718C64.573 118.467 65.1205 116.278 65.5159 114.057C65.8808 112.019 66.2762 109.982 66.55 107.944C66.7933 106.058 67.7057 104.142 66.7933 102.043C64.7251 103.047 64.2993 104.72 64.0255 106.362C63.2347 110.985 62.3527 115.608 61.8356 120.262C61.4402 123.82 61.5315 127.409 61.5011 130.998C61.4707 131.972 61.8661 132.793 63.2347 132.793ZM67.9186 135.834C68.6486 134.527 69.1656 133.979 69.2569 133.34C69.4698 131.85 69.5914 130.36 69.561 128.839C69.5306 123.942 69.5306 119.076 70.4431 114.24C70.9297 111.715 70.8385 109.008 70.1693 105.085C67.7057 115.821 65.3942 125.22 67.9186 135.834ZM71.4468 137.081C72.9979 137.903 73.8496 137.507 73.9712 136.412C74.2145 134.162 74.2449 131.911 74.3058 129.66C74.4274 124.794 74.5186 119.897 74.5491 115.031C74.5491 114.666 74.0016 114.27 73.515 113.692C71.1426 121.539 72.2376 129.295 71.4468 137.081ZM21.3534 99.671C22.57 95.048 21.6575 90.4553 21.3838 85.8931C20.2888 90.4857 20.7147 95.1088 21.3534 99.671ZM88.1445 137.69C87.5362 142.982 87.5363 142.982 90.7907 143.377C90.0607 141.765 89.3611 140.336 88.1445 137.69Z" fill="white" fill-opacity="0.13"/>
<path d="M124.643 129.234C125.829 131.698 125.433 133.705 124.703 135.53C124.065 137.233 124.065 138.784 124.582 140.457C125.464 143.438 126.224 146.449 127.137 149.855C126.376 151.467 124.43 151.772 122.605 151.772C120.385 151.802 118.316 151.042 115.579 148.487C118.62 148.973 120.354 149.277 122.24 149.582C123.548 147.392 123.7 144.989 122.879 143.042C120.78 138.176 122.514 134.009 124.643 129.234Z" fill="white" fill-opacity="0.13"/>
<path d="M120.871 161.231C123.7 160.075 122.179 157.368 123.456 155.33C125.099 157.094 126.65 158.797 128.536 160.805C127.684 161.656 126.65 162.386 125.981 163.36C125.312 164.363 125.038 165.58 124.308 167.405C123.548 165.884 123.152 164.911 122.635 163.998C122.118 163.086 121.51 162.204 120.871 161.231Z" fill="white" fill-opacity="0.13"/>
<path d="M89.6353 173.914C90.4261 173.062 91.0344 172.363 91.6731 171.724C92.2206 171.146 93.0114 170.72 93.5284 171.511C93.8021 171.937 93.6501 172.971 93.3155 173.457C91.3386 176.286 89.5745 176.864 86.6242 175.617C84.4343 174.674 82.2749 173.579 80.085 171.268C81.332 171.146 82.0012 170.903 82.5182 171.085C84.7081 171.937 86.5634 173.762 89.6353 173.914Z" fill="white" fill-opacity="0.13"/>
<path d="M165.885 167.618C167.801 166.584 169.231 165.854 170.843 164.972C170.569 168.621 167.71 170.903 165.064 169.899C164.182 169.564 163.361 169.108 162.57 168.591C161.505 167.891 160.532 167.07 159.589 166.371C160.046 164.728 161.049 165.002 161.84 165.367C163.148 165.975 164.425 166.797 165.885 167.618Z" fill="white" fill-opacity="0.13"/>
<path d="M90.6388 178.232C91.2776 178.232 91.9467 178.08 92.4942 178.263C94.6232 178.993 96.6914 179.936 98.8205 180.605C100.828 181.244 102.896 181.608 104.234 178.385C104.873 179.723 105.512 180.422 105.36 180.909C105.116 181.7 104.508 182.764 103.839 182.977C102.653 183.342 101.254 183.251 99.9762 183.129C99.0638 183.038 98.1817 182.612 97.3301 182.247C95.0186 181.213 92.6462 180.331 90.6388 178.232Z" fill="white" fill-opacity="0.13"/>
<path d="M144.838 167.648C145.659 168.226 146.694 168.682 147.302 169.443C149.461 172.15 151.803 173.883 155.423 171.967C155.666 171.845 156.274 172.363 157.004 172.758C155.696 174.644 154.024 175.13 152.138 175.282C150.556 175.404 149.218 174.765 148.093 173.731C146.45 172.241 145.112 170.507 144.017 168.621C144.26 168.287 144.534 167.952 144.838 167.648Z" fill="white" fill-opacity="0.13"/>
<path d="M34.5233 72.8448C33.2154 72.6319 32.6984 72.5711 32.1509 72.4799C31.6034 72.3886 31.0559 72.3278 30.4476 72.2365C30.2043 72.784 29.7177 73.3923 29.8393 73.7877C30.2651 75.126 30.9039 76.4034 31.4513 77.7113C30.2347 79.0799 28.8965 78.6845 28.2882 77.3766C27.6799 76.0992 27.5278 74.4872 27.5278 73.0273C27.5278 71.0199 28.4707 69.8641 29.9002 69.6512C31.7555 69.3471 32.82 69.9858 34.5233 72.8448Z" fill="white" fill-opacity="0.13"/>
<path d="M16.487 104.841C14.9967 106.119 14.2971 106.697 13.628 107.275C12.3506 108.369 11.9856 109.647 12.746 111.228C13.1414 112.05 13.3543 112.932 13.5368 113.814C13.5976 114.057 13.2631 114.544 12.9893 114.665C12.7156 114.817 12.1985 114.787 11.9856 114.604C10.1303 112.992 9.15701 109.89 9.91739 108.157C10.8602 105.936 12.6243 104.872 16.487 104.841Z" fill="white" fill-opacity="0.13"/>
<path d="M9.09636 85.3757C11.1037 91.0025 11.1038 91.0025 14.6623 93.5878C13.8107 94.9261 12.5028 95.0477 11.4079 94.4394C8.7922 93.0099 7.48438 90.5767 7.48438 87.6264C7.48438 87.0789 8.27516 86.5011 9.09636 85.3757Z" fill="white" fill-opacity="0.13"/>
<path d="M46.0813 141.126C47.085 141.796 48.1495 142.465 49.1228 143.195C50.9477 144.503 52.7422 145.871 55.2666 144.959C55.5099 144.868 56.4528 145.658 56.392 145.841C56.2095 146.449 55.8141 147.118 55.3275 147.514C54.9625 147.787 54.2325 147.787 53.7155 147.696C50.0657 147.057 47.2371 145.202 45.2905 142.13C45.5338 141.796 45.8076 141.461 46.0813 141.126Z" fill="white" fill-opacity="0.13"/>
<path d="M88.5705 95.4128C90 96.8119 91.3079 98.4239 92.9503 99.5189C94.6231 100.644 96.6305 101.222 98.5467 102.043C98.7292 103.351 97.7254 103.686 96.8434 103.503C95.2314 103.138 93.4369 102.804 92.1595 101.861C90.2434 100.462 88.5401 98.6064 88.5705 95.4128Z" fill="white" fill-opacity="0.13"/>
<path d="M111.261 170.264C111.139 172.697 109.557 173.001 108.067 172.94C105.056 172.819 101.528 174.035 99.3684 169.808C101.771 170.142 103.779 170.568 105.816 170.659C107.58 170.72 109.375 170.416 111.261 170.264Z" fill="white" fill-opacity="0.13"/>
<path d="M111.565 158.098C114.424 160.257 116.036 164.181 120.142 164.272C119.898 166.158 118.682 166.371 117.678 166.006C114.424 164.82 111.991 162.63 110.804 159.284C110.744 159.071 111.169 158.706 111.565 158.098Z" fill="white" fill-opacity="0.13"/>
<path d="M79.3544 163.42C79.5673 165.093 78.6245 165.732 77.4383 165.61C73.6669 165.245 70.7774 163.664 69.7433 159.193C72.2069 159.254 72.5719 161.808 74.1839 162.295C75.8871 162.812 77.6512 163.055 79.3544 163.42Z" fill="white" fill-opacity="0.13"/>
<path d="M18.5556 73.9702C16.5787 73.3923 16.1528 71.9324 16.1528 70.442C16.1528 69.4079 16.3962 68.1001 17.0349 67.3398C17.8257 66.4273 19.1031 65.8799 20.2893 65.454C20.7455 65.2716 21.5058 65.8798 22.4183 66.2448C20.8975 67.583 19.3464 68.4043 18.6773 69.7121C18.1298 70.8071 18.5556 72.4494 18.5556 73.9702Z" fill="white" fill-opacity="0.13"/>
<path d="M133.068 154.539C134.588 155.756 135.835 156.729 137.052 157.702C138.208 157.185 139.211 156.76 140.702 156.121C140.702 157.033 140.915 157.733 140.671 158.25C140.063 159.497 138.907 160.318 137.539 160.105C136.504 159.953 135.501 159.345 134.588 158.737C133.615 158.067 133.463 157.459 133.068 154.539Z" fill="white" fill-opacity="0.13"/>
<path d="M20.5931 124.307C22.418 127.075 23.9995 129.477 25.7636 132.124C25.6724 132.184 25.2769 132.823 24.9424 132.793C22.8133 132.641 21.7184 130.998 20.7756 129.386C19.9848 127.957 19.0419 126.406 20.5931 124.307Z" fill="white" fill-opacity="0.13"/>
<path d="M37.4737 139.423C35.8617 140.944 35.4359 141.674 34.8884 141.826C33.246 142.282 32.0294 141.279 30.9345 140.244C29.4746 138.906 29.2921 138.267 29.2617 135.013C31.6036 136.99 32.8811 140.062 37.4737 139.423Z" fill="white" fill-opacity="0.13"/>
<path d="M28.6835 146.844C25.9158 148.274 24.5166 146.692 23.0871 145.749C21.4447 144.685 19.8327 143.438 19.7719 140.64C22.8134 142.769 25.4595 144.624 28.6835 146.844Z" fill="white" fill-opacity="0.13"/>
<path d="M100.95 160.653C99.277 162.995 97.0871 163.086 95.0493 163.147C93.3765 163.208 91.7341 162.63 90.1829 160.653C92.5249 160.774 94.3193 160.774 96.0834 160.987C97.665 161.17 98.8512 158.615 100.95 160.653Z" fill="white" fill-opacity="0.13"/>
<path d="M69.6225 90.881C73.4244 92.9796 76.1313 94.5004 78.7774 95.9603C78.7166 97.1769 78.0475 97.5418 77.2567 97.2377C74.3977 96.234 71.4778 95.2911 69.6225 90.881Z" fill="white" fill-opacity="0.13"/>
<path d="M117.678 179.267C117.191 180.818 116.218 180.757 115.305 180.514C112.477 179.723 110.5 177.928 109.01 174.948C109.983 174.887 110.652 174.644 110.926 174.857C112.142 175.739 113.176 176.894 114.393 177.716C115.397 178.385 116.583 178.78 117.678 179.267Z" fill="white" fill-opacity="0.13"/>
<path d="M133.645 169.656C136.565 168.044 138.694 170.325 141.066 170.203C141.583 171.511 141.066 171.937 140.215 171.998C137.721 172.18 135.774 170.75 133.645 169.656Z" fill="white" fill-opacity="0.13"/>
<path d="M82.7008 154.357C79.051 156.455 76.7699 154.387 74.215 152.258C76.1312 150.92 77.3173 152.319 78.5947 152.745C80.0242 153.201 81.3625 153.809 82.7008 154.357Z" fill="white" fill-opacity="0.13"/>
<path d="M53.8062 82.517C53.5629 79.0497 55.5702 78.2285 57.3039 77.2856C58.2467 76.7686 59.433 76.2515 60.2846 78.1372C58.4293 79.3842 56.5131 80.6921 53.8062 82.517Z" fill="white" fill-opacity="0.13"/>
<path d="M144.078 160.927C147.576 162.295 150.435 161.231 153.294 162.417C150.1 164.941 148.063 164.698 144.078 160.927Z" fill="white" fill-opacity="0.13"/>
<path d="M18.4336 118.194C16.1525 119.927 14.3276 121.357 12.1377 123.03C11.7423 120.292 12.9589 118.863 14.6926 117.707C15.6963 117.038 16.2741 117.099 18.4336 118.194Z" fill="white" fill-opacity="0.13"/>
<path d="M54.0192 157.611C57.0911 158.554 59.1289 159.193 61.1667 159.832C60.8322 161.687 59.646 161.352 58.6119 161.2C56.8174 160.957 54.9925 160.714 54.0192 157.611Z" fill="white" fill-opacity="0.13"/>
<path d="M45.5333 152.958C44.4992 154.996 43.1914 154.6 41.9748 154.266C39.6633 153.627 37.5646 152.654 36.4697 149.065C38.4467 150.312 39.5112 151.194 40.7886 151.741C42.1269 152.258 43.6172 152.471 45.5333 152.958Z" fill="white" fill-opacity="0.13"/>
<path d="M11.7124 130.116C14.2368 131.88 16.0617 133.127 17.8257 134.344C17.9778 135.834 17.0654 136.017 16.1225 135.713C13.7806 134.952 11.7124 133.857 11.7124 130.116Z" fill="white" fill-opacity="0.13"/>
<path d="M116.492 186.445C114.88 188.178 114.15 191.25 109.709 190.703C112.477 188.695 113.389 186.08 116.492 186.445Z" fill="white" fill-opacity="0.13"/>
<path d="M75.2795 84.5243C74.4583 85.1934 73.7284 86.1058 72.7855 86.5012C71.3864 87.1399 69.8352 87.444 68.0712 87.9915C67.8279 86.2579 68.3449 84.8588 69.9569 84.585C71.7209 84.2809 73.5763 84.6155 75.4012 84.6459L75.2795 84.5243Z" fill="white" fill-opacity="0.13"/>
<path d="M58.7032 87.6874C60.6194 89.421 62.1705 90.8201 64.1779 92.645C63.0526 93.0708 62.3226 93.6487 61.8968 93.4662C59.494 92.4321 59.1899 91.8238 58.7032 87.6874Z" fill="white" fill-opacity="0.13"/>
<path d="M42.5527 82.1822C43.1306 77.8025 43.9822 77.2853 47.6624 78.5932C46.0808 79.6881 44.6209 80.7223 42.5527 82.1822Z" fill="white" fill-opacity="0.13"/>
<path d="M120.08 128.839C117.89 127.592 116.309 126.953 115.457 125.006C119.563 125.402 119.563 125.402 120.08 128.839Z" fill="white" fill-opacity="0.13"/>
<path d="M111.96 135.348C114.758 135.956 116.492 136.351 117.647 138.146C114.667 138.967 114.667 138.967 111.96 135.348Z" fill="white" fill-opacity="0.13"/>
<path d="M75.3096 170.903C77.1345 173.944 76.5262 174.674 72.2681 175.069C72.5418 173.214 74.3363 172.667 75.3096 170.903Z" fill="white" fill-opacity="0.13"/>
<path d="M105.694 107.731C106.546 103.747 108.675 103.442 110.591 102.895C110.195 105.298 108.31 105.997 105.694 107.731Z" fill="white" fill-opacity="0.13"/>
<path d="M57.8515 167.374C60.2543 166.462 61.7446 165.854 63.6303 167.101C61.9575 168.895 60.4368 168.804 57.8515 167.374Z" fill="white" fill-opacity="0.13"/>
<path d="M109.131 146.449C110.56 147.392 111.473 147.939 112.294 148.548C112.446 148.669 112.416 149.278 112.264 149.49C112.081 149.734 111.625 149.916 111.351 149.856C110.013 149.643 109.009 149.034 109.131 146.449Z" fill="white" fill-opacity="0.13"/>
<path d="M132.703 140.579C135.532 140.397 135.897 140.822 135.106 144.138C133.828 143.134 132.885 142.161 132.703 140.579Z" fill="white" fill-opacity="0.13"/>
<path d="M62.9309 151.771C62.9309 149.886 62.8093 149.034 62.9917 148.274C63.0526 147.939 63.7521 147.757 64.1779 147.513C64.4212 147.97 64.9383 148.517 64.8166 148.821C64.5429 149.582 63.965 150.22 62.9309 151.771Z" fill="white" fill-opacity="0.13"/>
<path d="M204.969 122.391C204.664 124.337 203.691 124.854 202.505 124.581C200.102 124.033 198.095 122.817 196.878 120.596C196.757 120.383 197 119.927 197.152 119.319C198.794 119.167 199.463 120.84 200.68 121.326C201.988 121.783 203.417 121.995 204.969 122.391Z" fill="white" fill-opacity="0.13"/>
<path d="M198.855 109.221C200.163 109.829 201.41 110.62 202.779 111.016C203.935 111.35 205.182 111.229 206.611 111.35C205.973 113.297 204.726 113.601 203.387 113.479C201.015 113.266 199.95 112.476 198.855 109.221Z" fill="white" fill-opacity="0.13"/>
<path d="M218.473 113.054C216.679 114.422 214.823 115.791 212.877 117.251C212.786 114.453 213.394 113.206 215.736 112.111C216.679 111.654 217.926 111.259 218.473 113.054Z" fill="white" fill-opacity="0.13"/>
<path d="M205.121 136.625C201.714 138.937 201.41 138.876 197.852 135.621C200.315 135.104 202.201 136.017 205.121 136.625Z" fill="white" fill-opacity="0.13"/>
<path d="M193.38 104.233C191.403 103.229 189.822 102.438 187.875 101.465C188.544 101.039 189.092 100.37 189.609 100.401C190.856 100.461 192.255 100.583 193.32 101.131C194.567 101.8 194.141 102.986 193.38 104.233Z" fill="white" fill-opacity="0.13"/>
<path d="M193.593 132.337C191.525 133.127 190.035 133.675 188.636 134.192C187.51 133.249 187.845 132.428 188.636 131.819C190.004 130.724 191.464 130.299 193.593 132.337Z" fill="white" fill-opacity="0.13"/>
<path d="M190.582 117.433C188.666 118.042 187.906 118.407 187.084 118.498C186.476 118.559 185.837 118.315 184.834 118.133C186.355 116.308 187.693 115.973 190.582 117.433Z" fill="white" fill-opacity="0.13"/>
<path d="M204.117 132.975C205.242 131.454 205.607 130.633 206.216 130.177C207.067 129.538 208.223 129.751 208.649 130.664C209.196 131.819 208.193 132.306 207.219 132.519C206.672 132.671 206.125 132.701 204.117 132.975Z" fill="white" fill-opacity="0.13"/>
<path d="M188.028 123.729C188.301 123.486 188.514 123.121 188.788 123.09C189.822 122.999 191.039 122.543 191.677 123.851C191.769 124.033 191.464 124.611 191.221 124.733C190.065 125.341 190.035 125.311 188.028 123.729Z" fill="white" fill-opacity="0.13"/>
<path d="M199.98 17.3681C201.471 19.7709 199.555 22.1432 200.133 25.0935C200.984 25.9147 202.292 26.9792 203.417 28.2263C205.242 30.2336 205.516 32.4235 204.299 33.8834C202.961 35.5258 199.281 36.1949 197.517 34.8567C194.719 32.7885 192.255 30.264 195.449 26.4317C197.121 24.4244 197.638 22.1128 197.973 19.6492C198.156 18.4022 198.733 17.5202 200.102 17.4593L199.98 17.3681ZM200.497 32.2714C200.771 32.0281 201.471 31.7239 201.775 31.1765C201.957 30.8723 201.653 30.0816 201.319 29.747C200.68 29.1387 199.889 28.6216 199.068 28.2263C198.308 27.8613 197.213 29.017 197.426 29.899C197.76 31.2677 198.521 32.1802 200.497 32.2714Z" fill="white" fill-opacity="0.13"/>
<path d="M179.511 52.8317C180.302 52.3754 181.093 51.7976 181.944 51.4631C184.621 50.4289 187.176 51.5239 188.301 54.1396C189.001 55.7212 188.484 57.4852 186.993 58.5497C185.746 59.4621 184.195 59.4013 182.857 58.3672C181.002 56.9073 180.332 54.7782 179.633 52.6492L179.511 52.8317Z" fill="white" fill-opacity="0.13"/>
<path d="M145.112 33.7922C144.047 33.5792 142.891 33.5489 141.888 33.1231C139.576 32.1498 138.208 29.0779 139.029 27.1313C140.306 24.0898 143.621 22.6603 146.359 24.0594C149.978 25.9147 150.221 28.0133 149.796 31.4806C149.735 32.0585 149.005 32.8189 148.427 33.0622C147.393 33.4576 146.268 33.5488 145.112 33.7922ZM144.595 26.6447C143.256 26.6447 142.07 27.8612 142.192 29.1387C142.344 30.3553 143.53 31.1765 145.081 31.0852C146.359 31.0244 147.241 30.1424 147.18 28.9866C147.15 27.7396 145.933 26.6751 144.595 26.6447Z" fill="white" fill-opacity="0.13"/>
<path d="M159.316 17.5506C158.464 16.3036 157.582 15.1175 156.822 13.8096C155.453 11.4981 157.977 8.57823 160.015 8.33491C164.425 7.81786 168.106 11.8326 167.102 16.182C166.828 17.3986 165.612 18.4327 164.152 18.311C162.479 18.1589 160.836 17.7027 159.164 17.3985L159.316 17.5506ZM161.262 11.346C161.019 11.711 160.471 12.2584 160.441 12.8059C160.38 14.2658 161.232 15.2695 162.601 15.6041C162.996 15.6953 163.787 15.3608 163.939 15.0262C164.638 13.3838 163.483 11.6197 161.262 11.346Z" fill="white" fill-opacity="0.13"/>
<path d="M159.194 17.3984C158.981 18.8887 160.745 20.7441 158.221 21.9606C157.247 20.9874 156.304 19.8924 155.179 19.0104C154.297 18.3109 152.442 18.8584 152.381 19.8621C152.35 20.6528 152.746 21.6869 153.324 22.204C153.962 22.7514 154.996 22.9035 155.909 23.0556C156.426 23.1468 157.034 22.8731 157.582 22.9036C158.099 22.934 158.646 23.1165 159.68 23.3294C159.163 24.0897 158.95 24.8805 158.464 25.063C155.574 26.1579 152.898 25.5801 150.526 23.6639C148.761 22.2344 148.305 20.1053 149.248 18.0675C149.978 16.486 152.046 15.3302 153.993 15.756C155.818 16.1514 157.551 16.9422 159.346 17.5505L159.194 17.3984Z" fill="white" fill-opacity="0.13"/>
<path d="M224.647 39.0539C224.739 42.1866 223.552 43.5553 221.332 44.0724C218.868 44.6503 216.648 43.7074 215.705 41.6087C214.762 39.5709 215.219 36.9248 216.831 36.0732C218.564 35.1607 220.45 35.0999 222.184 36.134C223.674 37.0161 224.617 38.3848 224.647 39.0539ZM221.362 40.8788C221.423 39.4188 220.389 38.2327 219.416 38.5672C219.021 38.7193 218.595 39.3276 218.564 39.7534C218.473 40.8179 219.173 41.4871 220.207 41.5479C220.633 41.5783 221.058 41.0917 221.362 40.8788Z" fill="white" fill-opacity="0.13"/>
<path d="M217.591 54.3831C217.53 56.4818 215.37 58.3371 212.968 58.3675C210.443 58.3675 208.466 56.1776 208.649 53.5923C208.801 51.4329 211.295 49.5167 213.91 49.5167C215.796 49.5167 217.652 51.9804 217.591 54.3831ZM214.58 54.2006C213.911 53.6532 213.546 53.3186 213.15 52.9841C212.755 53.4403 212.238 53.8661 212.055 54.4136C211.994 54.6569 212.785 55.4781 212.968 55.4172C213.515 55.2043 213.971 54.6873 214.58 54.2006Z" fill="white" fill-opacity="0.13"/>
<path d="M231.795 91.8542C231.764 89.8164 232.403 88.7214 233.802 88.2956C235.475 87.7786 237.209 88.4477 238.121 89.9988C238.212 90.1509 238.273 90.3335 238.364 90.5159C239.368 92.5537 239.307 94.5611 238.151 95.7169C237.117 96.751 235.87 96.751 234.562 96.1731C232.464 95.1998 231.825 94.3178 231.795 91.8542Z" fill="white" fill-opacity="0.13"/>
</svg>
