<svg width="58" height="58" viewBox="0 0 58 58" fill="none" xmlns="http://www.w3.org/2000/svg">
<rect x="58" y="58" width="58" height="58" rx="29" transform="rotate(180 58 58)" fill="url(#paint0_linear_2_520)"/>
<g clip-path="url(#clip0_2_520)">
<path fill-rule="evenodd" clip-rule="evenodd" d="M-26.0625 28.5C-26.0625 28.7569 -25.9604 29.0033 -25.7788 29.185C-25.5971 29.3667 -25.3507 29.4688 -25.0938 29.4688L37.7552 29.4687L31.6579 35.5641C31.5678 35.6542 31.4963 35.7611 31.4476 35.8788C31.3989 35.9965 31.3738 36.1226 31.3738 36.25C31.3738 36.3774 31.3989 36.5035 31.4476 36.6212C31.4963 36.7389 31.5678 36.8458 31.6579 36.9359C31.7479 37.0259 31.8549 37.0974 31.9725 37.1461C32.0902 37.1949 32.2164 37.22 32.3437 37.22C32.4711 37.22 32.5973 37.1949 32.7149 37.1461C32.8326 37.0974 32.9395 37.0259 33.0296 36.9359L40.7796 29.1859C40.8698 29.0959 40.9414 28.989 40.9902 28.8713C41.0391 28.7536 41.0642 28.6274 41.0642 28.5C41.0642 28.3726 41.0391 28.2464 40.9902 28.1287C40.9414 28.011 40.8698 27.9041 40.7796 27.8141L33.0296 20.0641C32.9395 19.974 32.8326 19.9026 32.7149 19.8539C32.5973 19.8051 32.4711 19.78 32.3437 19.78C32.2164 19.78 32.0902 19.8051 31.9725 19.8539C31.8549 19.9026 31.7479 19.974 31.6579 20.0641C31.5678 20.1542 31.4963 20.2611 31.4476 20.3788C31.3989 20.4965 31.3738 20.6226 31.3738 20.75C31.3738 20.8774 31.3989 21.0035 31.4476 21.1212C31.4963 21.2389 31.5678 21.3458 31.6579 21.4359L37.7552 27.5312L-25.0938 27.5313C-25.3507 27.5313 -25.5971 27.6333 -25.7788 27.815C-25.9604 27.9967 -26.0625 28.2431 -26.0625 28.5Z" fill="white"/>
</g>
<defs>
<linearGradient id="paint0_linear_2_520" x1="-24.4797" y1="89.3455" x2="132.245" y2="173.284" gradientUnits="userSpaceOnUse">
<stop stop-color="#AF7912"/>
<stop offset="0.0193" stop-color="#AD7712"/>
<stop offset="0.1826" stop-color="#A26914"/>
<stop offset="0.3236" stop-color="#9E6414"/>
<stop offset="0.389" stop-color="#A36C19"/>
<stop offset="0.4886" stop-color="#B28126"/>
<stop offset="0.6092" stop-color="#C9A33B"/>
<stop offset="0.707" stop-color="#E0C44F"/>
<stop offset="0.8" stop-color="#DEC14D"/>
<stop offset="0.8661" stop-color="#D8B847"/>
<stop offset="0.924" stop-color="#CEA83C"/>
<stop offset="0.9768" stop-color="#BF922D"/>
<stop offset="1" stop-color="#B78624"/>
</linearGradient>
<clipPath id="clip0_2_520">
<rect width="27" height="31" fill="white" transform="translate(43 44) rotate(180)"/>
</clipPath>
</defs>
</svg>
