<svg width="58" height="58" viewBox="0 0 58 58" fill="none" xmlns="http://www.w3.org/2000/svg">
<rect width="58" height="58" rx="29" fill="url(#paint0_linear_2_525)"/>
<g clip-path="url(#clip0_2_525)">
<path fill-rule="evenodd" clip-rule="evenodd" d="M84.0625 29.5C84.0625 29.2431 83.9604 28.9967 83.7788 28.815C83.5971 28.6333 83.3507 28.5313 83.0938 28.5313L20.2448 28.5313L26.3421 22.4359C26.4322 22.3458 26.5037 22.2389 26.5524 22.1212C26.6011 22.0035 26.6262 21.8774 26.6262 21.75C26.6262 21.6226 26.6011 21.4965 26.5524 21.3788C26.5037 21.2611 26.4322 21.1542 26.3421 21.0641C26.2521 20.9741 26.1451 20.9026 26.0275 20.8539C25.9098 20.8051 25.7836 20.78 25.6563 20.78C25.5289 20.78 25.4027 20.8051 25.2851 20.8539C25.1674 20.9026 25.0605 20.9741 24.9704 21.0641L17.2204 28.8141C17.1302 28.9041 17.0586 29.011 17.0098 29.1287C16.9609 29.2464 16.9358 29.3726 16.9358 29.5C16.9358 29.6274 16.9609 29.7536 17.0098 29.8713C17.0586 29.989 17.1302 30.0959 17.2204 30.1859L24.9704 37.9359C25.0605 38.026 25.1674 38.0974 25.2851 38.1461C25.4027 38.1949 25.5289 38.22 25.6563 38.22C25.7836 38.22 25.9098 38.1949 26.0275 38.1461C26.1451 38.0974 26.2521 38.026 26.3421 37.9359C26.4322 37.8458 26.5037 37.7389 26.5524 37.6212C26.6011 37.5035 26.6262 37.3774 26.6262 37.25C26.6262 37.1226 26.6011 36.9965 26.5524 36.8788C26.5037 36.7611 26.4322 36.6542 26.3421 36.5641L20.2448 30.4688L83.0938 30.4688C83.3507 30.4688 83.5971 30.3667 83.7788 30.185C83.9604 30.0033 84.0625 29.7569 84.0625 29.5Z" fill="white"/>
</g>
<defs>
<linearGradient id="paint0_linear_2_525" x1="-82.4797" y1="31.3455" x2="74.2446" y2="115.284" gradientUnits="userSpaceOnUse">
<stop stop-color="#AF7912"/>
<stop offset="0.0193" stop-color="#AD7712"/>
<stop offset="0.1826" stop-color="#A26914"/>
<stop offset="0.3236" stop-color="#9E6414"/>
<stop offset="0.389" stop-color="#A36C19"/>
<stop offset="0.4886" stop-color="#B28126"/>
<stop offset="0.6092" stop-color="#C9A33B"/>
<stop offset="0.707" stop-color="#E0C44F"/>
<stop offset="0.8" stop-color="#DEC14D"/>
<stop offset="0.8661" stop-color="#D8B847"/>
<stop offset="0.924" stop-color="#CEA83C"/>
<stop offset="0.9768" stop-color="#BF922D"/>
<stop offset="1" stop-color="#B78624"/>
</linearGradient>
<clipPath id="clip0_2_525">
<rect width="27" height="31" fill="white" transform="translate(15 14)"/>
</clipPath>
</defs>
</svg>
